solid 
facet normal -1.0 1.1102230246251565e-16 1.957622738451735e-17
outer loop
vertex -0.39999999999999997 0.5 -3.061616997868383e-17
vertex -0.4 2.4492935982947065e-17 -1.4997597826618578e-33
vertex -0.39999999999999997 0.4698463103929542 0.17101007166283433
endloop
endfacet
facet normal 0.0 0.9848077530122081 0.17364817766693025
outer loop
vertex -0.39999999999999997 0.5 -3.061616997868383e-17
vertex -0.39999999999999997 0.4698463103929542 0.17101007166283433
vertex 0.4000000000000001 0.5 -3.061616997868383e-17
endloop
endfacet
facet normal -0.0 0.9848077530122081 0.17364817766693025
outer loop
vertex 0.4000000000000001 0.5 -3.061616997868383e-17
vertex -0.39999999999999997 0.4698463103929542 0.17101007166283433
vertex 0.4000000000000001 0.4698463103929542 0.17101007166283433
endloop
endfacet
facet normal 1.0 -1.1102230246251565e-16 -1.957622738451735e-17
outer loop
vertex 0.4000000000000001 0.5 -3.061616997868383e-17
vertex 0.4000000000000001 0.4698463103929542 0.17101007166283433
vertex 0.4 -2.4492935982947065e-17 1.4997597826618578e-33
endloop
endfacet
facet normal -1.0 2.086536767333743e-16 -2.4866376885498974e-16
outer loop
vertex -0.39999999999999997 0.4698463103929542 0.17101007166283433
vertex -0.4 2.4492935982947065e-17 -1.4997597826618578e-33
vertex -0.4 0.383022221559489 0.3213938048432696
endloop
endfacet
facet normal 0.0 0.8660254037844384 0.5000000000000002
outer loop
vertex -0.39999999999999997 0.4698463103929542 0.17101007166283433
vertex -0.4 0.383022221559489 0.3213938048432696
vertex 0.4000000000000001 0.4698463103929542 0.17101007166283433
endloop
endfacet
facet normal -0.0 0.8660254037844385 0.5000000000000002
outer loop
vertex 0.4000000000000001 0.4698463103929542 0.17101007166283433
vertex -0.4 0.383022221559489 0.3213938048432696
vertex 0.4 0.383022221559489 0.3213938048432696
endloop
endfacet
facet normal 0.9999999999999999 -2.0865367673337423e-16 2.486637688549897e-16
outer loop
vertex 0.4000000000000001 0.4698463103929542 0.17101007166283433
vertex 0.4 0.383022221559489 0.3213938048432696
vertex 0.4 -2.4492935982947065e-17 1.4997597826618578e-33
endloop
endfacet
facet normal -1.0 -0.0 0.0
outer loop
vertex -0.4 0.383022221559489 0.3213938048432696
vertex -0.4 2.4492935982947065e-17 -1.4997597826618578e-33
vertex -0.4 0.25000000000000006 0.4330127018922193
endloop
endfacet
facet normal 0.0 0.6427876096865397 0.7660444431189779
outer loop
vertex -0.4 0.383022221559489 0.3213938048432696
vertex -0.4 0.25000000000000006 0.4330127018922193
vertex 0.4 0.383022221559489 0.3213938048432696
endloop
endfacet
facet normal -0.0 0.6427876096865397 0.7660444431189779
outer loop
vertex 0.4 0.383022221559489 0.3213938048432696
vertex -0.4 0.25000000000000006 0.4330127018922193
vertex 0.4 0.25000000000000006 0.4330127018922193
endloop
endfacet
facet normal 1.0 0.0 0.0
outer loop
vertex 0.4 0.383022221559489 0.3213938048432696
vertex 0.4 0.25000000000000006 0.4330127018922193
vertex 0.4 -2.4492935982947065e-17 1.4997597826618578e-33
endloop
endfacet
facet normal -0.9999999999999999 -0.0 0.0
outer loop
vertex -0.4 0.25000000000000006 0.4330127018922193
vertex -0.4 2.4492935982947065e-17 -1.4997597826618578e-33
vertex -0.4 0.08682408883346526 0.492403876506104
endloop
endfacet
facet normal 0.0 0.3420201433256688 0.9396926207859084
outer loop
vertex -0.4 0.25000000000000006 0.4330127018922193
vertex -0.4 0.08682408883346526 0.492403876506104
vertex 0.4 0.25000000000000006 0.4330127018922193
endloop
endfacet
facet normal 2.3732414875359588e-17 0.3420201433256687 0.9396926207859084
outer loop
vertex 0.4 0.25000000000000006 0.4330127018922193
vertex -0.4 0.08682408883346526 0.492403876506104
vertex 0.4 0.08682408883346521 0.492403876506104
endloop
endfacet
facet normal 0.9999999999999999 0.0 0.0
outer loop
vertex 0.4 0.25000000000000006 0.4330127018922193
vertex 0.4 0.08682408883346521 0.492403876506104
vertex 0.4 -2.4492935982947065e-17 1.4997597826618578e-33
endloop
endfacet
facet normal -0.9999999999999999 -0.0 0.0
outer loop
vertex -0.4 0.08682408883346526 0.492403876506104
vertex -0.4 2.4492935982947065e-17 -1.4997597826618578e-33
vertex -0.4 -0.0868240888334651 0.492403876506104
endloop
endfacet
facet normal -0.0 0.0 0.9999999999999999
outer loop
vertex -0.4 0.08682408883346526 0.492403876506104
vertex -0.4 -0.0868240888334651 0.492403876506104
vertex 0.4 0.08682408883346521 0.492403876506104
endloop
endfacet
facet normal 0.0 0.0 0.9999999999999999
outer loop
vertex 0.4 0.08682408883346521 0.492403876506104
vertex -0.4 -0.0868240888334651 0.492403876506104
vertex 0.4 -0.08682408883346515 0.492403876506104
endloop
endfacet
facet normal 1.0 0.0 0.0
outer loop
vertex 0.4 0.08682408883346521 0.492403876506104
vertex 0.4 -0.08682408883346515 0.492403876506104
vertex 0.4 -2.4492935982947065e-17 1.4997597826618578e-33
endloop
endfacet
facet normal -1.0 -0.0 -0.0
outer loop
vertex -0.4 -0.0868240888334651 0.492403876506104
vertex -0.4 2.4492935982947065e-17 -1.4997597826618578e-33
vertex -0.4 -0.24999999999999983 0.43301270189221935
endloop
endfacet
facet normal -2.4974685874678913e-17 -0.34202014332566866 0.9396926207859083
outer loop
vertex -0.4 -0.0868240888334651 0.492403876506104
vertex -0.4 -0.24999999999999983 0.43301270189221935
vertex 0.4 -0.08682408883346515 0.492403876506104
endloop
endfacet
facet normal -2.3732414875359585e-17 -0.34202014332566866 0.9396926207859083
outer loop
vertex 0.4 -0.08682408883346515 0.492403876506104
vertex -0.4 -0.24999999999999983 0.43301270189221935
vertex 0.4 -0.2499999999999999 0.43301270189221935
endloop
endfacet
facet normal 1.0 0.0 0.0
outer loop
vertex 0.4 -0.08682408883346515 0.492403876506104
vertex 0.4 -0.2499999999999999 0.43301270189221935
vertex 0.4 -2.4492935982947065e-17 1.4997597826618578e-33
endloop
endfacet
facet normal -1.0 -0.0 -0.0
outer loop
vertex -0.4 -0.24999999999999983 0.43301270189221935
vertex -0.4 2.4492935982947065e-17 -1.4997597826618578e-33
vertex -0.4 -0.38302222155948895 0.32139380484326974
endloop
endfacet
facet normal -3.7462028812018335e-17 -0.6427876096865388 0.7660444431189782
outer loop
vertex -0.4 -0.24999999999999983 0.43301270189221935
vertex -0.4 -0.38302222155948895 0.32139380484326974
vertex 0.4 -0.2499999999999999 0.43301270189221935
endloop
endfacet
facet normal 0.0 -0.642787609686539 0.7660444431189782
outer loop
vertex 0.4 -0.2499999999999999 0.43301270189221935
vertex -0.4 -0.38302222155948895 0.32139380484326974
vertex 0.4 -0.38302222155948895 0.32139380484326974
endloop
endfacet
facet normal 0.9999999999999999 0.0 0.0
outer loop
vertex 0.4 -0.2499999999999999 0.43301270189221935
vertex 0.4 -0.38302222155948895 0.32139380484326974
vertex 0.4 -2.4492935982947065e-17 1.4997597826618578e-33
endloop
endfacet
facet normal -1.0 2.086536767333744e-16 2.4866376885498974e-16
outer loop
vertex -0.4 -0.38302222155948895 0.32139380484326974
vertex -0.4 2.4492935982947065e-17 -1.4997597826618578e-33
vertex -0.4000000000000001 -0.46984631039295416 0.17101007166283447
endloop
endfacet
facet normal 0.0 -0.8660254037844385 0.5000000000000003
outer loop
vertex -0.4 -0.38302222155948895 0.32139380484326974
vertex -0.4000000000000001 -0.46984631039295416 0.17101007166283447
vertex 0.4 -0.38302222155948895 0.32139380484326974
endloop
endfacet
facet normal 0.0 -0.8660254037844384 0.5000000000000002
outer loop
vertex 0.4 -0.38302222155948895 0.32139380484326974
vertex -0.4000000000000001 -0.46984631039295416 0.17101007166283447
vertex 0.39999999999999997 -0.46984631039295416 0.17101007166283447
endloop
endfacet
facet normal 1.0 -2.0865367673337437e-16 -2.4866376885498974e-16
outer loop
vertex 0.4 -0.38302222155948895 0.32139380484326974
vertex 0.39999999999999997 -0.46984631039295416 0.17101007166283447
vertex 0.4 -2.4492935982947065e-17 1.4997597826618578e-33
endloop
endfacet
facet normal -0.9999999999999999 1.1102230246251564e-16 -1.957622738451738e-17
outer loop
vertex -0.4000000000000001 -0.46984631039295416 0.17101007166283447
vertex -0.4 2.4492935982947065e-17 -1.4997597826618578e-33
vertex -0.4000000000000001 -0.5 9.184850993605148e-17
endloop
endfacet
facet normal 0.0 -0.984807753012208 0.17364817766693053
outer loop
vertex -0.4000000000000001 -0.46984631039295416 0.17101007166283447
vertex -0.4000000000000001 -0.5 9.184850993605148e-17
vertex 0.39999999999999997 -0.46984631039295416 0.17101007166283447
endloop
endfacet
facet normal 0.0 -0.984807753012208 0.17364817766693053
outer loop
vertex 0.39999999999999997 -0.46984631039295416 0.17101007166283447
vertex -0.4000000000000001 -0.5 9.184850993605148e-17
vertex 0.39999999999999997 -0.5 9.184850993605148e-17
endloop
endfacet
facet normal 0.9999999999999999 -1.1102230246251564e-16 1.957622738451738e-17
outer loop
vertex 0.39999999999999997 -0.46984631039295416 0.17101007166283447
vertex 0.39999999999999997 -0.5 9.184850993605148e-17
vertex 0.4 -2.4492935982947065e-17 1.4997597826618578e-33
endloop
endfacet
facet normal -0.9999999999999999 1.1102230246251564e-16 1.9576227384517343e-17
outer loop
vertex -0.4000000000000001 -0.5 9.184850993605148e-17
vertex -0.4 2.4492935982947065e-17 -1.4997597826618578e-33
vertex -0.4000000000000001 -0.4698463103929542 -0.1710100716628343
endloop
endfacet
facet normal 0.0 -0.9848077530122081 -0.17364817766693022
outer loop
vertex -0.4000000000000001 -0.5 9.184850993605148e-17
vertex -0.4000000000000001 -0.4698463103929542 -0.1710100716628343
vertex 0.39999999999999997 -0.5 9.184850993605148e-17
endloop
endfacet
facet normal 0.0 -0.9848077530122081 -0.17364817766693022
outer loop
vertex 0.39999999999999997 -0.5 9.184850993605148e-17
vertex -0.4000000000000001 -0.4698463103929542 -0.1710100716628343
vertex 0.39999999999999997 -0.4698463103929542 -0.1710100716628343
endloop
endfacet
facet normal 0.9999999999999999 -1.1102230246251564e-16 -1.9576227384517343e-17
outer loop
vertex 0.39999999999999997 -0.5 9.184850993605148e-17
vertex 0.39999999999999997 -0.4698463103929542 -0.1710100716628343
vertex 0.4 -2.4492935982947065e-17 1.4997597826618578e-33
endloop
endfacet
facet normal -0.9999999999999999 2.0865367673337423e-16 -2.486637688549897e-16
outer loop
vertex -0.4000000000000001 -0.4698463103929542 -0.1710100716628343
vertex -0.4 2.4492935982947065e-17 -1.4997597826618578e-33
vertex -0.4 -0.383022221559489 -0.3213938048432696
endloop
endfacet
facet normal 0.0 -0.8660254037844385 -0.5
outer loop
vertex -0.4000000000000001 -0.4698463103929542 -0.1710100716628343
vertex -0.4 -0.383022221559489 -0.3213938048432696
vertex 0.39999999999999997 -0.4698463103929542 -0.1710100716628343
endloop
endfacet
facet normal 0.0 -0.8660254037844386 -0.5000000000000001
outer loop
vertex 0.39999999999999997 -0.4698463103929542 -0.1710100716628343
vertex -0.4 -0.383022221559489 -0.3213938048432696
vertex 0.4 -0.383022221559489 -0.3213938048432696
endloop
endfacet
facet normal 0.9999999999999999 -2.0865367673337423e-16 2.486637688549897e-16
outer loop
vertex 0.39999999999999997 -0.4698463103929542 -0.1710100716628343
vertex 0.4 -0.383022221559489 -0.3213938048432696
vertex 0.4 -2.4492935982947065e-17 1.4997597826618578e-33
endloop
endfacet
facet normal -1.0 0.0 -0.0
outer loop
vertex -0.4 -0.383022221559489 -0.3213938048432696
vertex -0.4 2.4492935982947065e-17 -1.4997597826618578e-33
vertex -0.4 -0.2500000000000002 -0.4330127018922192
endloop
endfacet
facet normal 0.0 -0.6427876096865396 -0.7660444431189778
outer loop
vertex -0.4 -0.383022221559489 -0.3213938048432696
vertex -0.4 -0.2500000000000002 -0.4330127018922192
vertex 0.4 -0.383022221559489 -0.3213938048432696
endloop
endfacet
facet normal 0.0 -0.6427876096865396 -0.7660444431189778
outer loop
vertex 0.4 -0.383022221559489 -0.3213938048432696
vertex -0.4 -0.2500000000000002 -0.4330127018922192
vertex 0.4 -0.2500000000000002 -0.4330127018922192
endloop
endfacet
facet normal 1.0 -0.0 0.0
outer loop
vertex 0.4 -0.383022221559489 -0.3213938048432696
vertex 0.4 -0.2500000000000002 -0.4330127018922192
vertex 0.4 -2.4492935982947065e-17 1.4997597826618578e-33
endloop
endfacet
facet normal -1.0 0.0 -0.0
outer loop
vertex -0.4 -0.2500000000000002 -0.4330127018922192
vertex -0.4 2.4492935982947065e-17 -1.4997597826618578e-33
vertex -0.4 -0.08682408883346517 -0.492403876506104
endloop
endfacet
facet normal 0.0 -0.3420201433256689 -0.9396926207859084
outer loop
vertex -0.4 -0.2500000000000002 -0.4330127018922192
vertex -0.4 -0.08682408883346517 -0.492403876506104
vertex 0.4 -0.2500000000000002 -0.4330127018922192
endloop
endfacet
facet normal -2.373241487535961e-17 -0.342020143325669 -0.9396926207859083
outer loop
vertex 0.4 -0.2500000000000002 -0.4330127018922192
vertex -0.4 -0.08682408883346517 -0.492403876506104
vertex 0.4 -0.08682408883346522 -0.492403876506104
endloop
endfacet
facet normal 1.0 -0.0 0.0
outer loop
vertex 0.4 -0.2500000000000002 -0.4330127018922192
vertex 0.4 -0.08682408883346522 -0.492403876506104
vertex 0.4 -2.4492935982947065e-17 1.4997597826618578e-33
endloop
endfacet
facet normal -1.0 0.0 0.0
outer loop
vertex -0.4 -0.08682408883346517 -0.492403876506104
vertex -0.4 2.4492935982947065e-17 -1.4997597826618578e-33
vertex -0.4 0.08682408883346499 -0.49240387650610407
endloop
endfacet
facet normal -2.218197703267937e-32 -3.196759791958903e-16 -1.0
outer loop
vertex -0.4 -0.08682408883346517 -0.492403876506104
vertex -0.4 0.08682408883346499 -0.49240387650610407
vertex 0.4 -0.08682408883346522 -0.492403876506104
endloop
endfacet
facet normal -2.2181977032679376e-32 -3.196759791958904e-16 -1.0
outer loop
vertex 0.4 -0.08682408883346522 -0.492403876506104
vertex -0.4 0.08682408883346499 -0.49240387650610407
vertex 0.4 0.08682408883346493 -0.49240387650610407
endloop
endfacet
facet normal 1.0 -0.0 -0.0
outer loop
vertex 0.4 -0.08682408883346522 -0.492403876506104
vertex 0.4 0.08682408883346493 -0.49240387650610407
vertex 0.4 -2.4492935982947065e-17 1.4997597826618578e-33
endloop
endfacet
facet normal -1.0 0.0 0.0
outer loop
vertex -0.4 0.08682408883346499 -0.49240387650610407
vertex -0.4 2.4492935982947065e-17 -1.4997597826618578e-33
vertex -0.4 0.25000000000000006 -0.4330127018922193
endloop
endfacet
facet normal 2.4974685874678864e-17 0.34202014332566855 -0.9396926207859085
outer loop
vertex -0.4 0.08682408883346499 -0.49240387650610407
vertex -0.4 0.25000000000000006 -0.4330127018922193
vertex 0.4 0.08682408883346493 -0.49240387650610407
endloop
endfacet
facet normal 0.0 0.34202014332566855 -0.9396926207859085
outer loop
vertex 0.4 0.08682408883346493 -0.49240387650610407
vertex -0.4 0.25000000000000006 -0.4330127018922193
vertex 0.4 0.25000000000000006 -0.4330127018922193
endloop
endfacet
facet normal 1.0 0.0 -0.0
outer loop
vertex 0.4 0.08682408883346493 -0.49240387650610407
vertex 0.4 0.25000000000000006 -0.4330127018922193
vertex 0.4 -2.4492935982947065e-17 1.4997597826618578e-33
endloop
endfacet
facet normal -1.0 0.0 0.0
outer loop
vertex -0.4 0.25000000000000006 -0.4330127018922193
vertex -0.4 2.4492935982947065e-17 -1.4997597826618578e-33
vertex -0.4 0.3830222215594889 -0.3213938048432698
endloop
endfacet
facet normal 0.0 0.6427876096865394 -0.7660444431189781
outer loop
vertex -0.4 0.25000000000000006 -0.4330127018922193
vertex -0.4 0.3830222215594889 -0.3213938048432698
vertex 0.4 0.25000000000000006 -0.4330127018922193
endloop
endfacet
facet normal 0.0 0.6427876096865394 -0.7660444431189781
outer loop
vertex 0.4 0.25000000000000006 -0.4330127018922193
vertex -0.4 0.3830222215594889 -0.3213938048432698
vertex 0.4 0.3830222215594889 -0.3213938048432698
endloop
endfacet
facet normal 1.0 0.0 -0.0
outer loop
vertex 0.4 0.25000000000000006 -0.4330127018922193
vertex 0.4 0.3830222215594889 -0.3213938048432698
vertex 0.4 -2.4492935982947065e-17 1.4997597826618578e-33
endloop
endfacet
facet normal -1.0 2.0865367673337464e-16 2.4866376885499e-16
outer loop
vertex -0.4 0.3830222215594889 -0.3213938048432698
vertex -0.4 2.4492935982947065e-17 -1.4997597826618578e-33
vertex -0.39999999999999997 0.46984631039295405 -0.17101007166283475
endloop
endfacet
facet normal 0.0 0.8660254037844385 -0.5000000000000006
outer loop
vertex -0.4 0.3830222215594889 -0.3213938048432698
vertex -0.39999999999999997 0.46984631039295405 -0.17101007166283475
vertex 0.4 0.3830222215594889 -0.3213938048432698
endloop
endfacet
facet normal 0.0 0.8660254037844384 -0.5000000000000006
outer loop
vertex 0.4 0.3830222215594889 -0.3213938048432698
vertex -0.39999999999999997 0.46984631039295405 -0.17101007166283475
vertex 0.4000000000000001 0.46984631039295405 -0.17101007166283475
endloop
endfacet
facet normal 1.0 -2.0865367673337464e-16 -2.4866376885499e-16
outer loop
vertex 0.4 0.3830222215594889 -0.3213938048432698
vertex 0.4000000000000001 0.46984631039295405 -0.17101007166283475
vertex 0.4 -2.4492935982947065e-17 1.4997597826618578e-33
endloop
endfacet
facet normal -1.0 1.1102230246251565e-16 -1.9576227384517417e-17
outer loop
vertex -0.39999999999999997 0.46984631039295405 -0.17101007166283475
vertex -0.4 2.4492935982947065e-17 -1.4997597826618578e-33
vertex -0.39999999999999997 0.5 -3.061616997868383e-17
endloop
endfacet
facet normal 0.0 0.9848077530122079 -0.17364817766693083
outer loop
vertex -0.39999999999999997 0.46984631039295405 -0.17101007166283475
vertex -0.39999999999999997 0.5 -3.061616997868383e-17
vertex 0.4000000000000001 0.46984631039295405 -0.17101007166283475
endloop
endfacet
facet normal 0.0 0.9848077530122079 -0.17364817766693083
outer loop
vertex 0.4000000000000001 0.46984631039295405 -0.17101007166283475
vertex -0.39999999999999997 0.5 -3.061616997868383e-17
vertex 0.4000000000000001 0.5 -3.061616997868383e-17
endloop
endfacet
facet normal 1.0 -1.1102230246251565e-16 1.9576227384517417e-17
outer loop
vertex 0.4000000000000001 0.46984631039295405 -0.17101007166283475
vertex 0.4000000000000001 0.5 -3.061616997868383e-17
vertex 0.4 -2.4492935982947065e-17 1.4997597826618578e-33
endloop
endfacet
facet normal -0.0 -1.0 0.0
outer loop
vertex 0.4000000000000001 0.49 -0.00250000000000003
vertex 0.4000000000000001 0.49 0.00249999999999997
vertex -0.39999999999999997 0.49 -0.00250000000000003
endloop
endfacet
facet normal -0.0 -6.505213034913022e-17 -1.0
outer loop
vertex -0.39999999999999997 0.51 -0.0025000000000000313
vertex 0.4000000000000001 0.49 -0.00250000000000003
vertex -0.39999999999999997 0.49 -0.00250000000000003
endloop
endfacet
facet normal 0.0 -1.0 0.0
outer loop
vertex -0.39999999999999997 0.49 -0.00250000000000003
vertex 0.4000000000000001 0.49 0.00249999999999997
vertex -0.39999999999999997 0.49 0.00249999999999997
endloop
endfacet
facet normal -1.0 -0.0 -0.0
outer loop
vertex -0.39999999999999997 0.49 0.00249999999999997
vertex -0.39999999999999997 0.51 -0.0025000000000000313
vertex -0.39999999999999997 0.49 -0.00250000000000003
endloop
endfacet
facet normal 1.0 0.0 -0.0
outer loop
vertex 0.4000000000000001 0.49 -0.00250000000000003
vertex 0.4000000000000001 0.51 0.002499999999999969
vertex 0.4000000000000001 0.49 0.00249999999999997
endloop
endfacet
facet normal 0.0 -6.505213034913022e-17 -1.0
outer loop
vertex 0.4000000000000001 0.51 -0.0025000000000000313
vertex 0.4000000000000001 0.49 -0.00250000000000003
vertex -0.39999999999999997 0.51 -0.0025000000000000313
endloop
endfacet
facet normal 1.0 0.0 -0.0
outer loop
vertex 0.4000000000000001 0.51 -0.0025000000000000313
vertex 0.4000000000000001 0.51 0.002499999999999969
vertex 0.4000000000000001 0.49 -0.00250000000000003
endloop
endfacet
facet normal 0.0 6.505213034913022e-17 1.0
outer loop
vertex 0.4000000000000001 0.49 0.00249999999999997
vertex 0.4000000000000001 0.51 0.002499999999999969
vertex -0.39999999999999997 0.49 0.00249999999999997
endloop
endfacet
facet normal -1.0 -0.0 -0.0
outer loop
vertex -0.39999999999999997 0.51 0.002499999999999969
vertex -0.39999999999999997 0.51 -0.0025000000000000313
vertex -0.39999999999999997 0.49 0.00249999999999997
endloop
endfacet
facet normal 0.0 6.505213034913022e-17 1.0
outer loop
vertex -0.39999999999999997 0.49 0.00249999999999997
vertex 0.4000000000000001 0.51 0.002499999999999969
vertex -0.39999999999999997 0.51 0.002499999999999969
endloop
endfacet
facet normal 0.0 1.0 0.0
outer loop
vertex -0.39999999999999997 0.51 0.002499999999999969
vertex 0.4000000000000001 0.51 -0.0025000000000000313
vertex -0.39999999999999997 0.51 -0.0025000000000000313
endloop
endfacet
facet normal 0.0 1.0 0.0
outer loop
vertex 0.4000000000000001 0.51 0.002499999999999969
vertex 0.4000000000000001 0.51 -0.0025000000000000313
vertex -0.39999999999999997 0.51 0.002499999999999969
endloop
endfacet
facet normal 0.0 -0.9396926207859068 -0.3420201433256732
outer loop
vertex 0.4000000000000001 0.4613044345434093 0.16524063867761288
vertex 0.4000000000000001 0.45959433382678094 0.1699391017815424
vertex -0.39999999999999997 0.4613044345434093 0.16524063867761288
endloop
endfacet
facet normal 0.0 0.3420201433256689 -0.9396926207859082
outer loop
vertex -0.39999999999999997 0.4800982869591275 0.17208104154412626
vertex 0.4000000000000001 0.4613044345434093 0.16524063867761288
vertex -0.39999999999999997 0.4613044345434093 0.16524063867761288
endloop
endfacet
facet normal -0.0 -0.9396926207859068 -0.3420201433256732
outer loop
vertex -0.39999999999999997 0.4613044345434093 0.16524063867761288
vertex 0.4000000000000001 0.45959433382678094 0.1699391017815424
vertex -0.39999999999999997 0.45959433382678094 0.1699391017815424
endloop
endfacet
facet normal -1.0 0.0 -0.0
outer loop
vertex -0.39999999999999997 0.45959433382678094 0.1699391017815424
vertex -0.39999999999999997 0.4800982869591275 0.17208104154412626
vertex -0.39999999999999997 0.4613044345434093 0.16524063867761288
endloop
endfacet
facet normal 1.0 0.0 -0.0
outer loop
vertex 0.4000000000000001 0.4613044345434093 0.16524063867761288
vertex 0.4000000000000001 0.4783881862424991 0.17677950464805578
vertex 0.4000000000000001 0.45959433382678094 0.1699391017815424
endloop
endfacet
facet normal 0.0 0.3420201433256689 -0.9396926207859082
outer loop
vertex 0.4000000000000001 0.4800982869591275 0.17208104154412626
vertex 0.4000000000000001 0.4613044345434093 0.16524063867761288
vertex -0.39999999999999997 0.4800982869591275 0.17208104154412626
endloop
endfacet
facet normal 1.0 0.0 0.0
outer loop
vertex 0.4000000000000001 0.4800982869591275 0.17208104154412626
vertex 0.4000000000000001 0.4783881862424991 0.17677950464805578
vertex 0.4000000000000001 0.4613044345434093 0.16524063867761288
endloop
endfacet
facet normal 0.0 -0.3420201433256689 0.9396926207859082
outer loop
vertex 0.4000000000000001 0.45959433382678094 0.1699391017815424
vertex 0.4000000000000001 0.4783881862424991 0.17677950464805578
vertex -0.39999999999999997 0.45959433382678094 0.1699391017815424
endloop
endfacet
facet normal -1.0 0.0 -0.0
outer loop
vertex -0.39999999999999997 0.4783881862424991 0.17677950464805578
vertex -0.39999999999999997 0.4800982869591275 0.17208104154412626
vertex -0.39999999999999997 0.45959433382678094 0.1699391017815424
endloop
endfacet
facet normal 0.0 -0.3420201433256689 0.9396926207859082
outer loop
vertex -0.39999999999999997 0.45959433382678094 0.1699391017815424
vertex 0.4000000000000001 0.4783881862424991 0.17677950464805578
vertex -0.39999999999999997 0.4783881862424991 0.17677950464805578
endloop
endfacet
facet normal 0.0 0.9396926207859068 0.3420201433256732
outer loop
vertex -0.39999999999999997 0.4783881862424991 0.17677950464805578
vertex 0.4000000000000001 0.4800982869591275 0.17208104154412626
vertex -0.39999999999999997 0.4800982869591275 0.17208104154412626
endloop
endfacet
facet normal 0.0 0.9396926207859068 0.3420201433256732
outer loop
vertex 0.4000000000000001 0.4783881862424991 0.17677950464805578
vertex 0.4000000000000001 0.4800982869591275 0.17208104154412626
vertex -0.39999999999999997 0.4783881862424991 0.17677950464805578
endloop
endfacet
facet normal 0.0 -0.7660444431189776 -0.6427876096865397
outer loop
vertex 0.4 0.3769687461525156 0.31305081763860676
vertex 0.4 0.37375480810408285 0.3168810398542017
vertex -0.4 0.3769687461525156 0.31305081763860676
endloop
endfacet
facet normal 0.0 0.6427876096865394 -0.7660444431189781
outer loop
vertex -0.4 0.39228963501489517 0.32590656983233757
vertex 0.4 0.3769687461525156 0.31305081763860676
vertex -0.4 0.3769687461525156 0.31305081763860676
endloop
endfacet
facet normal -0.0 -0.7660444431189776 -0.6427876096865397
outer loop
vertex -0.4 0.3769687461525156 0.31305081763860676
vertex 0.4 0.37375480810408285 0.3168810398542017
vertex -0.4 0.37375480810408285 0.3168810398542017
endloop
endfacet
facet normal -1.0 0.0 -0.0
outer loop
vertex -0.4 0.37375480810408285 0.3168810398542017
vertex -0.4 0.39228963501489517 0.32590656983233757
vertex -0.4 0.3769687461525156 0.31305081763860676
endloop
endfacet
facet normal 0.9999999999999999 0.0 -0.0
outer loop
vertex 0.4 0.3769687461525156 0.31305081763860676
vertex 0.4 0.38907569696646244 0.3297367920479325
vertex 0.4 0.37375480810408285 0.3168810398542017
endloop
endfacet
facet normal 0.0 0.6427876096865394 -0.7660444431189781
outer loop
vertex 0.4 0.39228963501489517 0.32590656983233757
vertex 0.4 0.3769687461525156 0.31305081763860676
vertex -0.4 0.39228963501489517 0.32590656983233757
endloop
endfacet
facet normal 1.0 0.0 0.0
outer loop
vertex 0.4 0.39228963501489517 0.32590656983233757
vertex 0.4 0.38907569696646244 0.3297367920479325
vertex 0.4 0.3769687461525156 0.31305081763860676
endloop
endfacet
facet normal 0.0 -0.6427876096865394 0.7660444431189781
outer loop
vertex 0.4 0.37375480810408285 0.3168810398542017
vertex 0.4 0.38907569696646244 0.3297367920479325
vertex -0.4 0.37375480810408285 0.3168810398542017
endloop
endfacet
facet normal -1.0 0.0 -0.0
outer loop
vertex -0.4 0.38907569696646244 0.3297367920479325
vertex -0.4 0.39228963501489517 0.32590656983233757
vertex -0.4 0.37375480810408285 0.3168810398542017
endloop
endfacet
facet normal 0.0 -0.6427876096865394 0.7660444431189781
outer loop
vertex -0.4 0.37375480810408285 0.3168810398542017
vertex 0.4 0.38907569696646244 0.3297367920479325
vertex -0.4 0.38907569696646244 0.3297367920479325
endloop
endfacet
facet normal 0.0 0.7660444431189776 0.6427876096865397
outer loop
vertex -0.4 0.38907569696646244 0.3297367920479325
vertex 0.4 0.39228963501489517 0.32590656983233757
vertex -0.4 0.39228963501489517 0.32590656983233757
endloop
endfacet
facet normal 0.0 0.7660444431189776 0.6427876096865397
outer loop
vertex 0.4 0.38907569696646244 0.3297367920479325
vertex 0.4 0.39228963501489517 0.32590656983233757
vertex -0.4 0.38907569696646244 0.3297367920479325
endloop
endfacet
facet normal -3.4728350837426376e-17 -0.49999999999999023 -0.8660254037844443
outer loop
vertex 0.4 0.24716506350946116 0.42310244785437495
vertex 0.4 0.24283493649053894 0.4256024478543749
vertex -0.4 0.2471650635094612 0.42310244785437495
endloop
endfacet
facet normal 6.009258394948642e-17 0.8660254037844394 -0.49999999999999883
outer loop
vertex -0.4 0.25716506350946117 0.4404229559300637
vertex 0.4 0.24716506350946116 0.42310244785437495
vertex -0.4 0.2471650635094612 0.42310244785437495
endloop
endfacet
facet normal -3.4694469519535464e-17 -0.49999999999999023 -0.8660254037844444
outer loop
vertex -0.4 0.2471650635094612 0.42310244785437495
vertex 0.4 0.24283493649053894 0.4256024478543749
vertex -0.4 0.242834936490539 0.4256024478543749
endloop
endfacet
facet normal -0.9999999999999999 0.0 -0.0
outer loop
vertex -0.4 0.242834936490539 0.4256024478543749
vertex -0.4 0.25716506350946117 0.4404229559300637
vertex -0.4 0.2471650635094612 0.42310244785437495
endloop
endfacet
facet normal 0.9999999999999999 0.0 -0.0
outer loop
vertex 0.4 0.24716506350946116 0.42310244785437495
vertex 0.4 0.25283493649053895 0.44292295593006364
vertex 0.4 0.24283493649053894 0.4256024478543749
endloop
endfacet
facet normal 0.0 0.8660254037844382 -0.500000000000001
outer loop
vertex 0.4 0.25716506350946117 0.4404229559300637
vertex 0.4 0.24716506350946116 0.42310244785437495
vertex -0.4 0.25716506350946117 0.4404229559300637
endloop
endfacet
facet normal 1.0 0.0 0.0
outer loop
vertex 0.4 0.25716506350946117 0.4404229559300637
vertex 0.4 0.25283493649053895 0.44292295593006364
vertex 0.4 0.24716506350946116 0.42310244785437495
endloop
endfacet
facet normal -6.098637220230969e-17 -0.8660254037844382 0.500000000000001
outer loop
vertex 0.4 0.24283493649053894 0.4256024478543749
vertex 0.4 0.25283493649053895 0.44292295593006364
vertex -0.4 0.242834936490539 0.4256024478543749
endloop
endfacet
facet normal -1.0 0.0 -0.0
outer loop
vertex -0.4 0.25283493649053895 0.44292295593006364
vertex -0.4 0.25716506350946117 0.4404229559300637
vertex -0.4 0.242834936490539 0.4256024478543749
endloop
endfacet
facet normal 0.0 -0.8660254037844392 0.49999999999999883
outer loop
vertex -0.4 0.242834936490539 0.4256024478543749
vertex 0.4 0.25283493649053895 0.44292295593006364
vertex -0.4 0.25283493649053895 0.44292295593006364
endloop
endfacet
facet normal 0.0 0.49999999999999023 0.8660254037844443
outer loop
vertex -0.4 0.25283493649053895 0.44292295593006364
vertex 0.4 0.25716506350946117 0.4404229559300637
vertex -0.4 0.25716506350946117 0.4404229559300637
endloop
endfacet
facet normal 0.0 0.49999999999999023 0.8660254037844443
outer loop
vertex 0.4 0.25283493649053895 0.44292295593006364
vertex 0.4 0.25716506350946117 0.4404229559300637
vertex -0.4 0.25283493649053895 0.44292295593006364
endloop
endfacet
facet normal -1.2070219498373772e-17 -0.17364817766694063 -0.9848077530122062
outer loop
vertex 0.4 0.08754962643932641 0.4821216785318146
vertex 0.4 0.08262558767426538 0.4829899194201493
vertex -0.4 0.08754962643932647 0.4821216785318146
endloop
endfacet
facet normal 6.833476513896985e-17 0.9848077530122079 -0.17364817766693078
outer loop
vertex -0.4 0.09102258999266509 0.5018178335920588
vertex 0.4 0.08754962643932641 0.4821216785318146
vertex -0.4 0.08754962643932647 0.4821216785318146
endloop
endfacet
facet normal -1.2049262814377336e-17 -0.17364817766694063 -0.9848077530122062
outer loop
vertex -0.4 0.08754962643932647 0.4821216785318146
vertex 0.4 0.08262558767426538 0.4829899194201493
vertex -0.4 0.08262558767426544 0.4829899194201493
endloop
endfacet
facet normal -1.0 0.0 -0.0
outer loop
vertex -0.4 0.08262558767426544 0.4829899194201493
vertex -0.4 0.09102258999266509 0.5018178335920588
vertex -0.4 0.08754962643932647 0.4821216785318146
endloop
endfacet
facet normal 1.0 0.0 0.0
outer loop
vertex 0.4 0.08754962643932641 0.4821216785318146
vertex 0.4 0.086098551227604 0.5026860744803935
vertex 0.4 0.08262558767426538 0.4829899194201493
endloop
endfacet
facet normal 6.860966872759822e-17 0.9848077530122079 -0.17364817766693078
outer loop
vertex 0.4 0.09102258999266503 0.5018178335920588
vertex 0.4 0.08754962643932641 0.4821216785318146
vertex -0.4 0.09102258999266509 0.5018178335920588
endloop
endfacet
facet normal 1.0 0.0 0.0
outer loop
vertex 0.4 0.09102258999266503 0.5018178335920588
vertex 0.4 0.086098551227604 0.5026860744803935
vertex 0.4 0.08754962643932641 0.4821216785318146
endloop
endfacet
facet normal -6.776263578034392e-17 -0.9848077530122079 0.17364817766693078
outer loop
vertex 0.4 0.08262558767426538 0.4829899194201493
vertex 0.4 0.086098551227604 0.5026860744803935
vertex -0.4 0.08262558767426544 0.4829899194201493
endloop
endfacet
facet normal -1.0 0.0 -0.0
outer loop
vertex -0.4 0.08609855122760406 0.5026860744803935
vertex -0.4 0.09102258999266509 0.5018178335920588
vertex -0.4 0.08262558767426544 0.4829899194201493
endloop
endfacet
facet normal -6.833476513896985e-17 -0.9848077530122079 0.17364817766693075
outer loop
vertex -0.4 0.08262558767426544 0.4829899194201493
vertex 0.4 0.086098551227604 0.5026860744803935
vertex -0.4 0.08609855122760406 0.5026860744803935
endloop
endfacet
facet normal 1.2049262814377338e-17 0.17364817766694066 0.9848077530122062
outer loop
vertex -0.4 0.08609855122760406 0.5026860744803935
vertex 0.4 0.09102258999266503 0.5018178335920588
vertex -0.4 0.09102258999266509 0.5018178335920588
endloop
endfacet
facet normal 1.1858461261560197e-17 0.17364817766694063 0.9848077530122062
outer loop
vertex 0.4 0.086098551227604 0.5026860744803935
vertex 0.4 0.09102258999266503 0.5018178335920588
vertex -0.4 0.08609855122760406 0.5026860744803935
endloop
endfacet
facet normal 1.2070219498373772e-17 0.17364817766694063 -0.9848077530122062
outer loop
vertex 0.4 -0.08262558767426532 0.4829899194201493
vertex 0.4 -0.08754962643932636 0.4821216785318146
vertex -0.4 -0.08262558767426527 0.4829899194201493
endloop
endfacet
facet normal 6.833476513896985e-17 0.9848077530122079 0.17364817766693075
outer loop
vertex -0.4 -0.08609855122760389 0.5026860744803935
vertex 0.4 -0.08262558767426532 0.4829899194201493
vertex -0.4 -0.08262558767426527 0.4829899194201493
endloop
endfacet
facet normal 1.2049262814377336e-17 0.17364817766694063 -0.9848077530122062
outer loop
vertex -0.4 -0.08262558767426527 0.4829899194201493
vertex 0.4 -0.08754962643932636 0.4821216785318146
vertex -0.4 -0.0875496264393263 0.4821216785318146
endloop
endfacet
facet normal -1.0 0.0 0.0
outer loop
vertex -0.4 -0.0875496264393263 0.4821216785318146
vertex -0.4 -0.08609855122760389 0.5026860744803935
vertex -0.4 -0.08262558767426527 0.4829899194201493
endloop
endfacet
facet normal 1.0 0.0 0.0
outer loop
vertex 0.4 -0.08262558767426532 0.4829899194201493
vertex 0.4 -0.09102258999266498 0.5018178335920588
vertex 0.4 -0.08754962643932636 0.4821216785318146
endloop
endfacet
facet normal 6.776263578034392e-17 0.9848077530122079 0.17364817766693078
outer loop
vertex 0.4 -0.08609855122760394 0.5026860744803935
vertex 0.4 -0.08262558767426532 0.4829899194201493
vertex -0.4 -0.08609855122760389 0.5026860744803935
endloop
endfacet
facet normal 1.0 0.0 0.0
outer loop
vertex 0.4 -0.08609855122760394 0.5026860744803935
vertex 0.4 -0.09102258999266498 0.5018178335920588
vertex 0.4 -0.08262558767426532 0.4829899194201493
endloop
endfacet
facet normal -6.860966872759822e-17 -0.9848077530122079 -0.17364817766693078
outer loop
vertex 0.4 -0.08754962643932636 0.4821216785318146
vertex 0.4 -0.09102258999266498 0.5018178335920588
vertex -0.4 -0.0875496264393263 0.4821216785318146
endloop
endfacet
facet normal -1.0 0.0 -0.0
outer loop
vertex -0.4 -0.09102258999266492 0.5018178335920588
vertex -0.4 -0.08609855122760389 0.5026860744803935
vertex -0.4 -0.0875496264393263 0.4821216785318146
endloop
endfacet
facet normal -6.833476513896985e-17 -0.9848077530122079 -0.17364817766693078
outer loop
vertex -0.4 -0.0875496264393263 0.4821216785318146
vertex 0.4 -0.09102258999266498 0.5018178335920588
vertex -0.4 -0.09102258999266492 0.5018178335920588
endloop
endfacet
facet normal -1.2049262814377338e-17 -0.17364817766694066 0.9848077530122062
outer loop
vertex -0.4 -0.09102258999266492 0.5018178335920588
vertex 0.4 -0.08609855122760394 0.5026860744803935
vertex -0.4 -0.08609855122760389 0.5026860744803935
endloop
endfacet
facet normal -1.1858461261560197e-17 -0.17364817766694063 0.9848077530122062
outer loop
vertex 0.4 -0.09102258999266498 0.5018178335920588
vertex 0.4 -0.08609855122760394 0.5026860744803935
vertex -0.4 -0.09102258999266492 0.5018178335920588
endloop
endfacet
facet normal 3.4728350837426376e-17 0.49999999999999023 -0.8660254037844443
outer loop
vertex 0.4 -0.24283493649053878 0.42560244785437495
vertex 0.4 -0.247165063509461 0.423102447854375
vertex -0.4 -0.24283493649053872 0.42560244785437495
endloop
endfacet
facet normal 6.009258394948626e-17 0.8660254037844369 0.500000000000003
outer loop
vertex -0.4 -0.2528349364905388 0.4429229559300637
vertex 0.4 -0.24283493649053878 0.42560244785437495
vertex -0.4 -0.24283493649053872 0.42560244785437495
endloop
endfacet
facet normal 3.4694469519535464e-17 0.49999999999999023 -0.8660254037844444
outer loop
vertex -0.4 -0.24283493649053872 0.42560244785437495
vertex 0.4 -0.247165063509461 0.423102447854375
vertex -0.4 -0.24716506350946094 0.423102447854375
endloop
endfacet
facet normal -1.0 0.0 0.0
outer loop
vertex -0.4 -0.24716506350946094 0.423102447854375
vertex -0.4 -0.2528349364905388 0.4429229559300637
vertex -0.4 -0.24283493649053872 0.42560244785437495
endloop
endfacet
facet normal 1.0 0.0 0.0
outer loop
vertex 0.4 -0.24283493649053878 0.42560244785437495
vertex 0.4 -0.257165063509461 0.44042295593006375
vertex 0.4 -0.247165063509461 0.423102447854375
endloop
endfacet
facet normal 0.0 0.8660254037844382 0.500000000000001
outer loop
vertex 0.4 -0.2528349364905388 0.4429229559300637
vertex 0.4 -0.24283493649053878 0.42560244785437495
vertex -0.4 -0.2528349364905388 0.4429229559300637
endloop
endfacet
facet normal 1.0 0.0 0.0
outer loop
vertex 0.4 -0.2528349364905388 0.4429229559300637
vertex 0.4 -0.257165063509461 0.44042295593006375
vertex 0.4 -0.24283493649053878 0.42560244785437495
endloop
endfacet
facet normal -5.929230630780109e-17 -0.8660254037844382 -0.500000000000001
outer loop
vertex 0.4 -0.247165063509461 0.423102447854375
vertex 0.4 -0.257165063509461 0.44042295593006375
vertex -0.4 -0.24716506350946094 0.423102447854375
endloop
endfacet
facet normal -1.0 0.0 0.0
outer loop
vertex -0.4 -0.257165063509461 0.44042295593006375
vertex -0.4 -0.2528349364905388 0.4429229559300637
vertex -0.4 -0.24716506350946094 0.423102447854375
endloop
endfacet
facet normal -0.0 -0.8660254037844369 -0.500000000000003
outer loop
vertex -0.4 -0.24716506350946094 0.423102447854375
vertex 0.4 -0.257165063509461 0.44042295593006375
vertex -0.4 -0.257165063509461 0.44042295593006375
endloop
endfacet
facet normal 0.0 -0.49999999999999023 0.8660254037844443
outer loop
vertex -0.4 -0.257165063509461 0.44042295593006375
vertex 0.4 -0.2528349364905388 0.4429229559300637
vertex -0.4 -0.2528349364905388 0.4429229559300637
endloop
endfacet
facet normal 0.0 -0.49999999999999023 0.8660254037844443
outer loop
vertex 0.4 -0.257165063509461 0.44042295593006375
vertex 0.4 -0.2528349364905388 0.4429229559300637
vertex -0.4 -0.257165063509461 0.44042295593006375
endloop
endfacet
facet normal 0.0 0.7660444431189776 -0.6427876096865397
outer loop
vertex 0.4 -0.3737548081040828 0.3168810398542018
vertex 0.4 -0.3769687461525155 0.31305081763860687
vertex -0.4 -0.3737548081040828 0.3168810398542018
endloop
endfacet
facet normal 0.0 0.6427876096865394 0.7660444431189781
outer loop
vertex -0.4 -0.3890756969664624 0.3297367920479326
vertex 0.4 -0.3737548081040828 0.3168810398542018
vertex -0.4 -0.3737548081040828 0.3168810398542018
endloop
endfacet
facet normal 0.0 0.7660444431189776 -0.6427876096865397
outer loop
vertex -0.4 -0.3737548081040828 0.3168810398542018
vertex 0.4 -0.3769687461525155 0.31305081763860687
vertex -0.4 -0.3769687461525155 0.31305081763860687
endloop
endfacet
facet normal -0.9999999999999999 0.0 0.0
outer loop
vertex -0.4 -0.3769687461525155 0.31305081763860687
vertex -0.4 -0.3890756969664624 0.3297367920479326
vertex -0.4 -0.3737548081040828 0.3168810398542018
endloop
endfacet
facet normal 1.0 0.0 0.0
outer loop
vertex 0.4 -0.3737548081040828 0.3168810398542018
vertex 0.4 -0.3922896350148951 0.3259065698323377
vertex 0.4 -0.3769687461525155 0.31305081763860687
endloop
endfacet
facet normal 0.0 0.6427876096865394 0.7660444431189781
outer loop
vertex 0.4 -0.3890756969664624 0.3297367920479326
vertex 0.4 -0.3737548081040828 0.3168810398542018
vertex -0.4 -0.3890756969664624 0.3297367920479326
endloop
endfacet
facet normal 1.0 0.0 0.0
outer loop
vertex 0.4 -0.3890756969664624 0.3297367920479326
vertex 0.4 -0.3922896350148951 0.3259065698323377
vertex 0.4 -0.3737548081040828 0.3168810398542018
endloop
endfacet
facet normal 0.0 -0.6427876096865394 -0.7660444431189781
outer loop
vertex 0.4 -0.3769687461525155 0.31305081763860687
vertex 0.4 -0.3922896350148951 0.3259065698323377
vertex -0.4 -0.3769687461525155 0.31305081763860687
endloop
endfacet
facet normal -1.0 0.0 0.0
outer loop
vertex -0.4 -0.3922896350148951 0.3259065698323377
vertex -0.4 -0.3890756969664624 0.3297367920479326
vertex -0.4 -0.3769687461525155 0.31305081763860687
endloop
endfacet
facet normal -0.0 -0.6427876096865394 -0.7660444431189781
outer loop
vertex -0.4 -0.3769687461525155 0.31305081763860687
vertex 0.4 -0.3922896350148951 0.3259065698323377
vertex -0.4 -0.3922896350148951 0.3259065698323377
endloop
endfacet
facet normal 0.0 -0.7660444431189776 0.6427876096865397
outer loop
vertex -0.4 -0.3922896350148951 0.3259065698323377
vertex 0.4 -0.3890756969664624 0.3297367920479326
vertex -0.4 -0.3890756969664624 0.3297367920479326
endloop
endfacet
facet normal 0.0 -0.7660444431189776 0.6427876096865397
outer loop
vertex 0.4 -0.3922896350148951 0.3259065698323377
vertex 0.4 -0.3890756969664624 0.3297367920479326
vertex -0.4 -0.3922896350148951 0.3259065698323377
endloop
endfacet
facet normal 0.0 0.9396926207859068 -0.3420201433256732
outer loop
vertex 0.39999999999999997 -0.4595943338267809 0.16993910178154253
vertex 0.39999999999999997 -0.46130443454340925 0.16524063867761302
vertex -0.4000000000000001 -0.4595943338267809 0.16993910178154253
endloop
endfacet
facet normal 0.0 0.3420201433256689 0.9396926207859082
outer loop
vertex -0.4000000000000001 -0.47838818624249907 0.17677950464805592
vertex 0.39999999999999997 -0.4595943338267809 0.16993910178154253
vertex -0.4000000000000001 -0.4595943338267809 0.16993910178154253
endloop
endfacet
facet normal 0.0 0.9396926207859068 -0.3420201433256732
outer loop
vertex -0.4000000000000001 -0.4595943338267809 0.16993910178154253
vertex 0.39999999999999997 -0.46130443454340925 0.16524063867761302
vertex -0.4000000000000001 -0.46130443454340925 0.16524063867761302
endloop
endfacet
facet normal -1.0 0.0 0.0
outer loop
vertex -0.4000000000000001 -0.46130443454340925 0.16524063867761302
vertex -0.4000000000000001 -0.47838818624249907 0.17677950464805592
vertex -0.4000000000000001 -0.4595943338267809 0.16993910178154253
endloop
endfacet
facet normal 1.0 0.0 0.0
outer loop
vertex 0.39999999999999997 -0.4595943338267809 0.16993910178154253
vertex 0.39999999999999997 -0.48009828695912743 0.1720810415441264
vertex 0.39999999999999997 -0.46130443454340925 0.16524063867761302
endloop
endfacet
facet normal 0.0 0.3420201433256689 0.9396926207859082
outer loop
vertex 0.39999999999999997 -0.47838818624249907 0.17677950464805592
vertex 0.39999999999999997 -0.4595943338267809 0.16993910178154253
vertex -0.4000000000000001 -0.47838818624249907 0.17677950464805592
endloop
endfacet
facet normal 1.0 0.0 0.0
outer loop
vertex 0.39999999999999997 -0.47838818624249907 0.17677950464805592
vertex 0.39999999999999997 -0.48009828695912743 0.1720810415441264
vertex 0.39999999999999997 -0.4595943338267809 0.16993910178154253
endloop
endfacet
facet normal 0.0 -0.3420201433256689 -0.9396926207859082
outer loop
vertex 0.39999999999999997 -0.46130443454340925 0.16524063867761302
vertex 0.39999999999999997 -0.48009828695912743 0.1720810415441264
vertex -0.4000000000000001 -0.46130443454340925 0.16524063867761302
endloop
endfacet
facet normal -1.0 0.0 0.0
outer loop
vertex -0.4000000000000001 -0.48009828695912743 0.1720810415441264
vertex -0.4000000000000001 -0.47838818624249907 0.17677950464805592
vertex -0.4000000000000001 -0.46130443454340925 0.16524063867761302
endloop
endfacet
facet normal -0.0 -0.3420201433256689 -0.9396926207859082
outer loop
vertex -0.4000000000000001 -0.46130443454340925 0.16524063867761302
vertex 0.39999999999999997 -0.48009828695912743 0.1720810415441264
vertex -0.4000000000000001 -0.48009828695912743 0.1720810415441264
endloop
endfacet
facet normal 0.0 -0.9396926207859068 0.3420201433256732
outer loop
vertex -0.4000000000000001 -0.48009828695912743 0.1720810415441264
vertex 0.39999999999999997 -0.47838818624249907 0.17677950464805592
vertex -0.4000000000000001 -0.47838818624249907 0.17677950464805592
endloop
endfacet
facet normal 0.0 -0.9396926207859068 0.3420201433256732
outer loop
vertex 0.39999999999999997 -0.48009828695912743 0.1720810415441264
vertex 0.39999999999999997 -0.47838818624249907 0.17677950464805592
vertex -0.4000000000000001 -0.48009828695912743 0.1720810415441264
endloop
endfacet
facet normal 0.0 1.0 0.0
outer loop
vertex 0.39999999999999997 -0.49 0.00250000000000009
vertex 0.39999999999999997 -0.49 -0.0024999999999999103
vertex -0.4000000000000001 -0.49 0.00250000000000009
endloop
endfacet
facet normal 0.0 1.9515639104739063e-16 1.0
outer loop
vertex -0.4000000000000001 -0.51 0.0025000000000000937
vertex 0.39999999999999997 -0.49 0.00250000000000009
vertex -0.4000000000000001 -0.49 0.00250000000000009
endloop
endfacet
facet normal 0.0 1.0 0.0
outer loop
vertex -0.4000000000000001 -0.49 0.00250000000000009
vertex 0.39999999999999997 -0.49 -0.0024999999999999103
vertex -0.4000000000000001 -0.49 -0.0024999999999999103
endloop
endfacet
facet normal -1.0 0.0 0.0
outer loop
vertex -0.4000000000000001 -0.49 -0.0024999999999999103
vertex -0.4000000000000001 -0.51 0.0025000000000000937
vertex -0.4000000000000001 -0.49 0.00250000000000009
endloop
endfacet
facet normal 1.0 0.0 0.0
outer loop
vertex 0.39999999999999997 -0.49 0.00250000000000009
vertex 0.39999999999999997 -0.51 -0.0024999999999999064
vertex 0.39999999999999997 -0.49 -0.0024999999999999103
endloop
endfacet
facet normal 0.0 1.9515639104739063e-16 1.0
outer loop
vertex 0.39999999999999997 -0.51 0.0025000000000000937
vertex 0.39999999999999997 -0.49 0.00250000000000009
vertex -0.4000000000000001 -0.51 0.0025000000000000937
endloop
endfacet
facet normal 1.0 -0.0 0.0
outer loop
vertex 0.39999999999999997 -0.51 0.0025000000000000937
vertex 0.39999999999999997 -0.51 -0.0024999999999999064
vertex 0.39999999999999997 -0.49 0.00250000000000009
endloop
endfacet
facet normal 0.0 -1.9515639104739063e-16 -1.0
outer loop
vertex 0.39999999999999997 -0.49 -0.0024999999999999103
vertex 0.39999999999999997 -0.51 -0.0024999999999999064
vertex -0.4000000000000001 -0.49 -0.0024999999999999103
endloop
endfacet
facet normal -1.0 0.0 0.0
outer loop
vertex -0.4000000000000001 -0.51 -0.0024999999999999064
vertex -0.4000000000000001 -0.51 0.0025000000000000937
vertex -0.4000000000000001 -0.49 -0.0024999999999999103
endloop
endfacet
facet normal -0.0 -1.9515639104739063e-16 -1.0
outer loop
vertex -0.4000000000000001 -0.49 -0.0024999999999999103
vertex 0.39999999999999997 -0.51 -0.0024999999999999064
vertex -0.4000000000000001 -0.51 -0.0024999999999999064
endloop
endfacet
facet normal 0.0 -1.0 0.0
outer loop
vertex -0.4000000000000001 -0.51 -0.0024999999999999064
vertex 0.39999999999999997 -0.51 0.0025000000000000937
vertex -0.4000000000000001 -0.51 0.0025000000000000937
endloop
endfacet
facet normal -0.0 -1.0 0.0
outer loop
vertex 0.39999999999999997 -0.51 -0.0024999999999999064
vertex 0.39999999999999997 -0.51 0.0025000000000000937
vertex -0.4000000000000001 -0.51 -0.0024999999999999064
endloop
endfacet
facet normal 0.0 0.9396926207859068 0.3420201433256732
outer loop
vertex 0.39999999999999997 -0.4613044345434093 -0.16524063867761285
vertex 0.39999999999999997 -0.45959433382678094 -0.16993910178154237
vertex -0.4000000000000001 -0.4613044345434093 -0.16524063867761285
endloop
endfacet
facet normal 0.0 -0.3420201433256689 0.9396926207859082
outer loop
vertex -0.4000000000000001 -0.4800982869591275 -0.17208104154412623
vertex 0.39999999999999997 -0.4613044345434093 -0.16524063867761285
vertex -0.4000000000000001 -0.4613044345434093 -0.16524063867761285
endloop
endfacet
facet normal 0.0 0.9396926207859068 0.3420201433256732
outer loop
vertex -0.4000000000000001 -0.4613044345434093 -0.16524063867761285
vertex 0.39999999999999997 -0.45959433382678094 -0.16993910178154237
vertex -0.4000000000000001 -0.45959433382678094 -0.16993910178154237
endloop
endfacet
facet normal -1.0 -0.0 0.0
outer loop
vertex -0.4000000000000001 -0.45959433382678094 -0.16993910178154237
vertex -0.4000000000000001 -0.4800982869591275 -0.17208104154412623
vertex -0.4000000000000001 -0.4613044345434093 -0.16524063867761285
endloop
endfacet
facet normal 1.0 -0.0 0.0
outer loop
vertex 0.39999999999999997 -0.4613044345434093 -0.16524063867761285
vertex 0.39999999999999997 -0.4783881862424991 -0.17677950464805575
vertex 0.39999999999999997 -0.45959433382678094 -0.16993910178154237
endloop
endfacet
facet normal 0.0 -0.3420201433256689 0.9396926207859082
outer loop
vertex 0.39999999999999997 -0.4800982869591275 -0.17208104154412623
vertex 0.39999999999999997 -0.4613044345434093 -0.16524063867761285
vertex -0.4000000000000001 -0.4800982869591275 -0.17208104154412623
endloop
endfacet
facet normal 1.0 -0.0 0.0
outer loop
vertex 0.39999999999999997 -0.4800982869591275 -0.17208104154412623
vertex 0.39999999999999997 -0.4783881862424991 -0.17677950464805575
vertex 0.39999999999999997 -0.4613044345434093 -0.16524063867761285
endloop
endfacet
facet normal 0.0 0.3420201433256689 -0.9396926207859082
outer loop
vertex 0.39999999999999997 -0.45959433382678094 -0.16993910178154237
vertex 0.39999999999999997 -0.4783881862424991 -0.17677950464805575
vertex -0.4000000000000001 -0.45959433382678094 -0.16993910178154237
endloop
endfacet
facet normal -1.0 0.0 0.0
outer loop
vertex -0.4000000000000001 -0.4783881862424991 -0.17677950464805575
vertex -0.4000000000000001 -0.4800982869591275 -0.17208104154412623
vertex -0.4000000000000001 -0.45959433382678094 -0.16993910178154237
endloop
endfacet
facet normal 0.0 0.3420201433256689 -0.9396926207859082
outer loop
vertex -0.4000000000000001 -0.45959433382678094 -0.16993910178154237
vertex 0.39999999999999997 -0.4783881862424991 -0.17677950464805575
vertex -0.4000000000000001 -0.4783881862424991 -0.17677950464805575
endloop
endfacet
facet normal -0.0 -0.9396926207859068 -0.3420201433256732
outer loop
vertex -0.4000000000000001 -0.4783881862424991 -0.17677950464805575
vertex 0.39999999999999997 -0.4800982869591275 -0.17208104154412623
vertex -0.4000000000000001 -0.4800982869591275 -0.17208104154412623
endloop
endfacet
facet normal 0.0 -0.9396926207859068 -0.3420201433256732
outer loop
vertex 0.39999999999999997 -0.4783881862424991 -0.17677950464805575
vertex 0.39999999999999997 -0.4800982869591275 -0.17208104154412623
vertex -0.4000000000000001 -0.4783881862424991 -0.17677950464805575
endloop
endfacet
facet normal 0.0 0.7660444431189777 0.6427876096865397
outer loop
vertex 0.39999999999999997 -0.3769687461525156 -0.31305081763860676
vertex 0.39999999999999997 -0.37375480810408285 -0.3168810398542017
vertex -0.39999999999999997 -0.3769687461525156 -0.31305081763860676
endloop
endfacet
facet normal 0.0 -0.6427876096865393 0.7660444431189781
outer loop
vertex -0.39999999999999997 -0.39228963501489517 -0.32590656983233757
vertex 0.39999999999999997 -0.3769687461525156 -0.31305081763860676
vertex -0.39999999999999997 -0.3769687461525156 -0.31305081763860676
endloop
endfacet
facet normal 0.0 0.7660444431189777 0.6427876096865397
outer loop
vertex -0.39999999999999997 -0.3769687461525156 -0.31305081763860676
vertex 0.39999999999999997 -0.37375480810408285 -0.3168810398542017
vertex -0.39999999999999997 -0.37375480810408285 -0.3168810398542017
endloop
endfacet
facet normal -1.0 -0.0 0.0
outer loop
vertex -0.39999999999999997 -0.37375480810408285 -0.3168810398542017
vertex -0.39999999999999997 -0.39228963501489517 -0.32590656983233757
vertex -0.39999999999999997 -0.3769687461525156 -0.31305081763860676
endloop
endfacet
facet normal 0.9999999999999999 -0.0 0.0
outer loop
vertex 0.39999999999999997 -0.3769687461525156 -0.31305081763860676
vertex 0.39999999999999997 -0.38907569696646244 -0.3297367920479325
vertex 0.39999999999999997 -0.37375480810408285 -0.3168810398542017
endloop
endfacet
facet normal 0.0 -0.6427876096865393 0.7660444431189781
outer loop
vertex 0.39999999999999997 -0.39228963501489517 -0.32590656983233757
vertex 0.39999999999999997 -0.3769687461525156 -0.31305081763860676
vertex -0.39999999999999997 -0.39228963501489517 -0.32590656983233757
endloop
endfacet
facet normal 1.0 -0.0 0.0
outer loop
vertex 0.39999999999999997 -0.39228963501489517 -0.32590656983233757
vertex 0.39999999999999997 -0.38907569696646244 -0.3297367920479325
vertex 0.39999999999999997 -0.3769687461525156 -0.31305081763860676
endloop
endfacet
facet normal 0.0 0.6427876096865393 -0.7660444431189781
outer loop
vertex 0.39999999999999997 -0.37375480810408285 -0.3168810398542017
vertex 0.39999999999999997 -0.38907569696646244 -0.3297367920479325
vertex -0.39999999999999997 -0.37375480810408285 -0.3168810398542017
endloop
endfacet
facet normal -1.0 0.0 0.0
outer loop
vertex -0.39999999999999997 -0.38907569696646244 -0.3297367920479325
vertex -0.39999999999999997 -0.39228963501489517 -0.32590656983233757
vertex -0.39999999999999997 -0.37375480810408285 -0.3168810398542017
endloop
endfacet
facet normal 0.0 0.6427876096865393 -0.7660444431189781
outer loop
vertex -0.39999999999999997 -0.37375480810408285 -0.3168810398542017
vertex 0.39999999999999997 -0.38907569696646244 -0.3297367920479325
vertex -0.39999999999999997 -0.38907569696646244 -0.3297367920479325
endloop
endfacet
facet normal -0.0 -0.7660444431189777 -0.6427876096865397
outer loop
vertex -0.39999999999999997 -0.38907569696646244 -0.3297367920479325
vertex 0.39999999999999997 -0.39228963501489517 -0.32590656983233757
vertex -0.39999999999999997 -0.39228963501489517 -0.32590656983233757
endloop
endfacet
facet normal 0.0 -0.7660444431189777 -0.6427876096865397
outer loop
vertex 0.39999999999999997 -0.38907569696646244 -0.3297367920479325
vertex 0.39999999999999997 -0.39228963501489517 -0.32590656983233757
vertex -0.39999999999999997 -0.38907569696646244 -0.3297367920479325
endloop
endfacet
facet normal 3.472835083742599e-17 0.500000000000007 0.8660254037844347
outer loop
vertex 0.4 -0.24716506350946138 -0.4231024478543748
vertex 0.4 -0.24283493649053917 -0.42560244785437484
vertex -0.4 -0.24716506350946132 -0.4231024478543748
endloop
endfacet
facet normal -6.009258394948633e-17 -0.8660254037844379 0.500000000000001
outer loop
vertex -0.4 -0.25716506350946133 -0.44042295593006353
vertex 0.4 -0.24716506350946138 -0.4231024478543748
vertex -0.4 -0.24716506350946132 -0.4231024478543748
endloop
endfacet
facet normal 3.469446951953662e-17 0.500000000000007 0.8660254037844347
outer loop
vertex -0.4 -0.24716506350946132 -0.4231024478543748
vertex 0.4 -0.24283493649053917 -0.42560244785437484
vertex -0.4 -0.2428349364905391 -0.42560244785437484
endloop
endfacet
facet normal -1.0 -0.0 0.0
outer loop
vertex -0.4 -0.2428349364905391 -0.42560244785437484
vertex -0.4 -0.25716506350946133 -0.44042295593006353
vertex -0.4 -0.24716506350946132 -0.4231024478543748
endloop
endfacet
facet normal 1.0 -0.0 0.0
outer loop
vertex 0.4 -0.24716506350946138 -0.4231024478543748
vertex 0.4 -0.2528349364905391 -0.4429229559300636
vertex 0.4 -0.24283493649053917 -0.42560244785437484
endloop
endfacet
facet normal 0.0 -0.8660254037844392 0.49999999999999883
outer loop
vertex 0.4 -0.25716506350946133 -0.44042295593006353
vertex 0.4 -0.24716506350946138 -0.4231024478543748
vertex -0.4 -0.25716506350946133 -0.44042295593006353
endloop
endfacet
facet normal 1.0 -0.0 0.0
outer loop
vertex 0.4 -0.25716506350946133 -0.44042295593006353
vertex 0.4 -0.2528349364905391 -0.4429229559300636
vertex 0.4 -0.24716506350946138 -0.4231024478543748
endloop
endfacet
facet normal 6.098637220230976e-17 0.8660254037844392 -0.49999999999999883
outer loop
vertex 0.4 -0.24283493649053917 -0.42560244785437484
vertex 0.4 -0.2528349364905391 -0.4429229559300636
vertex -0.4 -0.2428349364905391 -0.42560244785437484
endloop
endfacet
facet normal -1.0 0.0 0.0
outer loop
vertex -0.4 -0.2528349364905391 -0.4429229559300636
vertex -0.4 -0.25716506350946133 -0.44042295593006353
vertex -0.4 -0.2428349364905391 -0.42560244785437484
endloop
endfacet
facet normal 0.0 0.8660254037844382 -0.500000000000001
outer loop
vertex -0.4 -0.2428349364905391 -0.42560244785437484
vertex 0.4 -0.2528349364905391 -0.4429229559300636
vertex -0.4 -0.2528349364905391 -0.4429229559300636
endloop
endfacet
facet normal -0.0 -0.500000000000007 -0.8660254037844347
outer loop
vertex -0.4 -0.2528349364905391 -0.4429229559300636
vertex 0.4 -0.25716506350946133 -0.44042295593006353
vertex -0.4 -0.25716506350946133 -0.44042295593006353
endloop
endfacet
facet normal 0.0 -0.500000000000007 -0.8660254037844347
outer loop
vertex 0.4 -0.2528349364905391 -0.4429229559300636
vertex 0.4 -0.25716506350946133 -0.44042295593006353
vertex -0.4 -0.2528349364905391 -0.4429229559300636
endloop
endfacet
facet normal 1.1858461261560197e-17 0.17364817766694063 0.9848077530122062
outer loop
vertex 0.4 -0.08754962643932643 -0.4821216785318146
vertex 0.4 -0.0826255876742654 -0.4829899194201493
vertex -0.4 -0.08754962643932637 -0.4821216785318146
endloop
endfacet
facet normal -6.833476513896985e-17 -0.9848077530122079 0.17364817766693075
outer loop
vertex -0.4 -0.09102258999266499 -0.5018178335920588
vertex 0.4 -0.08754962643932643 -0.4821216785318146
vertex -0.4 -0.08754962643932637 -0.4821216785318146
endloop
endfacet
facet normal 1.2049262814377338e-17 0.17364817766694066 0.9848077530122062
outer loop
vertex -0.4 -0.08754962643932637 -0.4821216785318146
vertex 0.4 -0.0826255876742654 -0.4829899194201493
vertex -0.4 -0.08262558767426534 -0.4829899194201493
endloop
endfacet
facet normal -1.0 -0.0 0.0
outer loop
vertex -0.4 -0.08262558767426534 -0.4829899194201493
vertex -0.4 -0.09102258999266499 -0.5018178335920588
vertex -0.4 -0.08754962643932637 -0.4821216785318146
endloop
endfacet
facet normal 1.0 -0.0 0.0
outer loop
vertex 0.4 -0.08754962643932643 -0.4821216785318146
vertex 0.4 -0.08609855122760401 -0.5026860744803935
vertex 0.4 -0.0826255876742654 -0.4829899194201493
endloop
endfacet
facet normal -6.776263578034392e-17 -0.9848077530122079 0.17364817766693078
outer loop
vertex 0.4 -0.09102258999266505 -0.5018178335920588
vertex 0.4 -0.08754962643932643 -0.4821216785318146
vertex -0.4 -0.09102258999266499 -0.5018178335920588
endloop
endfacet
facet normal 1.0 -0.0 -0.0
outer loop
vertex 0.4 -0.09102258999266505 -0.5018178335920588
vertex 0.4 -0.08609855122760401 -0.5026860744803935
vertex 0.4 -0.08754962643932643 -0.4821216785318146
endloop
endfacet
facet normal 6.860966872759822e-17 0.9848077530122079 -0.17364817766693078
outer loop
vertex 0.4 -0.0826255876742654 -0.4829899194201493
vertex 0.4 -0.08609855122760401 -0.5026860744803935
vertex -0.4 -0.08262558767426534 -0.4829899194201493
endloop
endfacet
facet normal -1.0 0.0 0.0
outer loop
vertex -0.4 -0.08609855122760396 -0.5026860744803935
vertex -0.4 -0.09102258999266499 -0.5018178335920588
vertex -0.4 -0.08262558767426534 -0.4829899194201493
endloop
endfacet
facet normal 6.833476513896985e-17 0.9848077530122079 -0.17364817766693078
outer loop
vertex -0.4 -0.08262558767426534 -0.4829899194201493
vertex 0.4 -0.08609855122760401 -0.5026860744803935
vertex -0.4 -0.08609855122760396 -0.5026860744803935
endloop
endfacet
facet normal -1.2049262814377336e-17 -0.17364817766694063 -0.9848077530122062
outer loop
vertex -0.4 -0.08609855122760396 -0.5026860744803935
vertex 0.4 -0.09102258999266505 -0.5018178335920588
vertex -0.4 -0.09102258999266499 -0.5018178335920588
endloop
endfacet
facet normal -1.2070219498373772e-17 -0.17364817766694063 -0.9848077530122062
outer loop
vertex 0.4 -0.08609855122760401 -0.5026860744803935
vertex 0.4 -0.09102258999266505 -0.5018178335920588
vertex -0.4 -0.08609855122760396 -0.5026860744803935
endloop
endfacet
facet normal -1.1858461261560197e-17 -0.17364817766694063 0.9848077530122062
outer loop
vertex 0.4 0.08262558767426512 -0.48298991942014935
vertex 0.4 0.08754962643932615 -0.48212167853181465
vertex -0.4 0.08262558767426517 -0.48298991942014935
endloop
endfacet
facet normal -6.833476513896985e-17 -0.9848077530122081 -0.1736481776669299
outer loop
vertex -0.4 0.08609855122760376 -0.5026860744803935
vertex 0.4 0.08262558767426512 -0.48298991942014935
vertex -0.4 0.08262558767426517 -0.48298991942014935
endloop
endfacet
facet normal -1.2049262814377338e-17 -0.17364817766694066 0.9848077530122062
outer loop
vertex -0.4 0.08262558767426517 -0.48298991942014935
vertex 0.4 0.08754962643932615 -0.48212167853181465
vertex -0.4 0.0875496264393262 -0.48212167853181465
endloop
endfacet
facet normal -1.0 -0.0 0.0
outer loop
vertex -0.4 0.0875496264393262 -0.48212167853181465
vertex -0.4 0.08609855122760376 -0.5026860744803935
vertex -0.4 0.08262558767426517 -0.48298991942014935
endloop
endfacet
facet normal 1.0 -0.0 -0.0
outer loop
vertex 0.4 0.08262558767426512 -0.48298991942014935
vertex 0.4 0.09102258999266474 -0.5018178335920588
vertex 0.4 0.08754962643932615 -0.48212167853181465
endloop
endfacet
facet normal -6.776263578034411e-17 -0.9848077530122081 -0.1736481776669299
outer loop
vertex 0.4 0.08609855122760371 -0.5026860744803935
vertex 0.4 0.08262558767426512 -0.48298991942014935
vertex -0.4 0.08609855122760376 -0.5026860744803935
endloop
endfacet
facet normal 1.0 0.0 -0.0
outer loop
vertex 0.4 0.08609855122760371 -0.5026860744803935
vertex 0.4 0.09102258999266474 -0.5018178335920588
vertex 0.4 0.08262558767426512 -0.48298991942014935
endloop
endfacet
facet normal 6.860966872759841e-17 0.9848077530122081 0.1736481776669299
outer loop
vertex 0.4 0.08754962643932615 -0.48212167853181465
vertex 0.4 0.09102258999266474 -0.5018178335920588
vertex -0.4 0.0875496264393262 -0.48212167853181465
endloop
endfacet
facet normal -1.0 -0.0 0.0
outer loop
vertex -0.4 0.0910225899926648 -0.5018178335920588
vertex -0.4 0.08609855122760376 -0.5026860744803935
vertex -0.4 0.0875496264393262 -0.48212167853181465
endloop
endfacet
facet normal 6.833476513896985e-17 0.9848077530122081 0.17364817766692986
outer loop
vertex -0.4 0.0875496264393262 -0.48212167853181465
vertex 0.4 0.09102258999266474 -0.5018178335920588
vertex -0.4 0.0910225899926648 -0.5018178335920588
endloop
endfacet
facet normal 1.2049262814377336e-17 0.17364817766694063 -0.9848077530122062
outer loop
vertex -0.4 0.0910225899926648 -0.5018178335920588
vertex 0.4 0.08609855122760371 -0.5026860744803935
vertex -0.4 0.08609855122760376 -0.5026860744803935
endloop
endfacet
facet normal 1.2070219498373772e-17 0.17364817766694063 -0.9848077530122062
outer loop
vertex 0.4 0.09102258999266474 -0.5018178335920588
vertex 0.4 0.08609855122760371 -0.5026860744803935
vertex -0.4 0.0910225899926648 -0.5018178335920588
endloop
endfacet
facet normal -3.4728350837426376e-17 -0.49999999999999023 0.8660254037844443
outer loop
vertex 0.4 0.2428349364905389 -0.4256024478543749
vertex 0.4 0.2471650635094611 -0.42310244785437495
vertex -0.4 0.24283493649053894 -0.4256024478543749
endloop
endfacet
facet normal -6.009258394948634e-17 -0.8660254037844382 -0.500000000000001
outer loop
vertex -0.4 0.25283493649053895 -0.44292295593006364
vertex 0.4 0.2428349364905389 -0.4256024478543749
vertex -0.4 0.24283493649053894 -0.4256024478543749
endloop
endfacet
facet normal -3.4694469519535464e-17 -0.49999999999999023 0.8660254037844443
outer loop
vertex -0.4 0.24283493649053894 -0.4256024478543749
vertex 0.4 0.2471650635094611 -0.42310244785437495
vertex -0.4 0.24716506350946116 -0.42310244785437495
endloop
endfacet
facet normal -0.9999999999999999 -0.0 -0.0
outer loop
vertex -0.4 0.24716506350946116 -0.42310244785437495
vertex -0.4 0.25283493649053895 -0.44292295593006364
vertex -0.4 0.24283493649053894 -0.4256024478543749
endloop
endfacet
facet normal 1.0 -0.0 -0.0
outer loop
vertex 0.4 0.2428349364905389 -0.4256024478543749
vertex 0.4 0.25716506350946117 -0.4404229559300637
vertex 0.4 0.2471650635094611 -0.42310244785437495
endloop
endfacet
facet normal 0.0 -0.8660254037844369 -0.500000000000003
outer loop
vertex 0.4 0.25283493649053895 -0.44292295593006364
vertex 0.4 0.2428349364905389 -0.4256024478543749
vertex -0.4 0.25283493649053895 -0.44292295593006364
endloop
endfacet
facet normal 0.9999999999999999 0.0 -0.0
outer loop
vertex 0.4 0.25283493649053895 -0.44292295593006364
vertex 0.4 0.25716506350946117 -0.4404229559300637
vertex 0.4 0.2428349364905389 -0.4256024478543749
endloop
endfacet
facet normal 5.9292306307801e-17 0.8660254037844369 0.500000000000003
outer loop
vertex 0.4 0.2471650635094611 -0.42310244785437495
vertex 0.4 0.25716506350946117 -0.4404229559300637
vertex -0.4 0.24716506350946116 -0.42310244785437495
endloop
endfacet
facet normal -1.0 -0.0 0.0
outer loop
vertex -0.4 0.25716506350946117 -0.4404229559300637
vertex -0.4 0.25283493649053895 -0.44292295593006364
vertex -0.4 0.24716506350946116 -0.42310244785437495
endloop
endfacet
facet normal 0.0 0.8660254037844382 0.500000000000001
outer loop
vertex -0.4 0.24716506350946116 -0.42310244785437495
vertex 0.4 0.25716506350946117 -0.4404229559300637
vertex -0.4 0.25716506350946117 -0.4404229559300637
endloop
endfacet
facet normal 0.0 0.49999999999999023 -0.8660254037844443
outer loop
vertex -0.4 0.25716506350946117 -0.4404229559300637
vertex 0.4 0.25283493649053895 -0.44292295593006364
vertex -0.4 0.25283493649053895 -0.44292295593006364
endloop
endfacet
facet normal 0.0 0.49999999999999023 -0.8660254037844443
outer loop
vertex 0.4 0.25716506350946117 -0.4404229559300637
vertex 0.4 0.25283493649053895 -0.44292295593006364
vertex -0.4 0.25716506350946117 -0.4404229559300637
endloop
endfacet
facet normal 0.0 -0.7660444431189776 0.6427876096865397
outer loop
vertex 0.4 0.37375480810408274 -0.31688103985420185
vertex 0.4 0.37696874615251547 -0.3130508176386069
vertex -0.4 0.37375480810408274 -0.31688103985420185
endloop
endfacet
facet normal -0.0 -0.6427876096865394 -0.7660444431189781
outer loop
vertex -0.4 0.3890756969664623 -0.32973679204793266
vertex 0.4 0.37375480810408274 -0.31688103985420185
vertex -0.4 0.37375480810408274 -0.31688103985420185
endloop
endfacet
facet normal 0.0 -0.7660444431189776 0.6427876096865397
outer loop
vertex -0.4 0.37375480810408274 -0.31688103985420185
vertex 0.4 0.37696874615251547 -0.3130508176386069
vertex -0.4 0.37696874615251547 -0.3130508176386069
endloop
endfacet
facet normal -0.9999999999999999 -0.0 -0.0
outer loop
vertex -0.4 0.37696874615251547 -0.3130508176386069
vertex -0.4 0.3890756969664623 -0.32973679204793266
vertex -0.4 0.37375480810408274 -0.31688103985420185
endloop
endfacet
facet normal 1.0 -0.0 -0.0
outer loop
vertex 0.4 0.37375480810408274 -0.31688103985420185
vertex 0.4 0.39228963501489506 -0.32590656983233773
vertex 0.4 0.37696874615251547 -0.3130508176386069
endloop
endfacet
facet normal 0.0 -0.6427876096865394 -0.7660444431189781
outer loop
vertex 0.4 0.3890756969664623 -0.32973679204793266
vertex 0.4 0.37375480810408274 -0.31688103985420185
vertex -0.4 0.3890756969664623 -0.32973679204793266
endloop
endfacet
facet normal 1.0 0.0 -0.0
outer loop
vertex 0.4 0.3890756969664623 -0.32973679204793266
vertex 0.4 0.39228963501489506 -0.32590656983233773
vertex 0.4 0.37375480810408274 -0.31688103985420185
endloop
endfacet
facet normal 0.0 0.6427876096865394 0.7660444431189781
outer loop
vertex 0.4 0.37696874615251547 -0.3130508176386069
vertex 0.4 0.39228963501489506 -0.32590656983233773
vertex -0.4 0.37696874615251547 -0.3130508176386069
endloop
endfacet
facet normal -1.0 -0.0 0.0
outer loop
vertex -0.4 0.39228963501489506 -0.32590656983233773
vertex -0.4 0.3890756969664623 -0.32973679204793266
vertex -0.4 0.37696874615251547 -0.3130508176386069
endloop
endfacet
facet normal 0.0 0.6427876096865394 0.7660444431189781
outer loop
vertex -0.4 0.37696874615251547 -0.3130508176386069
vertex 0.4 0.39228963501489506 -0.32590656983233773
vertex -0.4 0.39228963501489506 -0.32590656983233773
endloop
endfacet
facet normal 0.0 0.7660444431189776 -0.6427876096865397
outer loop
vertex -0.4 0.39228963501489506 -0.32590656983233773
vertex 0.4 0.3890756969664623 -0.32973679204793266
vertex -0.4 0.3890756969664623 -0.32973679204793266
endloop
endfacet
facet normal 0.0 0.7660444431189776 -0.6427876096865397
outer loop
vertex 0.4 0.39228963501489506 -0.32590656983233773
vertex 0.4 0.3890756969664623 -0.32973679204793266
vertex -0.4 0.39228963501489506 -0.32590656983233773
endloop
endfacet
facet normal 0.0 -0.9396926207859068 0.3420201433256732
outer loop
vertex 0.4000000000000001 0.4595943338267808 -0.1699391017815428
vertex 0.4000000000000001 0.46130443454340914 -0.1652406386776133
vertex -0.39999999999999997 0.4595943338267808 -0.1699391017815428
endloop
endfacet
facet normal -0.0 -0.3420201433256689 -0.9396926207859082
outer loop
vertex -0.39999999999999997 0.47838818624249896 -0.1767795046480562
vertex 0.4000000000000001 0.4595943338267808 -0.1699391017815428
vertex -0.39999999999999997 0.4595943338267808 -0.1699391017815428
endloop
endfacet
facet normal 0.0 -0.9396926207859068 0.3420201433256732
outer loop
vertex -0.39999999999999997 0.4595943338267808 -0.1699391017815428
vertex 0.4000000000000001 0.46130443454340914 -0.1652406386776133
vertex -0.39999999999999997 0.46130443454340914 -0.1652406386776133
endloop
endfacet
facet normal -1.0 -0.0 -0.0
outer loop
vertex -0.39999999999999997 0.46130443454340914 -0.1652406386776133
vertex -0.39999999999999997 0.47838818624249896 -0.1767795046480562
vertex -0.39999999999999997 0.4595943338267808 -0.1699391017815428
endloop
endfacet
facet normal 1.0 -0.0 -0.0
outer loop
vertex 0.4000000000000001 0.4595943338267808 -0.1699391017815428
vertex 0.4000000000000001 0.4800982869591273 -0.17208104154412668
vertex 0.4000000000000001 0.46130443454340914 -0.1652406386776133
endloop
endfacet
facet normal 0.0 -0.3420201433256689 -0.9396926207859082
outer loop
vertex 0.4000000000000001 0.47838818624249896 -0.1767795046480562
vertex 0.4000000000000001 0.4595943338267808 -0.1699391017815428
vertex -0.39999999999999997 0.47838818624249896 -0.1767795046480562
endloop
endfacet
facet normal 1.0 0.0 -0.0
outer loop
vertex 0.4000000000000001 0.47838818624249896 -0.1767795046480562
vertex 0.4000000000000001 0.4800982869591273 -0.17208104154412668
vertex 0.4000000000000001 0.4595943338267808 -0.1699391017815428
endloop
endfacet
facet normal 0.0 0.3420201433256689 0.9396926207859082
outer loop
vertex 0.4000000000000001 0.46130443454340914 -0.1652406386776133
vertex 0.4000000000000001 0.4800982869591273 -0.17208104154412668
vertex -0.39999999999999997 0.46130443454340914 -0.1652406386776133
endloop
endfacet
facet normal -1.0 -0.0 0.0
outer loop
vertex -0.39999999999999997 0.4800982869591273 -0.17208104154412668
vertex -0.39999999999999997 0.47838818624249896 -0.1767795046480562
vertex -0.39999999999999997 0.46130443454340914 -0.1652406386776133
endloop
endfacet
facet normal 0.0 0.3420201433256689 0.9396926207859082
outer loop
vertex -0.39999999999999997 0.46130443454340914 -0.1652406386776133
vertex 0.4000000000000001 0.4800982869591273 -0.17208104154412668
vertex -0.39999999999999997 0.4800982869591273 -0.17208104154412668
endloop
endfacet
facet normal 0.0 0.9396926207859068 -0.3420201433256732
outer loop
vertex -0.39999999999999997 0.4800982869591273 -0.17208104154412668
vertex 0.4000000000000001 0.47838818624249896 -0.1767795046480562
vertex -0.39999999999999997 0.47838818624249896 -0.1767795046480562
endloop
endfacet
facet normal 0.0 0.9396926207859068 -0.3420201433256732
outer loop
vertex 0.4000000000000001 0.4800982869591273 -0.17208104154412668
vertex 0.4000000000000001 0.47838818624249896 -0.1767795046480562
vertex -0.39999999999999997 0.4800982869591273 -0.17208104154412668
endloop
endfacet

endsolid
