solid 
facet normal -1.0 6.938893903907228e-17 1.223514211532333e-17
outer loop
vertex -0.024999999999999994 0.1 -6.123233995736766e-18
vertex -0.025 1.5308084989341916e-18 -9.373498641636611e-35
vertex -0.024999999999999994 0.09396926207859085 0.034202014332566866
endloop
endfacet
facet normal 0.0 0.9848077530122081 0.17364817766693008
outer loop
vertex -0.024999999999999994 0.1 -6.123233995736766e-18
vertex -0.024999999999999994 0.09396926207859085 0.034202014332566866
vertex 0.02500000000000001 0.1 -6.123233995736766e-18
endloop
endfacet
facet normal -0.0 0.9848077530122081 0.17364817766693008
outer loop
vertex 0.02500000000000001 0.1 -6.123233995736766e-18
vertex -0.024999999999999994 0.09396926207859085 0.034202014332566866
vertex 0.02500000000000001 0.09396926207859085 0.034202014332566866
endloop
endfacet
facet normal 1.0 -6.938893903907228e-17 -1.223514211532333e-17
outer loop
vertex 0.02500000000000001 0.1 -6.123233995736766e-18
vertex 0.02500000000000001 0.09396926207859085 0.034202014332566866
vertex 0.025 -1.5308084989341916e-18 9.373498641636611e-35
endloop
endfacet
facet normal -1.0 9.571407843882275e-17 -6.009258394948634e-17
outer loop
vertex -0.024999999999999994 0.09396926207859085 0.034202014332566866
vertex -0.025 1.5308084989341916e-18 -9.373498641636611e-35
vertex -0.024999999999999998 0.0766044443118978 0.06427876096865393
endloop
endfacet
facet normal 0.0 0.8660254037844385 0.5000000000000001
outer loop
vertex -0.024999999999999994 0.09396926207859085 0.034202014332566866
vertex -0.024999999999999998 0.0766044443118978 0.06427876096865393
vertex 0.02500000000000001 0.09396926207859085 0.034202014332566866
endloop
endfacet
facet normal -0.0 0.8660254037844385 0.5000000000000002
outer loop
vertex 0.02500000000000001 0.09396926207859085 0.034202014332566866
vertex -0.024999999999999998 0.0766044443118978 0.06427876096865393
vertex 0.025000000000000005 0.0766044443118978 0.06427876096865393
endloop
endfacet
facet normal 1.0 -9.571407843882277e-17 6.009258394948635e-17
outer loop
vertex 0.02500000000000001 0.09396926207859085 0.034202014332566866
vertex 0.025000000000000005 0.0766044443118978 0.06427876096865393
vertex 0.025 -1.5308084989341916e-18 9.373498641636611e-35
endloop
endfacet
facet normal -1.0 2.264520670515953e-17 2.6987506445912334e-17
outer loop
vertex -0.024999999999999998 0.0766044443118978 0.06427876096865393
vertex -0.025 1.5308084989341916e-18 -9.373498641636611e-35
vertex -0.024999999999999998 0.050000000000000024 0.08660254037844387
endloop
endfacet
facet normal 0.0 0.6427876096865398 0.7660444431189777
outer loop
vertex -0.024999999999999998 0.0766044443118978 0.06427876096865393
vertex -0.024999999999999998 0.050000000000000024 0.08660254037844387
vertex 0.025000000000000005 0.0766044443118978 0.06427876096865393
endloop
endfacet
facet normal -0.0 0.6427876096865398 0.7660444431189777
outer loop
vertex 0.025000000000000005 0.0766044443118978 0.06427876096865393
vertex -0.024999999999999998 0.050000000000000024 0.08660254037844387
vertex 0.025000000000000005 0.050000000000000024 0.08660254037844387
endloop
endfacet
facet normal 1.0 -2.264520670515953e-17 -2.6987506445912334e-17
outer loop
vertex 0.025000000000000005 0.0766044443118978 0.06427876096865393
vertex 0.025000000000000005 0.050000000000000024 0.08660254037844387
vertex 0.025 -1.5308084989341916e-18 9.373498641636611e-35
endloop
endfacet
facet normal -1.0 9.989874349871557e-17 -1.7614843817697927e-17
outer loop
vertex -0.024999999999999998 0.050000000000000024 0.08660254037844387
vertex -0.025 1.5308084989341916e-18 -9.373498641636611e-35
vertex -0.025 0.01736481776669305 0.0984807753012208
endloop
endfacet
facet normal 0.0 0.34202014332566866 0.9396926207859083
outer loop
vertex -0.024999999999999998 0.050000000000000024 0.08660254037844387
vertex -0.025 0.01736481776669305 0.0984807753012208
vertex 0.025000000000000005 0.050000000000000024 0.08660254037844387
endloop
endfacet
facet normal -0.0 0.34202014332566866 0.9396926207859084
outer loop
vertex 0.025000000000000005 0.050000000000000024 0.08660254037844387
vertex -0.025 0.01736481776669305 0.0984807753012208
vertex 0.025 0.01736481776669305 0.0984807753012208
endloop
endfacet
facet normal 1.0 -9.989874349871559e-17 1.761484381769793e-17
outer loop
vertex 0.025000000000000005 0.050000000000000024 0.08660254037844387
vertex 0.025 0.01736481776669305 0.0984807753012208
vertex 0.025 -1.5308084989341916e-18 9.373498641636611e-35
endloop
endfacet
facet normal -1.0 -0.0 0.0
outer loop
vertex -0.025 0.01736481776669305 0.0984807753012208
vertex -0.025 1.5308084989341916e-18 -9.373498641636611e-35
vertex -0.025 -0.017364817766693023 0.0984807753012208
endloop
endfacet
facet normal -0.0 0.0 1.0
outer loop
vertex -0.025 0.01736481776669305 0.0984807753012208
vertex -0.025 -0.017364817766693023 0.0984807753012208
vertex 0.025 0.01736481776669305 0.0984807753012208
endloop
endfacet
facet normal -0.0 0.0 1.0
outer loop
vertex 0.025 0.01736481776669305 0.0984807753012208
vertex -0.025 -0.017364817766693023 0.0984807753012208
vertex 0.025 -0.017364817766693023 0.0984807753012208
endloop
endfacet
facet normal 1.0 0.0 0.0
outer loop
vertex 0.025 0.01736481776669305 0.0984807753012208
vertex 0.025 -0.017364817766693023 0.0984807753012208
vertex 0.025 -1.5308084989341916e-18 9.373498641636611e-35
endloop
endfacet
facet normal -1.0 9.989874349871567e-17 1.7614843817697918e-17
outer loop
vertex -0.025 -0.017364817766693023 0.0984807753012208
vertex -0.025 1.5308084989341916e-18 -9.373498641636611e-35
vertex -0.025000000000000005 -0.049999999999999975 0.08660254037844388
endloop
endfacet
facet normal 0.0 -0.3420201433256685 0.9396926207859085
outer loop
vertex -0.025 -0.017364817766693023 0.0984807753012208
vertex -0.025000000000000005 -0.049999999999999975 0.08660254037844388
vertex 0.025 -0.017364817766693023 0.0984807753012208
endloop
endfacet
facet normal 0.0 -0.3420201433256685 0.9396926207859086
outer loop
vertex 0.025 -0.017364817766693023 0.0984807753012208
vertex -0.025000000000000005 -0.049999999999999975 0.08660254037844388
vertex 0.024999999999999998 -0.049999999999999975 0.08660254037844388
endloop
endfacet
facet normal 1.0 -9.989874349871565e-17 -1.7614843817697908e-17
outer loop
vertex 0.025 -0.017364817766693023 0.0984807753012208
vertex 0.024999999999999998 -0.049999999999999975 0.08660254037844388
vertex 0.025 -1.5308084989341916e-18 9.373498641636611e-35
endloop
endfacet
facet normal -0.9999999999999999 2.2645206705159506e-17 -2.6987506445912353e-17
outer loop
vertex -0.025000000000000005 -0.049999999999999975 0.08660254037844388
vertex -0.025 1.5308084989341916e-18 -9.373498641636611e-35
vertex -0.025000000000000005 -0.07660444431189779 0.06427876096865395
endloop
endfacet
facet normal 0.0 -0.642787609686539 0.7660444431189782
outer loop
vertex -0.025000000000000005 -0.049999999999999975 0.08660254037844388
vertex -0.025000000000000005 -0.07660444431189779 0.06427876096865395
vertex 0.024999999999999998 -0.049999999999999975 0.08660254037844388
endloop
endfacet
facet normal 0.0 -0.642787609686539 0.7660444431189782
outer loop
vertex 0.024999999999999998 -0.049999999999999975 0.08660254037844388
vertex -0.025000000000000005 -0.07660444431189779 0.06427876096865395
vertex 0.024999999999999998 -0.07660444431189779 0.06427876096865395
endloop
endfacet
facet normal 0.9999999999999999 -2.2645206705159506e-17 2.6987506445912353e-17
outer loop
vertex 0.024999999999999998 -0.049999999999999975 0.08660254037844388
vertex 0.024999999999999998 -0.07660444431189779 0.06427876096865395
vertex 0.025 -1.5308084989341916e-18 9.373498641636611e-35
endloop
endfacet
facet normal -1.0 9.571407843882278e-17 6.009258394948633e-17
outer loop
vertex -0.025000000000000005 -0.07660444431189779 0.06427876096865395
vertex -0.025 1.5308084989341916e-18 -9.373498641636611e-35
vertex -0.02500000000000001 -0.09396926207859084 0.034202014332566893
endloop
endfacet
facet normal 0.0 -0.8660254037844385 0.5000000000000001
outer loop
vertex -0.025000000000000005 -0.07660444431189779 0.06427876096865395
vertex -0.02500000000000001 -0.09396926207859084 0.034202014332566893
vertex 0.024999999999999998 -0.07660444431189779 0.06427876096865395
endloop
endfacet
facet normal 0.0 -0.8660254037844385 0.5000000000000002
outer loop
vertex 0.024999999999999998 -0.07660444431189779 0.06427876096865395
vertex -0.02500000000000001 -0.09396926207859084 0.034202014332566893
vertex 0.024999999999999994 -0.09396926207859084 0.034202014332566893
endloop
endfacet
facet normal 1.0 -9.57140784388228e-17 -6.009258394948634e-17
outer loop
vertex 0.024999999999999998 -0.07660444431189779 0.06427876096865395
vertex 0.024999999999999994 -0.09396926207859084 0.034202014332566893
vertex 0.025 -1.5308084989341916e-18 9.373498641636611e-35
endloop
endfacet
facet normal -1.0 6.938893903907227e-17 -1.2235142115323357e-17
outer loop
vertex -0.02500000000000001 -0.09396926207859084 0.034202014332566893
vertex -0.025 1.5308084989341916e-18 -9.373498641636611e-35
vertex -0.02500000000000001 -0.1 1.83697019872103e-17
endloop
endfacet
facet normal 0.0 -0.9848077530122081 0.1736481776669305
outer loop
vertex -0.02500000000000001 -0.09396926207859084 0.034202014332566893
vertex -0.02500000000000001 -0.1 1.83697019872103e-17
vertex 0.024999999999999994 -0.09396926207859084 0.034202014332566893
endloop
endfacet
facet normal 0.0 -0.9848077530122081 0.1736481776669305
outer loop
vertex 0.024999999999999994 -0.09396926207859084 0.034202014332566893
vertex -0.02500000000000001 -0.1 1.83697019872103e-17
vertex 0.024999999999999994 -0.1 1.83697019872103e-17
endloop
endfacet
facet normal 1.0 -6.938893903907228e-17 1.2235142115323358e-17
outer loop
vertex 0.024999999999999994 -0.09396926207859084 0.034202014332566893
vertex 0.024999999999999994 -0.1 1.83697019872103e-17
vertex 0.025 -1.5308084989341916e-18 9.373498641636611e-35
endloop
endfacet
facet normal -1.0 6.938893903907228e-17 1.2235142115323329e-17
outer loop
vertex -0.02500000000000001 -0.1 1.83697019872103e-17
vertex -0.025 1.5308084989341916e-18 -9.373498641636611e-35
vertex -0.02500000000000001 -0.09396926207859085 -0.03420201433256686
endloop
endfacet
facet normal 0.0 -0.9848077530122081 -0.17364817766693005
outer loop
vertex -0.02500000000000001 -0.1 1.83697019872103e-17
vertex -0.02500000000000001 -0.09396926207859085 -0.03420201433256686
vertex 0.024999999999999994 -0.1 1.83697019872103e-17
endloop
endfacet
facet normal 0.0 -0.9848077530122081 -0.17364817766693005
outer loop
vertex 0.024999999999999994 -0.1 1.83697019872103e-17
vertex -0.02500000000000001 -0.09396926207859085 -0.03420201433256686
vertex 0.024999999999999994 -0.09396926207859085 -0.03420201433256686
endloop
endfacet
facet normal 0.9999999999999999 -6.938893903907227e-17 -1.2235142115323326e-17
outer loop
vertex 0.024999999999999994 -0.1 1.83697019872103e-17
vertex 0.024999999999999994 -0.09396926207859085 -0.03420201433256686
vertex 0.025 -1.5308084989341916e-18 9.373498641636611e-35
endloop
endfacet
facet normal -1.0 9.571407843882273e-17 -6.009258394948633e-17
outer loop
vertex -0.02500000000000001 -0.09396926207859085 -0.03420201433256686
vertex -0.025 1.5308084989341916e-18 -9.373498641636611e-35
vertex -0.025000000000000005 -0.0766044443118978 -0.06427876096865393
endloop
endfacet
facet normal 0.0 -0.8660254037844384 -0.5000000000000002
outer loop
vertex -0.02500000000000001 -0.09396926207859085 -0.03420201433256686
vertex -0.025000000000000005 -0.0766044443118978 -0.06427876096865393
vertex 0.024999999999999994 -0.09396926207859085 -0.03420201433256686
endloop
endfacet
facet normal 0.0 -0.8660254037844386 -0.5000000000000002
outer loop
vertex 0.024999999999999994 -0.09396926207859085 -0.03420201433256686
vertex -0.025000000000000005 -0.0766044443118978 -0.06427876096865393
vertex 0.024999999999999998 -0.0766044443118978 -0.06427876096865393
endloop
endfacet
facet normal 1.0 -9.571407843882275e-17 6.009258394948634e-17
outer loop
vertex 0.024999999999999994 -0.09396926207859085 -0.03420201433256686
vertex 0.024999999999999998 -0.0766044443118978 -0.06427876096865393
vertex 0.025 -1.5308084989341916e-18 9.373498641636611e-35
endloop
endfacet
facet normal -1.0 2.2645206705159534e-17 2.6987506445912343e-17
outer loop
vertex -0.025000000000000005 -0.0766044443118978 -0.06427876096865393
vertex -0.025 1.5308084989341916e-18 -9.373498641636611e-35
vertex -0.025000000000000005 -0.05000000000000005 -0.08660254037844384
endloop
endfacet
facet normal 0.0 -0.6427876096865397 -0.7660444431189778
outer loop
vertex -0.025000000000000005 -0.0766044443118978 -0.06427876096865393
vertex -0.025000000000000005 -0.05000000000000005 -0.08660254037844384
vertex 0.024999999999999998 -0.0766044443118978 -0.06427876096865393
endloop
endfacet
facet normal 0.0 -0.6427876096865397 -0.7660444431189778
outer loop
vertex 0.024999999999999998 -0.0766044443118978 -0.06427876096865393
vertex -0.025000000000000005 -0.05000000000000005 -0.08660254037844384
vertex 0.024999999999999998 -0.05000000000000005 -0.08660254037844384
endloop
endfacet
facet normal 1.0 -2.264520670515953e-17 -2.6987506445912337e-17
outer loop
vertex 0.024999999999999998 -0.0766044443118978 -0.06427876096865393
vertex 0.024999999999999998 -0.05000000000000005 -0.08660254037844384
vertex 0.025 -1.5308084989341916e-18 9.373498641636611e-35
endloop
endfacet
facet normal -1.0 9.989874349871548e-17 -1.76148438176979e-17
outer loop
vertex -0.025000000000000005 -0.05000000000000005 -0.08660254037844384
vertex -0.025 1.5308084989341916e-18 -9.373498641636611e-35
vertex -0.025 -0.01736481776669304 -0.0984807753012208
endloop
endfacet
facet normal 0.0 -0.34202014332566893 -0.9396926207859082
outer loop
vertex -0.025000000000000005 -0.05000000000000005 -0.08660254037844384
vertex -0.025 -0.01736481776669304 -0.0984807753012208
vertex 0.024999999999999998 -0.05000000000000005 -0.08660254037844384
endloop
endfacet
facet normal 0.0 -0.342020143325669 -0.9396926207859083
outer loop
vertex 0.024999999999999998 -0.05000000000000005 -0.08660254037844384
vertex -0.025 -0.01736481776669304 -0.0984807753012208
vertex 0.025 -0.01736481776669304 -0.0984807753012208
endloop
endfacet
facet normal 1.0 -9.989874349871548e-17 1.76148438176979e-17
outer loop
vertex 0.024999999999999998 -0.05000000000000005 -0.08660254037844384
vertex 0.025 -0.01736481776669304 -0.0984807753012208
vertex 0.025 -1.5308084989341916e-18 9.373498641636611e-35
endloop
endfacet
facet normal -1.0 0.0 0.0
outer loop
vertex -0.025 -0.01736481776669304 -0.0984807753012208
vertex -0.025 1.5308084989341916e-18 -9.373498641636611e-35
vertex -0.025 0.01736481776669299 -0.09848077530122082
endloop
endfacet
facet normal 0.0 -3.9959497399486286e-16 -0.9999999999999999
outer loop
vertex -0.025 -0.01736481776669304 -0.0984807753012208
vertex -0.025 0.01736481776669299 -0.09848077530122082
vertex 0.025 -0.01736481776669304 -0.0984807753012208
endloop
endfacet
facet normal 0.0 -3.9959497399486286e-16 -0.9999999999999999
outer loop
vertex 0.025 -0.01736481776669304 -0.0984807753012208
vertex -0.025 0.01736481776669299 -0.09848077530122082
vertex 0.025 0.01736481776669299 -0.09848077530122082
endloop
endfacet
facet normal 1.0 -0.0 -0.0
outer loop
vertex 0.025 -0.01736481776669304 -0.0984807753012208
vertex 0.025 0.01736481776669299 -0.09848077530122082
vertex 0.025 -1.5308084989341916e-18 9.373498641636611e-35
endloop
endfacet
facet normal -1.0 9.989874349871547e-17 1.7614843817697847e-17
outer loop
vertex -0.025 0.01736481776669299 -0.09848077530122082
vertex -0.025 1.5308084989341916e-18 -9.373498641636611e-35
vertex -0.024999999999999998 0.05000000000000001 -0.08660254037844387
endloop
endfacet
facet normal 0.0 0.3420201433256685 -0.9396926207859084
outer loop
vertex -0.025 0.01736481776669299 -0.09848077530122082
vertex -0.024999999999999998 0.05000000000000001 -0.08660254037844387
vertex 0.025 0.01736481776669299 -0.09848077530122082
endloop
endfacet
facet normal 0.0 0.3420201433256685 -0.9396926207859083
outer loop
vertex 0.025 0.01736481776669299 -0.09848077530122082
vertex -0.024999999999999998 0.05000000000000001 -0.08660254037844387
vertex 0.025000000000000005 0.05000000000000001 -0.08660254037844387
endloop
endfacet
facet normal 1.0 -9.989874349871547e-17 -1.7614843817697847e-17
outer loop
vertex 0.025 0.01736481776669299 -0.09848077530122082
vertex 0.025000000000000005 0.05000000000000001 -0.08660254037844387
vertex 0.025 -1.5308084989341916e-18 9.373498641636611e-35
endloop
endfacet
facet normal -1.0 2.2645206705159513e-17 -2.6987506445912347e-17
outer loop
vertex -0.024999999999999998 0.05000000000000001 -0.08660254037844387
vertex -0.025 1.5308084989341916e-18 -9.373498641636611e-35
vertex -0.024999999999999998 0.07660444431189778 -0.06427876096865397
endloop
endfacet
facet normal 0.0 0.6427876096865393 -0.7660444431189782
outer loop
vertex -0.024999999999999998 0.05000000000000001 -0.08660254037844387
vertex -0.024999999999999998 0.07660444431189778 -0.06427876096865397
vertex 0.025000000000000005 0.05000000000000001 -0.08660254037844387
endloop
endfacet
facet normal 0.0 0.6427876096865393 -0.7660444431189782
outer loop
vertex 0.025000000000000005 0.05000000000000001 -0.08660254037844387
vertex -0.024999999999999998 0.07660444431189778 -0.06427876096865397
vertex 0.025000000000000005 0.07660444431189778 -0.06427876096865397
endloop
endfacet
facet normal 1.0 -2.2645206705159513e-17 2.6987506445912347e-17
outer loop
vertex 0.025000000000000005 0.05000000000000001 -0.08660254037844387
vertex 0.025000000000000005 0.07660444431189778 -0.06427876096865397
vertex 0.025 -1.5308084989341916e-18 9.373498641636611e-35
endloop
endfacet
facet normal -1.0 9.571407843882288e-17 6.009258394948642e-17
outer loop
vertex -0.024999999999999998 0.07660444431189778 -0.06427876096865397
vertex -0.025 1.5308084989341916e-18 -9.373498641636611e-35
vertex -0.024999999999999994 0.09396926207859081 -0.03420201433256695
endloop
endfacet
facet normal 0.0 0.8660254037844384 -0.5000000000000006
outer loop
vertex -0.024999999999999998 0.07660444431189778 -0.06427876096865397
vertex -0.024999999999999994 0.09396926207859081 -0.03420201433256695
vertex 0.025000000000000005 0.07660444431189778 -0.06427876096865397
endloop
endfacet
facet normal 0.0 0.8660254037844384 -0.5000000000000004
outer loop
vertex 0.025000000000000005 0.07660444431189778 -0.06427876096865397
vertex -0.024999999999999994 0.09396926207859081 -0.03420201433256695
vertex 0.02500000000000001 0.09396926207859081 -0.03420201433256695
endloop
endfacet
facet normal 1.0 -9.571407843882286e-17 -6.00925839494864e-17
outer loop
vertex 0.025000000000000005 0.07660444431189778 -0.06427876096865397
vertex 0.02500000000000001 0.09396926207859081 -0.03420201433256695
vertex 0.025 -1.5308084989341916e-18 9.373498641636611e-35
endloop
endfacet
facet normal -1.0 6.938893903907228e-17 -1.223514211532339e-17
outer loop
vertex -0.024999999999999994 0.09396926207859081 -0.03420201433256695
vertex -0.025 1.5308084989341916e-18 -9.373498641636611e-35
vertex -0.024999999999999994 0.1 -6.123233995736766e-18
endloop
endfacet
facet normal 0.0 0.984807753012208 -0.1736481776669309
outer loop
vertex -0.024999999999999994 0.09396926207859081 -0.03420201433256695
vertex -0.024999999999999994 0.1 -6.123233995736766e-18
vertex 0.02500000000000001 0.09396926207859081 -0.03420201433256695
endloop
endfacet
facet normal 0.0 0.984807753012208 -0.1736481776669309
outer loop
vertex 0.02500000000000001 0.09396926207859081 -0.03420201433256695
vertex -0.024999999999999994 0.1 -6.123233995736766e-18
vertex 0.02500000000000001 0.1 -6.123233995736766e-18
endloop
endfacet
facet normal 1.0 -6.938893903907228e-17 1.223514211532339e-17
outer loop
vertex 0.02500000000000001 0.09396926207859081 -0.03420201433256695
vertex 0.02500000000000001 0.1 -6.123233995736766e-18
vertex 0.025 -1.5308084989341916e-18 9.373498641636611e-35
endloop
endfacet
facet normal -0.0 -1.0 0.0
outer loop
vertex 0.02500000000000001 0.09000000000000001 -0.0025000000000000057
vertex 0.02500000000000001 0.09000000000000001 0.0024999999999999944
vertex -0.024999999999999994 0.09000000000000001 -0.0025000000000000057
endloop
endfacet
facet normal -0.0 -6.50521303491303e-17 -1.0
outer loop
vertex -0.024999999999999994 0.11 -0.002500000000000007
vertex 0.02500000000000001 0.09000000000000001 -0.0025000000000000057
vertex -0.024999999999999994 0.09000000000000001 -0.0025000000000000057
endloop
endfacet
facet normal 0.0 -1.0 0.0
outer loop
vertex -0.024999999999999994 0.09000000000000001 -0.0025000000000000057
vertex 0.02500000000000001 0.09000000000000001 0.0024999999999999944
vertex -0.024999999999999994 0.09000000000000001 0.0024999999999999944
endloop
endfacet
facet normal -0.9999999999999999 -0.0 -0.0
outer loop
vertex -0.024999999999999994 0.09000000000000001 0.0024999999999999944
vertex -0.024999999999999994 0.11 -0.002500000000000007
vertex -0.024999999999999994 0.09000000000000001 -0.0025000000000000057
endloop
endfacet
facet normal 1.0 0.0 -0.0
outer loop
vertex 0.02500000000000001 0.09000000000000001 -0.0025000000000000057
vertex 0.02500000000000001 0.11 0.002499999999999993
vertex 0.02500000000000001 0.09000000000000001 0.0024999999999999944
endloop
endfacet
facet normal 0.0 -6.50521303491303e-17 -1.0
outer loop
vertex 0.02500000000000001 0.11 -0.002500000000000007
vertex 0.02500000000000001 0.09000000000000001 -0.0025000000000000057
vertex -0.024999999999999994 0.11 -0.002500000000000007
endloop
endfacet
facet normal 1.0 0.0 -0.0
outer loop
vertex 0.02500000000000001 0.11 -0.002500000000000007
vertex 0.02500000000000001 0.11 0.002499999999999993
vertex 0.02500000000000001 0.09000000000000001 -0.0025000000000000057
endloop
endfacet
facet normal 0.0 6.50521303491303e-17 1.0
outer loop
vertex 0.02500000000000001 0.09000000000000001 0.0024999999999999944
vertex 0.02500000000000001 0.11 0.002499999999999993
vertex -0.024999999999999994 0.09000000000000001 0.0024999999999999944
endloop
endfacet
facet normal -1.0 -0.0 -0.0
outer loop
vertex -0.024999999999999994 0.11 0.002499999999999993
vertex -0.024999999999999994 0.11 -0.002500000000000007
vertex -0.024999999999999994 0.09000000000000001 0.0024999999999999944
endloop
endfacet
facet normal 0.0 6.50521303491303e-17 1.0
outer loop
vertex -0.024999999999999994 0.09000000000000001 0.0024999999999999944
vertex 0.02500000000000001 0.11 0.002499999999999993
vertex -0.024999999999999994 0.11 0.002499999999999993
endloop
endfacet
facet normal 0.0 1.0 0.0
outer loop
vertex -0.024999999999999994 0.11 0.002499999999999993
vertex 0.02500000000000001 0.11 -0.002500000000000007
vertex -0.024999999999999994 0.11 -0.002500000000000007
endloop
endfacet
facet normal 0.0 1.0 0.0
outer loop
vertex 0.02500000000000001 0.11 0.002499999999999993
vertex 0.02500000000000001 0.11 -0.002500000000000007
vertex -0.024999999999999994 0.11 0.002499999999999993
endloop
endfacet
facet normal 0.0 -0.9396926207859092 -0.34202014332566644
outer loop
vertex 0.02500000000000001 0.08542738622904593 0.028432581347345408
vertex 0.025000000000000005 0.0837172855124176 0.03313104445127495
vertex -0.024999999999999994 0.08542738622904593 0.028432581347345408
endloop
endfacet
facet normal 0.0 0.34202014332566855 -0.9396926207859084
outer loop
vertex -0.024999999999999994 0.1042212386447641 0.03527298421385878
vertex 0.02500000000000001 0.08542738622904593 0.028432581347345408
vertex -0.024999999999999994 0.08542738622904593 0.028432581347345408
endloop
endfacet
facet normal -0.0 -0.9396926207859093 -0.34202014332566655
outer loop
vertex -0.024999999999999994 0.08542738622904593 0.028432581347345408
vertex 0.025000000000000005 0.0837172855124176 0.03313104445127495
vertex -0.024999999999999998 0.0837172855124176 0.03313104445127495
endloop
endfacet
facet normal -0.9999999999999999 2.373241487535958e-16 -6.520427397917947e-16
outer loop
vertex -0.024999999999999998 0.0837172855124176 0.03313104445127495
vertex -0.024999999999999994 0.1042212386447641 0.03527298421385878
vertex -0.024999999999999994 0.08542738622904593 0.028432581347345408
endloop
endfacet
facet normal 1.0 -4.003348337015446e-16 5.927117026033962e-16
outer loop
vertex 0.02500000000000001 0.08542738622904593 0.028432581347345408
vertex 0.02500000000000001 0.10251113792813576 0.039971447317788324
vertex 0.025000000000000005 0.0837172855124176 0.03313104445127495
endloop
endfacet
facet normal 0.0 0.34202014332566855 -0.9396926207859084
outer loop
vertex 0.02500000000000001 0.1042212386447641 0.03527298421385878
vertex 0.02500000000000001 0.08542738622904593 0.028432581347345408
vertex -0.024999999999999994 0.1042212386447641 0.03527298421385878
endloop
endfacet
facet normal 1.0 0.0 0.0
outer loop
vertex 0.02500000000000001 0.1042212386447641 0.03527298421385878
vertex 0.02500000000000001 0.10251113792813576 0.039971447317788324
vertex 0.02500000000000001 0.08542738622904593 0.028432581347345408
endloop
endfacet
facet normal 0.0 -0.34202014332566866 0.9396926207859085
outer loop
vertex 0.025000000000000005 0.0837172855124176 0.03313104445127495
vertex 0.02500000000000001 0.10251113792813576 0.039971447317788324
vertex -0.024999999999999998 0.0837172855124176 0.03313104445127495
endloop
endfacet
facet normal -1.0 1.6301068494794882e-16 5.933103718839859e-17
outer loop
vertex -0.024999999999999994 0.10251113792813576 0.039971447317788324
vertex -0.024999999999999994 0.1042212386447641 0.03527298421385878
vertex -0.024999999999999998 0.0837172855124176 0.03313104445127495
endloop
endfacet
facet normal 0.0 -0.34202014332566855 0.9396926207859084
outer loop
vertex -0.024999999999999998 0.0837172855124176 0.03313104445127495
vertex 0.02500000000000001 0.10251113792813576 0.039971447317788324
vertex -0.024999999999999994 0.10251113792813576 0.039971447317788324
endloop
endfacet
facet normal 0.0 0.9396926207859093 0.34202014332566655
outer loop
vertex -0.024999999999999994 0.10251113792813576 0.039971447317788324
vertex 0.02500000000000001 0.1042212386447641 0.03527298421385878
vertex -0.024999999999999994 0.1042212386447641 0.03527298421385878
endloop
endfacet
facet normal 0.0 0.9396926207859093 0.34202014332566655
outer loop
vertex 0.02500000000000001 0.10251113792813576 0.039971447317788324
vertex 0.02500000000000001 0.1042212386447641 0.03527298421385878
vertex -0.024999999999999994 0.10251113792813576 0.039971447317788324
endloop
endfacet
facet normal 0.0 -0.7660444431189769 -0.6427876096865406
outer loop
vertex 0.025000000000000005 0.07055096890492438 0.055935773763991094
vertex 0.025000000000000005 0.06733703085649168 0.05976599597958598
vertex -0.024999999999999998 0.07055096890492438 0.055935773763991094
endloop
endfacet
facet normal 0.0 0.642787609686539 -0.7660444431189785
outer loop
vertex -0.024999999999999994 0.08587185776730394 0.06879152595772187
vertex 0.025000000000000005 0.07055096890492438 0.055935773763991094
vertex -0.024999999999999998 0.07055096890492438 0.055935773763991094
endloop
endfacet
facet normal -0.0 -0.7660444431189769 -0.6427876096865406
outer loop
vertex -0.024999999999999998 0.07055096890492438 0.055935773763991094
vertex 0.025000000000000005 0.06733703085649168 0.05976599597958598
vertex -0.024999999999999998 0.06733703085649168 0.05976599597958598
endloop
endfacet
facet normal -0.9999999999999999 1.3288752791200694e-16 1.115058756590259e-16
outer loop
vertex -0.024999999999999998 0.06733703085649168 0.05976599597958598
vertex -0.024999999999999994 0.08587185776730394 0.06879152595772187
vertex -0.024999999999999998 0.07055096890492438 0.055935773763991094
endloop
endfacet
facet normal 1.0 0.0 -0.0
outer loop
vertex 0.025000000000000005 0.07055096890492438 0.055935773763991094
vertex 0.025000000000000005 0.08265791971887124 0.07262174817331676
vertex 0.025000000000000005 0.06733703085649168 0.05976599597958598
endloop
endfacet
facet normal 0.0 0.642787609686539 -0.7660444431189785
outer loop
vertex 0.02500000000000001 0.08587185776730394 0.06879152595772187
vertex 0.025000000000000005 0.07055096890492438 0.055935773763991094
vertex -0.024999999999999994 0.08587185776730394 0.06879152595772187
endloop
endfacet
facet normal 1.0 -5.789110305481088e-16 4.2004423598900206e-16
outer loop
vertex 0.02500000000000001 0.08587185776730394 0.06879152595772187
vertex 0.025000000000000005 0.08265791971887124 0.07262174817331676
vertex 0.025000000000000005 0.07055096890492438 0.055935773763991094
endloop
endfacet
facet normal 0.0 -0.6427876096865394 0.7660444431189781
outer loop
vertex 0.025000000000000005 0.06733703085649168 0.05976599597958598
vertex 0.025000000000000005 0.08265791971887124 0.07262174817331676
vertex -0.024999999999999998 0.06733703085649168 0.05976599597958598
endloop
endfacet
facet normal -1.0 4.460235026361018e-16 -5.315501116480275e-16
outer loop
vertex -0.024999999999999998 0.08265791971887124 0.07262174817331676
vertex -0.024999999999999994 0.08587185776730394 0.06879152595772187
vertex -0.024999999999999998 0.06733703085649168 0.05976599597958598
endloop
endfacet
facet normal 0.0 -0.6427876096865394 0.7660444431189781
outer loop
vertex -0.024999999999999998 0.06733703085649168 0.05976599597958598
vertex 0.025000000000000005 0.08265791971887124 0.07262174817331676
vertex -0.024999999999999998 0.08265791971887124 0.07262174817331676
endloop
endfacet
facet normal 0.0 0.7660444431189781 0.6427876096865394
outer loop
vertex -0.024999999999999998 0.08265791971887124 0.07262174817331676
vertex 0.02500000000000001 0.08587185776730394 0.06879152595772187
vertex -0.024999999999999994 0.08587185776730394 0.06879152595772187
endloop
endfacet
facet normal 0.0 0.7660444431189781 0.6427876096865394
outer loop
vertex 0.025000000000000005 0.08265791971887124 0.07262174817331676
vertex 0.02500000000000001 0.08587185776730394 0.06879152595772187
vertex -0.024999999999999998 0.08265791971887124 0.07262174817331676
endloop
endfacet
facet normal 0.0 -0.500000000000001 -0.8660254037844382
outer loop
vertex 0.025000000000000005 0.04716506350946111 0.07669228634059948
vertex 0.025000000000000005 0.042834936490538926 0.07919228634059948
vertex -0.024999999999999998 0.04716506350946111 0.07669228634059948
endloop
endfacet
facet normal 0.0 0.8660254037844387 -0.5000000000000001
outer loop
vertex -0.024999999999999998 0.057165063509461114 0.09401279441628825
vertex 0.025000000000000005 0.04716506350946111 0.07669228634059948
vertex -0.024999999999999998 0.04716506350946111 0.07669228634059948
endloop
endfacet
facet normal -0.0 -0.500000000000001 -0.8660254037844382
outer loop
vertex -0.024999999999999998 0.04716506350946111 0.07669228634059948
vertex 0.025000000000000005 0.042834936490538926 0.07919228634059948
vertex -0.024999999999999998 0.042834936490538926 0.07919228634059948
endloop
endfacet
facet normal -1.0 0.0 -0.0
outer loop
vertex -0.024999999999999998 0.042834936490538926 0.07919228634059948
vertex -0.024999999999999998 0.057165063509461114 0.09401279441628825
vertex -0.024999999999999998 0.04716506350946111 0.07669228634059948
endloop
endfacet
facet normal 1.0 0.0 -0.0
outer loop
vertex 0.025000000000000005 0.04716506350946111 0.07669228634059948
vertex 0.025000000000000005 0.05283493649053893 0.09651279441628825
vertex 0.025000000000000005 0.042834936490538926 0.07919228634059948
endloop
endfacet
facet normal 0.0 0.8660254037844387 -0.5000000000000001
outer loop
vertex 0.025000000000000005 0.057165063509461114 0.09401279441628825
vertex 0.025000000000000005 0.04716506350946111 0.07669228634059948
vertex -0.024999999999999998 0.057165063509461114 0.09401279441628825
endloop
endfacet
facet normal 1.0 0.0 0.0
outer loop
vertex 0.025000000000000005 0.057165063509461114 0.09401279441628825
vertex 0.025000000000000005 0.05283493649053893 0.09651279441628825
vertex 0.025000000000000005 0.04716506350946111 0.07669228634059948
endloop
endfacet
facet normal 0.0 -0.8660254037844387 0.5000000000000001
outer loop
vertex 0.025000000000000005 0.042834936490538926 0.07919228634059948
vertex 0.025000000000000005 0.05283493649053893 0.09651279441628825
vertex -0.024999999999999998 0.042834936490538926 0.07919228634059948
endloop
endfacet
facet normal -1.0 0.0 -0.0
outer loop
vertex -0.024999999999999998 0.05283493649053893 0.09651279441628825
vertex -0.024999999999999998 0.057165063509461114 0.09401279441628825
vertex -0.024999999999999998 0.042834936490538926 0.07919228634059948
endloop
endfacet
facet normal 0.0 -0.8660254037844387 0.5000000000000001
outer loop
vertex -0.024999999999999998 0.042834936490538926 0.07919228634059948
vertex 0.025000000000000005 0.05283493649053893 0.09651279441628825
vertex -0.024999999999999998 0.05283493649053893 0.09651279441628825
endloop
endfacet
facet normal 0.0 0.500000000000001 0.8660254037844382
outer loop
vertex -0.024999999999999998 0.05283493649053893 0.09651279441628825
vertex 0.025000000000000005 0.057165063509461114 0.09401279441628825
vertex -0.024999999999999998 0.057165063509461114 0.09401279441628825
endloop
endfacet
facet normal 0.0 0.500000000000001 0.8660254037844382
outer loop
vertex 0.025000000000000005 0.05283493649053893 0.09651279441628825
vertex 0.025000000000000005 0.057165063509461114 0.09401279441628825
vertex -0.024999999999999998 0.05283493649053893 0.09651279441628825
endloop
endfacet
facet normal 0.0 -0.17364817766692955 -0.9848077530122082
outer loop
vertex 0.025 0.018090355372554268 0.08819857732693141
vertex 0.025 0.013166316607493223 0.08906681821526606
vertex -0.025 0.018090355372554268 0.08819857732693141
endloop
endfacet
facet normal 0.0 0.984807753012208 -0.17364817766693041
outer loop
vertex -0.025 0.021563318925892874 0.10789473238717556
vertex 0.025 0.018090355372554268 0.08819857732693141
vertex -0.025 0.018090355372554268 0.08819857732693141
endloop
endfacet
facet normal -1.2049262814376574e-17 -0.17364817766692967 -0.9848077530122082
outer loop
vertex -0.025 0.018090355372554268 0.08819857732693141
vertex 0.025 0.013166316607493223 0.08906681821526606
vertex -0.025 0.013166316607493227 0.08906681821526606
endloop
endfacet
facet normal -1.0 0.0 -0.0
outer loop
vertex -0.025 0.013166316607493227 0.08906681821526606
vertex -0.025 0.021563318925892874 0.10789473238717556
vertex -0.025 0.018090355372554268 0.08819857732693141
endloop
endfacet
facet normal 1.0 0.0 0.0
outer loop
vertex 0.025 0.018090355372554268 0.08819857732693141
vertex 0.025 0.016639280160831833 0.10876297327551021
vertex 0.025 0.013166316607493223 0.08906681821526606
endloop
endfacet
facet normal 0.0 0.984807753012208 -0.17364817766693041
outer loop
vertex 0.025 0.021563318925892874 0.10789473238717556
vertex 0.025 0.018090355372554268 0.08819857732693141
vertex -0.025 0.021563318925892874 0.10789473238717556
endloop
endfacet
facet normal 1.0 0.0 0.0
outer loop
vertex 0.025 0.021563318925892874 0.10789473238717556
vertex 0.025 0.016639280160831833 0.10876297327551021
vertex 0.025 0.018090355372554268 0.08819857732693141
endloop
endfacet
facet normal -6.776263578034405e-17 -0.984807753012208 0.1736481776669306
outer loop
vertex 0.025 0.013166316607493223 0.08906681821526606
vertex 0.025 0.016639280160831833 0.10876297327551021
vertex -0.025 0.013166316607493227 0.08906681821526606
endloop
endfacet
facet normal -0.9999999999999999 0.0 -0.0
outer loop
vertex -0.025 0.016639280160831833 0.10876297327551021
vertex -0.025 0.021563318925892874 0.10789473238717556
vertex -0.025 0.013166316607493227 0.08906681821526606
endloop
endfacet
facet normal 0.0 -0.984807753012208 0.17364817766693041
outer loop
vertex -0.025 0.013166316607493227 0.08906681821526606
vertex 0.025 0.016639280160831833 0.10876297327551021
vertex -0.025 0.016639280160831833 0.10876297327551021
endloop
endfacet
facet normal 0.0 0.17364817766692967 0.9848077530122082
outer loop
vertex -0.025 0.016639280160831833 0.10876297327551021
vertex 0.025 0.021563318925892874 0.10789473238717556
vertex -0.025 0.021563318925892874 0.10789473238717556
endloop
endfacet
facet normal 0.0 0.17364817766692967 0.9848077530122082
outer loop
vertex 0.025 0.016639280160831833 0.10876297327551021
vertex 0.025 0.021563318925892874 0.10789473238717556
vertex -0.025 0.016639280160831833 0.10876297327551021
endloop
endfacet
facet normal 1.3552527156068815e-17 0.17364817766692978 -0.9848077530122082
outer loop
vertex 0.025 -0.013166316607493206 0.08906681821526606
vertex 0.025 -0.018090355372554243 0.08819857732693141
vertex -0.025 -0.013166316607493202 0.08906681821526606
endloop
endfacet
facet normal 6.833476513896985e-17 0.984807753012208 0.17364817766693022
outer loop
vertex -0.025 -0.016639280160831806 0.10876297327551021
vertex 0.025 -0.013166316607493206 0.08906681821526606
vertex -0.025 -0.013166316607493202 0.08906681821526606
endloop
endfacet
facet normal 0.0 0.17364817766692967 -0.9848077530122082
outer loop
vertex -0.025 -0.013166316607493202 0.08906681821526606
vertex 0.025 -0.018090355372554243 0.08819857732693141
vertex -0.025 -0.018090355372554243 0.08819857732693141
endloop
endfacet
facet normal -0.9999999999999999 0.0 0.0
outer loop
vertex -0.025 -0.018090355372554243 0.08819857732693141
vertex -0.025 -0.016639280160831806 0.10876297327551021
vertex -0.025 -0.013166316607493202 0.08906681821526606
endloop
endfacet
facet normal 0.9999999999999999 0.0 0.0
outer loop
vertex 0.025 -0.013166316607493206 0.08906681821526606
vertex 0.025 -0.021563318925892846 0.10789473238717556
vertex 0.025 -0.018090355372554243 0.08819857732693141
endloop
endfacet
facet normal 0.0 0.9848077530122082 0.1736481776669301
outer loop
vertex 0.025 -0.016639280160831806 0.10876297327551021
vertex 0.025 -0.013166316607493206 0.08906681821526606
vertex -0.025 -0.016639280160831806 0.10876297327551021
endloop
endfacet
facet normal 0.9999999999999999 0.0 0.0
outer loop
vertex 0.025 -0.016639280160831806 0.10876297327551021
vertex 0.025 -0.021563318925892846 0.10789473238717556
vertex 0.025 -0.013166316607493206 0.08906681821526606
endloop
endfacet
facet normal 0.0 -0.984807753012208 -0.17364817766693025
outer loop
vertex 0.025 -0.018090355372554243 0.08819857732693141
vertex 0.025 -0.021563318925892846 0.10789473238717556
vertex -0.025 -0.018090355372554243 0.08819857732693141
endloop
endfacet
facet normal -0.9999999999999999 0.0 -0.0
outer loop
vertex -0.025 -0.021563318925892846 0.10789473238717556
vertex -0.025 -0.016639280160831806 0.10876297327551021
vertex -0.025 -0.018090355372554243 0.08819857732693141
endloop
endfacet
facet normal -0.0 -0.984807753012208 -0.17364817766693025
outer loop
vertex -0.025 -0.018090355372554243 0.08819857732693141
vertex 0.025 -0.021563318925892846 0.10789473238717556
vertex -0.025 -0.021563318925892846 0.10789473238717556
endloop
endfacet
facet normal 0.0 -0.17364817766692967 0.9848077530122082
outer loop
vertex -0.025 -0.021563318925892846 0.10789473238717556
vertex 0.025 -0.016639280160831806 0.10876297327551021
vertex -0.025 -0.016639280160831806 0.10876297327551021
endloop
endfacet
facet normal 0.0 -0.17364817766692967 0.9848077530122082
outer loop
vertex 0.025 -0.021563318925892846 0.10789473238717556
vertex 0.025 -0.016639280160831806 0.10876297327551021
vertex -0.025 -0.021563318925892846 0.10789473238717556
endloop
endfacet
facet normal 0.0 0.49999999999999967 -0.8660254037844387
outer loop
vertex 0.024999999999999998 -0.04283493649053888 0.0791922863405995
vertex 0.024999999999999998 -0.04716506350946108 0.07669228634059949
vertex -0.025000000000000005 -0.04283493649053888 0.0791922863405995
endloop
endfacet
facet normal 0.0 0.8660254037844387 0.4999999999999999
outer loop
vertex -0.025000000000000005 -0.052834936490538865 0.09651279441628825
vertex 0.024999999999999998 -0.04283493649053888 0.0791922863405995
vertex -0.025000000000000005 -0.04283493649053888 0.0791922863405995
endloop
endfacet
facet normal 0.0 0.49999999999999967 -0.8660254037844387
outer loop
vertex -0.025000000000000005 -0.04283493649053888 0.0791922863405995
vertex 0.024999999999999998 -0.04716506350946108 0.07669228634059949
vertex -0.025000000000000005 -0.04716506350946108 0.07669228634059949
endloop
endfacet
facet normal -1.0 0.0 0.0
outer loop
vertex -0.025000000000000005 -0.04716506350946108 0.07669228634059949
vertex -0.025000000000000005 -0.052834936490538865 0.09651279441628825
vertex -0.025000000000000005 -0.04283493649053888 0.0791922863405995
endloop
endfacet
facet normal 1.0 0.0 0.0
outer loop
vertex 0.024999999999999998 -0.04283493649053888 0.0791922863405995
vertex 0.024999999999999998 -0.057165063509461066 0.09401279441628825
vertex 0.024999999999999998 -0.04716506350946108 0.07669228634059949
endloop
endfacet
facet normal 0.0 0.8660254037844387 0.4999999999999999
outer loop
vertex 0.024999999999999998 -0.052834936490538865 0.09651279441628825
vertex 0.024999999999999998 -0.04283493649053888 0.0791922863405995
vertex -0.025000000000000005 -0.052834936490538865 0.09651279441628825
endloop
endfacet
facet normal 1.0 0.0 0.0
outer loop
vertex 0.024999999999999998 -0.052834936490538865 0.09651279441628825
vertex 0.024999999999999998 -0.057165063509461066 0.09401279441628825
vertex 0.024999999999999998 -0.04283493649053888 0.0791922863405995
endloop
endfacet
facet normal 0.0 -0.8660254037844387 -0.4999999999999999
outer loop
vertex 0.024999999999999998 -0.04716506350946108 0.07669228634059949
vertex 0.024999999999999998 -0.057165063509461066 0.09401279441628825
vertex -0.025000000000000005 -0.04716506350946108 0.07669228634059949
endloop
endfacet
facet normal -1.0 0.0 0.0
outer loop
vertex -0.025000000000000005 -0.057165063509461066 0.09401279441628825
vertex -0.025000000000000005 -0.052834936490538865 0.09651279441628825
vertex -0.025000000000000005 -0.04716506350946108 0.07669228634059949
endloop
endfacet
facet normal -0.0 -0.8660254037844387 -0.4999999999999999
outer loop
vertex -0.025000000000000005 -0.04716506350946108 0.07669228634059949
vertex 0.024999999999999998 -0.057165063509461066 0.09401279441628825
vertex -0.025000000000000005 -0.057165063509461066 0.09401279441628825
endloop
endfacet
facet normal 0.0 -0.49999999999999967 0.8660254037844387
outer loop
vertex -0.025000000000000005 -0.057165063509461066 0.09401279441628825
vertex 0.024999999999999998 -0.052834936490538865 0.09651279441628825
vertex -0.025000000000000005 -0.052834936490538865 0.09651279441628825
endloop
endfacet
facet normal 0.0 -0.49999999999999967 0.8660254037844387
outer loop
vertex 0.024999999999999998 -0.057165063509461066 0.09401279441628825
vertex 0.024999999999999998 -0.052834936490538865 0.09651279441628825
vertex -0.025000000000000005 -0.057165063509461066 0.09401279441628825
endloop
endfacet
facet normal 0.0 0.7660444431189769 -0.6427876096865406
outer loop
vertex 0.024999999999999998 -0.06733703085649168 0.059765995979586005
vertex 0.024999999999999998 -0.07055096890492438 0.05593577376399112
vertex -0.025000000000000005 -0.06733703085649168 0.059765995979586005
endloop
endfacet
facet normal 0.0 0.6427876096865396 0.7660444431189778
outer loop
vertex -0.025000000000000005 -0.08265791971887122 0.07262174817331679
vertex 0.024999999999999998 -0.06733703085649168 0.059765995979586005
vertex -0.025000000000000005 -0.06733703085649168 0.059765995979586005
endloop
endfacet
facet normal 0.0 0.7660444431189769 -0.6427876096865406
outer loop
vertex -0.025000000000000005 -0.06733703085649168 0.059765995979586005
vertex 0.024999999999999998 -0.07055096890492438 0.05593577376399112
vertex -0.025000000000000005 -0.07055096890492438 0.05593577376399112
endloop
endfacet
facet normal -1.0 0.0 0.0
outer loop
vertex -0.025000000000000005 -0.07055096890492438 0.05593577376399112
vertex -0.025000000000000005 -0.08265791971887122 0.07262174817331679
vertex -0.025000000000000005 -0.06733703085649168 0.059765995979586005
endloop
endfacet
facet normal 1.0 -1.3288752791200706e-16 1.11505875659026e-16
outer loop
vertex 0.024999999999999998 -0.06733703085649168 0.059765995979586005
vertex 0.024999999999999994 -0.08587185776730392 0.0687915259577219
vertex 0.024999999999999998 -0.07055096890492438 0.05593577376399112
endloop
endfacet
facet normal 0.0 0.6427876096865396 0.7660444431189778
outer loop
vertex 0.024999999999999998 -0.08265791971887122 0.07262174817331679
vertex 0.024999999999999998 -0.06733703085649168 0.059765995979586005
vertex -0.025000000000000005 -0.08265791971887122 0.07262174817331679
endloop
endfacet
facet normal 1.0 -4.460235026361021e-16 -5.315501116480273e-16
outer loop
vertex 0.024999999999999998 -0.08265791971887122 0.07262174817331679
vertex 0.024999999999999994 -0.08587185776730392 0.0687915259577219
vertex 0.024999999999999998 -0.06733703085649168 0.059765995979586005
endloop
endfacet
facet normal 0.0 -0.6427876096865393 -0.766044443118978
outer loop
vertex 0.024999999999999998 -0.07055096890492438 0.05593577376399112
vertex 0.024999999999999994 -0.08587185776730392 0.0687915259577219
vertex -0.025000000000000005 -0.07055096890492438 0.05593577376399112
endloop
endfacet
facet normal -1.0 5.789110305481091e-16 4.200442359890018e-16
outer loop
vertex -0.02500000000000001 -0.08587185776730392 0.0687915259577219
vertex -0.025000000000000005 -0.08265791971887122 0.07262174817331679
vertex -0.025000000000000005 -0.07055096890492438 0.05593577376399112
endloop
endfacet
facet normal -0.0 -0.6427876096865393 -0.766044443118978
outer loop
vertex -0.025000000000000005 -0.07055096890492438 0.05593577376399112
vertex 0.024999999999999994 -0.08587185776730392 0.0687915259577219
vertex -0.02500000000000001 -0.08587185776730392 0.0687915259577219
endloop
endfacet
facet normal 0.0 -0.7660444431189781 0.6427876096865394
outer loop
vertex -0.02500000000000001 -0.08587185776730392 0.0687915259577219
vertex 0.024999999999999998 -0.08265791971887122 0.07262174817331679
vertex -0.025000000000000005 -0.08265791971887122 0.07262174817331679
endloop
endfacet
facet normal 0.0 -0.7660444431189781 0.6427876096865394
outer loop
vertex 0.024999999999999994 -0.08587185776730392 0.0687915259577219
vertex 0.024999999999999998 -0.08265791971887122 0.07262174817331679
vertex -0.02500000000000001 -0.08587185776730392 0.0687915259577219
endloop
endfacet
facet normal 0.0 0.9396926207859092 -0.34202014332566666
outer loop
vertex 0.024999999999999998 -0.0837172855124176 0.03313104445127498
vertex 0.024999999999999994 -0.08542738622904593 0.02843258134734544
vertex -0.025000000000000005 -0.0837172855124176 0.03313104445127498
endloop
endfacet
facet normal 0.0 0.3420201433256691 0.9396926207859083
outer loop
vertex -0.02500000000000001 -0.10251113792813575 0.03997144731778836
vertex 0.024999999999999998 -0.0837172855124176 0.03313104445127498
vertex -0.025000000000000005 -0.0837172855124176 0.03313104445127498
endloop
endfacet
facet normal 0.0 0.9396926207859091 -0.34202014332566666
outer loop
vertex -0.025000000000000005 -0.0837172855124176 0.03313104445127498
vertex 0.024999999999999994 -0.08542738622904593 0.02843258134734544
vertex -0.02500000000000001 -0.08542738622904593 0.02843258134734544
endloop
endfacet
facet normal -0.9999999999999999 4.003348337015451e-16 5.927117026033962e-16
outer loop
vertex -0.02500000000000001 -0.08542738622904593 0.02843258134734544
vertex -0.02500000000000001 -0.10251113792813575 0.03997144731778836
vertex -0.025000000000000005 -0.0837172855124176 0.03313104445127498
endloop
endfacet
facet normal 1.0 -2.3732414875359624e-16 -6.520427397917951e-16
outer loop
vertex 0.024999999999999998 -0.0837172855124176 0.03313104445127498
vertex 0.024999999999999994 -0.10422123864476408 0.03527298421385881
vertex 0.024999999999999994 -0.08542738622904593 0.02843258134734544
endloop
endfacet
facet normal 0.0 0.3420201433256691 0.9396926207859082
outer loop
vertex 0.024999999999999994 -0.10251113792813575 0.03997144731778836
vertex 0.024999999999999998 -0.0837172855124176 0.03313104445127498
vertex -0.02500000000000001 -0.10251113792813575 0.03997144731778836
endloop
endfacet
facet normal 1.0 -1.630106849479489e-16 5.933103718839863e-17
outer loop
vertex 0.024999999999999994 -0.10251113792813575 0.03997144731778836
vertex 0.024999999999999994 -0.10422123864476408 0.03527298421385881
vertex 0.024999999999999998 -0.0837172855124176 0.03313104445127498
endloop
endfacet
facet normal 0.0 -0.34202014332566893 -0.9396926207859083
outer loop
vertex 0.024999999999999994 -0.08542738622904593 0.02843258134734544
vertex 0.024999999999999994 -0.10422123864476408 0.03527298421385881
vertex -0.02500000000000001 -0.08542738622904593 0.02843258134734544
endloop
endfacet
facet normal -0.9999999999999999 0.0 0.0
outer loop
vertex -0.02500000000000001 -0.10422123864476408 0.03527298421385881
vertex -0.02500000000000001 -0.10251113792813575 0.03997144731778836
vertex -0.02500000000000001 -0.08542738622904593 0.02843258134734544
endloop
endfacet
facet normal -0.0 -0.34202014332566893 -0.9396926207859083
outer loop
vertex -0.02500000000000001 -0.08542738622904593 0.02843258134734544
vertex 0.024999999999999994 -0.10422123864476408 0.03527298421385881
vertex -0.02500000000000001 -0.10422123864476408 0.03527298421385881
endloop
endfacet
facet normal 0.0 -0.9396926207859093 0.34202014332566655
outer loop
vertex -0.02500000000000001 -0.10422123864476408 0.03527298421385881
vertex 0.024999999999999994 -0.10251113792813575 0.03997144731778836
vertex -0.02500000000000001 -0.10251113792813575 0.03997144731778836
endloop
endfacet
facet normal 0.0 -0.9396926207859093 0.34202014332566655
outer loop
vertex 0.024999999999999994 -0.10422123864476408 0.03527298421385881
vertex 0.024999999999999994 -0.10251113792813575 0.03997144731778836
vertex -0.02500000000000001 -0.10422123864476408 0.03527298421385881
endloop
endfacet
facet normal 0.0 1.0 0.0
outer loop
vertex 0.024999999999999994 -0.09000000000000001 0.0025000000000000165
vertex 0.024999999999999994 -0.09000000000000001 -0.0024999999999999836
vertex -0.02500000000000001 -0.09000000000000001 0.0025000000000000165
endloop
endfacet
facet normal 0.0 1.951563910473909e-16 1.0
outer loop
vertex -0.02500000000000001 -0.11 0.0025000000000000204
vertex 0.024999999999999994 -0.09000000000000001 0.0025000000000000165
vertex -0.02500000000000001 -0.09000000000000001 0.0025000000000000165
endloop
endfacet
facet normal 0.0 1.0 0.0
outer loop
vertex -0.02500000000000001 -0.09000000000000001 0.0025000000000000165
vertex 0.024999999999999994 -0.09000000000000001 -0.0024999999999999836
vertex -0.02500000000000001 -0.09000000000000001 -0.0024999999999999836
endloop
endfacet
facet normal -1.0 0.0 0.0
outer loop
vertex -0.02500000000000001 -0.09000000000000001 -0.0024999999999999836
vertex -0.02500000000000001 -0.11 0.0025000000000000204
vertex -0.02500000000000001 -0.09000000000000001 0.0025000000000000165
endloop
endfacet
facet normal 1.0 0.0 0.0
outer loop
vertex 0.024999999999999994 -0.09000000000000001 0.0025000000000000165
vertex 0.024999999999999994 -0.11 -0.0024999999999999797
vertex 0.024999999999999994 -0.09000000000000001 -0.0024999999999999836
endloop
endfacet
facet normal 0.0 1.951563910473909e-16 1.0
outer loop
vertex 0.024999999999999994 -0.11 0.0025000000000000204
vertex 0.024999999999999994 -0.09000000000000001 0.0025000000000000165
vertex -0.02500000000000001 -0.11 0.0025000000000000204
endloop
endfacet
facet normal 1.0 -0.0 0.0
outer loop
vertex 0.024999999999999994 -0.11 0.0025000000000000204
vertex 0.024999999999999994 -0.11 -0.0024999999999999797
vertex 0.024999999999999994 -0.09000000000000001 0.0025000000000000165
endloop
endfacet
facet normal 0.0 -1.951563910473909e-16 -1.0
outer loop
vertex 0.024999999999999994 -0.09000000000000001 -0.0024999999999999836
vertex 0.024999999999999994 -0.11 -0.0024999999999999797
vertex -0.02500000000000001 -0.09000000000000001 -0.0024999999999999836
endloop
endfacet
facet normal -1.0 0.0 0.0
outer loop
vertex -0.02500000000000001 -0.11 -0.0024999999999999797
vertex -0.02500000000000001 -0.11 0.0025000000000000204
vertex -0.02500000000000001 -0.09000000000000001 -0.0024999999999999836
endloop
endfacet
facet normal -0.0 -1.951563910473909e-16 -1.0
outer loop
vertex -0.02500000000000001 -0.09000000000000001 -0.0024999999999999836
vertex 0.024999999999999994 -0.11 -0.0024999999999999797
vertex -0.02500000000000001 -0.11 -0.0024999999999999797
endloop
endfacet
facet normal 0.0 -1.0 0.0
outer loop
vertex -0.02500000000000001 -0.11 -0.0024999999999999797
vertex 0.024999999999999994 -0.11 0.0025000000000000204
vertex -0.02500000000000001 -0.11 0.0025000000000000204
endloop
endfacet
facet normal -0.0 -1.0 0.0
outer loop
vertex 0.024999999999999994 -0.11 -0.0024999999999999797
vertex 0.024999999999999994 -0.11 0.0025000000000000204
vertex -0.02500000000000001 -0.11 -0.0024999999999999797
endloop
endfacet
facet normal 0.0 0.9396926207859091 0.3420201433256667
outer loop
vertex 0.024999999999999994 -0.08542738622904593 -0.028432581347345404
vertex 0.024999999999999998 -0.0837172855124176 -0.033131044451274946
vertex -0.02500000000000001 -0.08542738622904593 -0.028432581347345404
endloop
endfacet
facet normal 0.0 -0.3420201433256683 0.9396926207859084
outer loop
vertex -0.02500000000000001 -0.1042212386447641 -0.03527298421385877
vertex 0.024999999999999994 -0.08542738622904593 -0.028432581347345404
vertex -0.02500000000000001 -0.08542738622904593 -0.028432581347345404
endloop
endfacet
facet normal 0.0 0.9396926207859091 0.34202014332566666
outer loop
vertex -0.02500000000000001 -0.08542738622904593 -0.028432581347345404
vertex 0.024999999999999998 -0.0837172855124176 -0.033131044451274946
vertex -0.025000000000000005 -0.0837172855124176 -0.033131044451274946
endloop
endfacet
facet normal -1.0 2.373241487535959e-16 -6.520427397917953e-16
outer loop
vertex -0.025000000000000005 -0.0837172855124176 -0.033131044451274946
vertex -0.02500000000000001 -0.1042212386447641 -0.03527298421385877
vertex -0.02500000000000001 -0.08542738622904593 -0.028432581347345404
endloop
endfacet
facet normal 1.0 -4.003348337015447e-16 5.927117026033965e-16
outer loop
vertex 0.024999999999999994 -0.08542738622904593 -0.028432581347345404
vertex 0.024999999999999994 -0.10251113792813576 -0.03997144731778832
vertex 0.024999999999999998 -0.0837172855124176 -0.033131044451274946
endloop
endfacet
facet normal 0.0 -0.3420201433256683 0.9396926207859084
outer loop
vertex 0.024999999999999994 -0.1042212386447641 -0.03527298421385877
vertex 0.024999999999999994 -0.08542738622904593 -0.028432581347345404
vertex -0.02500000000000001 -0.1042212386447641 -0.03527298421385877
endloop
endfacet
facet normal 1.0 -0.0 0.0
outer loop
vertex 0.024999999999999994 -0.1042212386447641 -0.03527298421385877
vertex 0.024999999999999994 -0.10251113792813576 -0.03997144731778832
vertex 0.024999999999999994 -0.08542738622904593 -0.028432581347345404
endloop
endfacet
facet normal 0.0 0.34202014332566855 -0.9396926207859085
outer loop
vertex 0.024999999999999998 -0.0837172855124176 -0.033131044451274946
vertex 0.024999999999999994 -0.10251113792813576 -0.03997144731778832
vertex -0.025000000000000005 -0.0837172855124176 -0.033131044451274946
endloop
endfacet
facet normal -1.0 1.6301068494794882e-16 5.933103718839859e-17
outer loop
vertex -0.02500000000000001 -0.10251113792813576 -0.03997144731778832
vertex -0.02500000000000001 -0.1042212386447641 -0.03527298421385877
vertex -0.025000000000000005 -0.0837172855124176 -0.033131044451274946
endloop
endfacet
facet normal 0.0 0.34202014332566855 -0.9396926207859084
outer loop
vertex -0.025000000000000005 -0.0837172855124176 -0.033131044451274946
vertex 0.024999999999999994 -0.10251113792813576 -0.03997144731778832
vertex -0.02500000000000001 -0.10251113792813576 -0.03997144731778832
endloop
endfacet
facet normal -0.0 -0.9396926207859093 -0.34202014332566655
outer loop
vertex -0.02500000000000001 -0.10251113792813576 -0.03997144731778832
vertex 0.024999999999999994 -0.1042212386447641 -0.03527298421385877
vertex -0.02500000000000001 -0.1042212386447641 -0.03527298421385877
endloop
endfacet
facet normal 0.0 -0.9396926207859093 -0.34202014332566655
outer loop
vertex 0.024999999999999994 -0.10251113792813576 -0.03997144731778832
vertex 0.024999999999999994 -0.1042212386447641 -0.03527298421385877
vertex -0.02500000000000001 -0.10251113792813576 -0.03997144731778832
endloop
endfacet
facet normal 0.0 0.766044443118977 0.6427876096865406
outer loop
vertex 0.024999999999999994 -0.07055096890492438 -0.055935773763991094
vertex 0.024999999999999994 -0.06733703085649168 -0.05976599597958598
vertex -0.025 -0.07055096890492438 -0.055935773763991094
endloop
endfacet
facet normal 0.0 -0.6427876096865389 0.7660444431189783
outer loop
vertex -0.025000000000000005 -0.08587185776730394 -0.06879152595772187
vertex 0.024999999999999994 -0.07055096890492438 -0.055935773763991094
vertex -0.025 -0.07055096890492438 -0.055935773763991094
endloop
endfacet
facet normal 0.0 0.766044443118977 0.6427876096865406
outer loop
vertex -0.025 -0.07055096890492438 -0.055935773763991094
vertex 0.024999999999999994 -0.06733703085649168 -0.05976599597958598
vertex -0.025 -0.06733703085649168 -0.05976599597958598
endloop
endfacet
facet normal -0.9999999999999999 1.3288752791200694e-16 1.115058756590259e-16
outer loop
vertex -0.025 -0.06733703085649168 -0.05976599597958598
vertex -0.025000000000000005 -0.08587185776730394 -0.06879152595772187
vertex -0.025 -0.07055096890492438 -0.055935773763991094
endloop
endfacet
facet normal 1.0 -0.0 0.0
outer loop
vertex 0.024999999999999994 -0.07055096890492438 -0.055935773763991094
vertex 0.024999999999999994 -0.08265791971887124 -0.07262174817331676
vertex 0.024999999999999994 -0.06733703085649168 -0.05976599597958598
endloop
endfacet
facet normal 0.0 -0.642787609686539 0.7660444431189785
outer loop
vertex 0.02499999999999999 -0.08587185776730394 -0.06879152595772187
vertex 0.024999999999999994 -0.07055096890492438 -0.055935773763991094
vertex -0.025000000000000005 -0.08587185776730394 -0.06879152595772187
endloop
endfacet
facet normal 1.0 -5.789110305481088e-16 4.2004423598900206e-16
outer loop
vertex 0.02499999999999999 -0.08587185776730394 -0.06879152595772187
vertex 0.024999999999999994 -0.08265791971887124 -0.07262174817331676
vertex 0.024999999999999994 -0.07055096890492438 -0.055935773763991094
endloop
endfacet
facet normal 0.0 0.6427876096865393 -0.766044443118978
outer loop
vertex 0.024999999999999994 -0.06733703085649168 -0.05976599597958598
vertex 0.024999999999999994 -0.08265791971887124 -0.07262174817331676
vertex -0.025 -0.06733703085649168 -0.05976599597958598
endloop
endfacet
facet normal -1.0 4.460235026361018e-16 -5.315501116480275e-16
outer loop
vertex -0.025 -0.08265791971887124 -0.07262174817331676
vertex -0.025000000000000005 -0.08587185776730394 -0.06879152595772187
vertex -0.025 -0.06733703085649168 -0.05976599597958598
endloop
endfacet
facet normal 0.0 0.6427876096865393 -0.766044443118978
outer loop
vertex -0.025 -0.06733703085649168 -0.05976599597958598
vertex 0.024999999999999994 -0.08265791971887124 -0.07262174817331676
vertex -0.025 -0.08265791971887124 -0.07262174817331676
endloop
endfacet
facet normal -0.0 -0.7660444431189781 -0.6427876096865393
outer loop
vertex -0.025 -0.08265791971887124 -0.07262174817331676
vertex 0.02499999999999999 -0.08587185776730394 -0.06879152595772187
vertex -0.025000000000000005 -0.08587185776730394 -0.06879152595772187
endloop
endfacet
facet normal 0.0 -0.766044443118978 -0.6427876096865391
outer loop
vertex 0.024999999999999994 -0.08265791971887124 -0.07262174817331676
vertex 0.02499999999999999 -0.08587185776730394 -0.06879152595772187
vertex -0.025 -0.08265791971887124 -0.07262174817331676
endloop
endfacet
facet normal 0.0 0.500000000000001 0.8660254037844382
outer loop
vertex 0.024999999999999998 -0.04716506350946115 -0.07669228634059946
vertex 0.024999999999999998 -0.04283493649053896 -0.07919228634059947
vertex -0.025000000000000005 -0.04716506350946115 -0.07669228634059946
endloop
endfacet
facet normal 0.0 -0.8660254037844385 0.5000000000000003
outer loop
vertex -0.025000000000000005 -0.05716506350946115 -0.09401279441628822
vertex 0.024999999999999998 -0.04716506350946115 -0.07669228634059946
vertex -0.025000000000000005 -0.04716506350946115 -0.07669228634059946
endloop
endfacet
facet normal 0.0 0.500000000000001 0.8660254037844382
outer loop
vertex -0.025000000000000005 -0.04716506350946115 -0.07669228634059946
vertex 0.024999999999999998 -0.04283493649053896 -0.07919228634059947
vertex -0.025000000000000005 -0.04283493649053896 -0.07919228634059947
endloop
endfacet
facet normal -0.9999999999999999 -0.0 0.0
outer loop
vertex -0.025000000000000005 -0.04283493649053896 -0.07919228634059947
vertex -0.025000000000000005 -0.05716506350946115 -0.09401279441628822
vertex -0.025000000000000005 -0.04716506350946115 -0.07669228634059946
endloop
endfacet
facet normal 1.0 -0.0 0.0
outer loop
vertex 0.024999999999999998 -0.04716506350946115 -0.07669228634059946
vertex 0.024999999999999998 -0.05283493649053896 -0.09651279441628823
vertex 0.024999999999999998 -0.04283493649053896 -0.07919228634059947
endloop
endfacet
facet normal 0.0 -0.8660254037844385 0.5000000000000003
outer loop
vertex 0.024999999999999998 -0.05716506350946115 -0.09401279441628822
vertex 0.024999999999999998 -0.04716506350946115 -0.07669228634059946
vertex -0.025000000000000005 -0.05716506350946115 -0.09401279441628822
endloop
endfacet
facet normal 1.0 -0.0 0.0
outer loop
vertex 0.024999999999999998 -0.05716506350946115 -0.09401279441628822
vertex 0.024999999999999998 -0.05283493649053896 -0.09651279441628823
vertex 0.024999999999999998 -0.04716506350946115 -0.07669228634059946
endloop
endfacet
facet normal 0.0 0.8660254037844385 -0.5000000000000003
outer loop
vertex 0.024999999999999998 -0.04283493649053896 -0.07919228634059947
vertex 0.024999999999999998 -0.05283493649053896 -0.09651279441628823
vertex -0.025000000000000005 -0.04283493649053896 -0.07919228634059947
endloop
endfacet
facet normal -1.0 0.0 0.0
outer loop
vertex -0.025000000000000005 -0.05283493649053896 -0.09651279441628823
vertex -0.025000000000000005 -0.05716506350946115 -0.09401279441628822
vertex -0.025000000000000005 -0.04283493649053896 -0.07919228634059947
endloop
endfacet
facet normal 0.0 0.8660254037844385 -0.5000000000000003
outer loop
vertex -0.025000000000000005 -0.04283493649053896 -0.07919228634059947
vertex 0.024999999999999998 -0.05283493649053896 -0.09651279441628823
vertex -0.025000000000000005 -0.05283493649053896 -0.09651279441628823
endloop
endfacet
facet normal -0.0 -0.500000000000001 -0.8660254037844382
outer loop
vertex -0.025000000000000005 -0.05283493649053896 -0.09651279441628823
vertex 0.024999999999999998 -0.05716506350946115 -0.09401279441628822
vertex -0.025000000000000005 -0.05716506350946115 -0.09401279441628822
endloop
endfacet
facet normal 0.0 -0.500000000000001 -0.8660254037844382
outer loop
vertex 0.024999999999999998 -0.05283493649053896 -0.09651279441628823
vertex 0.024999999999999998 -0.05716506350946115 -0.09401279441628822
vertex -0.025000000000000005 -0.05283493649053896 -0.09651279441628823
endloop
endfacet
facet normal 0.0 0.17364817766692967 0.9848077530122082
outer loop
vertex 0.025 -0.01809035537255426 -0.08819857732693141
vertex 0.025 -0.01316631660749322 -0.08906681821526606
vertex -0.025 -0.01809035537255426 -0.08819857732693141
endloop
endfacet
facet normal 0.0 -0.984807753012208 0.17364817766693025
outer loop
vertex -0.025 -0.021563318925892864 -0.10789473238717556
vertex 0.025 -0.01809035537255426 -0.08819857732693141
vertex -0.025 -0.01809035537255426 -0.08819857732693141
endloop
endfacet
facet normal 1.2049262814376566e-17 0.17364817766692955 0.9848077530122082
outer loop
vertex -0.025 -0.01809035537255426 -0.08819857732693141
vertex 0.025 -0.01316631660749322 -0.08906681821526606
vertex -0.025 -0.013166316607493216 -0.08906681821526606
endloop
endfacet
facet normal -1.0 -0.0 0.0
outer loop
vertex -0.025 -0.013166316607493216 -0.08906681821526606
vertex -0.025 -0.021563318925892864 -0.10789473238717556
vertex -0.025 -0.01809035537255426 -0.08819857732693141
endloop
endfacet
facet normal 0.9999999999999999 -0.0 0.0
outer loop
vertex 0.025 -0.01809035537255426 -0.08819857732693141
vertex 0.025 -0.016639280160831823 -0.10876297327551021
vertex 0.025 -0.01316631660749322 -0.08906681821526606
endloop
endfacet
facet normal 0.0 -0.984807753012208 0.17364817766693025
outer loop
vertex 0.025 -0.021563318925892864 -0.10789473238717556
vertex 0.025 -0.01809035537255426 -0.08819857732693141
vertex -0.025 -0.021563318925892864 -0.10789473238717556
endloop
endfacet
facet normal 0.9999999999999999 -0.0 -0.0
outer loop
vertex 0.025 -0.021563318925892864 -0.10789473238717556
vertex 0.025 -0.016639280160831823 -0.10876297327551021
vertex 0.025 -0.01809035537255426 -0.08819857732693141
endloop
endfacet
facet normal 8.131516293641287e-17 0.984807753012208 -0.17364817766693025
outer loop
vertex 0.025 -0.01316631660749322 -0.08906681821526606
vertex 0.025 -0.016639280160831823 -0.10876297327551021
vertex -0.025 -0.013166316607493216 -0.08906681821526606
endloop
endfacet
facet normal -0.9999999999999999 0.0 0.0
outer loop
vertex -0.025 -0.016639280160831823 -0.10876297327551021
vertex -0.025 -0.021563318925892864 -0.10789473238717556
vertex -0.025 -0.013166316607493216 -0.08906681821526606
endloop
endfacet
facet normal 0.0 0.984807753012208 -0.17364817766693041
outer loop
vertex -0.025 -0.013166316607493216 -0.08906681821526606
vertex 0.025 -0.016639280160831823 -0.10876297327551021
vertex -0.025 -0.016639280160831823 -0.10876297327551021
endloop
endfacet
facet normal -0.0 -0.17364817766692967 -0.9848077530122082
outer loop
vertex -0.025 -0.016639280160831823 -0.10876297327551021
vertex 0.025 -0.021563318925892864 -0.10789473238717556
vertex -0.025 -0.021563318925892864 -0.10789473238717556
endloop
endfacet
facet normal 0.0 -0.17364817766692967 -0.9848077530122082
outer loop
vertex 0.025 -0.016639280160831823 -0.10876297327551021
vertex 0.025 -0.021563318925892864 -0.10789473238717556
vertex -0.025 -0.016639280160831823 -0.10876297327551021
endloop
endfacet
facet normal -1.3552527156068805e-17 -0.17364817766692967 0.9848077530122082
outer loop
vertex 0.025 0.013166316607493171 -0.08906681821526606
vertex 0.025 0.018090355372554212 -0.08819857732693141
vertex -0.025 0.013166316607493175 -0.08906681821526606
endloop
endfacet
facet normal -6.833476513896986e-17 -0.9848077530122082 -0.17364817766692983
outer loop
vertex -0.025 0.01663928016083177 -0.10876297327551022
vertex 0.025 0.013166316607493171 -0.08906681821526606
vertex -0.025 0.013166316607493175 -0.08906681821526606
endloop
endfacet
facet normal 0.0 -0.17364817766692978 0.9848077530122082
outer loop
vertex -0.025 0.013166316607493175 -0.08906681821526606
vertex 0.025 0.018090355372554212 -0.08819857732693141
vertex -0.025 0.018090355372554212 -0.08819857732693141
endloop
endfacet
facet normal -0.9999999999999999 -0.0 0.0
outer loop
vertex -0.025 0.018090355372554212 -0.08819857732693141
vertex -0.025 0.01663928016083177 -0.10876297327551022
vertex -0.025 0.013166316607493175 -0.08906681821526606
endloop
endfacet
facet normal 1.0 -0.0 -0.0
outer loop
vertex 0.025 0.013166316607493171 -0.08906681821526606
vertex 0.025 0.021563318925892812 -0.10789473238717558
vertex 0.025 0.018090355372554212 -0.08819857732693141
endloop
endfacet
facet normal 0.0 -0.9848077530122082 -0.17364817766692997
outer loop
vertex 0.025 0.01663928016083177 -0.10876297327551022
vertex 0.025 0.013166316607493171 -0.08906681821526606
vertex -0.025 0.01663928016083177 -0.10876297327551022
endloop
endfacet
facet normal 1.0 0.0 -0.0
outer loop
vertex 0.025 0.01663928016083177 -0.10876297327551022
vertex 0.025 0.021563318925892812 -0.10789473238717558
vertex 0.025 0.013166316607493171 -0.08906681821526606
endloop
endfacet
facet normal 0.0 0.9848077530122082 0.17364817766692997
outer loop
vertex 0.025 0.018090355372554212 -0.08819857732693141
vertex 0.025 0.021563318925892812 -0.10789473238717558
vertex -0.025 0.018090355372554212 -0.08819857732693141
endloop
endfacet
facet normal -1.0 -0.0 0.0
outer loop
vertex -0.025 0.021563318925892812 -0.10789473238717558
vertex -0.025 0.01663928016083177 -0.10876297327551022
vertex -0.025 0.018090355372554212 -0.08819857732693141
endloop
endfacet
facet normal 0.0 0.9848077530122082 0.17364817766692997
outer loop
vertex -0.025 0.018090355372554212 -0.08819857732693141
vertex 0.025 0.021563318925892812 -0.10789473238717558
vertex -0.025 0.021563318925892812 -0.10789473238717558
endloop
endfacet
facet normal 0.0 0.17364817766692967 -0.9848077530122082
outer loop
vertex -0.025 0.021563318925892812 -0.10789473238717558
vertex 0.025 0.01663928016083177 -0.10876297327551022
vertex -0.025 0.01663928016083177 -0.10876297327551022
endloop
endfacet
facet normal 0.0 0.17364817766692967 -0.9848077530122082
outer loop
vertex 0.025 0.021563318925892812 -0.10789473238717558
vertex 0.025 0.01663928016083177 -0.10876297327551022
vertex -0.025 0.021563318925892812 -0.10789473238717558
endloop
endfacet
facet normal 0.0 -0.500000000000001 0.8660254037844382
outer loop
vertex 0.025000000000000005 0.04283493649053891 -0.07919228634059948
vertex 0.025000000000000005 0.0471650635094611 -0.07669228634059948
vertex -0.024999999999999998 0.04283493649053891 -0.07919228634059948
endloop
endfacet
facet normal -0.0 -0.8660254037844387 -0.5000000000000001
outer loop
vertex -0.024999999999999998 0.052834936490538914 -0.09651279441628825
vertex 0.025000000000000005 0.04283493649053891 -0.07919228634059948
vertex -0.024999999999999998 0.04283493649053891 -0.07919228634059948
endloop
endfacet
facet normal 0.0 -0.500000000000001 0.8660254037844382
outer loop
vertex -0.024999999999999998 0.04283493649053891 -0.07919228634059948
vertex 0.025000000000000005 0.0471650635094611 -0.07669228634059948
vertex -0.024999999999999998 0.0471650635094611 -0.07669228634059948
endloop
endfacet
facet normal -1.0 -0.0 -0.0
outer loop
vertex -0.024999999999999998 0.0471650635094611 -0.07669228634059948
vertex -0.024999999999999998 0.052834936490538914 -0.09651279441628825
vertex -0.024999999999999998 0.04283493649053891 -0.07919228634059948
endloop
endfacet
facet normal 1.0 -0.0 -0.0
outer loop
vertex 0.025000000000000005 0.04283493649053891 -0.07919228634059948
vertex 0.025000000000000005 0.0571650635094611 -0.09401279441628825
vertex 0.025000000000000005 0.0471650635094611 -0.07669228634059948
endloop
endfacet
facet normal 0.0 -0.8660254037844387 -0.5000000000000001
outer loop
vertex 0.025000000000000005 0.052834936490538914 -0.09651279441628825
vertex 0.025000000000000005 0.04283493649053891 -0.07919228634059948
vertex -0.024999999999999998 0.052834936490538914 -0.09651279441628825
endloop
endfacet
facet normal 1.0 0.0 -0.0
outer loop
vertex 0.025000000000000005 0.052834936490538914 -0.09651279441628825
vertex 0.025000000000000005 0.0571650635094611 -0.09401279441628825
vertex 0.025000000000000005 0.04283493649053891 -0.07919228634059948
endloop
endfacet
facet normal 0.0 0.8660254037844387 0.5000000000000001
outer loop
vertex 0.025000000000000005 0.0471650635094611 -0.07669228634059948
vertex 0.025000000000000005 0.0571650635094611 -0.09401279441628825
vertex -0.024999999999999998 0.0471650635094611 -0.07669228634059948
endloop
endfacet
facet normal -1.0 -0.0 0.0
outer loop
vertex -0.024999999999999998 0.0571650635094611 -0.09401279441628825
vertex -0.024999999999999998 0.052834936490538914 -0.09651279441628825
vertex -0.024999999999999998 0.0471650635094611 -0.07669228634059948
endloop
endfacet
facet normal 0.0 0.8660254037844387 0.5000000000000001
outer loop
vertex -0.024999999999999998 0.0471650635094611 -0.07669228634059948
vertex 0.025000000000000005 0.0571650635094611 -0.09401279441628825
vertex -0.024999999999999998 0.0571650635094611 -0.09401279441628825
endloop
endfacet
facet normal 0.0 0.500000000000001 -0.8660254037844382
outer loop
vertex -0.024999999999999998 0.0571650635094611 -0.09401279441628825
vertex 0.025000000000000005 0.052834936490538914 -0.09651279441628825
vertex -0.024999999999999998 0.052834936490538914 -0.09651279441628825
endloop
endfacet
facet normal 0.0 0.500000000000001 -0.8660254037844382
outer loop
vertex 0.025000000000000005 0.0571650635094611 -0.09401279441628825
vertex 0.025000000000000005 0.052834936490538914 -0.09651279441628825
vertex -0.024999999999999998 0.0571650635094611 -0.09401279441628825
endloop
endfacet
facet normal 0.0 -0.7660444431189769 0.6427876096865406
outer loop
vertex 0.025000000000000005 0.06733703085649166 -0.05976599597958602
vertex 0.025000000000000005 0.07055096890492436 -0.055935773763991135
vertex -0.024999999999999998 0.06733703085649166 -0.05976599597958602
endloop
endfacet
facet normal -0.0 -0.6427876096865396 -0.7660444431189778
outer loop
vertex -0.024999999999999998 0.08265791971887121 -0.0726217481733168
vertex 0.025000000000000005 0.06733703085649166 -0.05976599597958602
vertex -0.024999999999999998 0.06733703085649166 -0.05976599597958602
endloop
endfacet
facet normal 0.0 -0.7660444431189769 0.6427876096865406
outer loop
vertex -0.024999999999999998 0.06733703085649166 -0.05976599597958602
vertex 0.025000000000000005 0.07055096890492436 -0.055935773763991135
vertex -0.024999999999999998 0.07055096890492436 -0.055935773763991135
endloop
endfacet
facet normal -1.0 -0.0 -0.0
outer loop
vertex -0.024999999999999998 0.07055096890492436 -0.055935773763991135
vertex -0.024999999999999998 0.08265791971887121 -0.0726217481733168
vertex -0.024999999999999998 0.06733703085649166 -0.05976599597958602
endloop
endfacet
facet normal 1.0 -1.3288752791200706e-16 1.11505875659026e-16
outer loop
vertex 0.025000000000000005 0.06733703085649166 -0.05976599597958602
vertex 0.02500000000000001 0.08587185776730391 -0.06879152595772191
vertex 0.025000000000000005 0.07055096890492436 -0.055935773763991135
endloop
endfacet
facet normal 0.0 -0.6427876096865396 -0.7660444431189778
outer loop
vertex 0.025000000000000005 0.08265791971887121 -0.0726217481733168
vertex 0.025000000000000005 0.06733703085649166 -0.05976599597958602
vertex -0.024999999999999998 0.08265791971887121 -0.0726217481733168
endloop
endfacet
facet normal 1.0 -4.460235026361021e-16 -5.315501116480273e-16
outer loop
vertex 0.025000000000000005 0.08265791971887121 -0.0726217481733168
vertex 0.02500000000000001 0.08587185776730391 -0.06879152595772191
vertex 0.025000000000000005 0.06733703085649166 -0.05976599597958602
endloop
endfacet
facet normal 0.0 0.6427876096865393 0.766044443118978
outer loop
vertex 0.025000000000000005 0.07055096890492436 -0.055935773763991135
vertex 0.02500000000000001 0.08587185776730391 -0.06879152595772191
vertex -0.024999999999999998 0.07055096890492436 -0.055935773763991135
endloop
endfacet
facet normal -1.0 5.789110305481091e-16 4.200442359890018e-16
outer loop
vertex -0.024999999999999994 0.08587185776730391 -0.06879152595772191
vertex -0.024999999999999998 0.08265791971887121 -0.0726217481733168
vertex -0.024999999999999998 0.07055096890492436 -0.055935773763991135
endloop
endfacet
facet normal 0.0 0.6427876096865393 0.766044443118978
outer loop
vertex -0.024999999999999998 0.07055096890492436 -0.055935773763991135
vertex 0.02500000000000001 0.08587185776730391 -0.06879152595772191
vertex -0.024999999999999994 0.08587185776730391 -0.06879152595772191
endloop
endfacet
facet normal 0.0 0.7660444431189781 -0.6427876096865394
outer loop
vertex -0.024999999999999994 0.08587185776730391 -0.06879152595772191
vertex 0.025000000000000005 0.08265791971887121 -0.0726217481733168
vertex -0.024999999999999998 0.08265791971887121 -0.0726217481733168
endloop
endfacet
facet normal 0.0 0.7660444431189781 -0.6427876096865394
outer loop
vertex 0.02500000000000001 0.08587185776730391 -0.06879152595772191
vertex 0.025000000000000005 0.08265791971887121 -0.0726217481733168
vertex -0.024999999999999994 0.08587185776730391 -0.06879152595772191
endloop
endfacet
facet normal 0.0 -0.9396926207859072 0.3420201433256719
outer loop
vertex 0.025000000000000005 0.08371728551241756 -0.03313104445127503
vertex 0.02500000000000001 0.08542738622904592 -0.02843258134734549
vertex -0.024999999999999998 0.08371728551241756 -0.03313104445127503
endloop
endfacet
facet normal -0.0 -0.34202014332566977 -0.9396926207859081
outer loop
vertex -0.024999999999999994 0.10251113792813571 -0.03997144731778842
vertex 0.025000000000000005 0.08371728551241756 -0.03313104445127503
vertex -0.024999999999999998 0.08371728551241756 -0.03313104445127503
endloop
endfacet
facet normal 0.0 -0.9396926207859073 0.3420201433256719
outer loop
vertex -0.024999999999999998 0.08371728551241756 -0.03313104445127503
vertex 0.02500000000000001 0.08542738622904592 -0.02843258134734549
vertex -0.024999999999999994 0.08542738622904592 -0.02843258134734549
endloop
endfacet
facet normal -1.0 4.0033483370154496e-16 5.927117026033945e-16
outer loop
vertex -0.024999999999999994 0.08542738622904592 -0.02843258134734549
vertex -0.024999999999999994 0.10251113792813571 -0.03997144731778842
vertex -0.024999999999999998 0.08371728551241756 -0.03313104445127503
endloop
endfacet
facet normal 0.9999999999999999 -2.3732414875359624e-16 -6.520427397917942e-16
outer loop
vertex 0.025000000000000005 0.08371728551241756 -0.03313104445127503
vertex 0.02500000000000001 0.10422123864476407 -0.035272984213858875
vertex 0.02500000000000001 0.08542738622904592 -0.02843258134734549
endloop
endfacet
facet normal 0.0 -0.34202014332566966 -0.939692620785908
outer loop
vertex 0.02500000000000001 0.10251113792813571 -0.03997144731778842
vertex 0.025000000000000005 0.08371728551241756 -0.03313104445127503
vertex -0.024999999999999994 0.10251113792813571 -0.03997144731778842
endloop
endfacet
facet normal 1.0 -1.6301068494794855e-16 5.933103718839945e-17
outer loop
vertex 0.02500000000000001 0.10251113792813571 -0.03997144731778842
vertex 0.02500000000000001 0.10422123864476407 -0.035272984213858875
vertex 0.025000000000000005 0.08371728551241756 -0.03313104445127503
endloop
endfacet
facet normal 0.0 0.34202014332566943 0.9396926207859083
outer loop
vertex 0.02500000000000001 0.08542738622904592 -0.02843258134734549
vertex 0.02500000000000001 0.10422123864476407 -0.035272984213858875
vertex -0.024999999999999994 0.08542738622904592 -0.02843258134734549
endloop
endfacet
facet normal -1.0 -0.0 0.0
outer loop
vertex -0.024999999999999994 0.10422123864476407 -0.035272984213858875
vertex -0.024999999999999994 0.10251113792813571 -0.03997144731778842
vertex -0.024999999999999994 0.08542738622904592 -0.02843258134734549
endloop
endfacet
facet normal 0.0 0.34202014332566943 0.9396926207859083
outer loop
vertex -0.024999999999999994 0.08542738622904592 -0.02843258134734549
vertex 0.02500000000000001 0.10422123864476407 -0.035272984213858875
vertex -0.024999999999999994 0.10422123864476407 -0.035272984213858875
endloop
endfacet
facet normal 0.0 0.9396926207859075 -0.34202014332567143
outer loop
vertex -0.024999999999999994 0.10422123864476407 -0.035272984213858875
vertex 0.02500000000000001 0.10251113792813571 -0.03997144731778842
vertex -0.024999999999999994 0.10251113792813571 -0.03997144731778842
endloop
endfacet
facet normal 0.0 0.9396926207859075 -0.34202014332567143
outer loop
vertex 0.02500000000000001 0.10422123864476407 -0.035272984213858875
vertex 0.02500000000000001 0.10251113792813571 -0.03997144731778842
vertex -0.024999999999999994 0.10422123864476407 -0.035272984213858875
endloop
endfacet

endsolid
