solid 
facet normal -1.0 6.938893903907228e-17 1.223514211532333e-17
outer loop
vertex -0.024999999999999994 0.1 -6.123233995736766e-18
vertex -0.025 1.5308084989341916e-18 -9.373498641636611e-35
vertex -0.024999999999999994 0.09396926207859085 0.034202014332566866
endloop
endfacet
facet normal 0.0 0.9848077530122081 0.17364817766693008
outer loop
vertex -0.024999999999999994 0.1 -6.123233995736766e-18
vertex -0.024999999999999994 0.09396926207859085 0.034202014332566866
vertex 0.02500000000000001 0.1 -6.123233995736766e-18
endloop
endfacet
facet normal -0.0 0.9848077530122081 0.17364817766693008
outer loop
vertex 0.02500000000000001 0.1 -6.123233995736766e-18
vertex -0.024999999999999994 0.09396926207859085 0.034202014332566866
vertex 0.02500000000000001 0.09396926207859085 0.034202014332566866
endloop
endfacet
facet normal 1.0 -6.938893903907228e-17 -1.223514211532333e-17
outer loop
vertex 0.02500000000000001 0.1 -6.123233995736766e-18
vertex 0.02500000000000001 0.09396926207859085 0.034202014332566866
vertex 0.025 -1.5308084989341916e-18 9.373498641636611e-35
endloop
endfacet
facet normal -1.0 9.571407843882275e-17 -6.009258394948634e-17
outer loop
vertex -0.024999999999999994 0.09396926207859085 0.034202014332566866
vertex -0.025 1.5308084989341916e-18 -9.373498641636611e-35
vertex -0.024999999999999998 0.0766044443118978 0.06427876096865393
endloop
endfacet
facet normal 0.0 0.8660254037844385 0.5000000000000001
outer loop
vertex -0.024999999999999994 0.09396926207859085 0.034202014332566866
vertex -0.024999999999999998 0.0766044443118978 0.06427876096865393
vertex 0.02500000000000001 0.09396926207859085 0.034202014332566866
endloop
endfacet
facet normal -0.0 0.8660254037844385 0.5000000000000002
outer loop
vertex 0.02500000000000001 0.09396926207859085 0.034202014332566866
vertex -0.024999999999999998 0.0766044443118978 0.06427876096865393
vertex 0.025000000000000005 0.0766044443118978 0.06427876096865393
endloop
endfacet
facet normal 1.0 -9.571407843882277e-17 6.009258394948635e-17
outer loop
vertex 0.02500000000000001 0.09396926207859085 0.034202014332566866
vertex 0.025000000000000005 0.0766044443118978 0.06427876096865393
vertex 0.025 -1.5308084989341916e-18 9.373498641636611e-35
endloop
endfacet
facet normal -1.0 2.264520670515953e-17 2.6987506445912334e-17
outer loop
vertex -0.024999999999999998 0.0766044443118978 0.06427876096865393
vertex -0.025 1.5308084989341916e-18 -9.373498641636611e-35
vertex -0.024999999999999998 0.050000000000000024 0.08660254037844387
endloop
endfacet
facet normal 0.0 0.6427876096865398 0.7660444431189777
outer loop
vertex -0.024999999999999998 0.0766044443118978 0.06427876096865393
vertex -0.024999999999999998 0.050000000000000024 0.08660254037844387
vertex 0.025000000000000005 0.0766044443118978 0.06427876096865393
endloop
endfacet
facet normal -0.0 0.6427876096865398 0.7660444431189777
outer loop
vertex 0.025000000000000005 0.0766044443118978 0.06427876096865393
vertex -0.024999999999999998 0.050000000000000024 0.08660254037844387
vertex 0.025000000000000005 0.050000000000000024 0.08660254037844387
endloop
endfacet
facet normal 1.0 -2.264520670515953e-17 -2.6987506445912334e-17
outer loop
vertex 0.025000000000000005 0.0766044443118978 0.06427876096865393
vertex 0.025000000000000005 0.050000000000000024 0.08660254037844387
vertex 0.025 -1.5308084989341916e-18 9.373498641636611e-35
endloop
endfacet
facet normal -1.0 9.989874349871557e-17 -1.7614843817697927e-17
outer loop
vertex -0.024999999999999998 0.050000000000000024 0.08660254037844387
vertex -0.025 1.5308084989341916e-18 -9.373498641636611e-35
vertex -0.025 0.01736481776669305 0.0984807753012208
endloop
endfacet
facet normal 0.0 0.34202014332566866 0.9396926207859083
outer loop
vertex -0.024999999999999998 0.050000000000000024 0.08660254037844387
vertex -0.025 0.01736481776669305 0.0984807753012208
vertex 0.025000000000000005 0.050000000000000024 0.08660254037844387
endloop
endfacet
facet normal -0.0 0.34202014332566866 0.9396926207859084
outer loop
vertex 0.025000000000000005 0.050000000000000024 0.08660254037844387
vertex -0.025 0.01736481776669305 0.0984807753012208
vertex 0.025 0.01736481776669305 0.0984807753012208
endloop
endfacet
facet normal 1.0 -9.989874349871559e-17 1.761484381769793e-17
outer loop
vertex 0.025000000000000005 0.050000000000000024 0.08660254037844387
vertex 0.025 0.01736481776669305 0.0984807753012208
vertex 0.025 -1.5308084989341916e-18 9.373498641636611e-35
endloop
endfacet
facet normal -1.0 -0.0 0.0
outer loop
vertex -0.025 0.01736481776669305 0.0984807753012208
vertex -0.025 1.5308084989341916e-18 -9.373498641636611e-35
vertex -0.025 -0.017364817766693023 0.0984807753012208
endloop
endfacet
facet normal -0.0 0.0 1.0
outer loop
vertex -0.025 0.01736481776669305 0.0984807753012208
vertex -0.025 -0.017364817766693023 0.0984807753012208
vertex 0.025 0.01736481776669305 0.0984807753012208
endloop
endfacet
facet normal -0.0 0.0 1.0
outer loop
vertex 0.025 0.01736481776669305 0.0984807753012208
vertex -0.025 -0.017364817766693023 0.0984807753012208
vertex 0.025 -0.017364817766693023 0.0984807753012208
endloop
endfacet
facet normal 1.0 0.0 0.0
outer loop
vertex 0.025 0.01736481776669305 0.0984807753012208
vertex 0.025 -0.017364817766693023 0.0984807753012208
vertex 0.025 -1.5308084989341916e-18 9.373498641636611e-35
endloop
endfacet
facet normal -1.0 9.989874349871567e-17 1.7614843817697918e-17
outer loop
vertex -0.025 -0.017364817766693023 0.0984807753012208
vertex -0.025 1.5308084989341916e-18 -9.373498641636611e-35
vertex -0.025000000000000005 -0.049999999999999975 0.08660254037844388
endloop
endfacet
facet normal 0.0 -0.3420201433256685 0.9396926207859085
outer loop
vertex -0.025 -0.017364817766693023 0.0984807753012208
vertex -0.025000000000000005 -0.049999999999999975 0.08660254037844388
vertex 0.025 -0.017364817766693023 0.0984807753012208
endloop
endfacet
facet normal 0.0 -0.3420201433256685 0.9396926207859086
outer loop
vertex 0.025 -0.017364817766693023 0.0984807753012208
vertex -0.025000000000000005 -0.049999999999999975 0.08660254037844388
vertex 0.024999999999999998 -0.049999999999999975 0.08660254037844388
endloop
endfacet
facet normal 1.0 -9.989874349871565e-17 -1.7614843817697908e-17
outer loop
vertex 0.025 -0.017364817766693023 0.0984807753012208
vertex 0.024999999999999998 -0.049999999999999975 0.08660254037844388
vertex 0.025 -1.5308084989341916e-18 9.373498641636611e-35
endloop
endfacet
facet normal -0.9999999999999999 2.2645206705159506e-17 -2.6987506445912353e-17
outer loop
vertex -0.025000000000000005 -0.049999999999999975 0.08660254037844388
vertex -0.025 1.5308084989341916e-18 -9.373498641636611e-35
vertex -0.025000000000000005 -0.07660444431189779 0.06427876096865395
endloop
endfacet
facet normal 0.0 -0.642787609686539 0.7660444431189782
outer loop
vertex -0.025000000000000005 -0.049999999999999975 0.08660254037844388
vertex -0.025000000000000005 -0.07660444431189779 0.06427876096865395
vertex 0.024999999999999998 -0.049999999999999975 0.08660254037844388
endloop
endfacet
facet normal 0.0 -0.642787609686539 0.7660444431189782
outer loop
vertex 0.024999999999999998 -0.049999999999999975 0.08660254037844388
vertex -0.025000000000000005 -0.07660444431189779 0.06427876096865395
vertex 0.024999999999999998 -0.07660444431189779 0.06427876096865395
endloop
endfacet
facet normal 0.9999999999999999 -2.2645206705159506e-17 2.6987506445912353e-17
outer loop
vertex 0.024999999999999998 -0.049999999999999975 0.08660254037844388
vertex 0.024999999999999998 -0.07660444431189779 0.06427876096865395
vertex 0.025 -1.5308084989341916e-18 9.373498641636611e-35
endloop
endfacet
facet normal -1.0 9.571407843882278e-17 6.009258394948633e-17
outer loop
vertex -0.025000000000000005 -0.07660444431189779 0.06427876096865395
vertex -0.025 1.5308084989341916e-18 -9.373498641636611e-35
vertex -0.02500000000000001 -0.09396926207859084 0.034202014332566893
endloop
endfacet
facet normal 0.0 -0.8660254037844385 0.5000000000000001
outer loop
vertex -0.025000000000000005 -0.07660444431189779 0.06427876096865395
vertex -0.02500000000000001 -0.09396926207859084 0.034202014332566893
vertex 0.024999999999999998 -0.07660444431189779 0.06427876096865395
endloop
endfacet
facet normal 0.0 -0.8660254037844385 0.5000000000000002
outer loop
vertex 0.024999999999999998 -0.07660444431189779 0.06427876096865395
vertex -0.02500000000000001 -0.09396926207859084 0.034202014332566893
vertex 0.024999999999999994 -0.09396926207859084 0.034202014332566893
endloop
endfacet
facet normal 1.0 -9.57140784388228e-17 -6.009258394948634e-17
outer loop
vertex 0.024999999999999998 -0.07660444431189779 0.06427876096865395
vertex 0.024999999999999994 -0.09396926207859084 0.034202014332566893
vertex 0.025 -1.5308084989341916e-18 9.373498641636611e-35
endloop
endfacet
facet normal -1.0 6.938893903907227e-17 -1.2235142115323357e-17
outer loop
vertex -0.02500000000000001 -0.09396926207859084 0.034202014332566893
vertex -0.025 1.5308084989341916e-18 -9.373498641636611e-35
vertex -0.02500000000000001 -0.1 1.83697019872103e-17
endloop
endfacet
facet normal 0.0 -0.9848077530122081 0.1736481776669305
outer loop
vertex -0.02500000000000001 -0.09396926207859084 0.034202014332566893
vertex -0.02500000000000001 -0.1 1.83697019872103e-17
vertex 0.024999999999999994 -0.09396926207859084 0.034202014332566893
endloop
endfacet
facet normal 0.0 -0.9848077530122081 0.1736481776669305
outer loop
vertex 0.024999999999999994 -0.09396926207859084 0.034202014332566893
vertex -0.02500000000000001 -0.1 1.83697019872103e-17
vertex 0.024999999999999994 -0.1 1.83697019872103e-17
endloop
endfacet
facet normal 1.0 -6.938893903907228e-17 1.2235142115323358e-17
outer loop
vertex 0.024999999999999994 -0.09396926207859084 0.034202014332566893
vertex 0.024999999999999994 -0.1 1.83697019872103e-17
vertex 0.025 -1.5308084989341916e-18 9.373498641636611e-35
endloop
endfacet
facet normal -1.0 6.938893903907228e-17 1.2235142115323329e-17
outer loop
vertex -0.02500000000000001 -0.1 1.83697019872103e-17
vertex -0.025 1.5308084989341916e-18 -9.373498641636611e-35
vertex -0.02500000000000001 -0.09396926207859085 -0.03420201433256686
endloop
endfacet
facet normal 0.0 -0.9848077530122081 -0.17364817766693005
outer loop
vertex -0.02500000000000001 -0.1 1.83697019872103e-17
vertex -0.02500000000000001 -0.09396926207859085 -0.03420201433256686
vertex 0.024999999999999994 -0.1 1.83697019872103e-17
endloop
endfacet
facet normal 0.0 -0.9848077530122081 -0.17364817766693005
outer loop
vertex 0.024999999999999994 -0.1 1.83697019872103e-17
vertex -0.02500000000000001 -0.09396926207859085 -0.03420201433256686
vertex 0.024999999999999994 -0.09396926207859085 -0.03420201433256686
endloop
endfacet
facet normal 0.9999999999999999 -6.938893903907227e-17 -1.2235142115323326e-17
outer loop
vertex 0.024999999999999994 -0.1 1.83697019872103e-17
vertex 0.024999999999999994 -0.09396926207859085 -0.03420201433256686
vertex 0.025 -1.5308084989341916e-18 9.373498641636611e-35
endloop
endfacet
facet normal -1.0 9.571407843882273e-17 -6.009258394948633e-17
outer loop
vertex -0.02500000000000001 -0.09396926207859085 -0.03420201433256686
vertex -0.025 1.5308084989341916e-18 -9.373498641636611e-35
vertex -0.025000000000000005 -0.0766044443118978 -0.06427876096865393
endloop
endfacet
facet normal 0.0 -0.8660254037844384 -0.5000000000000002
outer loop
vertex -0.02500000000000001 -0.09396926207859085 -0.03420201433256686
vertex -0.025000000000000005 -0.0766044443118978 -0.06427876096865393
vertex 0.024999999999999994 -0.09396926207859085 -0.03420201433256686
endloop
endfacet
facet normal 0.0 -0.8660254037844386 -0.5000000000000002
outer loop
vertex 0.024999999999999994 -0.09396926207859085 -0.03420201433256686
vertex -0.025000000000000005 -0.0766044443118978 -0.06427876096865393
vertex 0.024999999999999998 -0.0766044443118978 -0.06427876096865393
endloop
endfacet
facet normal 1.0 -9.571407843882275e-17 6.009258394948634e-17
outer loop
vertex 0.024999999999999994 -0.09396926207859085 -0.03420201433256686
vertex 0.024999999999999998 -0.0766044443118978 -0.06427876096865393
vertex 0.025 -1.5308084989341916e-18 9.373498641636611e-35
endloop
endfacet
facet normal -1.0 2.2645206705159534e-17 2.6987506445912343e-17
outer loop
vertex -0.025000000000000005 -0.0766044443118978 -0.06427876096865393
vertex -0.025 1.5308084989341916e-18 -9.373498641636611e-35
vertex -0.025000000000000005 -0.05000000000000005 -0.08660254037844384
endloop
endfacet
facet normal 0.0 -0.6427876096865397 -0.7660444431189778
outer loop
vertex -0.025000000000000005 -0.0766044443118978 -0.06427876096865393
vertex -0.025000000000000005 -0.05000000000000005 -0.08660254037844384
vertex 0.024999999999999998 -0.0766044443118978 -0.06427876096865393
endloop
endfacet
facet normal 0.0 -0.6427876096865397 -0.7660444431189778
outer loop
vertex 0.024999999999999998 -0.0766044443118978 -0.06427876096865393
vertex -0.025000000000000005 -0.05000000000000005 -0.08660254037844384
vertex 0.024999999999999998 -0.05000000000000005 -0.08660254037844384
endloop
endfacet
facet normal 1.0 -2.264520670515953e-17 -2.6987506445912337e-17
outer loop
vertex 0.024999999999999998 -0.0766044443118978 -0.06427876096865393
vertex 0.024999999999999998 -0.05000000000000005 -0.08660254037844384
vertex 0.025 -1.5308084989341916e-18 9.373498641636611e-35
endloop
endfacet
facet normal -1.0 9.989874349871548e-17 -1.76148438176979e-17
outer loop
vertex -0.025000000000000005 -0.05000000000000005 -0.08660254037844384
vertex -0.025 1.5308084989341916e-18 -9.373498641636611e-35
vertex -0.025 -0.01736481776669304 -0.0984807753012208
endloop
endfacet
facet normal 0.0 -0.34202014332566893 -0.9396926207859082
outer loop
vertex -0.025000000000000005 -0.05000000000000005 -0.08660254037844384
vertex -0.025 -0.01736481776669304 -0.0984807753012208
vertex 0.024999999999999998 -0.05000000000000005 -0.08660254037844384
endloop
endfacet
facet normal 0.0 -0.342020143325669 -0.9396926207859083
outer loop
vertex 0.024999999999999998 -0.05000000000000005 -0.08660254037844384
vertex -0.025 -0.01736481776669304 -0.0984807753012208
vertex 0.025 -0.01736481776669304 -0.0984807753012208
endloop
endfacet
facet normal 1.0 -9.989874349871548e-17 1.76148438176979e-17
outer loop
vertex 0.024999999999999998 -0.05000000000000005 -0.08660254037844384
vertex 0.025 -0.01736481776669304 -0.0984807753012208
vertex 0.025 -1.5308084989341916e-18 9.373498641636611e-35
endloop
endfacet
facet normal -1.0 0.0 0.0
outer loop
vertex -0.025 -0.01736481776669304 -0.0984807753012208
vertex -0.025 1.5308084989341916e-18 -9.373498641636611e-35
vertex -0.025 0.01736481776669299 -0.09848077530122082
endloop
endfacet
facet normal 0.0 -3.9959497399486286e-16 -0.9999999999999999
outer loop
vertex -0.025 -0.01736481776669304 -0.0984807753012208
vertex -0.025 0.01736481776669299 -0.09848077530122082
vertex 0.025 -0.01736481776669304 -0.0984807753012208
endloop
endfacet
facet normal 0.0 -3.9959497399486286e-16 -0.9999999999999999
outer loop
vertex 0.025 -0.01736481776669304 -0.0984807753012208
vertex -0.025 0.01736481776669299 -0.09848077530122082
vertex 0.025 0.01736481776669299 -0.09848077530122082
endloop
endfacet
facet normal 1.0 -0.0 -0.0
outer loop
vertex 0.025 -0.01736481776669304 -0.0984807753012208
vertex 0.025 0.01736481776669299 -0.09848077530122082
vertex 0.025 -1.5308084989341916e-18 9.373498641636611e-35
endloop
endfacet
facet normal -1.0 9.989874349871547e-17 1.7614843817697847e-17
outer loop
vertex -0.025 0.01736481776669299 -0.09848077530122082
vertex -0.025 1.5308084989341916e-18 -9.373498641636611e-35
vertex -0.024999999999999998 0.05000000000000001 -0.08660254037844387
endloop
endfacet
facet normal 0.0 0.3420201433256685 -0.9396926207859084
outer loop
vertex -0.025 0.01736481776669299 -0.09848077530122082
vertex -0.024999999999999998 0.05000000000000001 -0.08660254037844387
vertex 0.025 0.01736481776669299 -0.09848077530122082
endloop
endfacet
facet normal 0.0 0.3420201433256685 -0.9396926207859083
outer loop
vertex 0.025 0.01736481776669299 -0.09848077530122082
vertex -0.024999999999999998 0.05000000000000001 -0.08660254037844387
vertex 0.025000000000000005 0.05000000000000001 -0.08660254037844387
endloop
endfacet
facet normal 1.0 -9.989874349871547e-17 -1.7614843817697847e-17
outer loop
vertex 0.025 0.01736481776669299 -0.09848077530122082
vertex 0.025000000000000005 0.05000000000000001 -0.08660254037844387
vertex 0.025 -1.5308084989341916e-18 9.373498641636611e-35
endloop
endfacet
facet normal -1.0 2.2645206705159513e-17 -2.6987506445912347e-17
outer loop
vertex -0.024999999999999998 0.05000000000000001 -0.08660254037844387
vertex -0.025 1.5308084989341916e-18 -9.373498641636611e-35
vertex -0.024999999999999998 0.07660444431189778 -0.06427876096865397
endloop
endfacet
facet normal 0.0 0.6427876096865393 -0.7660444431189782
outer loop
vertex -0.024999999999999998 0.05000000000000001 -0.08660254037844387
vertex -0.024999999999999998 0.07660444431189778 -0.06427876096865397
vertex 0.025000000000000005 0.05000000000000001 -0.08660254037844387
endloop
endfacet
facet normal 0.0 0.6427876096865393 -0.7660444431189782
outer loop
vertex 0.025000000000000005 0.05000000000000001 -0.08660254037844387
vertex -0.024999999999999998 0.07660444431189778 -0.06427876096865397
vertex 0.025000000000000005 0.07660444431189778 -0.06427876096865397
endloop
endfacet
facet normal 1.0 -2.2645206705159513e-17 2.6987506445912347e-17
outer loop
vertex 0.025000000000000005 0.05000000000000001 -0.08660254037844387
vertex 0.025000000000000005 0.07660444431189778 -0.06427876096865397
vertex 0.025 -1.5308084989341916e-18 9.373498641636611e-35
endloop
endfacet
facet normal -1.0 9.571407843882288e-17 6.009258394948642e-17
outer loop
vertex -0.024999999999999998 0.07660444431189778 -0.06427876096865397
vertex -0.025 1.5308084989341916e-18 -9.373498641636611e-35
vertex -0.024999999999999994 0.09396926207859081 -0.03420201433256695
endloop
endfacet
facet normal 0.0 0.8660254037844384 -0.5000000000000006
outer loop
vertex -0.024999999999999998 0.07660444431189778 -0.06427876096865397
vertex -0.024999999999999994 0.09396926207859081 -0.03420201433256695
vertex 0.025000000000000005 0.07660444431189778 -0.06427876096865397
endloop
endfacet
facet normal 0.0 0.8660254037844384 -0.5000000000000004
outer loop
vertex 0.025000000000000005 0.07660444431189778 -0.06427876096865397
vertex -0.024999999999999994 0.09396926207859081 -0.03420201433256695
vertex 0.02500000000000001 0.09396926207859081 -0.03420201433256695
endloop
endfacet
facet normal 1.0 -9.571407843882286e-17 -6.00925839494864e-17
outer loop
vertex 0.025000000000000005 0.07660444431189778 -0.06427876096865397
vertex 0.02500000000000001 0.09396926207859081 -0.03420201433256695
vertex 0.025 -1.5308084989341916e-18 9.373498641636611e-35
endloop
endfacet
facet normal -1.0 6.938893903907228e-17 -1.223514211532339e-17
outer loop
vertex -0.024999999999999994 0.09396926207859081 -0.03420201433256695
vertex -0.025 1.5308084989341916e-18 -9.373498641636611e-35
vertex -0.024999999999999994 0.1 -6.123233995736766e-18
endloop
endfacet
facet normal 0.0 0.984807753012208 -0.1736481776669309
outer loop
vertex -0.024999999999999994 0.09396926207859081 -0.03420201433256695
vertex -0.024999999999999994 0.1 -6.123233995736766e-18
vertex 0.02500000000000001 0.09396926207859081 -0.03420201433256695
endloop
endfacet
facet normal 0.0 0.984807753012208 -0.1736481776669309
outer loop
vertex 0.02500000000000001 0.09396926207859081 -0.03420201433256695
vertex -0.024999999999999994 0.1 -6.123233995736766e-18
vertex 0.02500000000000001 0.1 -6.123233995736766e-18
endloop
endfacet
facet normal 1.0 -6.938893903907228e-17 1.223514211532339e-17
outer loop
vertex 0.02500000000000001 0.09396926207859081 -0.03420201433256695
vertex 0.02500000000000001 0.1 -6.123233995736766e-18
vertex 0.025 -1.5308084989341916e-18 9.373498641636611e-35
endloop
endfacet
facet normal -0.0 -1.0 0.0
outer loop
vertex 0.02500000000000001 0.095 -0.0025000000000000057
vertex 0.02500000000000001 0.095 0.0024999999999999944
vertex -0.024999999999999994 0.095 -0.0025000000000000057
endloop
endfacet
facet normal -0.0 -8.673617379884028e-17 -1.0
outer loop
vertex -0.024999999999999994 0.10500000000000001 -0.0025000000000000066
vertex 0.02500000000000001 0.095 -0.0025000000000000057
vertex -0.024999999999999994 0.095 -0.0025000000000000057
endloop
endfacet
facet normal 0.0 -1.0 0.0
outer loop
vertex -0.024999999999999994 0.095 -0.0025000000000000057
vertex 0.02500000000000001 0.095 0.0024999999999999944
vertex -0.024999999999999994 0.095 0.0024999999999999944
endloop
endfacet
facet normal -1.0 -0.0 -0.0
outer loop
vertex -0.024999999999999994 0.095 0.0024999999999999944
vertex -0.024999999999999994 0.10500000000000001 -0.0025000000000000066
vertex -0.024999999999999994 0.095 -0.0025000000000000057
endloop
endfacet
facet normal 1.0 0.0 -0.0
outer loop
vertex 0.02500000000000001 0.095 -0.0025000000000000057
vertex 0.02500000000000001 0.10500000000000001 0.0024999999999999935
vertex 0.02500000000000001 0.095 0.0024999999999999944
endloop
endfacet
facet normal 0.0 -8.673617379884028e-17 -1.0
outer loop
vertex 0.02500000000000001 0.10500000000000001 -0.0025000000000000066
vertex 0.02500000000000001 0.095 -0.0025000000000000057
vertex -0.024999999999999994 0.10500000000000001 -0.0025000000000000066
endloop
endfacet
facet normal 1.0 0.0 -0.0
outer loop
vertex 0.02500000000000001 0.10500000000000001 -0.0025000000000000066
vertex 0.02500000000000001 0.10500000000000001 0.0024999999999999935
vertex 0.02500000000000001 0.095 -0.0025000000000000057
endloop
endfacet
facet normal 0.0 8.673617379884028e-17 1.0
outer loop
vertex 0.02500000000000001 0.095 0.0024999999999999944
vertex 0.02500000000000001 0.10500000000000001 0.0024999999999999935
vertex -0.024999999999999994 0.095 0.0024999999999999944
endloop
endfacet
facet normal -1.0 -0.0 -0.0
outer loop
vertex -0.024999999999999994 0.10500000000000001 0.0024999999999999935
vertex -0.024999999999999994 0.10500000000000001 -0.0025000000000000066
vertex -0.024999999999999994 0.095 0.0024999999999999944
endloop
endfacet
facet normal 0.0 8.673617379884028e-17 1.0
outer loop
vertex -0.024999999999999994 0.095 0.0024999999999999944
vertex 0.02500000000000001 0.10500000000000001 0.0024999999999999935
vertex -0.024999999999999994 0.10500000000000001 0.0024999999999999935
endloop
endfacet
facet normal 0.0 1.0 0.0
outer loop
vertex -0.024999999999999994 0.10500000000000001 0.0024999999999999935
vertex 0.02500000000000001 0.10500000000000001 -0.0025000000000000066
vertex -0.024999999999999994 0.10500000000000001 -0.0025000000000000066
endloop
endfacet
facet normal 0.0 1.0 0.0
outer loop
vertex 0.02500000000000001 0.10500000000000001 0.0024999999999999935
vertex 0.02500000000000001 0.10500000000000001 -0.0025000000000000066
vertex -0.024999999999999994 0.10500000000000001 0.0024999999999999935
endloop
endfacet
facet normal 0.0 -0.9396926207859093 -0.34202014332566655
outer loop
vertex 0.02500000000000001 0.09012584933297547 0.030142682063973747
vertex 0.02500000000000001 0.08841574861634714 0.03484114516790329
vertex -0.024999999999999994 0.09012584933297547 0.030142682063973747
endloop
endfacet
facet normal 0.0 0.3420201433256689 -0.9396926207859082
outer loop
vertex -0.024999999999999994 0.09952277554083457 0.03356288349723044
vertex 0.02500000000000001 0.09012584933297547 0.030142682063973747
vertex -0.024999999999999994 0.09012584933297547 0.030142682063973747
endloop
endfacet
facet normal -0.0 -0.9396926207859093 -0.34202014332566655
outer loop
vertex -0.024999999999999994 0.09012584933297547 0.030142682063973747
vertex 0.02500000000000001 0.08841574861634714 0.03484114516790329
vertex -0.024999999999999994 0.08841574861634714 0.03484114516790329
endloop
endfacet
facet normal -1.0 0.0 -0.0
outer loop
vertex -0.024999999999999994 0.08841574861634714 0.03484114516790329
vertex -0.024999999999999994 0.09952277554083457 0.03356288349723044
vertex -0.024999999999999994 0.09012584933297547 0.030142682063973747
endloop
endfacet
facet normal 1.0 0.0 -0.0
outer loop
vertex 0.02500000000000001 0.09012584933297547 0.030142682063973747
vertex 0.02500000000000001 0.09781267482420623 0.038261346601159985
vertex 0.02500000000000001 0.08841574861634714 0.03484114516790329
endloop
endfacet
facet normal 0.0 0.3420201433256689 -0.9396926207859082
outer loop
vertex 0.02500000000000001 0.09952277554083457 0.03356288349723044
vertex 0.02500000000000001 0.09012584933297547 0.030142682063973747
vertex -0.024999999999999994 0.09952277554083457 0.03356288349723044
endloop
endfacet
facet normal 1.0 0.0 0.0
outer loop
vertex 0.02500000000000001 0.09952277554083457 0.03356288349723044
vertex 0.02500000000000001 0.09781267482420623 0.038261346601159985
vertex 0.02500000000000001 0.09012584933297547 0.030142682063973747
endloop
endfacet
facet normal 0.0 -0.3420201433256689 0.9396926207859082
outer loop
vertex 0.02500000000000001 0.08841574861634714 0.03484114516790329
vertex 0.02500000000000001 0.09781267482420623 0.038261346601159985
vertex -0.024999999999999994 0.08841574861634714 0.03484114516790329
endloop
endfacet
facet normal -1.0 -0.0 -0.0
outer loop
vertex -0.024999999999999994 0.09781267482420623 0.038261346601159985
vertex -0.024999999999999994 0.09952277554083457 0.03356288349723044
vertex -0.024999999999999994 0.08841574861634714 0.03484114516790329
endloop
endfacet
facet normal 0.0 -0.3420201433256689 0.9396926207859082
outer loop
vertex -0.024999999999999994 0.08841574861634714 0.03484114516790329
vertex 0.02500000000000001 0.09781267482420623 0.038261346601159985
vertex -0.024999999999999994 0.09781267482420623 0.038261346601159985
endloop
endfacet
facet normal 0.0 0.9396926207859093 0.34202014332566655
outer loop
vertex -0.024999999999999994 0.09781267482420623 0.038261346601159985
vertex 0.02500000000000001 0.09952277554083457 0.03356288349723044
vertex -0.024999999999999994 0.09952277554083457 0.03356288349723044
endloop
endfacet
facet normal 0.0 0.9396926207859093 0.34202014332566655
outer loop
vertex 0.02500000000000001 0.09781267482420623 0.038261346601159985
vertex 0.02500000000000001 0.09952277554083457 0.03356288349723044
vertex -0.024999999999999994 0.09781267482420623 0.038261346601159985
endloop
endfacet
facet normal 0.0 -0.7660444431189775 -0.6427876096865398
outer loop
vertex 0.025000000000000005 0.07438119112051926 0.05914971181242378
vertex 0.025000000000000005 0.07116725307208656 0.06297993402801867
vertex -0.024999999999999998 0.07438119112051926 0.05914971181242378
endloop
endfacet
facet normal 0.0 0.6427876096865388 -0.7660444431189785
outer loop
vertex -0.024999999999999998 0.08204163555170906 0.06557758790928918
vertex 0.025000000000000005 0.07438119112051926 0.05914971181242378
vertex -0.024999999999999998 0.07438119112051926 0.05914971181242378
endloop
endfacet
facet normal -0.0 -0.7660444431189775 -0.6427876096865398
outer loop
vertex -0.024999999999999998 0.07438119112051926 0.05914971181242378
vertex 0.025000000000000005 0.07116725307208656 0.06297993402801867
vertex -0.024999999999999998 0.07116725307208656 0.06297993402801867
endloop
endfacet
facet normal -1.0 0.0 -0.0
outer loop
vertex -0.024999999999999998 0.07116725307208656 0.06297993402801867
vertex -0.024999999999999998 0.08204163555170906 0.06557758790928918
vertex -0.024999999999999998 0.07438119112051926 0.05914971181242378
endloop
endfacet
facet normal 1.0 0.0 -0.0
outer loop
vertex 0.025000000000000005 0.07438119112051926 0.05914971181242378
vertex 0.025000000000000005 0.07882769750327635 0.06940781012488408
vertex 0.025000000000000005 0.07116725307208656 0.06297993402801867
endloop
endfacet
facet normal 0.0 0.6427876096865388 -0.7660444431189785
outer loop
vertex 0.025000000000000005 0.08204163555170906 0.06557758790928918
vertex 0.025000000000000005 0.07438119112051926 0.05914971181242378
vertex -0.024999999999999998 0.08204163555170906 0.06557758790928918
endloop
endfacet
facet normal 1.0 0.0 0.0
outer loop
vertex 0.025000000000000005 0.08204163555170906 0.06557758790928918
vertex 0.025000000000000005 0.07882769750327635 0.06940781012488408
vertex 0.025000000000000005 0.07438119112051926 0.05914971181242378
endloop
endfacet
facet normal 0.0 -0.6427876096865394 0.7660444431189781
outer loop
vertex 0.025000000000000005 0.07116725307208656 0.06297993402801867
vertex 0.025000000000000005 0.07882769750327635 0.06940781012488408
vertex -0.024999999999999998 0.07116725307208656 0.06297993402801867
endloop
endfacet
facet normal -0.9999999999999999 0.0 -0.0
outer loop
vertex -0.024999999999999998 0.07882769750327635 0.06940781012488408
vertex -0.024999999999999998 0.08204163555170906 0.06557758790928918
vertex -0.024999999999999998 0.07116725307208656 0.06297993402801867
endloop
endfacet
facet normal 0.0 -0.6427876096865394 0.7660444431189781
outer loop
vertex -0.024999999999999998 0.07116725307208656 0.06297993402801867
vertex 0.025000000000000005 0.07882769750327635 0.06940781012488408
vertex -0.024999999999999998 0.07882769750327635 0.06940781012488408
endloop
endfacet
facet normal 0.0 0.7660444431189781 0.6427876096865394
outer loop
vertex -0.024999999999999998 0.07882769750327635 0.06940781012488408
vertex 0.025000000000000005 0.08204163555170906 0.06557758790928918
vertex -0.024999999999999998 0.08204163555170906 0.06557758790928918
endloop
endfacet
facet normal 0.0 0.7660444431189781 0.6427876096865394
outer loop
vertex 0.025000000000000005 0.07882769750327635 0.06940781012488408
vertex 0.025000000000000005 0.08204163555170906 0.06557758790928918
vertex -0.024999999999999998 0.07882769750327635 0.06940781012488408
endloop
endfacet
facet normal 0.0 -0.500000000000001 -0.8660254037844382
outer loop
vertex 0.025000000000000005 0.049665063509461115 0.08102241335952166
vertex 0.025000000000000005 0.04533493649053893 0.08352241335952167
vertex -0.024999999999999998 0.049665063509461115 0.08102241335952166
endloop
endfacet
facet normal 0.0 0.8660254037844387 -0.49999999999999967
outer loop
vertex -0.024999999999999998 0.05466506350946112 0.08968266739736606
vertex 0.025000000000000005 0.049665063509461115 0.08102241335952166
vertex -0.024999999999999998 0.049665063509461115 0.08102241335952166
endloop
endfacet
facet normal -0.0 -0.500000000000001 -0.8660254037844382
outer loop
vertex -0.024999999999999998 0.049665063509461115 0.08102241335952166
vertex 0.025000000000000005 0.04533493649053893 0.08352241335952167
vertex -0.024999999999999998 0.04533493649053893 0.08352241335952167
endloop
endfacet
facet normal -1.0 0.0 -0.0
outer loop
vertex -0.024999999999999998 0.04533493649053893 0.08352241335952167
vertex -0.024999999999999998 0.05466506350946112 0.08968266739736606
vertex -0.024999999999999998 0.049665063509461115 0.08102241335952166
endloop
endfacet
facet normal 1.0 0.0 -0.0
outer loop
vertex 0.025000000000000005 0.049665063509461115 0.08102241335952166
vertex 0.025000000000000005 0.05033493649053893 0.09218266739736607
vertex 0.025000000000000005 0.04533493649053893 0.08352241335952167
endloop
endfacet
facet normal 0.0 0.8660254037844387 -0.49999999999999967
outer loop
vertex 0.025000000000000005 0.05466506350946112 0.08968266739736606
vertex 0.025000000000000005 0.049665063509461115 0.08102241335952166
vertex -0.024999999999999998 0.05466506350946112 0.08968266739736606
endloop
endfacet
facet normal 1.0 0.0 0.0
outer loop
vertex 0.025000000000000005 0.05466506350946112 0.08968266739736606
vertex 0.025000000000000005 0.05033493649053893 0.09218266739736607
vertex 0.025000000000000005 0.049665063509461115 0.08102241335952166
endloop
endfacet
facet normal 0.0 -0.8660254037844387 0.49999999999999967
outer loop
vertex 0.025000000000000005 0.04533493649053893 0.08352241335952167
vertex 0.025000000000000005 0.05033493649053893 0.09218266739736607
vertex -0.024999999999999998 0.04533493649053893 0.08352241335952167
endloop
endfacet
facet normal -1.0 0.0 -0.0
outer loop
vertex -0.024999999999999998 0.05033493649053893 0.09218266739736607
vertex -0.024999999999999998 0.05466506350946112 0.08968266739736606
vertex -0.024999999999999998 0.04533493649053893 0.08352241335952167
endloop
endfacet
facet normal 0.0 -0.8660254037844387 0.49999999999999967
outer loop
vertex -0.024999999999999998 0.04533493649053893 0.08352241335952167
vertex 0.025000000000000005 0.05033493649053893 0.09218266739736607
vertex -0.024999999999999998 0.05033493649053893 0.09218266739736607
endloop
endfacet
facet normal 0.0 0.500000000000001 0.8660254037844382
outer loop
vertex -0.024999999999999998 0.05033493649053893 0.09218266739736607
vertex 0.025000000000000005 0.05466506350946112 0.08968266739736606
vertex -0.024999999999999998 0.05466506350946112 0.08968266739736606
endloop
endfacet
facet normal 0.0 0.500000000000001 0.8660254037844382
outer loop
vertex 0.025000000000000005 0.05033493649053893 0.09218266739736607
vertex 0.025000000000000005 0.05466506350946112 0.08968266739736606
vertex -0.024999999999999998 0.05033493649053893 0.09218266739736607
endloop
endfacet
facet normal 0.0 -0.17364817766692955 -0.9848077530122082
outer loop
vertex 0.025 0.018958596260888916 0.09312261609199243
vertex 0.025 0.014034557495827871 0.09399085698032708
vertex -0.025 0.018958596260888916 0.09312261609199243
endloop
endfacet
facet normal 0.0 0.9848077530122079 -0.17364817766693041
outer loop
vertex -0.025 0.020695078037558223 0.10297069362211453
vertex 0.025 0.018958596260888916 0.09312261609199243
vertex -0.025 0.018958596260888916 0.09312261609199243
endloop
endfacet
facet normal -1.2049262814376574e-17 -0.17364817766692967 -0.9848077530122082
outer loop
vertex -0.025 0.018958596260888916 0.09312261609199243
vertex 0.025 0.014034557495827871 0.09399085698032708
vertex -0.025 0.014034557495827875 0.09399085698032708
endloop
endfacet
facet normal -1.0 0.0 -0.0
outer loop
vertex -0.025 0.014034557495827875 0.09399085698032708
vertex -0.025 0.020695078037558223 0.10297069362211453
vertex -0.025 0.018958596260888916 0.09312261609199243
endloop
endfacet
facet normal 1.0 0.0 0.0
outer loop
vertex 0.025 0.018958596260888916 0.09312261609199243
vertex 0.025 0.01577103927249718 0.10383893451044918
vertex 0.025 0.014034557495827871 0.09399085698032708
endloop
endfacet
facet normal 0.0 0.9848077530122079 -0.17364817766693041
outer loop
vertex 0.025 0.020695078037558223 0.10297069362211453
vertex 0.025 0.018958596260888916 0.09312261609199243
vertex -0.025 0.020695078037558223 0.10297069362211453
endloop
endfacet
facet normal 1.0 0.0 0.0
outer loop
vertex 0.025 0.020695078037558223 0.10297069362211453
vertex 0.025 0.01577103927249718 0.10383893451044918
vertex 0.025 0.018958596260888916 0.09312261609199243
endloop
endfacet
facet normal -6.776263578034392e-17 -0.9848077530122079 0.17364817766693078
outer loop
vertex 0.025 0.014034557495827871 0.09399085698032708
vertex 0.025 0.01577103927249718 0.10383893451044918
vertex -0.025 0.014034557495827875 0.09399085698032708
endloop
endfacet
facet normal -1.0 0.0 -0.0
outer loop
vertex -0.025 0.01577103927249718 0.10383893451044918
vertex -0.025 0.020695078037558223 0.10297069362211453
vertex -0.025 0.014034557495827875 0.09399085698032708
endloop
endfacet
facet normal 0.0 -0.9848077530122079 0.17364817766693041
outer loop
vertex -0.025 0.014034557495827875 0.09399085698032708
vertex 0.025 0.01577103927249718 0.10383893451044918
vertex -0.025 0.01577103927249718 0.10383893451044918
endloop
endfacet
facet normal 0.0 0.17364817766692967 0.9848077530122082
outer loop
vertex -0.025 0.01577103927249718 0.10383893451044918
vertex 0.025 0.020695078037558223 0.10297069362211453
vertex -0.025 0.020695078037558223 0.10297069362211453
endloop
endfacet
facet normal 0.0 0.17364817766692967 0.9848077530122082
outer loop
vertex 0.025 0.01577103927249718 0.10383893451044918
vertex 0.025 0.020695078037558223 0.10297069362211453
vertex -0.025 0.01577103927249718 0.10383893451044918
endloop
endfacet
facet normal 1.3552527156068815e-17 0.17364817766692978 -0.9848077530122082
outer loop
vertex 0.025 -0.014034557495827854 0.09399085698032708
vertex 0.025 -0.01895859626088889 0.09312261609199243
vertex -0.025 -0.01403455749582785 0.09399085698032708
endloop
endfacet
facet normal 6.833476513896985e-17 0.9848077530122079 0.17364817766693041
outer loop
vertex -0.025 -0.015771039272497157 0.10383893451044918
vertex 0.025 -0.014034557495827854 0.09399085698032708
vertex -0.025 -0.01403455749582785 0.09399085698032708
endloop
endfacet
facet normal 0.0 0.17364817766692967 -0.9848077530122082
outer loop
vertex -0.025 -0.01403455749582785 0.09399085698032708
vertex 0.025 -0.01895859626088889 0.09312261609199243
vertex -0.025 -0.01895859626088889 0.09312261609199243
endloop
endfacet
facet normal -1.0 0.0 0.0
outer loop
vertex -0.025 -0.01895859626088889 0.09312261609199243
vertex -0.025 -0.015771039272497157 0.10383893451044918
vertex -0.025 -0.01403455749582785 0.09399085698032708
endloop
endfacet
facet normal 1.0 0.0 0.0
outer loop
vertex 0.025 -0.014034557495827854 0.09399085698032708
vertex 0.025 -0.0206950780375582 0.10297069362211453
vertex 0.025 -0.01895859626088889 0.09312261609199243
endloop
endfacet
facet normal 0.0 0.9848077530122079 0.17364817766693005
outer loop
vertex 0.025 -0.015771039272497157 0.10383893451044918
vertex 0.025 -0.014034557495827854 0.09399085698032708
vertex -0.025 -0.015771039272497157 0.10383893451044918
endloop
endfacet
facet normal 1.0 0.0 0.0
outer loop
vertex 0.025 -0.015771039272497157 0.10383893451044918
vertex 0.025 -0.0206950780375582 0.10297069362211453
vertex 0.025 -0.014034557495827854 0.09399085698032708
endloop
endfacet
facet normal 0.0 -0.9848077530122079 -0.17364817766693041
outer loop
vertex 0.025 -0.01895859626088889 0.09312261609199243
vertex 0.025 -0.0206950780375582 0.10297069362211453
vertex -0.025 -0.01895859626088889 0.09312261609199243
endloop
endfacet
facet normal -1.0 0.0 -0.0
outer loop
vertex -0.025 -0.0206950780375582 0.10297069362211453
vertex -0.025 -0.015771039272497157 0.10383893451044918
vertex -0.025 -0.01895859626088889 0.09312261609199243
endloop
endfacet
facet normal -0.0 -0.9848077530122079 -0.17364817766693041
outer loop
vertex -0.025 -0.01895859626088889 0.09312261609199243
vertex 0.025 -0.0206950780375582 0.10297069362211453
vertex -0.025 -0.0206950780375582 0.10297069362211453
endloop
endfacet
facet normal 0.0 -0.17364817766692967 0.9848077530122082
outer loop
vertex -0.025 -0.0206950780375582 0.10297069362211453
vertex 0.025 -0.015771039272497157 0.10383893451044918
vertex -0.025 -0.015771039272497157 0.10383893451044918
endloop
endfacet
facet normal 0.0 -0.17364817766692967 0.9848077530122082
outer loop
vertex 0.025 -0.0206950780375582 0.10297069362211453
vertex 0.025 -0.015771039272497157 0.10383893451044918
vertex -0.025 -0.0206950780375582 0.10297069362211453
endloop
endfacet
facet normal 0.0 0.49999999999999967 -0.8660254037844387
outer loop
vertex 0.024999999999999998 -0.04533493649053887 0.08352241335952168
vertex 0.024999999999999998 -0.04966506350946107 0.08102241335952168
vertex -0.025000000000000005 -0.04533493649053887 0.08352241335952168
endloop
endfacet
facet normal 0.0 0.8660254037844387 0.49999999999999967
outer loop
vertex -0.025000000000000005 -0.05033493649053888 0.09218266739736608
vertex 0.024999999999999998 -0.04533493649053887 0.08352241335952168
vertex -0.025000000000000005 -0.04533493649053887 0.08352241335952168
endloop
endfacet
facet normal 0.0 0.49999999999999967 -0.8660254037844387
outer loop
vertex -0.025000000000000005 -0.04533493649053887 0.08352241335952168
vertex 0.024999999999999998 -0.04966506350946107 0.08102241335952168
vertex -0.025000000000000005 -0.04966506350946107 0.08102241335952168
endloop
endfacet
facet normal -1.0 0.0 0.0
outer loop
vertex -0.025000000000000005 -0.04966506350946107 0.08102241335952168
vertex -0.025000000000000005 -0.05033493649053888 0.09218266739736608
vertex -0.025000000000000005 -0.04533493649053887 0.08352241335952168
endloop
endfacet
facet normal 1.0 0.0 0.0
outer loop
vertex 0.024999999999999998 -0.04533493649053887 0.08352241335952168
vertex 0.024999999999999998 -0.05466506350946108 0.08968266739736608
vertex 0.024999999999999998 -0.04966506350946107 0.08102241335952168
endloop
endfacet
facet normal 0.0 0.8660254037844387 0.49999999999999967
outer loop
vertex 0.024999999999999998 -0.05033493649053888 0.09218266739736608
vertex 0.024999999999999998 -0.04533493649053887 0.08352241335952168
vertex -0.025000000000000005 -0.05033493649053888 0.09218266739736608
endloop
endfacet
facet normal 1.0 0.0 0.0
outer loop
vertex 0.024999999999999998 -0.05033493649053888 0.09218266739736608
vertex 0.024999999999999998 -0.05466506350946108 0.08968266739736608
vertex 0.024999999999999998 -0.04533493649053887 0.08352241335952168
endloop
endfacet
facet normal 0.0 -0.8660254037844387 -0.49999999999999967
outer loop
vertex 0.024999999999999998 -0.04966506350946107 0.08102241335952168
vertex 0.024999999999999998 -0.05466506350946108 0.08968266739736608
vertex -0.025000000000000005 -0.04966506350946107 0.08102241335952168
endloop
endfacet
facet normal -1.0 0.0 0.0
outer loop
vertex -0.025000000000000005 -0.05466506350946108 0.08968266739736608
vertex -0.025000000000000005 -0.05033493649053888 0.09218266739736608
vertex -0.025000000000000005 -0.04966506350946107 0.08102241335952168
endloop
endfacet
facet normal -0.0 -0.8660254037844387 -0.49999999999999967
outer loop
vertex -0.025000000000000005 -0.04966506350946107 0.08102241335952168
vertex 0.024999999999999998 -0.05466506350946108 0.08968266739736608
vertex -0.025000000000000005 -0.05466506350946108 0.08968266739736608
endloop
endfacet
facet normal 0.0 -0.49999999999999967 0.8660254037844387
outer loop
vertex -0.025000000000000005 -0.05466506350946108 0.08968266739736608
vertex 0.024999999999999998 -0.05033493649053888 0.09218266739736608
vertex -0.025000000000000005 -0.05033493649053888 0.09218266739736608
endloop
endfacet
facet normal 0.0 -0.49999999999999967 0.8660254037844387
outer loop
vertex 0.024999999999999998 -0.05466506350946108 0.08968266739736608
vertex 0.024999999999999998 -0.05033493649053888 0.09218266739736608
vertex -0.025000000000000005 -0.05466506350946108 0.08968266739736608
endloop
endfacet
facet normal 0.0 0.7660444431189769 -0.6427876096865406
outer loop
vertex 0.024999999999999998 -0.07116725307208654 0.0629799340280187
vertex 0.024999999999999998 -0.07438119112051925 0.059149711812423816
vertex -0.025000000000000005 -0.07116725307208654 0.0629799340280187
endloop
endfacet
facet normal 0.0 0.6427876096865394 0.7660444431189781
outer loop
vertex -0.025000000000000005 -0.07882769750327634 0.0694078101248841
vertex 0.024999999999999998 -0.07116725307208654 0.0629799340280187
vertex -0.025000000000000005 -0.07116725307208654 0.0629799340280187
endloop
endfacet
facet normal 0.0 0.7660444431189769 -0.6427876096865406
outer loop
vertex -0.025000000000000005 -0.07116725307208654 0.0629799340280187
vertex 0.024999999999999998 -0.07438119112051925 0.059149711812423816
vertex -0.025000000000000005 -0.07438119112051925 0.059149711812423816
endloop
endfacet
facet normal -1.0 0.0 0.0
outer loop
vertex -0.025000000000000005 -0.07438119112051925 0.059149711812423816
vertex -0.025000000000000005 -0.07882769750327634 0.0694078101248841
vertex -0.025000000000000005 -0.07116725307208654 0.0629799340280187
endloop
endfacet
facet normal 1.0 0.0 0.0
outer loop
vertex 0.024999999999999998 -0.07116725307208654 0.0629799340280187
vertex 0.024999999999999998 -0.08204163555170904 0.0655775879092892
vertex 0.024999999999999998 -0.07438119112051925 0.059149711812423816
endloop
endfacet
facet normal 0.0 0.6427876096865394 0.7660444431189781
outer loop
vertex 0.024999999999999998 -0.07882769750327634 0.0694078101248841
vertex 0.024999999999999998 -0.07116725307208654 0.0629799340280187
vertex -0.025000000000000005 -0.07882769750327634 0.0694078101248841
endloop
endfacet
facet normal 0.9999999999999999 0.0 0.0
outer loop
vertex 0.024999999999999998 -0.07882769750327634 0.0694078101248841
vertex 0.024999999999999998 -0.08204163555170904 0.0655775879092892
vertex 0.024999999999999998 -0.07116725307208654 0.0629799340280187
endloop
endfacet
facet normal 0.0 -0.6427876096865385 -0.7660444431189788
outer loop
vertex 0.024999999999999998 -0.07438119112051925 0.059149711812423816
vertex 0.024999999999999998 -0.08204163555170904 0.0655775879092892
vertex -0.025000000000000005 -0.07438119112051925 0.059149711812423816
endloop
endfacet
facet normal -1.0 0.0 0.0
outer loop
vertex -0.025000000000000005 -0.08204163555170904 0.0655775879092892
vertex -0.025000000000000005 -0.07882769750327634 0.0694078101248841
vertex -0.025000000000000005 -0.07438119112051925 0.059149711812423816
endloop
endfacet
facet normal -0.0 -0.6427876096865385 -0.7660444431189788
outer loop
vertex -0.025000000000000005 -0.07438119112051925 0.059149711812423816
vertex 0.024999999999999998 -0.08204163555170904 0.0655775879092892
vertex -0.025000000000000005 -0.08204163555170904 0.0655775879092892
endloop
endfacet
facet normal 0.0 -0.7660444431189781 0.6427876096865394
outer loop
vertex -0.025000000000000005 -0.08204163555170904 0.0655775879092892
vertex 0.024999999999999998 -0.07882769750327634 0.0694078101248841
vertex -0.025000000000000005 -0.07882769750327634 0.0694078101248841
endloop
endfacet
facet normal 0.0 -0.7660444431189781 0.6427876096865394
outer loop
vertex 0.024999999999999998 -0.08204163555170904 0.0655775879092892
vertex 0.024999999999999998 -0.07882769750327634 0.0694078101248841
vertex -0.025000000000000005 -0.08204163555170904 0.0655775879092892
endloop
endfacet
facet normal 0.0 0.9396926207859091 -0.34202014332566666
outer loop
vertex 0.024999999999999994 -0.08841574861634713 0.03484114516790332
vertex 0.024999999999999994 -0.09012584933297546 0.030142682063973778
vertex -0.02500000000000001 -0.08841574861634713 0.03484114516790332
endloop
endfacet
facet normal 0.0 0.3420201433256689 0.9396926207859082
outer loop
vertex -0.02500000000000001 -0.09781267482420622 0.03826134660116001
vertex 0.024999999999999994 -0.08841574861634713 0.03484114516790332
vertex -0.02500000000000001 -0.08841574861634713 0.03484114516790332
endloop
endfacet
facet normal 0.0 0.9396926207859091 -0.34202014332566666
outer loop
vertex -0.02500000000000001 -0.08841574861634713 0.03484114516790332
vertex 0.024999999999999994 -0.09012584933297546 0.030142682063973778
vertex -0.02500000000000001 -0.09012584933297546 0.030142682063973778
endloop
endfacet
facet normal -1.0 0.0 0.0
outer loop
vertex -0.02500000000000001 -0.09012584933297546 0.030142682063973778
vertex -0.02500000000000001 -0.09781267482420622 0.03826134660116001
vertex -0.02500000000000001 -0.08841574861634713 0.03484114516790332
endloop
endfacet
facet normal 0.9999999999999999 0.0 0.0
outer loop
vertex 0.024999999999999994 -0.08841574861634713 0.03484114516790332
vertex 0.024999999999999994 -0.09952277554083455 0.03356288349723047
vertex 0.024999999999999994 -0.09012584933297546 0.030142682063973778
endloop
endfacet
facet normal 0.0 0.3420201433256689 0.9396926207859082
outer loop
vertex 0.024999999999999994 -0.09781267482420622 0.03826134660116001
vertex 0.024999999999999994 -0.08841574861634713 0.03484114516790332
vertex -0.02500000000000001 -0.09781267482420622 0.03826134660116001
endloop
endfacet
facet normal 1.0 -0.0 0.0
outer loop
vertex 0.024999999999999994 -0.09781267482420622 0.03826134660116001
vertex 0.024999999999999994 -0.09952277554083455 0.03356288349723047
vertex 0.024999999999999994 -0.08841574861634713 0.03484114516790332
endloop
endfacet
facet normal 0.0 -0.34202014332566866 -0.9396926207859084
outer loop
vertex 0.024999999999999994 -0.09012584933297546 0.030142682063973778
vertex 0.024999999999999994 -0.09952277554083455 0.03356288349723047
vertex -0.02500000000000001 -0.09012584933297546 0.030142682063973778
endloop
endfacet
facet normal -1.0 0.0 0.0
outer loop
vertex -0.02500000000000001 -0.09952277554083455 0.03356288349723047
vertex -0.02500000000000001 -0.09781267482420622 0.03826134660116001
vertex -0.02500000000000001 -0.09012584933297546 0.030142682063973778
endloop
endfacet
facet normal -0.0 -0.34202014332566866 -0.9396926207859084
outer loop
vertex -0.02500000000000001 -0.09012584933297546 0.030142682063973778
vertex 0.024999999999999994 -0.09952277554083455 0.03356288349723047
vertex -0.02500000000000001 -0.09952277554083455 0.03356288349723047
endloop
endfacet
facet normal 0.0 -0.9396926207859093 0.34202014332566655
outer loop
vertex -0.02500000000000001 -0.09952277554083455 0.03356288349723047
vertex 0.024999999999999994 -0.09781267482420622 0.03826134660116001
vertex -0.02500000000000001 -0.09781267482420622 0.03826134660116001
endloop
endfacet
facet normal 0.0 -0.9396926207859093 0.34202014332566655
outer loop
vertex 0.024999999999999994 -0.09952277554083455 0.03356288349723047
vertex 0.024999999999999994 -0.09781267482420622 0.03826134660116001
vertex -0.02500000000000001 -0.09952277554083455 0.03356288349723047
endloop
endfacet
facet normal 0.0 1.0 0.0
outer loop
vertex 0.024999999999999994 -0.095 0.0025000000000000174
vertex 0.024999999999999994 -0.095 -0.0024999999999999827
vertex -0.02500000000000001 -0.095 0.0025000000000000174
endloop
endfacet
facet normal 0.0 2.168404344971007e-16 1.0
outer loop
vertex -0.02500000000000001 -0.10500000000000001 0.0025000000000000196
vertex 0.024999999999999994 -0.095 0.0025000000000000174
vertex -0.02500000000000001 -0.095 0.0025000000000000174
endloop
endfacet
facet normal 0.0 1.0 0.0
outer loop
vertex -0.02500000000000001 -0.095 0.0025000000000000174
vertex 0.024999999999999994 -0.095 -0.0024999999999999827
vertex -0.02500000000000001 -0.095 -0.0024999999999999827
endloop
endfacet
facet normal -1.0 0.0 0.0
outer loop
vertex -0.02500000000000001 -0.095 -0.0024999999999999827
vertex -0.02500000000000001 -0.10500000000000001 0.0025000000000000196
vertex -0.02500000000000001 -0.095 0.0025000000000000174
endloop
endfacet
facet normal 1.0 0.0 0.0
outer loop
vertex 0.024999999999999994 -0.095 0.0025000000000000174
vertex 0.024999999999999994 -0.10500000000000001 -0.0024999999999999805
vertex 0.024999999999999994 -0.095 -0.0024999999999999827
endloop
endfacet
facet normal 0.0 2.168404344971007e-16 1.0
outer loop
vertex 0.024999999999999994 -0.10500000000000001 0.0025000000000000196
vertex 0.024999999999999994 -0.095 0.0025000000000000174
vertex -0.02500000000000001 -0.10500000000000001 0.0025000000000000196
endloop
endfacet
facet normal 1.0 -0.0 0.0
outer loop
vertex 0.024999999999999994 -0.10500000000000001 0.0025000000000000196
vertex 0.024999999999999994 -0.10500000000000001 -0.0024999999999999805
vertex 0.024999999999999994 -0.095 0.0025000000000000174
endloop
endfacet
facet normal 0.0 -2.168404344971007e-16 -1.0
outer loop
vertex 0.024999999999999994 -0.095 -0.0024999999999999827
vertex 0.024999999999999994 -0.10500000000000001 -0.0024999999999999805
vertex -0.02500000000000001 -0.095 -0.0024999999999999827
endloop
endfacet
facet normal -1.0 0.0 0.0
outer loop
vertex -0.02500000000000001 -0.10500000000000001 -0.0024999999999999805
vertex -0.02500000000000001 -0.10500000000000001 0.0025000000000000196
vertex -0.02500000000000001 -0.095 -0.0024999999999999827
endloop
endfacet
facet normal -0.0 -2.168404344971007e-16 -1.0
outer loop
vertex -0.02500000000000001 -0.095 -0.0024999999999999827
vertex 0.024999999999999994 -0.10500000000000001 -0.0024999999999999805
vertex -0.02500000000000001 -0.10500000000000001 -0.0024999999999999805
endloop
endfacet
facet normal 0.0 -1.0 0.0
outer loop
vertex -0.02500000000000001 -0.10500000000000001 -0.0024999999999999805
vertex 0.024999999999999994 -0.10500000000000001 0.0025000000000000196
vertex -0.02500000000000001 -0.10500000000000001 0.0025000000000000196
endloop
endfacet
facet normal -0.0 -1.0 0.0
outer loop
vertex 0.024999999999999994 -0.10500000000000001 -0.0024999999999999805
vertex 0.024999999999999994 -0.10500000000000001 0.0025000000000000196
vertex -0.02500000000000001 -0.10500000000000001 -0.0024999999999999805
endloop
endfacet
facet normal 0.0 0.9396926207859093 0.34202014332566655
outer loop
vertex 0.024999999999999994 -0.09012584933297547 -0.03014268206397374
vertex 0.024999999999999994 -0.08841574861634714 -0.034841145167903285
vertex -0.02500000000000001 -0.09012584933297547 -0.03014268206397374
endloop
endfacet
facet normal 0.0 -0.3420201433256689 0.9396926207859082
outer loop
vertex -0.02500000000000001 -0.09952277554083457 -0.03356288349723043
vertex 0.024999999999999994 -0.09012584933297547 -0.03014268206397374
vertex -0.02500000000000001 -0.09012584933297547 -0.03014268206397374
endloop
endfacet
facet normal 0.0 0.9396926207859093 0.34202014332566655
outer loop
vertex -0.02500000000000001 -0.09012584933297547 -0.03014268206397374
vertex 0.024999999999999994 -0.08841574861634714 -0.034841145167903285
vertex -0.02500000000000001 -0.08841574861634714 -0.034841145167903285
endloop
endfacet
facet normal -1.0 0.0 0.0
outer loop
vertex -0.02500000000000001 -0.08841574861634714 -0.034841145167903285
vertex -0.02500000000000001 -0.09952277554083457 -0.03356288349723043
vertex -0.02500000000000001 -0.09012584933297547 -0.03014268206397374
endloop
endfacet
facet normal 1.0 -0.0 0.0
outer loop
vertex 0.024999999999999994 -0.09012584933297547 -0.03014268206397374
vertex 0.024999999999999994 -0.09781267482420623 -0.03826134660115998
vertex 0.024999999999999994 -0.08841574861634714 -0.034841145167903285
endloop
endfacet
facet normal 0.0 -0.3420201433256689 0.9396926207859082
outer loop
vertex 0.024999999999999994 -0.09952277554083457 -0.03356288349723043
vertex 0.024999999999999994 -0.09012584933297547 -0.03014268206397374
vertex -0.02500000000000001 -0.09952277554083457 -0.03356288349723043
endloop
endfacet
facet normal 1.0 -0.0 0.0
outer loop
vertex 0.024999999999999994 -0.09952277554083457 -0.03356288349723043
vertex 0.024999999999999994 -0.09781267482420623 -0.03826134660115998
vertex 0.024999999999999994 -0.09012584933297547 -0.03014268206397374
endloop
endfacet
facet normal 0.0 0.3420201433256689 -0.9396926207859082
outer loop
vertex 0.024999999999999994 -0.08841574861634714 -0.034841145167903285
vertex 0.024999999999999994 -0.09781267482420623 -0.03826134660115998
vertex -0.02500000000000001 -0.08841574861634714 -0.034841145167903285
endloop
endfacet
facet normal -1.0 0.0 0.0
outer loop
vertex -0.02500000000000001 -0.09781267482420623 -0.03826134660115998
vertex -0.02500000000000001 -0.09952277554083457 -0.03356288349723043
vertex -0.02500000000000001 -0.08841574861634714 -0.034841145167903285
endloop
endfacet
facet normal 0.0 0.3420201433256689 -0.9396926207859082
outer loop
vertex -0.02500000000000001 -0.08841574861634714 -0.034841145167903285
vertex 0.024999999999999994 -0.09781267482420623 -0.03826134660115998
vertex -0.02500000000000001 -0.09781267482420623 -0.03826134660115998
endloop
endfacet
facet normal -0.0 -0.9396926207859093 -0.34202014332566655
outer loop
vertex -0.02500000000000001 -0.09781267482420623 -0.03826134660115998
vertex 0.024999999999999994 -0.09952277554083457 -0.03356288349723043
vertex -0.02500000000000001 -0.09952277554083457 -0.03356288349723043
endloop
endfacet
facet normal 0.0 -0.9396926207859093 -0.34202014332566655
outer loop
vertex 0.024999999999999994 -0.09781267482420623 -0.03826134660115998
vertex 0.024999999999999994 -0.09952277554083457 -0.03356288349723043
vertex -0.02500000000000001 -0.09781267482420623 -0.03826134660115998
endloop
endfacet
facet normal 0.0 0.7660444431189776 0.6427876096865399
outer loop
vertex 0.024999999999999994 -0.07438119112051926 -0.05914971181242378
vertex 0.024999999999999994 -0.07116725307208656 -0.06297993402801867
vertex -0.025 -0.07438119112051926 -0.05914971181242378
endloop
endfacet
facet normal 0.0 -0.6427876096865389 0.7660444431189785
outer loop
vertex -0.025 -0.08204163555170906 -0.06557758790928918
vertex 0.024999999999999994 -0.07438119112051926 -0.05914971181242378
vertex -0.025 -0.07438119112051926 -0.05914971181242378
endloop
endfacet
facet normal 0.0 0.7660444431189776 0.6427876096865399
outer loop
vertex -0.025 -0.07438119112051926 -0.05914971181242378
vertex 0.024999999999999994 -0.07116725307208656 -0.06297993402801867
vertex -0.025 -0.07116725307208656 -0.06297993402801867
endloop
endfacet
facet normal -1.0 -0.0 0.0
outer loop
vertex -0.025 -0.07116725307208656 -0.06297993402801867
vertex -0.025 -0.08204163555170906 -0.06557758790928918
vertex -0.025 -0.07438119112051926 -0.05914971181242378
endloop
endfacet
facet normal 1.0 -0.0 0.0
outer loop
vertex 0.024999999999999994 -0.07438119112051926 -0.05914971181242378
vertex 0.024999999999999994 -0.07882769750327635 -0.06940781012488408
vertex 0.024999999999999994 -0.07116725307208656 -0.06297993402801867
endloop
endfacet
facet normal 0.0 -0.6427876096865389 0.7660444431189785
outer loop
vertex 0.024999999999999994 -0.08204163555170906 -0.06557758790928918
vertex 0.024999999999999994 -0.07438119112051926 -0.05914971181242378
vertex -0.025 -0.08204163555170906 -0.06557758790928918
endloop
endfacet
facet normal 1.0 -0.0 0.0
outer loop
vertex 0.024999999999999994 -0.08204163555170906 -0.06557758790928918
vertex 0.024999999999999994 -0.07882769750327635 -0.06940781012488408
vertex 0.024999999999999994 -0.07438119112051926 -0.05914971181242378
endloop
endfacet
facet normal 0.0 0.6427876096865393 -0.7660444431189781
outer loop
vertex 0.024999999999999994 -0.07116725307208656 -0.06297993402801867
vertex 0.024999999999999994 -0.07882769750327635 -0.06940781012488408
vertex -0.025 -0.07116725307208656 -0.06297993402801867
endloop
endfacet
facet normal -0.9999999999999999 0.0 0.0
outer loop
vertex -0.025 -0.07882769750327635 -0.06940781012488408
vertex -0.025 -0.08204163555170906 -0.06557758790928918
vertex -0.025 -0.07116725307208656 -0.06297993402801867
endloop
endfacet
facet normal 0.0 0.6427876096865393 -0.7660444431189781
outer loop
vertex -0.025 -0.07116725307208656 -0.06297993402801867
vertex 0.024999999999999994 -0.07882769750327635 -0.06940781012488408
vertex -0.025 -0.07882769750327635 -0.06940781012488408
endloop
endfacet
facet normal -0.0 -0.7660444431189781 -0.6427876096865393
outer loop
vertex -0.025 -0.07882769750327635 -0.06940781012488408
vertex 0.024999999999999994 -0.08204163555170906 -0.06557758790928918
vertex -0.025 -0.08204163555170906 -0.06557758790928918
endloop
endfacet
facet normal 0.0 -0.7660444431189781 -0.6427876096865393
outer loop
vertex 0.024999999999999994 -0.07882769750327635 -0.06940781012488408
vertex 0.024999999999999994 -0.08204163555170906 -0.06557758790928918
vertex -0.025 -0.07882769750327635 -0.06940781012488408
endloop
endfacet
facet normal 0.0 0.500000000000001 0.8660254037844382
outer loop
vertex 0.024999999999999998 -0.04966506350946114 -0.08102241335952165
vertex 0.024999999999999998 -0.045334936490538956 -0.08352241335952165
vertex -0.025000000000000005 -0.04966506350946114 -0.08102241335952165
endloop
endfacet
facet normal 0.0 -0.8660254037844382 0.5000000000000009
outer loop
vertex -0.025000000000000005 -0.054665063509461154 -0.08968266739736604
vertex 0.024999999999999998 -0.04966506350946114 -0.08102241335952165
vertex -0.025000000000000005 -0.04966506350946114 -0.08102241335952165
endloop
endfacet
facet normal 0.0 0.500000000000001 0.8660254037844382
outer loop
vertex -0.025000000000000005 -0.04966506350946114 -0.08102241335952165
vertex 0.024999999999999998 -0.045334936490538956 -0.08352241335952165
vertex -0.025000000000000005 -0.045334936490538956 -0.08352241335952165
endloop
endfacet
facet normal -1.0 -0.0 0.0
outer loop
vertex -0.025000000000000005 -0.045334936490538956 -0.08352241335952165
vertex -0.025000000000000005 -0.054665063509461154 -0.08968266739736604
vertex -0.025000000000000005 -0.04966506350946114 -0.08102241335952165
endloop
endfacet
facet normal 1.0 -0.0 0.0
outer loop
vertex 0.024999999999999998 -0.04966506350946114 -0.08102241335952165
vertex 0.024999999999999998 -0.05033493649053897 -0.09218266739736604
vertex 0.024999999999999998 -0.045334936490538956 -0.08352241335952165
endloop
endfacet
facet normal 0.0 -0.8660254037844382 0.5000000000000009
outer loop
vertex 0.024999999999999998 -0.054665063509461154 -0.08968266739736604
vertex 0.024999999999999998 -0.04966506350946114 -0.08102241335952165
vertex -0.025000000000000005 -0.054665063509461154 -0.08968266739736604
endloop
endfacet
facet normal 1.0 -0.0 0.0
outer loop
vertex 0.024999999999999998 -0.054665063509461154 -0.08968266739736604
vertex 0.024999999999999998 -0.05033493649053897 -0.09218266739736604
vertex 0.024999999999999998 -0.04966506350946114 -0.08102241335952165
endloop
endfacet
facet normal 0.0 0.8660254037844382 -0.5000000000000009
outer loop
vertex 0.024999999999999998 -0.045334936490538956 -0.08352241335952165
vertex 0.024999999999999998 -0.05033493649053897 -0.09218266739736604
vertex -0.025000000000000005 -0.045334936490538956 -0.08352241335952165
endloop
endfacet
facet normal -1.0 0.0 0.0
outer loop
vertex -0.025000000000000005 -0.05033493649053897 -0.09218266739736604
vertex -0.025000000000000005 -0.054665063509461154 -0.08968266739736604
vertex -0.025000000000000005 -0.045334936490538956 -0.08352241335952165
endloop
endfacet
facet normal 0.0 0.8660254037844382 -0.5000000000000009
outer loop
vertex -0.025000000000000005 -0.045334936490538956 -0.08352241335952165
vertex 0.024999999999999998 -0.05033493649053897 -0.09218266739736604
vertex -0.025000000000000005 -0.05033493649053897 -0.09218266739736604
endloop
endfacet
facet normal -0.0 -0.500000000000001 -0.8660254037844382
outer loop
vertex -0.025000000000000005 -0.05033493649053897 -0.09218266739736604
vertex 0.024999999999999998 -0.054665063509461154 -0.08968266739736604
vertex -0.025000000000000005 -0.054665063509461154 -0.08968266739736604
endloop
endfacet
facet normal 0.0 -0.500000000000001 -0.8660254037844382
outer loop
vertex 0.024999999999999998 -0.05033493649053897 -0.09218266739736604
vertex 0.024999999999999998 -0.054665063509461154 -0.08968266739736604
vertex -0.025000000000000005 -0.05033493649053897 -0.09218266739736604
endloop
endfacet
facet normal 0.0 0.17364817766692967 0.9848077530122082
outer loop
vertex 0.025 -0.01895859626088891 -0.09312261609199243
vertex 0.025 -0.014034557495827868 -0.09399085698032708
vertex -0.025 -0.01895859626088891 -0.09312261609199243
endloop
endfacet
facet normal 0.0 -0.9848077530122079 0.17364817766693041
outer loop
vertex -0.025 -0.020695078037558216 -0.10297069362211453
vertex 0.025 -0.01895859626088891 -0.09312261609199243
vertex -0.025 -0.01895859626088891 -0.09312261609199243
endloop
endfacet
facet normal 1.2049262814376566e-17 0.17364817766692955 0.9848077530122082
outer loop
vertex -0.025 -0.01895859626088891 -0.09312261609199243
vertex 0.025 -0.014034557495827868 -0.09399085698032708
vertex -0.025 -0.014034557495827864 -0.09399085698032708
endloop
endfacet
facet normal -1.0 -0.0 0.0
outer loop
vertex -0.025 -0.014034557495827864 -0.09399085698032708
vertex -0.025 -0.020695078037558216 -0.10297069362211453
vertex -0.025 -0.01895859626088891 -0.09312261609199243
endloop
endfacet
facet normal 1.0 -0.0 0.0
outer loop
vertex 0.025 -0.01895859626088891 -0.09312261609199243
vertex 0.025 -0.015771039272497175 -0.10383893451044918
vertex 0.025 -0.014034557495827868 -0.09399085698032708
endloop
endfacet
facet normal 0.0 -0.9848077530122079 0.17364817766693041
outer loop
vertex 0.025 -0.020695078037558216 -0.10297069362211453
vertex 0.025 -0.01895859626088891 -0.09312261609199243
vertex -0.025 -0.020695078037558216 -0.10297069362211453
endloop
endfacet
facet normal 1.0 -0.0 -0.0
outer loop
vertex 0.025 -0.020695078037558216 -0.10297069362211453
vertex 0.025 -0.015771039272497175 -0.10383893451044918
vertex 0.025 -0.01895859626088891 -0.09312261609199243
endloop
endfacet
facet normal 6.776263578034392e-17 0.9848077530122079 -0.17364817766693041
outer loop
vertex 0.025 -0.014034557495827868 -0.09399085698032708
vertex 0.025 -0.015771039272497175 -0.10383893451044918
vertex -0.025 -0.014034557495827864 -0.09399085698032708
endloop
endfacet
facet normal -1.0 0.0 0.0
outer loop
vertex -0.025 -0.015771039272497175 -0.10383893451044918
vertex -0.025 -0.020695078037558216 -0.10297069362211453
vertex -0.025 -0.014034557495827864 -0.09399085698032708
endloop
endfacet
facet normal 0.0 0.9848077530122079 -0.17364817766693078
outer loop
vertex -0.025 -0.014034557495827864 -0.09399085698032708
vertex 0.025 -0.015771039272497175 -0.10383893451044918
vertex -0.025 -0.015771039272497175 -0.10383893451044918
endloop
endfacet
facet normal -0.0 -0.17364817766692967 -0.9848077530122082
outer loop
vertex -0.025 -0.015771039272497175 -0.10383893451044918
vertex 0.025 -0.020695078037558216 -0.10297069362211453
vertex -0.025 -0.020695078037558216 -0.10297069362211453
endloop
endfacet
facet normal 0.0 -0.17364817766692967 -0.9848077530122082
outer loop
vertex 0.025 -0.015771039272497175 -0.10383893451044918
vertex 0.025 -0.020695078037558216 -0.10297069362211453
vertex -0.025 -0.015771039272497175 -0.10383893451044918
endloop
endfacet
facet normal -1.3552527156068805e-17 -0.17364817766692967 0.9848077530122082
outer loop
vertex 0.025 0.01403455749582782 -0.0939908569803271
vertex 0.025 0.01895859626088886 -0.09312261609199245
vertex -0.025 0.014034557495827823 -0.0939908569803271
endloop
endfacet
facet normal -6.833476513896988e-17 -0.9848077530122082 -0.17364817766692975
outer loop
vertex -0.025 0.015771039272497123 -0.10383893451044919
vertex 0.025 0.01403455749582782 -0.0939908569803271
vertex -0.025 0.014034557495827823 -0.0939908569803271
endloop
endfacet
facet normal 0.0 -0.17364817766692978 0.9848077530122082
outer loop
vertex -0.025 0.014034557495827823 -0.0939908569803271
vertex 0.025 0.01895859626088886 -0.09312261609199245
vertex -0.025 0.01895859626088886 -0.09312261609199245
endloop
endfacet
facet normal -1.0 -0.0 0.0
outer loop
vertex -0.025 0.01895859626088886 -0.09312261609199245
vertex -0.025 0.015771039272497123 -0.10383893451044919
vertex -0.025 0.014034557495827823 -0.0939908569803271
endloop
endfacet
facet normal 1.0 -0.0 -0.0
outer loop
vertex 0.025 0.01403455749582782 -0.0939908569803271
vertex 0.025 0.020695078037558164 -0.10297069362211454
vertex 0.025 0.01895859626088886 -0.09312261609199245
endloop
endfacet
facet normal 0.0 -0.9848077530122079 -0.17364817766693005
outer loop
vertex 0.025 0.015771039272497123 -0.10383893451044919
vertex 0.025 0.01403455749582782 -0.0939908569803271
vertex -0.025 0.015771039272497123 -0.10383893451044919
endloop
endfacet
facet normal 1.0 0.0 -0.0
outer loop
vertex 0.025 0.015771039272497123 -0.10383893451044919
vertex 0.025 0.020695078037558164 -0.10297069362211454
vertex 0.025 0.01403455749582782 -0.0939908569803271
endloop
endfacet
facet normal 0.0 0.9848077530122079 0.17364817766693005
outer loop
vertex 0.025 0.01895859626088886 -0.09312261609199245
vertex 0.025 0.020695078037558164 -0.10297069362211454
vertex -0.025 0.01895859626088886 -0.09312261609199245
endloop
endfacet
facet normal -1.0 -0.0 0.0
outer loop
vertex -0.025 0.020695078037558164 -0.10297069362211454
vertex -0.025 0.015771039272497123 -0.10383893451044919
vertex -0.025 0.01895859626088886 -0.09312261609199245
endloop
endfacet
facet normal 0.0 0.9848077530122079 0.17364817766693005
outer loop
vertex -0.025 0.01895859626088886 -0.09312261609199245
vertex 0.025 0.020695078037558164 -0.10297069362211454
vertex -0.025 0.020695078037558164 -0.10297069362211454
endloop
endfacet
facet normal 0.0 0.17364817766692967 -0.9848077530122082
outer loop
vertex -0.025 0.020695078037558164 -0.10297069362211454
vertex 0.025 0.015771039272497123 -0.10383893451044919
vertex -0.025 0.015771039272497123 -0.10383893451044919
endloop
endfacet
facet normal 0.0 0.17364817766692967 -0.9848077530122082
outer loop
vertex 0.025 0.020695078037558164 -0.10297069362211454
vertex 0.025 0.015771039272497123 -0.10383893451044919
vertex -0.025 0.020695078037558164 -0.10297069362211454
endloop
endfacet
facet normal 0.0 -0.500000000000001 0.8660254037844382
outer loop
vertex 0.025000000000000005 0.045334936490538914 -0.08352241335952167
vertex 0.025000000000000005 0.0496650635094611 -0.08102241335952166
vertex -0.024999999999999998 0.045334936490538914 -0.08352241335952167
endloop
endfacet
facet normal -0.0 -0.8660254037844387 -0.49999999999999967
outer loop
vertex -0.024999999999999998 0.05033493649053892 -0.09218266739736607
vertex 0.025000000000000005 0.045334936490538914 -0.08352241335952167
vertex -0.024999999999999998 0.045334936490538914 -0.08352241335952167
endloop
endfacet
facet normal 0.0 -0.500000000000001 0.8660254037844382
outer loop
vertex -0.024999999999999998 0.045334936490538914 -0.08352241335952167
vertex 0.025000000000000005 0.0496650635094611 -0.08102241335952166
vertex -0.024999999999999998 0.0496650635094611 -0.08102241335952166
endloop
endfacet
facet normal -1.0 -0.0 -0.0
outer loop
vertex -0.024999999999999998 0.0496650635094611 -0.08102241335952166
vertex -0.024999999999999998 0.05033493649053892 -0.09218266739736607
vertex -0.024999999999999998 0.045334936490538914 -0.08352241335952167
endloop
endfacet
facet normal 1.0 -0.0 -0.0
outer loop
vertex 0.025000000000000005 0.045334936490538914 -0.08352241335952167
vertex 0.025000000000000005 0.054665063509461105 -0.08968266739736606
vertex 0.025000000000000005 0.0496650635094611 -0.08102241335952166
endloop
endfacet
facet normal 0.0 -0.8660254037844387 -0.49999999999999967
outer loop
vertex 0.025000000000000005 0.05033493649053892 -0.09218266739736607
vertex 0.025000000000000005 0.045334936490538914 -0.08352241335952167
vertex -0.024999999999999998 0.05033493649053892 -0.09218266739736607
endloop
endfacet
facet normal 1.0 0.0 -0.0
outer loop
vertex 0.025000000000000005 0.05033493649053892 -0.09218266739736607
vertex 0.025000000000000005 0.054665063509461105 -0.08968266739736606
vertex 0.025000000000000005 0.045334936490538914 -0.08352241335952167
endloop
endfacet
facet normal 0.0 0.8660254037844387 0.49999999999999967
outer loop
vertex 0.025000000000000005 0.0496650635094611 -0.08102241335952166
vertex 0.025000000000000005 0.054665063509461105 -0.08968266739736606
vertex -0.024999999999999998 0.0496650635094611 -0.08102241335952166
endloop
endfacet
facet normal -1.0 -0.0 0.0
outer loop
vertex -0.024999999999999998 0.054665063509461105 -0.08968266739736606
vertex -0.024999999999999998 0.05033493649053892 -0.09218266739736607
vertex -0.024999999999999998 0.0496650635094611 -0.08102241335952166
endloop
endfacet
facet normal 0.0 0.8660254037844387 0.49999999999999967
outer loop
vertex -0.024999999999999998 0.0496650635094611 -0.08102241335952166
vertex 0.025000000000000005 0.054665063509461105 -0.08968266739736606
vertex -0.024999999999999998 0.054665063509461105 -0.08968266739736606
endloop
endfacet
facet normal 0.0 0.500000000000001 -0.8660254037844382
outer loop
vertex -0.024999999999999998 0.054665063509461105 -0.08968266739736606
vertex 0.025000000000000005 0.05033493649053892 -0.09218266739736607
vertex -0.024999999999999998 0.05033493649053892 -0.09218266739736607
endloop
endfacet
facet normal 0.0 0.500000000000001 -0.8660254037844382
outer loop
vertex 0.025000000000000005 0.054665063509461105 -0.08968266739736606
vertex 0.025000000000000005 0.05033493649053892 -0.09218266739736607
vertex -0.024999999999999998 0.054665063509461105 -0.08968266739736606
endloop
endfacet
facet normal 0.0 -0.7660444431189765 0.6427876096865414
outer loop
vertex 0.025000000000000005 0.07116725307208654 -0.0629799340280187
vertex 0.025000000000000005 0.07438119112051925 -0.05914971181242382
vertex -0.024999999999999998 0.07116725307208654 -0.0629799340280187
endloop
endfacet
facet normal -0.0 -0.6427876096865407 -0.7660444431189769
outer loop
vertex -0.024999999999999998 0.07882769750327633 -0.06940781012488412
vertex 0.025000000000000005 0.07116725307208654 -0.0629799340280187
vertex -0.024999999999999998 0.07116725307208654 -0.0629799340280187
endloop
endfacet
facet normal 0.0 -0.7660444431189765 0.6427876096865414
outer loop
vertex -0.024999999999999998 0.07116725307208654 -0.0629799340280187
vertex 0.025000000000000005 0.07438119112051925 -0.05914971181242382
vertex -0.024999999999999998 0.07438119112051925 -0.05914971181242382
endloop
endfacet
facet normal -1.0 -0.0 -0.0
outer loop
vertex -0.024999999999999998 0.07438119112051925 -0.05914971181242382
vertex -0.024999999999999998 0.07882769750327633 -0.06940781012488412
vertex -0.024999999999999998 0.07116725307208654 -0.0629799340280187
endloop
endfacet
facet normal 0.9999999999999999 -0.0 -0.0
outer loop
vertex 0.025000000000000005 0.07116725307208654 -0.0629799340280187
vertex 0.025000000000000005 0.08204163555170903 -0.06557758790928922
vertex 0.025000000000000005 0.07438119112051925 -0.05914971181242382
endloop
endfacet
facet normal 0.0 -0.6427876096865407 -0.7660444431189769
outer loop
vertex 0.025000000000000005 0.07882769750327633 -0.06940781012488412
vertex 0.025000000000000005 0.07116725307208654 -0.0629799340280187
vertex -0.024999999999999998 0.07882769750327633 -0.06940781012488412
endloop
endfacet
facet normal 1.0 0.0 -0.0
outer loop
vertex 0.025000000000000005 0.07882769750327633 -0.06940781012488412
vertex 0.025000000000000005 0.08204163555170903 -0.06557758790928922
vertex 0.025000000000000005 0.07116725307208654 -0.0629799340280187
endloop
endfacet
facet normal 0.0 0.6427876096865395 0.766044443118978
outer loop
vertex 0.025000000000000005 0.07438119112051925 -0.05914971181242382
vertex 0.025000000000000005 0.08204163555170903 -0.06557758790928922
vertex -0.024999999999999998 0.07438119112051925 -0.05914971181242382
endloop
endfacet
facet normal -1.0 -0.0 0.0
outer loop
vertex -0.024999999999999998 0.08204163555170903 -0.06557758790928922
vertex -0.024999999999999998 0.07882769750327633 -0.06940781012488412
vertex -0.024999999999999998 0.07438119112051925 -0.05914971181242382
endloop
endfacet
facet normal 0.0 0.6427876096865395 0.766044443118978
outer loop
vertex -0.024999999999999998 0.07438119112051925 -0.05914971181242382
vertex 0.025000000000000005 0.08204163555170903 -0.06557758790928922
vertex -0.024999999999999998 0.08204163555170903 -0.06557758790928922
endloop
endfacet
facet normal 0.0 0.7660444431189781 -0.6427876096865394
outer loop
vertex -0.024999999999999998 0.08204163555170903 -0.06557758790928922
vertex 0.025000000000000005 0.07882769750327633 -0.06940781012488412
vertex -0.024999999999999998 0.07882769750327633 -0.06940781012488412
endloop
endfacet
facet normal 0.0 0.7660444431189781 -0.6427876096865394
outer loop
vertex 0.025000000000000005 0.08204163555170903 -0.06557758790928922
vertex 0.025000000000000005 0.07882769750327633 -0.06940781012488412
vertex -0.024999999999999998 0.08204163555170903 -0.06557758790928922
endloop
endfacet
facet normal 0.0 -0.9396926207859072 0.34202014332567154
outer loop
vertex 0.02500000000000001 0.08841574861634709 -0.034841145167903376
vertex 0.02500000000000001 0.09012584933297545 -0.030142682063973834
vertex -0.024999999999999994 0.08841574861634709 -0.034841145167903376
endloop
endfacet
facet normal -0.0 -0.34202014332566955 -0.9396926207859081
outer loop
vertex -0.024999999999999994 0.09781267482420618 -0.038261346601160075
vertex 0.02500000000000001 0.08841574861634709 -0.034841145167903376
vertex -0.024999999999999994 0.08841574861634709 -0.034841145167903376
endloop
endfacet
facet normal 0.0 -0.9396926207859072 0.34202014332567154
outer loop
vertex -0.024999999999999994 0.08841574861634709 -0.034841145167903376
vertex 0.02500000000000001 0.09012584933297545 -0.030142682063973834
vertex -0.024999999999999994 0.09012584933297545 -0.030142682063973834
endloop
endfacet
facet normal -1.0 -0.0 -0.0
outer loop
vertex -0.024999999999999994 0.09012584933297545 -0.030142682063973834
vertex -0.024999999999999994 0.09781267482420618 -0.038261346601160075
vertex -0.024999999999999994 0.08841574861634709 -0.034841145167903376
endloop
endfacet
facet normal 1.0 0.0 -0.0
outer loop
vertex 0.02500000000000001 0.08841574861634709 -0.034841145167903376
vertex 0.02500000000000001 0.09952277554083454 -0.03356288349723053
vertex 0.02500000000000001 0.09012584933297545 -0.030142682063973834
endloop
endfacet
facet normal 0.0 -0.34202014332566955 -0.9396926207859081
outer loop
vertex 0.02500000000000001 0.09781267482420618 -0.038261346601160075
vertex 0.02500000000000001 0.08841574861634709 -0.034841145167903376
vertex -0.024999999999999994 0.09781267482420618 -0.038261346601160075
endloop
endfacet
facet normal 1.0 0.0 -0.0
outer loop
vertex 0.02500000000000001 0.09781267482420618 -0.038261346601160075
vertex 0.02500000000000001 0.09952277554083454 -0.03356288349723053
vertex 0.02500000000000001 0.08841574861634709 -0.034841145167903376
endloop
endfacet
facet normal 0.0 0.34202014332566927 0.9396926207859082
outer loop
vertex 0.02500000000000001 0.09012584933297545 -0.030142682063973834
vertex 0.02500000000000001 0.09952277554083454 -0.03356288349723053
vertex -0.024999999999999994 0.09012584933297545 -0.030142682063973834
endloop
endfacet
facet normal -1.0 -0.0 0.0
outer loop
vertex -0.024999999999999994 0.09952277554083454 -0.03356288349723053
vertex -0.024999999999999994 0.09781267482420618 -0.038261346601160075
vertex -0.024999999999999994 0.09012584933297545 -0.030142682063973834
endloop
endfacet
facet normal 0.0 0.34202014332566927 0.9396926207859082
outer loop
vertex -0.024999999999999994 0.09012584933297545 -0.030142682063973834
vertex 0.02500000000000001 0.09952277554083454 -0.03356288349723053
vertex -0.024999999999999994 0.09952277554083454 -0.03356288349723053
endloop
endfacet
facet normal 0.0 0.9396926207859075 -0.34202014332567143
outer loop
vertex -0.024999999999999994 0.09952277554083454 -0.03356288349723053
vertex 0.02500000000000001 0.09781267482420618 -0.038261346601160075
vertex -0.024999999999999994 0.09781267482420618 -0.038261346601160075
endloop
endfacet
facet normal 0.0 0.9396926207859075 -0.34202014332567143
outer loop
vertex 0.02500000000000001 0.09952277554083454 -0.03356288349723053
vertex 0.02500000000000001 0.09781267482420618 -0.038261346601160075
vertex -0.024999999999999994 0.09952277554083454 -0.03356288349723053
endloop
endfacet

endsolid
