solid wheelLargeCylinder.stl
facet normal -0.085505 0.000000 0.000000
  outer loop
    vertex -0.400000 0.000000 0.000000
    vertex -0.400000 0.469846 0.171010
    vertex -0.400000 0.500000 0.000000
  endloop
endfacet
facet normal 0.085505 0.000000 0.000000
  outer loop
    vertex 0.400000 0.000000 0.000000
    vertex 0.400000 0.500000 0.000000
    vertex 0.400000 0.469846 0.171010
  endloop
endfacet
facet normal -0.000000 0.136808 0.024123
  outer loop
    vertex -0.400000 0.500000 0.000000
    vertex -0.400000 0.469846 0.171010
    vertex 0.400000 0.500000 0.000000
  endloop
endfacet
facet normal -0.000000 0.136808 0.024123
  outer loop
    vertex -0.400000 0.469846 0.171010
    vertex 0.400000 0.469846 0.171010
    vertex 0.400000 0.500000 0.000000
  endloop
endfacet
facet normal -0.085505 0.000000 0.000000
  outer loop
    vertex -0.400000 0.000000 0.000000
    vertex -0.400000 0.383022 0.321394
    vertex -0.400000 0.469846 0.171010
  endloop
endfacet
facet normal 0.085505 0.000000 0.000000
  outer loop
    vertex 0.400000 0.000000 0.000000
    vertex 0.400000 0.469846 0.171010
    vertex 0.400000 0.383022 0.321394
  endloop
endfacet
facet normal -0.000000 0.120307 0.069459
  outer loop
    vertex -0.400000 0.469846 0.171010
    vertex -0.400000 0.383022 0.321394
    vertex 0.400000 0.469846 0.171010
  endloop
endfacet
facet normal -0.000000 0.120307 0.069459
  outer loop
    vertex -0.400000 0.383022 0.321394
    vertex 0.400000 0.383022 0.321394
    vertex 0.400000 0.469846 0.171010
  endloop
endfacet
facet normal -0.085505 0.000000 0.000000
  outer loop
    vertex -0.400000 0.000000 0.000000
    vertex -0.400000 0.250000 0.433013
    vertex -0.400000 0.383022 0.321394
  endloop
endfacet
facet normal 0.085505 0.000000 0.000000
  outer loop
    vertex 0.400000 0.000000 0.000000
    vertex 0.400000 0.383022 0.321394
    vertex 0.400000 0.250000 0.433013
  endloop
endfacet
facet normal -0.000000 0.089295 0.106418
  outer loop
    vertex -0.400000 0.383022 0.321394
    vertex -0.400000 0.250000 0.433013
    vertex 0.400000 0.383022 0.321394
  endloop
endfacet
facet normal -0.000000 0.089295 0.106418
  outer loop
    vertex -0.400000 0.250000 0.433013
    vertex 0.400000 0.250000 0.433013
    vertex 0.400000 0.383022 0.321394
  endloop
endfacet
facet normal -0.085505 0.000000 0.000000
  outer loop
    vertex -0.400000 0.000000 0.000000
    vertex -0.400000 0.086824 0.492404
    vertex -0.400000 0.250000 0.433013
  endloop
endfacet
facet normal 0.085505 0.000000 0.000000
  outer loop
    vertex 0.400000 0.000000 0.000000
    vertex 0.400000 0.250000 0.433013
    vertex 0.400000 0.086824 0.492404
  endloop
endfacet
facet normal -0.000000 0.047513 0.130541
  outer loop
    vertex -0.400000 0.250000 0.433013
    vertex -0.400000 0.086824 0.492404
    vertex 0.400000 0.250000 0.433013
  endloop
endfacet
facet normal -0.000000 0.047513 0.130541
  outer loop
    vertex -0.400000 0.086824 0.492404
    vertex 0.400000 0.086824 0.492404
    vertex 0.400000 0.250000 0.433013
  endloop
endfacet
facet normal -0.085505 0.000000 0.000000
  outer loop
    vertex -0.400000 0.000000 0.000000
    vertex -0.400000 -0.086824 0.492404
    vertex -0.400000 0.086824 0.492404
  endloop
endfacet
facet normal 0.085505 0.000000 -0.000000
  outer loop
    vertex 0.400000 0.000000 0.000000
    vertex 0.400000 0.086824 0.492404
    vertex 0.400000 -0.086824 0.492404
  endloop
endfacet
facet normal -0.000000 0.000000 0.138919
  outer loop
    vertex -0.400000 0.086824 0.492404
    vertex -0.400000 -0.086824 0.492404
    vertex 0.400000 0.086824 0.492404
  endloop
endfacet
facet normal 0.000000 0.000000 0.138919
  outer loop
    vertex -0.400000 -0.086824 0.492404
    vertex 0.400000 -0.086824 0.492404
    vertex 0.400000 0.086824 0.492404
  endloop
endfacet
facet normal -0.085505 0.000000 0.000000
  outer loop
    vertex -0.400000 0.000000 0.000000
    vertex -0.400000 -0.250000 0.433013
    vertex -0.400000 -0.086824 0.492404
  endloop
endfacet
facet normal 0.085505 0.000000 0.000000
  outer loop
    vertex 0.400000 0.000000 0.000000
    vertex 0.400000 -0.086824 0.492404
    vertex 0.400000 -0.250000 0.433013
  endloop
endfacet
facet normal 0.000000 -0.047513 0.130541
  outer loop
    vertex -0.400000 -0.086824 0.492404
    vertex -0.400000 -0.250000 0.433013
    vertex 0.400000 -0.086824 0.492404
  endloop
endfacet
facet normal 0.000000 -0.047513 0.130541
  outer loop
    vertex -0.400000 -0.250000 0.433013
    vertex 0.400000 -0.250000 0.433013
    vertex 0.400000 -0.086824 0.492404
  endloop
endfacet
facet normal -0.085505 0.000000 0.000000
  outer loop
    vertex -0.400000 0.000000 0.000000
    vertex -0.400000 -0.383022 0.321394
    vertex -0.400000 -0.250000 0.433013
  endloop
endfacet
facet normal 0.085505 0.000000 0.000000
  outer loop
    vertex 0.400000 0.000000 0.000000
    vertex 0.400000 -0.250000 0.433013
    vertex 0.400000 -0.383022 0.321394
  endloop
endfacet
facet normal 0.000000 -0.089295 0.106418
  outer loop
    vertex -0.400000 -0.250000 0.433013
    vertex -0.400000 -0.383022 0.321394
    vertex 0.400000 -0.250000 0.433013
  endloop
endfacet
facet normal 0.000000 -0.089295 0.106418
  outer loop
    vertex -0.400000 -0.383022 0.321394
    vertex 0.400000 -0.383022 0.321394
    vertex 0.400000 -0.250000 0.433013
  endloop
endfacet
facet normal -0.085505 0.000000 0.000000
  outer loop
    vertex -0.400000 0.000000 0.000000
    vertex -0.400000 -0.469846 0.171010
    vertex -0.400000 -0.383022 0.321394
  endloop
endfacet
facet normal 0.085505 0.000000 0.000000
  outer loop
    vertex 0.400000 0.000000 0.000000
    vertex 0.400000 -0.383022 0.321394
    vertex 0.400000 -0.469846 0.171010
  endloop
endfacet
facet normal 0.000000 -0.120307 0.069459
  outer loop
    vertex -0.400000 -0.383022 0.321394
    vertex -0.400000 -0.469846 0.171010
    vertex 0.400000 -0.383022 0.321394
  endloop
endfacet
facet normal 0.000000 -0.120307 0.069459
  outer loop
    vertex -0.400000 -0.469846 0.171010
    vertex 0.400000 -0.469846 0.171010
    vertex 0.400000 -0.383022 0.321394
  endloop
endfacet
facet normal -0.085505 0.000000 0.000000
  outer loop
    vertex -0.400000 0.000000 0.000000
    vertex -0.400000 -0.500000 0.000000
    vertex -0.400000 -0.469846 0.171010
  endloop
endfacet
facet normal 0.085505 0.000000 0.000000
  outer loop
    vertex 0.400000 0.000000 0.000000
    vertex 0.400000 -0.469846 0.171010
    vertex 0.400000 -0.500000 0.000000
  endloop
endfacet
facet normal 0.000000 -0.136808 0.024123
  outer loop
    vertex -0.400000 -0.469846 0.171010
    vertex -0.400000 -0.500000 0.000000
    vertex 0.400000 -0.469846 0.171010
  endloop
endfacet
facet normal 0.000000 -0.136808 0.024123
  outer loop
    vertex -0.400000 -0.500000 0.000000
    vertex 0.400000 -0.500000 0.000000
    vertex 0.400000 -0.469846 0.171010
  endloop
endfacet
facet normal -0.085505 -0.000000 0.000000
  outer loop
    vertex -0.400000 0.000000 0.000000
    vertex -0.400000 -0.469846 -0.171010
    vertex -0.400000 -0.500000 0.000000
  endloop
endfacet
facet normal 0.085505 0.000000 0.000000
  outer loop
    vertex 0.400000 0.000000 0.000000
    vertex 0.400000 -0.500000 0.000000
    vertex 0.400000 -0.469846 -0.171010
  endloop
endfacet
facet normal 0.000000 -0.136808 -0.024123
  outer loop
    vertex -0.400000 -0.500000 0.000000
    vertex -0.400000 -0.469846 -0.171010
    vertex 0.400000 -0.500000 0.000000
  endloop
endfacet
facet normal 0.000000 -0.136808 -0.024123
  outer loop
    vertex -0.400000 -0.469846 -0.171010
    vertex 0.400000 -0.469846 -0.171010
    vertex 0.400000 -0.500000 0.000000
  endloop
endfacet
facet normal -0.085505 0.000000 0.000000
  outer loop
    vertex -0.400000 0.000000 0.000000
    vertex -0.400000 -0.383022 -0.321394
    vertex -0.400000 -0.469846 -0.171010
  endloop
endfacet
facet normal 0.085505 0.000000 0.000000
  outer loop
    vertex 0.400000 0.000000 0.000000
    vertex 0.400000 -0.469846 -0.171010
    vertex 0.400000 -0.383022 -0.321394
  endloop
endfacet
facet normal 0.000000 -0.120307 -0.069459
  outer loop
    vertex -0.400000 -0.469846 -0.171010
    vertex -0.400000 -0.383022 -0.321394
    vertex 0.400000 -0.469846 -0.171010
  endloop
endfacet
facet normal 0.000000 -0.120307 -0.069459
  outer loop
    vertex -0.400000 -0.383022 -0.321394
    vertex 0.400000 -0.383022 -0.321394
    vertex 0.400000 -0.469846 -0.171010
  endloop
endfacet
facet normal -0.085505 0.000000 0.000000
  outer loop
    vertex -0.400000 0.000000 0.000000
    vertex -0.400000 -0.250000 -0.433013
    vertex -0.400000 -0.383022 -0.321394
  endloop
endfacet
facet normal 0.085505 0.000000 0.000000
  outer loop
    vertex 0.400000 0.000000 0.000000
    vertex 0.400000 -0.383022 -0.321394
    vertex 0.400000 -0.250000 -0.433013
  endloop
endfacet
facet normal 0.000000 -0.089295 -0.106418
  outer loop
    vertex -0.400000 -0.383022 -0.321394
    vertex -0.400000 -0.250000 -0.433013
    vertex 0.400000 -0.383022 -0.321394
  endloop
endfacet
facet normal 0.000000 -0.089295 -0.106418
  outer loop
    vertex -0.400000 -0.250000 -0.433013
    vertex 0.400000 -0.250000 -0.433013
    vertex 0.400000 -0.383022 -0.321394
  endloop
endfacet
facet normal -0.085505 0.000000 0.000000
  outer loop
    vertex -0.400000 0.000000 0.000000
    vertex -0.400000 -0.086824 -0.492404
    vertex -0.400000 -0.250000 -0.433013
  endloop
endfacet
facet normal 0.085505 0.000000 0.000000
  outer loop
    vertex 0.400000 0.000000 0.000000
    vertex 0.400000 -0.250000 -0.433013
    vertex 0.400000 -0.086824 -0.492404
  endloop
endfacet
facet normal 0.000000 -0.047513 -0.130541
  outer loop
    vertex -0.400000 -0.250000 -0.433013
    vertex -0.400000 -0.086824 -0.492404
    vertex 0.400000 -0.250000 -0.433013
  endloop
endfacet
facet normal 0.000000 -0.047513 -0.130541
  outer loop
    vertex -0.400000 -0.086824 -0.492404
    vertex 0.400000 -0.086824 -0.492404
    vertex 0.400000 -0.250000 -0.433013
  endloop
endfacet
facet normal -0.085505 0.000000 -0.000000
  outer loop
    vertex -0.400000 0.000000 0.000000
    vertex -0.400000 0.086824 -0.492404
    vertex -0.400000 -0.086824 -0.492404
  endloop
endfacet
facet normal 0.085505 0.000000 0.000000
  outer loop
    vertex 0.400000 0.000000 0.000000
    vertex 0.400000 -0.086824 -0.492404
    vertex 0.400000 0.086824 -0.492404
  endloop
endfacet
facet normal 0.000000 0.000000 -0.138919
  outer loop
    vertex -0.400000 -0.086824 -0.492404
    vertex -0.400000 0.086824 -0.492404
    vertex 0.400000 -0.086824 -0.492404
  endloop
endfacet
facet normal 0.000000 0.000000 -0.138919
  outer loop
    vertex -0.400000 0.086824 -0.492404
    vertex 0.400000 0.086824 -0.492404
    vertex 0.400000 -0.086824 -0.492404
  endloop
endfacet
facet normal -0.085505 0.000000 0.000000
  outer loop
    vertex -0.400000 0.000000 0.000000
    vertex -0.400000 0.250000 -0.433013
    vertex -0.400000 0.086824 -0.492404
  endloop
endfacet
facet normal 0.085505 0.000000 0.000000
  outer loop
    vertex 0.400000 0.000000 0.000000
    vertex 0.400000 0.086824 -0.492404
    vertex 0.400000 0.250000 -0.433013
  endloop
endfacet
facet normal 0.000000 0.047513 -0.130541
  outer loop
    vertex -0.400000 0.086824 -0.492404
    vertex -0.400000 0.250000 -0.433013
    vertex 0.400000 0.086824 -0.492404
  endloop
endfacet
facet normal 0.000000 0.047513 -0.130541
  outer loop
    vertex -0.400000 0.250000 -0.433013
    vertex 0.400000 0.250000 -0.433013
    vertex 0.400000 0.086824 -0.492404
  endloop
endfacet
facet normal -0.085505 0.000000 0.000000
  outer loop
    vertex -0.400000 0.000000 0.000000
    vertex -0.400000 0.383022 -0.321394
    vertex -0.400000 0.250000 -0.433013
  endloop
endfacet
facet normal 0.085505 0.000000 0.000000
  outer loop
    vertex 0.400000 0.000000 0.000000
    vertex 0.400000 0.250000 -0.433013
    vertex 0.400000 0.383022 -0.321394
  endloop
endfacet
facet normal 0.000000 0.089295 -0.106418
  outer loop
    vertex -0.400000 0.250000 -0.433013
    vertex -0.400000 0.383022 -0.321394
    vertex 0.400000 0.250000 -0.433013
  endloop
endfacet
facet normal 0.000000 0.089295 -0.106418
  outer loop
    vertex -0.400000 0.383022 -0.321394
    vertex 0.400000 0.383022 -0.321394
    vertex 0.400000 0.250000 -0.433013
  endloop
endfacet
facet normal -0.085505 0.000000 0.000000
  outer loop
    vertex -0.400000 0.000000 0.000000
    vertex -0.400000 0.469846 -0.171010
    vertex -0.400000 0.383022 -0.321394
  endloop
endfacet
facet normal 0.085505 0.000000 0.000000
  outer loop
    vertex 0.400000 0.000000 0.000000
    vertex 0.400000 0.383022 -0.321394
    vertex 0.400000 0.469846 -0.171010
  endloop
endfacet
facet normal 0.000000 0.120307 -0.069459
  outer loop
    vertex -0.400000 0.383022 -0.321394
    vertex -0.400000 0.469846 -0.171010
    vertex 0.400000 0.383022 -0.321394
  endloop
endfacet
facet normal 0.000000 0.120307 -0.069459
  outer loop
    vertex -0.400000 0.469846 -0.171010
    vertex 0.400000 0.469846 -0.171010
    vertex 0.400000 0.383022 -0.321394
  endloop
endfacet
facet normal -0.085505 0.000000 0.000000
  outer loop
    vertex -0.400000 0.000000 0.000000
    vertex -0.400000 0.500000 0.000000
    vertex -0.400000 0.469846 -0.171010
  endloop
endfacet
facet normal 0.085505 -0.000000 0.000000
  outer loop
    vertex 0.400000 0.000000 0.000000
    vertex 0.400000 0.469846 -0.171010
    vertex 0.400000 0.500000 0.000000
  endloop
endfacet
facet normal 0.000000 0.136808 -0.024123
  outer loop
    vertex -0.400000 0.469846 -0.171010
    vertex -0.400000 0.500000 0.000000
    vertex 0.400000 0.469846 -0.171010
  endloop
endfacet
facet normal 0.000000 0.136808 -0.024123
  outer loop
    vertex -0.400000 0.500000 0.000000
    vertex 0.400000 0.500000 0.000000
    vertex 0.400000 0.469846 -0.171010
  endloop
endfacet
endsolid wheelLargeCylinder.stl
