solid 
facet normal 0.0 1.0 0.0
outer loop
vertex 0.11 0.05 0.0024999999999999974
vertex 0.11 0.05 -0.0025000000000000035
vertex 0.09996876464081228 0.05 -0.0024992191160203097
endloop
endfacet
facet normal 0.0 1.0 0.0
outer loop
vertex 0.10251113792813575 0.05 0.03997144731778833
vertex 0.1042212386447641 0.05 0.03527298421385879
vertex 0.09479469372231807 0.05 0.031842833449489294
endloop
endfacet
facet normal 0.0 1.0 0.0
outer loop
vertex 0.08265791971887125 0.05000000000000001 0.07262174817331678
vertex 0.08587185776730394 0.05000000000000001 0.06879152595772188
vertex 0.07818698372023283 0.05000000000000001 0.06234417035081988
endloop
endfacet
facet normal 0.0 1.0 0.0
outer loop
vertex 0.052834936490538914 0.05000000000000001 0.09651279441628825
vertex 0.057165063509461114 0.05000000000000001 0.09401279441628825
vertex 0.05214876956450342 0.05000000000000001 0.08532588020588082
endloop
endfacet
facet normal 0.0 1.0 0.0
outer loop
vertex 0.016639280160831826 0.05000000000000001 0.10876297327551021
vertex 0.021563318925892867 0.05000000000000001 0.10789473238717556
vertex 0.019820644165424433 0.05000000000000001 0.09801602963223734
endloop
endfacet
facet normal -0.0 1.0 0.0
outer loop
vertex -0.021563318925892853 0.05000000000000001 0.10789473238717558
vertex -0.016639280160831816 0.05000000000000001 0.10876297327551021
vertex -0.014898143441558202 0.05000000000000001 0.0988839993224119
endloop
endfacet
facet normal -0.0 1.0 0.0
outer loop
vertex -0.05716506350946107 0.05000000000000001 0.09401279441628828
vertex -0.052834936490538886 0.05000000000000001 0.09651279441628827
vertex -0.04781999507630883 0.05000000000000001 0.08782509932190113
endloop
endfacet
facet normal -0.0 1.0 0.0
outer loop
vertex -0.08587185776730392 0.05000000000000001 0.0687915259577219
vertex -0.08265791971887122 0.05000000000000001 0.07262174817331679
vertex -0.0749740495568936 0.05000000000000001 0.06617319618274807
endloop
endfacet
facet normal -0.0 1.0 0.0
outer loop
vertex -0.1042212386447641 0.05 0.03527298421385881
vertex -0.10251113792813575 0.05 0.039971447317788344
vertex -0.09308512716179101 0.05 0.03653982897159205
endloop
endfacet
facet normal -0.0 0.9999999999999999 0.0
outer loop
vertex -0.11 0.05 -0.002499999999999989
vertex -0.11 0.05 0.00250000000000001
vertex -0.09996876464081228 0.05 0.0024992191160203322
endloop
endfacet
facet normal 0.0 1.0 -0.0
outer loop
vertex -0.10251113792813576 0.05 -0.039971447317788324
vertex -0.1042212386447641 0.05 -0.03527298421385878
vertex -0.09479469372231807 0.05 -0.03184283344948927
endloop
endfacet
facet normal 0.0 1.0 -0.0
outer loop
vertex -0.08265791971887125 0.049999999999999996 -0.07262174817331678
vertex -0.08587185776730394 0.049999999999999996 -0.06879152595772188
vertex -0.07818698372023285 0.049999999999999996 -0.062344170350819864
endloop
endfacet
facet normal 0.0 1.0 -0.0
outer loop
vertex -0.05283493649053895 0.049999999999999996 -0.09651279441628823
vertex -0.057165063509461135 0.049999999999999996 -0.09401279441628822
vertex -0.05214876956450346 0.049999999999999996 -0.08532588020588078
endloop
endfacet
facet normal 0.0 1.0 -0.0
outer loop
vertex -0.01663928016083182 0.049999999999999996 -0.10876297327551021
vertex -0.021563318925892857 0.049999999999999996 -0.10789473238717558
vertex -0.019820644165424447 0.049999999999999996 -0.09801602963223732
endloop
endfacet
facet normal 0.0 1.0 0.0
outer loop
vertex 0.02156331892589282 0.049999999999999996 -0.10789473238717558
vertex 0.016639280160831778 0.049999999999999996 -0.10876297327551022
vertex 0.014898143441558147 0.049999999999999996 -0.09888399932241192
endloop
endfacet
facet normal 0.0 1.0 0.0
outer loop
vertex 0.057165063509461114 0.049999999999999996 -0.09401279441628825
vertex 0.052834936490538914 0.049999999999999996 -0.09651279441628825
vertex 0.04781999507630886 0.049999999999999996 -0.08782509932190113
endloop
endfacet
facet normal 0.0 1.0 0.0
outer loop
vertex 0.08587185776730391 0.049999999999999996 -0.06879152595772191
vertex 0.08265791971887121 0.049999999999999996 -0.07262174817331679
vertex 0.0749740495568936 0.049999999999999996 -0.06617319618274807
endloop
endfacet
facet normal 0.0 1.0 0.0
outer loop
vertex 0.10422123864476407 0.05 -0.03527298421385887
vertex 0.10251113792813572 0.05 -0.03997144731778841
vertex 0.093085127161791 0.05 -0.0365398289715921
endloop
endfacet
facet normal -0.0 1.0 0.0
outer loop
vertex 0.09996876464081228 0.05 0.0024992191160203036
vertex 0.11 0.05 0.0024999999999999974
vertex 0.09996876464081228 0.05 -0.0024992191160203097
endloop
endfacet
facet normal -0.0 1.0 0.0
outer loop
vertex 0.09308512716179103 0.05 0.03653982897159202
vertex 0.10251113792813575 0.05 0.03997144731778833
vertex 0.09479469372231807 0.05 0.031842833449489294
endloop
endfacet
facet normal -0.0 1.0 0.0
outer loop
vertex 0.07497404955689362 0.05000000000000001 0.06617319618274804
vertex 0.08265791971887125 0.05000000000000001 0.07262174817331678
vertex 0.07818698372023283 0.05000000000000001 0.06234417035081988
endloop
endfacet
facet normal -0.0 1.0 0.0
outer loop
vertex 0.04781999507630888 0.05000000000000001 0.08782509932190112
vertex 0.052834936490538914 0.05000000000000001 0.09651279441628825
vertex 0.05214876956450342 0.05000000000000001 0.08532588020588082
endloop
endfacet
facet normal -0.0 1.0 0.0
outer loop
vertex 0.014898143441558213 0.05000000000000001 0.0988839993224119
vertex 0.016639280160831826 0.05000000000000001 0.10876297327551021
vertex 0.019820644165424433 0.05000000000000001 0.09801602963223734
endloop
endfacet
facet normal -0.0 0.9999999999999999 -0.0
outer loop
vertex -0.019820644165424423 0.05000000000000001 0.09801602963223734
vertex -0.021563318925892853 0.05000000000000001 0.10789473238717558
vertex -0.014898143441558202 0.05000000000000001 0.0988839993224119
endloop
endfacet
facet normal -0.0 1.0 -0.0
outer loop
vertex -0.05214876956450341 0.05000000000000001 0.08532588020588082
vertex -0.05716506350946107 0.05000000000000001 0.09401279441628828
vertex -0.04781999507630883 0.05000000000000001 0.08782509932190113
endloop
endfacet
facet normal -0.0 1.0 -0.0
outer loop
vertex -0.07818698372023282 0.05000000000000001 0.06234417035081988
vertex -0.08587185776730392 0.05000000000000001 0.0687915259577219
vertex -0.0749740495568936 0.05000000000000001 0.06617319618274807
endloop
endfacet
facet normal 0.0 1.0 -0.0
outer loop
vertex -0.09479469372231807 0.05 0.031842833449489294
vertex -0.1042212386447641 0.05 0.03527298421385881
vertex -0.09308512716179101 0.05 0.03653982897159205
endloop
endfacet
facet normal 0.0 1.0 -0.0
outer loop
vertex -0.09996876464081228 0.05 -0.0024992191160203136
vertex -0.11 0.05 -0.002499999999999989
vertex -0.09996876464081228 0.05 0.0024992191160203322
endloop
endfacet
facet normal 0.0 0.9999999999999999 -0.0
outer loop
vertex -0.09308512716179101 0.05 -0.03653982897159203
vertex -0.10251113792813576 0.05 -0.039971447317788324
vertex -0.09479469372231807 0.05 -0.03184283344948927
endloop
endfacet
facet normal 0.0 0.9999999999999999 -0.0
outer loop
vertex -0.07497404955689362 0.049999999999999996 -0.06617319618274804
vertex -0.08265791971887125 0.049999999999999996 -0.07262174817331678
vertex -0.07818698372023285 0.049999999999999996 -0.062344170350819864
endloop
endfacet
facet normal 0.0 1.0 -0.0
outer loop
vertex -0.047819995076308894 0.049999999999999996 -0.0878250993219011
vertex -0.05283493649053895 0.049999999999999996 -0.09651279441628823
vertex -0.05214876956450346 0.049999999999999996 -0.08532588020588078
endloop
endfacet
facet normal 0.0 0.9999999999999999 0.0
outer loop
vertex -0.014898143441558181 0.049999999999999996 -0.0988839993224119
vertex -0.01663928016083182 0.049999999999999996 -0.10876297327551021
vertex -0.019820644165424447 0.049999999999999996 -0.09801602963223732
endloop
endfacet
facet normal 0.0 0.9999999999999999 0.0
outer loop
vertex 0.01982064416542441 0.049999999999999996 -0.09801602963223734
vertex 0.02156331892589282 0.049999999999999996 -0.10789473238717558
vertex 0.014898143441558147 0.049999999999999996 -0.09888399932241192
endloop
endfacet
facet normal 0.0 1.0 0.0
outer loop
vertex 0.05214876956450344 0.049999999999999996 -0.0853258802058808
vertex 0.057165063509461114 0.049999999999999996 -0.09401279441628825
vertex 0.04781999507630886 0.049999999999999996 -0.08782509932190113
endloop
endfacet
facet normal 0.0 1.0 0.0
outer loop
vertex 0.0781869837202328 0.049999999999999996 -0.062344170350819884
vertex 0.08587185776730391 0.049999999999999996 -0.06879152595772191
vertex 0.0749740495568936 0.049999999999999996 -0.06617319618274807
endloop
endfacet
facet normal 0.0 1.0 0.0
outer loop
vertex 0.09479469372231804 0.05 -0.03184283344948935
vertex 0.10422123864476407 0.05 -0.03527298421385887
vertex 0.093085127161791 0.05 -0.0365398289715921
endloop
endfacet
facet normal 0.0 1.0 0.0
outer loop
vertex 0.09996876464081228 0.05 0.0024992191160203036
vertex 0.09996876464081228 0.05 -0.0024992191160203097
vertex 0.09479469372231804 0.05 -0.03184283344948935
endloop
endfacet
facet normal 0.0 1.0 0.0
outer loop
vertex 0.09308512716179103 0.05 0.03653982897159202
vertex 0.09479469372231807 0.05 0.031842833449489294
vertex 0.09996876464081228 0.05 0.0024992191160203036
endloop
endfacet
facet normal -1.0273344142772443e-15 0.9999999999999999 -8.620359281157671e-16
outer loop
vertex 0.07497404955689362 0.05000000000000001 0.06617319618274804
vertex 0.07818698372023283 0.05000000000000001 0.06234417035081988
vertex 0.09308512716179103 0.05 0.03653982897159202
endloop
endfacet
facet normal 0.0 1.0 0.0
outer loop
vertex 0.04781999507630888 0.05000000000000001 0.08782509932190112
vertex 0.05214876956450342 0.05000000000000001 0.08532588020588082
vertex 0.07497404955689362 0.05000000000000001 0.06617319618274804
endloop
endfacet
facet normal 0.0 0.9999999999999999 0.0
outer loop
vertex 0.014898143441558213 0.05000000000000001 0.0988839993224119
vertex 0.019820644165424433 0.05000000000000001 0.09801602963223734
vertex 0.04781999507630888 0.05000000000000001 0.08782509932190112
endloop
endfacet
facet normal 0.0 1.0 0.0
outer loop
vertex -0.019820644165424423 0.05000000000000001 0.09801602963223734
vertex -0.014898143441558202 0.05000000000000001 0.0988839993224119
vertex 0.014898143441558213 0.05000000000000001 0.0988839993224119
endloop
endfacet
facet normal 0.0 1.0 0.0
outer loop
vertex -0.05214876956450341 0.05000000000000001 0.08532588020588082
vertex -0.04781999507630883 0.05000000000000001 0.08782509932190113
vertex -0.019820644165424423 0.05000000000000001 0.09801602963223734
endloop
endfacet
facet normal 0.0 1.0 0.0
outer loop
vertex -0.07818698372023282 0.05000000000000001 0.06234417035081988
vertex -0.0749740495568936 0.05000000000000001 0.06617319618274807
vertex -0.05214876956450341 0.05000000000000001 0.08532588020588082
endloop
endfacet
facet normal -1.2602122198617987e-15 1.0 4.586797368882315e-16
outer loop
vertex -0.09479469372231807 0.05 0.031842833449489294
vertex -0.09308512716179101 0.05 0.03653982897159205
vertex -0.07818698372023282 0.05000000000000001 0.06234417035081988
endloop
endfacet
facet normal 0.0 0.9999999999999999 0.0
outer loop
vertex -0.09996876464081228 0.05 -0.0024992191160203136
vertex -0.09996876464081228 0.05 0.0024992191160203322
vertex -0.09479469372231807 0.05 0.031842833449489294
endloop
endfacet
facet normal 0.0 0.9999999999999999 0.0
outer loop
vertex -0.09308512716179101 0.05 -0.03653982897159203
vertex -0.09479469372231807 0.05 -0.03184283344948927
vertex -0.09996876464081228 0.05 -0.0024992191160203136
endloop
endfacet
facet normal -1.0273344142772418e-15 0.9999999999999999 -8.620359281157656e-16
outer loop
vertex -0.07497404955689362 0.049999999999999996 -0.06617319618274804
vertex -0.07818698372023285 0.049999999999999996 -0.062344170350819864
vertex -0.09308512716179101 0.05 -0.03653982897159203
endloop
endfacet
facet normal 0.0 1.0 0.0
outer loop
vertex -0.047819995076308894 0.049999999999999996 -0.0878250993219011
vertex -0.05214876956450346 0.049999999999999996 -0.08532588020588078
vertex -0.07497404955689362 0.049999999999999996 -0.06617319618274804
endloop
endfacet
facet normal 0.0 1.0 0.0
outer loop
vertex -0.014898143441558181 0.049999999999999996 -0.0988839993224119
vertex -0.019820644165424447 0.049999999999999996 -0.09801602963223732
vertex -0.047819995076308894 0.049999999999999996 -0.0878250993219011
endloop
endfacet
facet normal 0.0 1.0 0.0
outer loop
vertex 0.01982064416542441 0.049999999999999996 -0.09801602963223734
vertex 0.014898143441558147 0.049999999999999996 -0.09888399932241192
vertex -0.014898143441558181 0.049999999999999996 -0.0988839993224119
endloop
endfacet
facet normal 0.0 0.9999999999999999 0.0
outer loop
vertex 0.05214876956450344 0.049999999999999996 -0.0853258802058808
vertex 0.04781999507630886 0.049999999999999996 -0.08782509932190113
vertex 0.01982064416542441 0.049999999999999996 -0.09801602963223734
endloop
endfacet
facet normal 0.0 1.0 0.0
outer loop
vertex 0.0781869837202328 0.049999999999999996 -0.062344170350819884
vertex 0.0749740495568936 0.049999999999999996 -0.06617319618274807
vertex 0.05214876956450344 0.049999999999999996 -0.0853258802058808
endloop
endfacet
facet normal -1.260212219861781e-15 0.9999999999999999 4.586797368882219e-16
outer loop
vertex 0.09479469372231804 0.05 -0.03184283344948935
vertex 0.093085127161791 0.05 -0.0365398289715921
vertex 0.0781869837202328 0.049999999999999996 -0.062344170350819884
endloop
endfacet
facet normal 0.0 0.9999999999999999 0.0
outer loop
vertex 0.09308512716179103 0.05 0.03653982897159202
vertex 0.09996876464081228 0.05 0.0024992191160203036
vertex 0.09479469372231804 0.05 -0.03184283344948935
endloop
endfacet
facet normal -3.6419517411794342e-16 1.0 -4.567439423688234e-16
outer loop
vertex 0.04781999507630888 0.05000000000000001 0.08782509932190112
vertex 0.07497404955689362 0.05000000000000001 0.06617319618274804
vertex 0.09308512716179103 0.05 0.03653982897159202
endloop
endfacet
facet normal -0.0 0.9999999999999999 0.0
outer loop
vertex -0.019820644165424423 0.05000000000000001 0.09801602963223734
vertex 0.014898143441558213 0.05000000000000001 0.0988839993224119
vertex 0.04781999507630888 0.05000000000000001 0.08782509932190112
endloop
endfacet
facet normal 0.0 0.9999999999999999 0.0
outer loop
vertex -0.07818698372023282 0.05000000000000001 0.06234417035081988
vertex -0.05214876956450341 0.05000000000000001 0.08532588020588082
vertex -0.019820644165424423 0.05000000000000001 0.09801602963223734
endloop
endfacet
facet normal -5.776494441750267e-16 1.0 8.703030153742359e-17
outer loop
vertex -0.09996876464081228 0.05 -0.0024992191160203136
vertex -0.09479469372231807 0.05 0.031842833449489294
vertex -0.07818698372023282 0.05000000000000001 0.06234417035081988
endloop
endfacet
facet normal 5.725790362978612e-16 1.0 1.1578601354924632e-16
outer loop
vertex -0.07497404955689362 0.049999999999999996 -0.06617319618274804
vertex -0.09308512716179101 0.05 -0.03653982897159203
vertex -0.09996876464081228 0.05 -0.0024992191160203136
endloop
endfacet
facet normal 0.0 1.0 0.0
outer loop
vertex -0.014898143441558181 0.049999999999999996 -0.0988839993224119
vertex -0.047819995076308894 0.049999999999999996 -0.0878250993219011
vertex -0.07497404955689362 0.049999999999999996 -0.06617319618274804
endloop
endfacet
facet normal 0.0 0.9999999999999999 0.0
outer loop
vertex 0.05214876956450344 0.049999999999999996 -0.0853258802058808
vertex 0.01982064416542441 0.049999999999999996 -0.09801602963223734
vertex -0.014898143441558181 0.049999999999999996 -0.0988839993224119
endloop
endfacet
facet normal 3.8656314728550876e-16 1.0 -4.3797498433373847e-16
outer loop
vertex 0.09479469372231804 0.05 -0.03184283344948935
vertex 0.0781869837202328 0.049999999999999996 -0.062344170350819884
vertex 0.05214876956450344 0.049999999999999996 -0.0853258802058808
endloop
endfacet
facet normal 1.5776308692818072e-16 1.0 3.9440771732044606e-18
outer loop
vertex 0.04781999507630888 0.05000000000000001 0.08782509932190112
vertex 0.09308512716179103 0.05 0.03653982897159202
vertex 0.09479469372231804 0.05 -0.03184283344948935
endloop
endfacet
facet normal -0.0 1.0 0.0
outer loop
vertex -0.07818698372023282 0.05000000000000001 0.06234417035081988
vertex -0.019820644165424423 0.05000000000000001 0.09801602963223734
vertex 0.04781999507630888 0.05000000000000001 0.08782509932190112
endloop
endfacet
facet normal 2.6979076801338442e-18 1.0 -1.0791630720535262e-16
outer loop
vertex -0.07497404955689362 0.049999999999999996 -0.06617319618274804
vertex -0.09996876464081228 0.05 -0.0024992191160203136
vertex -0.07818698372023282 0.05000000000000001 0.06234417035081988
endloop
endfacet
facet normal 0.0 1.0 0.0
outer loop
vertex 0.05214876956450344 0.049999999999999996 -0.0853258802058808
vertex -0.014898143441558181 0.049999999999999996 -0.0988839993224119
vertex -0.07497404955689362 0.049999999999999996 -0.06617319618274804
endloop
endfacet
facet normal -6.030304855445937e-17 1.0 -8.165605614543345e-17
outer loop
vertex 0.04781999507630888 0.05000000000000001 0.08782509932190112
vertex 0.09479469372231804 0.05 -0.03184283344948935
vertex 0.05214876956450344 0.049999999999999996 -0.0853258802058808
endloop
endfacet
facet normal 2.17264642988608e-17 1.0 -1.0744059328988443e-16
outer loop
vertex -0.07497404955689362 0.049999999999999996 -0.06617319618274804
vertex -0.07818698372023282 0.05000000000000001 0.06234417035081988
vertex 0.04781999507630888 0.05000000000000001 0.08782509932190112
endloop
endfacet
facet normal -1.2121051819030878e-17 1.0 -8.045150622704774e-17
outer loop
vertex 0.04781999507630888 0.05000000000000001 0.08782509932190112
vertex 0.05214876956450344 0.049999999999999996 -0.0853258802058808
vertex -0.07497404955689362 0.049999999999999996 -0.06617319618274804
endloop
endfacet
facet normal 0.0 -1.0 0.0
outer loop
vertex 0.09996876464081228 -0.05 -0.0024992191160203036
vertex 0.11 -0.05 -0.0024999999999999974
vertex 0.11 -0.05 0.0025000000000000035
endloop
endfacet
facet normal 0.0 -1.0 0.0
outer loop
vertex 0.09479469372231807 -0.05 0.031842833449489294
vertex 0.1042212386447641 -0.05 0.03527298421385879
vertex 0.10251113792813575 -0.05 0.03997144731778833
endloop
endfacet
facet normal 0.0 -1.0 0.0
outer loop
vertex 0.07818698372023283 -0.049999999999999996 0.06234417035081988
vertex 0.08587185776730394 -0.049999999999999996 0.06879152595772188
vertex 0.08265791971887125 -0.049999999999999996 0.07262174817331678
endloop
endfacet
facet normal 0.0 -1.0 0.0
outer loop
vertex 0.05214876956450342 -0.049999999999999996 0.08532588020588082
vertex 0.057165063509461114 -0.049999999999999996 0.09401279441628825
vertex 0.052834936490538914 -0.049999999999999996 0.09651279441628825
endloop
endfacet
facet normal 0.0 -1.0 0.0
outer loop
vertex 0.019820644165424433 -0.049999999999999996 0.09801602963223734
vertex 0.021563318925892867 -0.049999999999999996 0.10789473238717556
vertex 0.016639280160831826 -0.049999999999999996 0.10876297327551021
endloop
endfacet
facet normal -0.0 -1.0 0.0
outer loop
vertex -0.014898143441558202 -0.049999999999999996 0.0988839993224119
vertex -0.016639280160831816 -0.049999999999999996 0.10876297327551021
vertex -0.021563318925892853 -0.049999999999999996 0.10789473238717558
endloop
endfacet
facet normal -0.0 -1.0 0.0
outer loop
vertex -0.04781999507630883 -0.049999999999999996 0.08782509932190113
vertex -0.052834936490538886 -0.049999999999999996 0.09651279441628827
vertex -0.05716506350946107 -0.049999999999999996 0.09401279441628828
endloop
endfacet
facet normal -0.0 -1.0 0.0
outer loop
vertex -0.0749740495568936 -0.049999999999999996 0.06617319618274807
vertex -0.08265791971887122 -0.049999999999999996 0.07262174817331679
vertex -0.08587185776730392 -0.049999999999999996 0.0687915259577219
endloop
endfacet
facet normal -0.0 -1.0 0.0
outer loop
vertex -0.09308512716179101 -0.05 0.03653982897159205
vertex -0.10251113792813575 -0.05 0.039971447317788344
vertex -0.1042212386447641 -0.05 0.03527298421385881
endloop
endfacet
facet normal -0.0 -0.9999999999999999 -0.0
outer loop
vertex -0.09996876464081228 -0.05 0.0024992191160203383
vertex -0.11 -0.05 0.002500000000000016
vertex -0.11 -0.05 -0.002499999999999983
endloop
endfacet
facet normal 0.0 -1.0 -0.0
outer loop
vertex -0.09479469372231807 -0.05 -0.03184283344948927
vertex -0.1042212386447641 -0.05 -0.03527298421385878
vertex -0.10251113792813576 -0.05 -0.039971447317788324
endloop
endfacet
facet normal 0.0 -1.0 -0.0
outer loop
vertex -0.07818698372023285 -0.05000000000000001 -0.062344170350819864
vertex -0.08587185776730394 -0.05000000000000001 -0.06879152595772188
vertex -0.08265791971887125 -0.05000000000000001 -0.07262174817331678
endloop
endfacet
facet normal 0.0 -1.0 -0.0
outer loop
vertex -0.05214876956450346 -0.05000000000000001 -0.08532588020588078
vertex -0.057165063509461135 -0.05000000000000001 -0.09401279441628822
vertex -0.05283493649053895 -0.05000000000000001 -0.09651279441628823
endloop
endfacet
facet normal 0.0 -1.0 -0.0
outer loop
vertex -0.019820644165424447 -0.05000000000000001 -0.09801602963223732
vertex -0.021563318925892857 -0.05000000000000001 -0.10789473238717558
vertex -0.01663928016083182 -0.05000000000000001 -0.10876297327551021
endloop
endfacet
facet normal 0.0 -1.0 0.0
outer loop
vertex 0.014898143441558147 -0.05000000000000001 -0.09888399932241192
vertex 0.016639280160831778 -0.05000000000000001 -0.10876297327551022
vertex 0.02156331892589282 -0.05000000000000001 -0.10789473238717558
endloop
endfacet
facet normal 0.0 -1.0 0.0
outer loop
vertex 0.04781999507630886 -0.05000000000000001 -0.08782509932190113
vertex 0.052834936490538914 -0.05000000000000001 -0.09651279441628825
vertex 0.057165063509461114 -0.05000000000000001 -0.09401279441628825
endloop
endfacet
facet normal 0.0 -1.0 0.0
outer loop
vertex 0.0749740495568936 -0.05000000000000001 -0.06617319618274807
vertex 0.08265791971887121 -0.05000000000000001 -0.07262174817331679
vertex 0.08587185776730391 -0.05000000000000001 -0.06879152595772191
endloop
endfacet
facet normal 0.0 -1.0 0.0
outer loop
vertex 0.093085127161791 -0.05 -0.0365398289715921
vertex 0.10251113792813572 -0.05 -0.03997144731778841
vertex 0.10422123864476407 -0.05 -0.03527298421385887
endloop
endfacet
facet normal -0.0 -1.0 0.0
outer loop
vertex 0.09996876464081228 -0.05 -0.0024992191160203036
vertex 0.11 -0.05 0.0025000000000000035
vertex 0.09996876464081228 -0.05 0.0024992191160203097
endloop
endfacet
facet normal -0.0 -1.0 0.0
outer loop
vertex 0.09479469372231807 -0.05 0.031842833449489294
vertex 0.10251113792813575 -0.05 0.03997144731778833
vertex 0.09308512716179103 -0.05 0.03653982897159202
endloop
endfacet
facet normal -0.0 -1.0 0.0
outer loop
vertex 0.07818698372023283 -0.049999999999999996 0.06234417035081988
vertex 0.08265791971887125 -0.049999999999999996 0.07262174817331678
vertex 0.07497404955689362 -0.049999999999999996 0.06617319618274804
endloop
endfacet
facet normal -0.0 -1.0 0.0
outer loop
vertex 0.05214876956450342 -0.049999999999999996 0.08532588020588082
vertex 0.052834936490538914 -0.049999999999999996 0.09651279441628825
vertex 0.04781999507630888 -0.049999999999999996 0.08782509932190112
endloop
endfacet
facet normal -0.0 -1.0 0.0
outer loop
vertex 0.019820644165424433 -0.049999999999999996 0.09801602963223734
vertex 0.016639280160831826 -0.049999999999999996 0.10876297327551021
vertex 0.014898143441558213 -0.049999999999999996 0.0988839993224119
endloop
endfacet
facet normal -0.0 -0.9999999999999999 -0.0
outer loop
vertex -0.014898143441558202 -0.049999999999999996 0.0988839993224119
vertex -0.021563318925892853 -0.049999999999999996 0.10789473238717558
vertex -0.019820644165424423 -0.049999999999999996 0.09801602963223734
endloop
endfacet
facet normal -0.0 -1.0 -0.0
outer loop
vertex -0.04781999507630883 -0.049999999999999996 0.08782509932190113
vertex -0.05716506350946107 -0.049999999999999996 0.09401279441628828
vertex -0.05214876956450341 -0.049999999999999996 0.08532588020588082
endloop
endfacet
facet normal -0.0 -1.0 -0.0
outer loop
vertex -0.0749740495568936 -0.049999999999999996 0.06617319618274807
vertex -0.08587185776730392 -0.049999999999999996 0.0687915259577219
vertex -0.07818698372023282 -0.049999999999999996 0.06234417035081988
endloop
endfacet
facet normal 0.0 -1.0 -0.0
outer loop
vertex -0.09308512716179101 -0.05 0.03653982897159205
vertex -0.1042212386447641 -0.05 0.03527298421385881
vertex -0.09479469372231807 -0.05 0.031842833449489294
endloop
endfacet
facet normal 0.0 -1.0 -0.0
outer loop
vertex -0.09996876464081228 -0.05 0.0024992191160203383
vertex -0.11 -0.05 -0.002499999999999983
vertex -0.09996876464081228 -0.05 -0.0024992191160203075
endloop
endfacet
facet normal 0.0 -0.9999999999999999 -0.0
outer loop
vertex -0.09479469372231807 -0.05 -0.03184283344948927
vertex -0.10251113792813576 -0.05 -0.039971447317788324
vertex -0.09308512716179101 -0.05 -0.03653982897159203
endloop
endfacet
facet normal 0.0 -0.9999999999999999 -0.0
outer loop
vertex -0.07818698372023285 -0.05000000000000001 -0.062344170350819864
vertex -0.08265791971887125 -0.05000000000000001 -0.07262174817331678
vertex -0.07497404955689362 -0.05000000000000001 -0.06617319618274804
endloop
endfacet
facet normal 0.0 -1.0 -0.0
outer loop
vertex -0.05214876956450346 -0.05000000000000001 -0.08532588020588078
vertex -0.05283493649053895 -0.05000000000000001 -0.09651279441628823
vertex -0.047819995076308894 -0.05000000000000001 -0.0878250993219011
endloop
endfacet
facet normal 0.0 -0.9999999999999999 0.0
outer loop
vertex -0.019820644165424447 -0.05000000000000001 -0.09801602963223732
vertex -0.01663928016083182 -0.05000000000000001 -0.10876297327551021
vertex -0.014898143441558181 -0.05000000000000001 -0.0988839993224119
endloop
endfacet
facet normal 0.0 -0.9999999999999999 0.0
outer loop
vertex 0.014898143441558147 -0.05000000000000001 -0.09888399932241192
vertex 0.02156331892589282 -0.05000000000000001 -0.10789473238717558
vertex 0.01982064416542441 -0.05000000000000001 -0.09801602963223734
endloop
endfacet
facet normal 0.0 -1.0 0.0
outer loop
vertex 0.04781999507630886 -0.05000000000000001 -0.08782509932190113
vertex 0.057165063509461114 -0.05000000000000001 -0.09401279441628825
vertex 0.05214876956450344 -0.05000000000000001 -0.0853258802058808
endloop
endfacet
facet normal 0.0 -1.0 0.0
outer loop
vertex 0.0749740495568936 -0.05000000000000001 -0.06617319618274807
vertex 0.08587185776730391 -0.05000000000000001 -0.06879152595772191
vertex 0.0781869837202328 -0.05000000000000001 -0.062344170350819884
endloop
endfacet
facet normal 0.0 -1.0 0.0
outer loop
vertex 0.093085127161791 -0.05 -0.0365398289715921
vertex 0.10422123864476407 -0.05 -0.03527298421385887
vertex 0.09479469372231804 -0.05 -0.03184283344948935
endloop
endfacet
facet normal 0.0 -1.0 0.0
outer loop
vertex 0.09479469372231804 -0.05 -0.03184283344948935
vertex 0.09996876464081228 -0.05 -0.0024992191160203036
vertex 0.09996876464081228 -0.05 0.0024992191160203097
endloop
endfacet
facet normal 0.0 -0.9999999999999999 0.0
outer loop
vertex 0.09996876464081228 -0.05 0.0024992191160203097
vertex 0.09479469372231807 -0.05 0.031842833449489294
vertex 0.09308512716179103 -0.05 0.03653982897159202
endloop
endfacet
facet normal 1.0273344142772443e-15 -0.9999999999999999 8.620359281157671e-16
outer loop
vertex 0.09308512716179103 -0.05 0.03653982897159202
vertex 0.07818698372023283 -0.049999999999999996 0.06234417035081988
vertex 0.07497404955689362 -0.049999999999999996 0.06617319618274804
endloop
endfacet
facet normal 0.0 -1.0 0.0
outer loop
vertex 0.07497404955689362 -0.049999999999999996 0.06617319618274804
vertex 0.05214876956450342 -0.049999999999999996 0.08532588020588082
vertex 0.04781999507630888 -0.049999999999999996 0.08782509932190112
endloop
endfacet
facet normal 0.0 -0.9999999999999999 0.0
outer loop
vertex 0.04781999507630888 -0.049999999999999996 0.08782509932190112
vertex 0.019820644165424433 -0.049999999999999996 0.09801602963223734
vertex 0.014898143441558213 -0.049999999999999996 0.0988839993224119
endloop
endfacet
facet normal -0.0 -1.0 0.0
outer loop
vertex 0.014898143441558213 -0.049999999999999996 0.0988839993224119
vertex -0.014898143441558202 -0.049999999999999996 0.0988839993224119
vertex -0.019820644165424423 -0.049999999999999996 0.09801602963223734
endloop
endfacet
facet normal 0.0 -1.0 0.0
outer loop
vertex -0.019820644165424423 -0.049999999999999996 0.09801602963223734
vertex -0.04781999507630883 -0.049999999999999996 0.08782509932190113
vertex -0.05214876956450341 -0.049999999999999996 0.08532588020588082
endloop
endfacet
facet normal 0.0 -1.0 0.0
outer loop
vertex -0.05214876956450341 -0.049999999999999996 0.08532588020588082
vertex -0.0749740495568936 -0.049999999999999996 0.06617319618274807
vertex -0.07818698372023282 -0.049999999999999996 0.06234417035081988
endloop
endfacet
facet normal 1.2602122198617987e-15 -1.0 -4.586797368882315e-16
outer loop
vertex -0.07818698372023282 -0.049999999999999996 0.06234417035081988
vertex -0.09308512716179101 -0.05 0.03653982897159205
vertex -0.09479469372231807 -0.05 0.031842833449489294
endloop
endfacet
facet normal 0.0 -0.9999999999999999 -0.0
outer loop
vertex -0.09479469372231807 -0.05 0.031842833449489294
vertex -0.09996876464081228 -0.05 0.0024992191160203383
vertex -0.09996876464081228 -0.05 -0.0024992191160203075
endloop
endfacet
facet normal 0.0 -1.0 0.0
outer loop
vertex -0.09996876464081228 -0.05 -0.0024992191160203075
vertex -0.09479469372231807 -0.05 -0.03184283344948927
vertex -0.09308512716179101 -0.05 -0.03653982897159203
endloop
endfacet
facet normal 1.0273344142772418e-15 -0.9999999999999999 8.620359281157656e-16
outer loop
vertex -0.09308512716179101 -0.05 -0.03653982897159203
vertex -0.07818698372023285 -0.05000000000000001 -0.062344170350819864
vertex -0.07497404955689362 -0.05000000000000001 -0.06617319618274804
endloop
endfacet
facet normal 0.0 -1.0 0.0
outer loop
vertex -0.07497404955689362 -0.05000000000000001 -0.06617319618274804
vertex -0.05214876956450346 -0.05000000000000001 -0.08532588020588078
vertex -0.047819995076308894 -0.05000000000000001 -0.0878250993219011
endloop
endfacet
facet normal 0.0 -1.0 0.0
outer loop
vertex -0.047819995076308894 -0.05000000000000001 -0.0878250993219011
vertex -0.019820644165424447 -0.05000000000000001 -0.09801602963223732
vertex -0.014898143441558181 -0.05000000000000001 -0.0988839993224119
endloop
endfacet
facet normal 0.0 -1.0 0.0
outer loop
vertex -0.014898143441558181 -0.05000000000000001 -0.0988839993224119
vertex 0.014898143441558147 -0.05000000000000001 -0.09888399932241192
vertex 0.01982064416542441 -0.05000000000000001 -0.09801602963223734
endloop
endfacet
facet normal 0.0 -0.9999999999999999 0.0
outer loop
vertex 0.01982064416542441 -0.05000000000000001 -0.09801602963223734
vertex 0.04781999507630886 -0.05000000000000001 -0.08782509932190113
vertex 0.05214876956450344 -0.05000000000000001 -0.0853258802058808
endloop
endfacet
facet normal 0.0 -1.0 0.0
outer loop
vertex 0.05214876956450344 -0.05000000000000001 -0.0853258802058808
vertex 0.0749740495568936 -0.05000000000000001 -0.06617319618274807
vertex 0.0781869837202328 -0.05000000000000001 -0.062344170350819884
endloop
endfacet
facet normal 1.260212219861781e-15 -0.9999999999999999 -4.586797368882219e-16
outer loop
vertex 0.0781869837202328 -0.05000000000000001 -0.062344170350819884
vertex 0.093085127161791 -0.05 -0.0365398289715921
vertex 0.09479469372231804 -0.05 -0.03184283344948935
endloop
endfacet
facet normal 0.0 -0.9999999999999999 0.0
outer loop
vertex 0.09479469372231804 -0.05 -0.03184283344948935
vertex 0.09996876464081228 -0.05 0.0024992191160203097
vertex 0.09308512716179103 -0.05 0.03653982897159202
endloop
endfacet
facet normal 3.6419517411794342e-16 -1.0 4.567439423688234e-16
outer loop
vertex 0.09308512716179103 -0.05 0.03653982897159202
vertex 0.07497404955689362 -0.049999999999999996 0.06617319618274804
vertex 0.04781999507630888 -0.049999999999999996 0.08782509932190112
endloop
endfacet
facet normal -0.0 -0.9999999999999999 0.0
outer loop
vertex 0.04781999507630888 -0.049999999999999996 0.08782509932190112
vertex 0.014898143441558213 -0.049999999999999996 0.0988839993224119
vertex -0.019820644165424423 -0.049999999999999996 0.09801602963223734
endloop
endfacet
facet normal 0.0 -0.9999999999999999 0.0
outer loop
vertex -0.019820644165424423 -0.049999999999999996 0.09801602963223734
vertex -0.05214876956450341 -0.049999999999999996 0.08532588020588082
vertex -0.07818698372023282 -0.049999999999999996 0.06234417035081988
endloop
endfacet
facet normal 5.776494441750267e-16 -0.9999999999999999 -8.703030153742362e-17
outer loop
vertex -0.07818698372023282 -0.049999999999999996 0.06234417035081988
vertex -0.09479469372231807 -0.05 0.031842833449489294
vertex -0.09996876464081228 -0.05 -0.0024992191160203075
endloop
endfacet
facet normal -5.725790362978613e-16 -1.0 -1.157860135492463e-16
outer loop
vertex -0.09996876464081228 -0.05 -0.0024992191160203075
vertex -0.09308512716179101 -0.05 -0.03653982897159203
vertex -0.07497404955689362 -0.05000000000000001 -0.06617319618274804
endloop
endfacet
facet normal 0.0 -1.0 0.0
outer loop
vertex -0.07497404955689362 -0.05000000000000001 -0.06617319618274804
vertex -0.047819995076308894 -0.05000000000000001 -0.0878250993219011
vertex -0.014898143441558181 -0.05000000000000001 -0.0988839993224119
endloop
endfacet
facet normal 0.0 -0.9999999999999999 0.0
outer loop
vertex -0.014898143441558181 -0.05000000000000001 -0.0988839993224119
vertex 0.01982064416542441 -0.05000000000000001 -0.09801602963223734
vertex 0.05214876956450344 -0.05000000000000001 -0.0853258802058808
endloop
endfacet
facet normal -3.8656314728550876e-16 -1.0 4.3797498433373847e-16
outer loop
vertex 0.05214876956450344 -0.05000000000000001 -0.0853258802058808
vertex 0.0781869837202328 -0.05000000000000001 -0.062344170350819884
vertex 0.09479469372231804 -0.05 -0.03184283344948935
endloop
endfacet
facet normal -1.5776308692818072e-16 -1.0 -3.9440771732044606e-18
outer loop
vertex 0.09479469372231804 -0.05 -0.03184283344948935
vertex 0.09308512716179103 -0.05 0.03653982897159202
vertex 0.04781999507630888 -0.049999999999999996 0.08782509932190112
endloop
endfacet
facet normal -0.0 -1.0 0.0
outer loop
vertex 0.04781999507630888 -0.049999999999999996 0.08782509932190112
vertex -0.019820644165424423 -0.049999999999999996 0.09801602963223734
vertex -0.07818698372023282 -0.049999999999999996 0.06234417035081988
endloop
endfacet
facet normal -2.6979076801337803e-18 -1.0 1.0791630720535262e-16
outer loop
vertex -0.07818698372023282 -0.049999999999999996 0.06234417035081988
vertex -0.09996876464081228 -0.05 -0.0024992191160203075
vertex -0.07497404955689362 -0.05000000000000001 -0.06617319618274804
endloop
endfacet
facet normal 0.0 -1.0 0.0
outer loop
vertex -0.07497404955689362 -0.05000000000000001 -0.06617319618274804
vertex -0.014898143441558181 -0.05000000000000001 -0.0988839993224119
vertex 0.05214876956450344 -0.05000000000000001 -0.0853258802058808
endloop
endfacet
facet normal 6.030304855445937e-17 -1.0 8.165605614543345e-17
outer loop
vertex 0.05214876956450344 -0.05000000000000001 -0.0853258802058808
vertex 0.09479469372231804 -0.05 -0.03184283344948935
vertex 0.04781999507630888 -0.049999999999999996 0.08782509932190112
endloop
endfacet
facet normal -2.17264642988608e-17 -1.0 1.0744059328988443e-16
outer loop
vertex 0.04781999507630888 -0.049999999999999996 0.08782509932190112
vertex -0.07818698372023282 -0.049999999999999996 0.06234417035081988
vertex -0.07497404955689362 -0.05000000000000001 -0.06617319618274804
endloop
endfacet
facet normal 1.2121051819030878e-17 -1.0 8.045150622704774e-17
outer loop
vertex -0.07497404955689362 -0.05000000000000001 -0.06617319618274804
vertex 0.05214876956450344 -0.05000000000000001 -0.0853258802058808
vertex 0.04781999507630888 -0.049999999999999996 0.08782509932190112
endloop
endfacet
facet normal -7.784524531293979e-05 -6.071566077049133e-17 -0.999999996970059
outer loop
vertex 0.11 -0.05 -0.0024999999999999974
vertex 0.09996876464081228 -0.05 -0.0024992191160203036
vertex 0.11 0.05 -0.0025000000000000035
endloop
endfacet
facet normal -7.784524531293979e-05 -6.07153214752244e-17 -0.999999996970059
outer loop
vertex 0.11 0.05 -0.0025000000000000035
vertex 0.09996876464081228 -0.05 -0.0024992191160203036
vertex 0.09996876464081228 0.05 -0.0024992191160203097
endloop
endfacet
facet normal 1.0 -0.0 0.0
outer loop
vertex 0.11 -0.05 0.0025000000000000035
vertex 0.11 -0.05 -0.0024999999999999974
vertex 0.11 0.05 0.0024999999999999974
endloop
endfacet
facet normal 1.0 0.0 0.0
outer loop
vertex 0.11 0.05 0.0024999999999999974
vertex 0.11 -0.05 -0.0024999999999999974
vertex 0.11 0.05 -0.0025000000000000035
endloop
endfacet
facet normal -7.784524531293979e-05 6.071566077049133e-17 0.999999996970059
outer loop
vertex 0.09996876464081228 -0.05 0.0024992191160203097
vertex 0.11 -0.05 0.0025000000000000035
vertex 0.09996876464081228 0.05 0.0024992191160203036
endloop
endfacet
facet normal -7.784524531293979e-05 6.07153214752244e-17 0.999999996970059
outer loop
vertex 0.09996876464081228 0.05 0.0024992191160203036
vertex 0.11 -0.05 0.0025000000000000035
vertex 0.11 0.05 0.0024999999999999974
endloop
endfacet
facet normal 0.9848077530122082 0.0 0.1736481776669301
outer loop
vertex 0.09479469372231807 -0.05 0.031842833449489294
vertex 0.09996876464081228 -0.05 0.0024992191160203097
vertex 0.09479469372231807 0.05 0.031842833449489294
endloop
endfacet
facet normal 0.984807753012208 1.0543104962579526e-17 0.17364817766693003
outer loop
vertex 0.09479469372231807 0.05 0.031842833449489294
vertex 0.09996876464081228 -0.05 0.0024992191160203097
vertex 0.09996876464081228 0.05 0.0024992191160203036
endloop
endfacet
facet normal 0.3419469916867847 0.0 -0.939719242580654
outer loop
vertex 0.1042212386447641 -0.05 0.03527298421385879
vertex 0.09479469372231807 -0.05 0.031842833449489294
vertex 0.1042212386447641 0.05 0.03527298421385879
endloop
endfacet
facet normal 0.3419469916867847 0.0 -0.939719242580654
outer loop
vertex 0.1042212386447641 0.05 0.03527298421385879
vertex 0.09479469372231807 -0.05 0.031842833449489294
vertex 0.09479469372231807 0.05 0.031842833449489294
endloop
endfacet
facet normal 0.9396926207859083 0.0 0.34202014332566943
outer loop
vertex 0.10251113792813575 -0.05 0.03997144731778833
vertex 0.1042212386447641 -0.05 0.03527298421385879
vertex 0.10251113792813575 0.05 0.03997144731778833
endloop
endfacet
facet normal 0.9396926207859083 -0.0 0.34202014332566943
outer loop
vertex 0.10251113792813575 0.05 0.03997144731778833
vertex 0.1042212386447641 -0.05 0.03527298421385879
vertex 0.1042212386447641 0.05 0.03527298421385879
endloop
endfacet
facet normal -0.3420932928919521 0.0 0.9396659932967356
outer loop
vertex 0.09308512716179103 -0.05 0.03653982897159202
vertex 0.10251113792813575 -0.05 0.03997144731778833
vertex 0.09308512716179103 0.05 0.03653982897159202
endloop
endfacet
facet normal -0.3420932928919521 0.0 0.9396659932967356
outer loop
vertex 0.09308512716179103 0.05 0.03653982897159202
vertex 0.10251113792813575 -0.05 0.03997144731778833
vertex 0.10251113792813575 0.05 0.03997144731778833
endloop
endfacet
facet normal 0.8660254037844387 0.0 0.4999999999999998
outer loop
vertex 0.07818698372023283 -0.049999999999999996 0.06234417035081988
vertex 0.09308512716179103 -0.05 0.03653982897159202
vertex 0.07818698372023283 0.05000000000000001 0.06234417035081988
endloop
endfacet
facet normal 0.8660254037844387 -0.0 0.4999999999999998
outer loop
vertex 0.07818698372023283 0.05000000000000001 0.06234417035081988
vertex 0.09308512716179103 -0.05 0.03653982897159202
vertex 0.09308512716179103 0.05 0.03653982897159202
endloop
endfacet
facet normal 0.6427279748213356 0.0 -0.7660944787570684
outer loop
vertex 0.08587185776730394 -0.049999999999999996 0.06879152595772188
vertex 0.07818698372023283 -0.049999999999999996 0.06234417035081988
vertex 0.08587185776730394 0.05000000000000001 0.06879152595772188
endloop
endfacet
facet normal 0.6427279748213356 0.0 -0.7660944787570684
outer loop
vertex 0.08587185776730394 0.05000000000000001 0.06879152595772188
vertex 0.07818698372023283 -0.049999999999999996 0.06234417035081988
vertex 0.07818698372023283 0.05000000000000001 0.06234417035081988
endloop
endfacet
facet normal 0.7660444431189795 0.0 0.6427876096865376
outer loop
vertex 0.08265791971887125 -0.049999999999999996 0.07262174817331678
vertex 0.08587185776730394 -0.049999999999999996 0.06879152595772188
vertex 0.08265791971887125 0.05000000000000001 0.07262174817331678
endloop
endfacet
facet normal 0.7660444431189795 -0.0 0.6427876096865376
outer loop
vertex 0.08265791971887125 0.05000000000000001 0.07262174817331678
vertex 0.08587185776730394 -0.049999999999999996 0.06879152595772188
vertex 0.08587185776730394 0.05000000000000001 0.06879152595772188
endloop
endfacet
facet normal -0.6428472406565247 0.0 0.7659944028387492
outer loop
vertex 0.07497404955689362 -0.049999999999999996 0.06617319618274804
vertex 0.08265791971887125 -0.049999999999999996 0.07262174817331678
vertex 0.07497404955689362 0.05000000000000001 0.06617319618274804
endloop
endfacet
facet normal -0.6428472406565247 0.0 0.7659944028387492
outer loop
vertex 0.07497404955689362 0.05000000000000001 0.06617319618274804
vertex 0.08265791971887125 -0.049999999999999996 0.07262174817331678
vertex 0.08265791971887125 0.05000000000000001 0.07262174817331678
endloop
endfacet
facet normal 0.6427876096865396 0.0 0.7660444431189778
outer loop
vertex 0.05214876956450342 -0.049999999999999996 0.08532588020588082
vertex 0.07497404955689362 -0.049999999999999996 0.06617319618274804
vertex 0.05214876956450342 0.05000000000000001 0.08532588020588082
endloop
endfacet
facet normal 0.6427876096865396 -0.0 0.7660444431189778
outer loop
vertex 0.05214876956450342 0.05000000000000001 0.08532588020588082
vertex 0.07497404955689362 -0.049999999999999996 0.06617319618274804
vertex 0.07497404955689362 0.05000000000000001 0.06617319618274804
endloop
endfacet
facet normal 0.8659864785377758 0.0 -0.5000674144450353
outer loop
vertex 0.057165063509461114 -0.049999999999999996 0.09401279441628825
vertex 0.05214876956450342 -0.049999999999999996 0.08532588020588082
vertex 0.057165063509461114 0.05000000000000001 0.09401279441628825
endloop
endfacet
facet normal 0.8659864785377758 0.0 -0.5000674144450353
outer loop
vertex 0.057165063509461114 0.05000000000000001 0.09401279441628825
vertex 0.05214876956450342 -0.049999999999999996 0.08532588020588082
vertex 0.05214876956450342 0.05000000000000001 0.08532588020588082
endloop
endfacet
facet normal 0.49999999999999967 0.0 0.8660254037844387
outer loop
vertex 0.052834936490538914 -0.049999999999999996 0.09651279441628825
vertex 0.057165063509461114 -0.049999999999999996 0.09401279441628825
vertex 0.052834936490538914 0.05000000000000001 0.09651279441628825
endloop
endfacet
facet normal 0.49999999999999967 -0.0 0.8660254037844387
outer loop
vertex 0.052834936490538914 0.05000000000000001 0.09651279441628825
vertex 0.057165063509461114 -0.049999999999999996 0.09401279441628825
vertex 0.057165063509461114 0.05000000000000001 0.09401279441628825
endloop
endfacet
facet normal -0.8660643237830894 0.0 0.49993258252502437
outer loop
vertex 0.04781999507630888 -0.049999999999999996 0.08782509932190112
vertex 0.052834936490538914 -0.049999999999999996 0.09651279441628825
vertex 0.04781999507630888 0.05000000000000001 0.08782509932190112
endloop
endfacet
facet normal -0.8660643237830894 0.0 0.49993258252502437
outer loop
vertex 0.04781999507630888 0.05000000000000001 0.08782509932190112
vertex 0.052834936490538914 -0.049999999999999996 0.09651279441628825
vertex 0.052834936490538914 0.05000000000000001 0.09651279441628825
endloop
endfacet
facet normal 0.34202014332566866 0.0 0.9396926207859084
outer loop
vertex 0.019820644165424433 -0.049999999999999996 0.09801602963223734
vertex 0.04781999507630888 -0.049999999999999996 0.08782509932190112
vertex 0.019820644165424433 0.05000000000000001 0.09801602963223734
endloop
endfacet
facet normal 0.34202014332566866 -0.0 0.9396926207859084
outer loop
vertex 0.019820644165424433 0.05000000000000001 0.09801602963223734
vertex 0.04781999507630888 -0.049999999999999996 0.08782509932190112
vertex 0.04781999507630888 0.05000000000000001 0.08782509932190112
endloop
endfacet
facet normal 0.9847942323433099 0.0 -0.17372483974190647
outer loop
vertex 0.021563318925892867 -0.049999999999999996 0.10789473238717556
vertex 0.019820644165424433 -0.049999999999999996 0.09801602963223734
vertex 0.021563318925892867 0.05000000000000001 0.10789473238717556
endloop
endfacet
facet normal 0.9847942323433099 0.0 -0.17372483974190647
outer loop
vertex 0.021563318925892867 0.05000000000000001 0.10789473238717556
vertex 0.019820644165424433 -0.049999999999999996 0.09801602963223734
vertex 0.019820644165424433 0.05000000000000001 0.09801602963223734
endloop
endfacet
facet normal 0.17364817766692967 0.0 0.9848077530122082
outer loop
vertex 0.016639280160831826 -0.049999999999999996 0.10876297327551021
vertex 0.021563318925892867 -0.049999999999999996 0.10789473238717556
vertex 0.016639280160831826 0.05000000000000001 0.10876297327551021
endloop
endfacet
facet normal 0.17364817766692967 -0.0 0.9848077530122082
outer loop
vertex 0.016639280160831826 0.05000000000000001 0.10876297327551021
vertex 0.021563318925892867 -0.049999999999999996 0.10789473238717556
vertex 0.021563318925892867 0.05000000000000001 0.10789473238717556
endloop
endfacet
facet normal -0.9848212677132874 0.0 0.173571514539667
outer loop
vertex 0.014898143441558213 -0.049999999999999996 0.0988839993224119
vertex 0.016639280160831826 -0.049999999999999996 0.10876297327551021
vertex 0.014898143441558213 0.05000000000000001 0.0988839993224119
endloop
endfacet
facet normal -0.9848212677132874 0.0 0.173571514539667
outer loop
vertex 0.014898143441558213 0.05000000000000001 0.0988839993224119
vertex 0.016639280160831826 -0.049999999999999996 0.10876297327551021
vertex 0.016639280160831826 0.05000000000000001 0.10876297327551021
endloop
endfacet
facet normal 0.0 -0.0 1.0
outer loop
vertex -0.014898143441558202 -0.049999999999999996 0.0988839993224119
vertex 0.014898143441558213 -0.049999999999999996 0.0988839993224119
vertex -0.014898143441558202 0.05000000000000001 0.0988839993224119
endloop
endfacet
facet normal -0.0 0.0 1.0
outer loop
vertex -0.014898143441558202 0.05000000000000001 0.0988839993224119
vertex 0.014898143441558213 -0.049999999999999996 0.0988839993224119
vertex 0.014898143441558213 0.05000000000000001 0.0988839993224119
endloop
endfacet
facet normal 0.9848212677132874 0.0 0.173571514539667
outer loop
vertex -0.016639280160831816 -0.049999999999999996 0.10876297327551021
vertex -0.014898143441558202 -0.049999999999999996 0.0988839993224119
vertex -0.016639280160831816 0.05000000000000001 0.10876297327551021
endloop
endfacet
facet normal 0.9848212677132874 -0.0 0.173571514539667
outer loop
vertex -0.016639280160831816 0.05000000000000001 0.10876297327551021
vertex -0.014898143441558202 -0.049999999999999996 0.0988839993224119
vertex -0.014898143441558202 0.05000000000000001 0.0988839993224119
endloop
endfacet
facet normal -0.17364817766692706 0.0 0.9848077530122086
outer loop
vertex -0.021563318925892853 -0.049999999999999996 0.10789473238717558
vertex -0.016639280160831816 -0.049999999999999996 0.10876297327551021
vertex -0.021563318925892853 0.05000000000000001 0.10789473238717558
endloop
endfacet
facet normal -0.17364817766692706 0.0 0.9848077530122086
outer loop
vertex -0.021563318925892853 0.05000000000000001 0.10789473238717558
vertex -0.016639280160831816 -0.049999999999999996 0.10876297327551021
vertex -0.016639280160831816 0.05000000000000001 0.10876297327551021
endloop
endfacet
facet normal -0.98479423234331 0.0 -0.1737248397419059
outer loop
vertex -0.019820644165424423 -0.049999999999999996 0.09801602963223734
vertex -0.021563318925892853 -0.049999999999999996 0.10789473238717558
vertex -0.019820644165424423 0.05000000000000001 0.09801602963223734
endloop
endfacet
facet normal -0.98479423234331 0.0 -0.1737248397419059
outer loop
vertex -0.019820644165424423 0.05000000000000001 0.09801602963223734
vertex -0.021563318925892853 -0.049999999999999996 0.10789473238717558
vertex -0.021563318925892853 0.05000000000000001 0.10789473238717558
endloop
endfacet
facet normal -0.3420201433256686 0.0 0.9396926207859082
outer loop
vertex -0.04781999507630883 -0.049999999999999996 0.08782509932190113
vertex -0.019820644165424423 -0.049999999999999996 0.09801602963223734
vertex -0.04781999507630883 0.05000000000000001 0.08782509932190113
endloop
endfacet
facet normal -0.3420201433256686 0.0 0.9396926207859082
outer loop
vertex -0.04781999507630883 0.05000000000000001 0.08782509932190113
vertex -0.019820644165424423 -0.049999999999999996 0.09801602963223734
vertex -0.019820644165424423 0.05000000000000001 0.09801602963223734
endloop
endfacet
facet normal 0.8660643237830885 0.0 0.49993258252502587
outer loop
vertex -0.052834936490538886 -0.049999999999999996 0.09651279441628827
vertex -0.04781999507630883 -0.049999999999999996 0.08782509932190113
vertex -0.052834936490538886 0.05000000000000001 0.09651279441628827
endloop
endfacet
facet normal 0.8660643237830885 -0.0 0.49993258252502587
outer loop
vertex -0.052834936490538886 0.05000000000000001 0.09651279441628827
vertex -0.04781999507630883 -0.049999999999999996 0.08782509932190113
vertex -0.04781999507630883 0.05000000000000001 0.08782509932190113
endloop
endfacet
facet normal -0.49999999999999883 0.0 0.8660254037844392
outer loop
vertex -0.05716506350946107 -0.049999999999999996 0.09401279441628828
vertex -0.052834936490538886 -0.049999999999999996 0.09651279441628827
vertex -0.05716506350946107 0.05000000000000001 0.09401279441628828
endloop
endfacet
facet normal -0.49999999999999883 0.0 0.8660254037844392
outer loop
vertex -0.05716506350946107 0.05000000000000001 0.09401279441628828
vertex -0.052834936490538886 -0.049999999999999996 0.09651279441628827
vertex -0.052834936490538886 0.05000000000000001 0.09651279441628827
endloop
endfacet
facet normal -0.8659864785377774 0.0 -0.500067414445032
outer loop
vertex -0.05214876956450341 -0.049999999999999996 0.08532588020588082
vertex -0.05716506350946107 -0.049999999999999996 0.09401279441628828
vertex -0.05214876956450341 0.05000000000000001 0.08532588020588082
endloop
endfacet
facet normal -0.8659864785377774 0.0 -0.500067414445032
outer loop
vertex -0.05214876956450341 0.05000000000000001 0.08532588020588082
vertex -0.05716506350946107 -0.049999999999999996 0.09401279441628828
vertex -0.05716506350946107 0.05000000000000001 0.09401279441628828
endloop
endfacet
facet normal -0.642787609686539 0.0 0.7660444431189782
outer loop
vertex -0.0749740495568936 -0.049999999999999996 0.06617319618274807
vertex -0.05214876956450341 -0.049999999999999996 0.08532588020588082
vertex -0.0749740495568936 0.05000000000000001 0.06617319618274807
endloop
endfacet
facet normal -0.642787609686539 0.0 0.7660444431189782
outer loop
vertex -0.0749740495568936 0.05000000000000001 0.06617319618274807
vertex -0.05214876956450341 -0.049999999999999996 0.08532588020588082
vertex -0.05214876956450341 0.05000000000000001 0.08532588020588082
endloop
endfacet
facet normal 0.6428472406565247 0.0 0.7659944028387494
outer loop
vertex -0.08265791971887122 -0.049999999999999996 0.07262174817331679
vertex -0.0749740495568936 -0.049999999999999996 0.06617319618274807
vertex -0.08265791971887122 0.05000000000000001 0.07262174817331679
endloop
endfacet
facet normal 0.6428472406565247 -0.0 0.7659944028387494
outer loop
vertex -0.08265791971887122 0.05000000000000001 0.07262174817331679
vertex -0.0749740495568936 -0.049999999999999996 0.06617319618274807
vertex -0.0749740495568936 0.05000000000000001 0.06617319618274807
endloop
endfacet
facet normal -0.7660444431189781 0.0 0.6427876096865394
outer loop
vertex -0.08587185776730392 -0.049999999999999996 0.0687915259577219
vertex -0.08265791971887122 -0.049999999999999996 0.07262174817331679
vertex -0.08587185776730392 0.05000000000000001 0.0687915259577219
endloop
endfacet
facet normal -0.7660444431189781 0.0 0.6427876096865394
outer loop
vertex -0.08587185776730392 0.05000000000000001 0.0687915259577219
vertex -0.08265791971887122 -0.049999999999999996 0.07262174817331679
vertex -0.08265791971887122 0.05000000000000001 0.07262174817331679
endloop
endfacet
facet normal -0.6427279748213365 0.0 -0.7660944787570679
outer loop
vertex -0.07818698372023282 -0.049999999999999996 0.06234417035081988
vertex -0.08587185776730392 -0.049999999999999996 0.0687915259577219
vertex -0.07818698372023282 0.05000000000000001 0.06234417035081988
endloop
endfacet
facet normal -0.6427279748213365 0.0 -0.7660944787570679
outer loop
vertex -0.07818698372023282 0.05000000000000001 0.06234417035081988
vertex -0.08587185776730392 -0.049999999999999996 0.0687915259577219
vertex -0.08587185776730392 0.05000000000000001 0.0687915259577219
endloop
endfacet
facet normal -0.8660254037844384 0.0 0.5000000000000002
outer loop
vertex -0.09308512716179101 -0.05 0.03653982897159205
vertex -0.07818698372023282 -0.049999999999999996 0.06234417035081988
vertex -0.09308512716179101 0.05 0.03653982897159205
endloop
endfacet
facet normal -0.8660254037844384 0.0 0.5000000000000002
outer loop
vertex -0.09308512716179101 0.05 0.03653982897159205
vertex -0.07818698372023282 -0.049999999999999996 0.06234417035081988
vertex -0.07818698372023282 0.05000000000000001 0.06234417035081988
endloop
endfacet
facet normal 0.34209329289194984 0.0 0.9396659932967366
outer loop
vertex -0.10251113792813575 -0.05 0.039971447317788344
vertex -0.09308512716179101 -0.05 0.03653982897159205
vertex -0.10251113792813575 0.05 0.039971447317788344
endloop
endfacet
facet normal 0.34209329289194984 -0.0 0.9396659932967366
outer loop
vertex -0.10251113792813575 0.05 0.039971447317788344
vertex -0.09308512716179101 -0.05 0.03653982897159205
vertex -0.09308512716179101 0.05 0.03653982897159205
endloop
endfacet
facet normal -0.939692620785908 0.0 0.3420201433256698
outer loop
vertex -0.1042212386447641 -0.05 0.03527298421385881
vertex -0.10251113792813575 -0.05 0.039971447317788344
vertex -0.1042212386447641 0.05 0.03527298421385881
endloop
endfacet
facet normal -0.939692620785908 0.0 0.3420201433256698
outer loop
vertex -0.1042212386447641 0.05 0.03527298421385881
vertex -0.10251113792813575 -0.05 0.039971447317788344
vertex -0.10251113792813575 0.05 0.039971447317788344
endloop
endfacet
facet normal -0.3419469916867866 0.0 -0.9397192425806533
outer loop
vertex -0.09479469372231807 -0.05 0.031842833449489294
vertex -0.1042212386447641 -0.05 0.03527298421385881
vertex -0.09479469372231807 0.05 0.031842833449489294
endloop
endfacet
facet normal -0.3419469916867866 0.0 -0.9397192425806533
outer loop
vertex -0.09479469372231807 0.05 0.031842833449489294
vertex -0.1042212386447641 -0.05 0.03527298421385881
vertex -0.1042212386447641 0.05 0.03527298421385881
endloop
endfacet
facet normal -0.984807753012208 9.096789280645669e-18 0.17364817766693025
outer loop
vertex -0.09996876464081228 -0.05 0.0024992191160203383
vertex -0.09479469372231807 -0.05 0.031842833449489294
vertex -0.09996876464081228 0.05 0.0024992191160203322
endloop
endfacet
facet normal -0.9848077530122079 0.0 0.1736481776669302
outer loop
vertex -0.09996876464081228 0.05 0.0024992191160203322
vertex -0.09479469372231807 -0.05 0.031842833449489294
vertex -0.09479469372231807 0.05 0.031842833449489294
endloop
endfacet
facet normal 7.784524531134015e-05 6.071566077049133e-17 0.999999996970059
outer loop
vertex -0.11 -0.05 0.002500000000000016
vertex -0.09996876464081228 -0.05 0.0024992191160203383
vertex -0.11 0.05 0.00250000000000001
endloop
endfacet
facet normal 7.784524531134015e-05 6.07153214752244e-17 0.999999996970059
outer loop
vertex -0.11 0.05 0.00250000000000001
vertex -0.09996876464081228 -0.05 0.0024992191160203383
vertex -0.09996876464081228 0.05 0.0024992191160203322
endloop
endfacet
facet normal -1.0 0.0 0.0
outer loop
vertex -0.11 -0.05 -0.002499999999999983
vertex -0.11 -0.05 0.002500000000000016
vertex -0.11 0.05 -0.002499999999999989
endloop
endfacet
facet normal -1.0 0.0 0.0
outer loop
vertex -0.11 0.05 -0.002499999999999989
vertex -0.11 -0.05 0.002500000000000016
vertex -0.11 0.05 0.00250000000000001
endloop
endfacet
facet normal 7.784524531112399e-05 -6.071401156063745e-17 -0.999999996970059
outer loop
vertex -0.09996876464081228 -0.05 -0.0024992191160203075
vertex -0.11 -0.05 -0.002499999999999983
vertex -0.09996876464081228 0.05 -0.0024992191160203136
endloop
endfacet
facet normal 7.784524531112399e-05 -6.07153214752244e-17 -0.999999996970059
outer loop
vertex -0.09996876464081228 0.05 -0.0024992191160203136
vertex -0.11 -0.05 -0.002499999999999983
vertex -0.11 0.05 -0.002499999999999989
endloop
endfacet
facet normal -0.9848077530122079 0.0 -0.1736481776669302
outer loop
vertex -0.09479469372231807 -0.05 -0.03184283344948927
vertex -0.09996876464081228 -0.05 -0.0024992191160203075
vertex -0.09479469372231807 0.05 -0.03184283344948927
endloop
endfacet
facet normal -0.9848077530122081 -1.0543104962579538e-17 -0.17364817766693025
outer loop
vertex -0.09479469372231807 0.05 -0.03184283344948927
vertex -0.09996876464081228 -0.05 -0.0024992191160203075
vertex -0.09996876464081228 0.05 -0.0024992191160203136
endloop
endfacet
facet normal -0.34194699168678533 0.0 0.9397192425806538
outer loop
vertex -0.1042212386447641 -0.05 -0.03527298421385878
vertex -0.09479469372231807 -0.05 -0.03184283344948927
vertex -0.1042212386447641 0.05 -0.03527298421385878
endloop
endfacet
facet normal -0.34194699168678533 0.0 0.9397192425806538
outer loop
vertex -0.1042212386447641 0.05 -0.03527298421385878
vertex -0.09479469372231807 -0.05 -0.03184283344948927
vertex -0.09479469372231807 0.05 -0.03184283344948927
endloop
endfacet
facet normal -0.9396926207859093 0.0 -0.34202014332566655
outer loop
vertex -0.10251113792813576 -0.05 -0.039971447317788324
vertex -0.1042212386447641 -0.05 -0.03527298421385878
vertex -0.10251113792813576 0.05 -0.039971447317788324
endloop
endfacet
facet normal -0.9396926207859093 0.0 -0.34202014332566655
outer loop
vertex -0.10251113792813576 0.05 -0.039971447317788324
vertex -0.1042212386447641 -0.05 -0.03527298421385878
vertex -0.1042212386447641 0.05 -0.03527298421385878
endloop
endfacet
facet normal 0.3420932928919494 0.0 -0.9396659932967368
outer loop
vertex -0.09308512716179101 -0.05 -0.03653982897159203
vertex -0.10251113792813576 -0.05 -0.039971447317788324
vertex -0.09308512716179101 0.05 -0.03653982897159203
endloop
endfacet
facet normal 0.3420932928919494 0.0 -0.9396659932967368
outer loop
vertex -0.09308512716179101 0.05 -0.03653982897159203
vertex -0.10251113792813576 -0.05 -0.039971447317788324
vertex -0.10251113792813576 0.05 -0.039971447317788324
endloop
endfacet
facet normal -0.8660254037844389 0.0 -0.4999999999999995
outer loop
vertex -0.07818698372023285 -0.05000000000000001 -0.062344170350819864
vertex -0.09308512716179101 -0.05 -0.03653982897159203
vertex -0.07818698372023285 0.049999999999999996 -0.062344170350819864
endloop
endfacet
facet normal -0.8660254037844389 0.0 -0.4999999999999995
outer loop
vertex -0.07818698372023285 0.049999999999999996 -0.062344170350819864
vertex -0.09308512716179101 -0.05 -0.03653982897159203
vertex -0.09308512716179101 0.05 -0.03653982897159203
endloop
endfacet
facet normal -0.6427279748213371 0.0 0.7660944787570672
outer loop
vertex -0.08587185776730394 -0.05000000000000001 -0.06879152595772188
vertex -0.07818698372023285 -0.05000000000000001 -0.062344170350819864
vertex -0.08587185776730394 0.049999999999999996 -0.06879152595772188
endloop
endfacet
facet normal -0.6427279748213371 0.0 0.7660944787570672
outer loop
vertex -0.08587185776730394 0.049999999999999996 -0.06879152595772188
vertex -0.07818698372023285 -0.05000000000000001 -0.062344170350819864
vertex -0.07818698372023285 0.049999999999999996 -0.062344170350819864
endloop
endfacet
facet normal -0.7660444431189795 0.0 -0.6427876096865376
outer loop
vertex -0.08265791971887125 -0.05000000000000001 -0.07262174817331678
vertex -0.08587185776730394 -0.05000000000000001 -0.06879152595772188
vertex -0.08265791971887125 0.049999999999999996 -0.07262174817331678
endloop
endfacet
facet normal -0.7660444431189795 0.0 -0.6427876096865376
outer loop
vertex -0.08265791971887125 0.049999999999999996 -0.07262174817331678
vertex -0.08587185776730394 -0.05000000000000001 -0.06879152595772188
vertex -0.08587185776730394 0.049999999999999996 -0.06879152595772188
endloop
endfacet
facet normal 0.6428472406565247 0.0 -0.7659944028387492
outer loop
vertex -0.07497404955689362 -0.05000000000000001 -0.06617319618274804
vertex -0.08265791971887125 -0.05000000000000001 -0.07262174817331678
vertex -0.07497404955689362 0.049999999999999996 -0.06617319618274804
endloop
endfacet
facet normal 0.6428472406565247 0.0 -0.7659944028387492
outer loop
vertex -0.07497404955689362 0.049999999999999996 -0.06617319618274804
vertex -0.08265791971887125 -0.05000000000000001 -0.07262174817331678
vertex -0.08265791971887125 0.049999999999999996 -0.07262174817331678
endloop
endfacet
facet normal -0.6427876096865396 0.0 -0.7660444431189779
outer loop
vertex -0.05214876956450346 -0.05000000000000001 -0.08532588020588078
vertex -0.07497404955689362 -0.05000000000000001 -0.06617319618274804
vertex -0.05214876956450346 0.049999999999999996 -0.08532588020588078
endloop
endfacet
facet normal -0.6427876096865396 0.0 -0.7660444431189779
outer loop
vertex -0.05214876956450346 0.049999999999999996 -0.08532588020588078
vertex -0.07497404955689362 -0.05000000000000001 -0.06617319618274804
vertex -0.07497404955689362 0.049999999999999996 -0.06617319618274804
endloop
endfacet
facet normal -0.865986478537777 0.0 0.5000674144450331
outer loop
vertex -0.057165063509461135 -0.05000000000000001 -0.09401279441628822
vertex -0.05214876956450346 -0.05000000000000001 -0.08532588020588078
vertex -0.057165063509461135 0.049999999999999996 -0.09401279441628822
endloop
endfacet
facet normal -0.865986478537777 0.0 0.5000674144450331
outer loop
vertex -0.057165063509461135 0.049999999999999996 -0.09401279441628822
vertex -0.05214876956450346 -0.05000000000000001 -0.08532588020588078
vertex -0.05214876956450346 0.049999999999999996 -0.08532588020588078
endloop
endfacet
facet normal -0.500000000000001 0.0 -0.8660254037844382
outer loop
vertex -0.05283493649053895 -0.05000000000000001 -0.09651279441628823
vertex -0.057165063509461135 -0.05000000000000001 -0.09401279441628822
vertex -0.05283493649053895 0.049999999999999996 -0.09651279441628823
endloop
endfacet
facet normal -0.500000000000001 0.0 -0.8660254037844382
outer loop
vertex -0.05283493649053895 0.049999999999999996 -0.09651279441628823
vertex -0.057165063509461135 -0.05000000000000001 -0.09401279441628822
vertex -0.057165063509461135 0.049999999999999996 -0.09401279441628822
endloop
endfacet
facet normal 0.866064323783088 0.0 -0.4999325825250264
outer loop
vertex -0.047819995076308894 -0.05000000000000001 -0.0878250993219011
vertex -0.05283493649053895 -0.05000000000000001 -0.09651279441628823
vertex -0.047819995076308894 0.049999999999999996 -0.0878250993219011
endloop
endfacet
facet normal 0.866064323783088 0.0 -0.4999325825250264
outer loop
vertex -0.047819995076308894 0.049999999999999996 -0.0878250993219011
vertex -0.05283493649053895 -0.05000000000000001 -0.09651279441628823
vertex -0.05283493649053895 0.049999999999999996 -0.09651279441628823
endloop
endfacet
facet normal -0.34202014332566866 0.0 -0.9396926207859084
outer loop
vertex -0.019820644165424447 -0.05000000000000001 -0.09801602963223732
vertex -0.047819995076308894 -0.05000000000000001 -0.0878250993219011
vertex -0.019820644165424447 0.049999999999999996 -0.09801602963223732
endloop
endfacet
facet normal -0.34202014332566866 0.0 -0.9396926207859084
outer loop
vertex -0.019820644165424447 0.049999999999999996 -0.09801602963223732
vertex -0.047819995076308894 -0.05000000000000001 -0.0878250993219011
vertex -0.047819995076308894 0.049999999999999996 -0.0878250993219011
endloop
endfacet
facet normal -0.9847942323433104 0.0 0.17372483974190364
outer loop
vertex -0.021563318925892857 -0.05000000000000001 -0.10789473238717558
vertex -0.019820644165424447 -0.05000000000000001 -0.09801602963223732
vertex -0.021563318925892857 0.049999999999999996 -0.10789473238717558
endloop
endfacet
facet normal -0.9847942323433104 0.0 0.17372483974190364
outer loop
vertex -0.021563318925892857 0.049999999999999996 -0.10789473238717558
vertex -0.019820644165424447 -0.05000000000000001 -0.09801602963223732
vertex -0.019820644165424447 0.049999999999999996 -0.09801602963223732
endloop
endfacet
facet normal -0.17364817766692706 0.0 -0.9848077530122086
outer loop
vertex -0.01663928016083182 -0.05000000000000001 -0.10876297327551021
vertex -0.021563318925892857 -0.05000000000000001 -0.10789473238717558
vertex -0.01663928016083182 0.049999999999999996 -0.10876297327551021
endloop
endfacet
facet normal -0.17364817766692706 0.0 -0.9848077530122086
outer loop
vertex -0.01663928016083182 0.049999999999999996 -0.10876297327551021
vertex -0.021563318925892857 -0.05000000000000001 -0.10789473238717558
vertex -0.021563318925892857 0.049999999999999996 -0.10789473238717558
endloop
endfacet
facet normal 0.9848212677132869 0.0 -0.17357151453966932
outer loop
vertex -0.014898143441558181 -0.05000000000000001 -0.0988839993224119
vertex -0.01663928016083182 -0.05000000000000001 -0.10876297327551021
vertex -0.014898143441558181 0.049999999999999996 -0.0988839993224119
endloop
endfacet
facet normal 0.9848212677132869 0.0 -0.17357151453966932
outer loop
vertex -0.014898143441558181 0.049999999999999996 -0.0988839993224119
vertex -0.01663928016083182 -0.05000000000000001 -0.10876297327551021
vertex -0.01663928016083182 0.049999999999999996 -0.10876297327551021
endloop
endfacet
facet normal -4.657556111690588e-16 0.0 -1.0
outer loop
vertex 0.014898143441558147 -0.05000000000000001 -0.09888399932241192
vertex -0.014898143441558181 -0.05000000000000001 -0.0988839993224119
vertex 0.014898143441558147 0.049999999999999996 -0.09888399932241192
endloop
endfacet
facet normal -4.657556111690588e-16 0.0 -1.0
outer loop
vertex 0.014898143441558147 0.049999999999999996 -0.09888399932241192
vertex -0.014898143441558181 -0.05000000000000001 -0.0988839993224119
vertex -0.014898143441558181 0.049999999999999996 -0.0988839993224119
endloop
endfacet
facet normal -0.9848212677132869 0.0 -0.17357151453966863
outer loop
vertex 0.016639280160831778 -0.05000000000000001 -0.10876297327551022
vertex 0.014898143441558147 -0.05000000000000001 -0.09888399932241192
vertex 0.016639280160831778 0.049999999999999996 -0.10876297327551022
endloop
endfacet
facet normal -0.9848212677132869 0.0 -0.17357151453966863
outer loop
vertex 0.016639280160831778 0.049999999999999996 -0.10876297327551022
vertex 0.014898143441558147 -0.05000000000000001 -0.09888399932241192
vertex 0.014898143441558147 0.049999999999999996 -0.09888399932241192
endloop
endfacet
facet normal 0.17364817766692967 0.0 -0.9848077530122082
outer loop
vertex 0.02156331892589282 -0.05000000000000001 -0.10789473238717558
vertex 0.016639280160831778 -0.05000000000000001 -0.10876297327551022
vertex 0.02156331892589282 0.049999999999999996 -0.10789473238717558
endloop
endfacet
facet normal 0.17364817766692967 0.0 -0.9848077530122082
outer loop
vertex 0.02156331892589282 0.049999999999999996 -0.10789473238717558
vertex 0.016639280160831778 -0.05000000000000001 -0.10876297327551022
vertex 0.016639280160831778 0.049999999999999996 -0.10876297327551022
endloop
endfacet
facet normal 0.9847942323433104 0.0 0.17372483974190392
outer loop
vertex 0.01982064416542441 -0.05000000000000001 -0.09801602963223734
vertex 0.02156331892589282 -0.05000000000000001 -0.10789473238717558
vertex 0.01982064416542441 0.049999999999999996 -0.09801602963223734
endloop
endfacet
facet normal 0.9847942323433104 -0.0 0.17372483974190392
outer loop
vertex 0.01982064416542441 0.049999999999999996 -0.09801602963223734
vertex 0.02156331892589282 -0.05000000000000001 -0.10789473238717558
vertex 0.02156331892589282 0.049999999999999996 -0.10789473238717558
endloop
endfacet
facet normal 0.3420201433256682 0.0 -0.9396926207859085
outer loop
vertex 0.04781999507630886 -0.05000000000000001 -0.08782509932190113
vertex 0.01982064416542441 -0.05000000000000001 -0.09801602963223734
vertex 0.04781999507630886 0.049999999999999996 -0.08782509932190113
endloop
endfacet
facet normal 0.3420201433256682 0.0 -0.9396926207859085
outer loop
vertex 0.04781999507630886 0.049999999999999996 -0.08782509932190113
vertex 0.01982064416542441 -0.05000000000000001 -0.09801602963223734
vertex 0.01982064416542441 0.049999999999999996 -0.09801602963223734
endloop
endfacet
facet normal -0.866064323783088 0.0 -0.4999325825250264
outer loop
vertex 0.052834936490538914 -0.05000000000000001 -0.09651279441628825
vertex 0.04781999507630886 -0.05000000000000001 -0.08782509932190113
vertex 0.052834936490538914 0.049999999999999996 -0.09651279441628825
endloop
endfacet
facet normal -0.866064323783088 0.0 -0.4999325825250264
outer loop
vertex 0.052834936490538914 0.049999999999999996 -0.09651279441628825
vertex 0.04781999507630886 -0.05000000000000001 -0.08782509932190113
vertex 0.04781999507630886 0.049999999999999996 -0.08782509932190113
endloop
endfacet
facet normal 0.49999999999999967 0.0 -0.8660254037844387
outer loop
vertex 0.057165063509461114 -0.05000000000000001 -0.09401279441628825
vertex 0.052834936490538914 -0.05000000000000001 -0.09651279441628825
vertex 0.057165063509461114 0.049999999999999996 -0.09401279441628825
endloop
endfacet
facet normal 0.49999999999999967 0.0 -0.8660254037844387
outer loop
vertex 0.057165063509461114 0.049999999999999996 -0.09401279441628825
vertex 0.052834936490538914 -0.05000000000000001 -0.09651279441628825
vertex 0.052834936490538914 0.049999999999999996 -0.09651279441628825
endloop
endfacet
facet normal 0.865986478537777 0.0 0.5000674144450331
outer loop
vertex 0.05214876956450344 -0.05000000000000001 -0.0853258802058808
vertex 0.057165063509461114 -0.05000000000000001 -0.09401279441628825
vertex 0.05214876956450344 0.049999999999999996 -0.0853258802058808
endloop
endfacet
facet normal 0.865986478537777 -0.0 0.5000674144450331
outer loop
vertex 0.05214876956450344 0.049999999999999996 -0.0853258802058808
vertex 0.057165063509461114 -0.05000000000000001 -0.09401279441628825
vertex 0.057165063509461114 0.049999999999999996 -0.09401279441628825
endloop
endfacet
facet normal 0.6427876096865395 0.0 -0.766044443118978
outer loop
vertex 0.0749740495568936 -0.05000000000000001 -0.06617319618274807
vertex 0.05214876956450344 -0.05000000000000001 -0.0853258802058808
vertex 0.0749740495568936 0.049999999999999996 -0.06617319618274807
endloop
endfacet
facet normal 0.6427876096865395 0.0 -0.766044443118978
outer loop
vertex 0.0749740495568936 0.049999999999999996 -0.06617319618274807
vertex 0.05214876956450344 -0.05000000000000001 -0.0853258802058808
vertex 0.05214876956450344 0.049999999999999996 -0.0853258802058808
endloop
endfacet
facet normal -0.6428472406565254 0.0 -0.7659944028387489
outer loop
vertex 0.08265791971887121 -0.05000000000000001 -0.07262174817331679
vertex 0.0749740495568936 -0.05000000000000001 -0.06617319618274807
vertex 0.08265791971887121 0.049999999999999996 -0.07262174817331679
endloop
endfacet
facet normal -0.6428472406565254 0.0 -0.7659944028387489
outer loop
vertex 0.08265791971887121 0.049999999999999996 -0.07262174817331679
vertex 0.0749740495568936 -0.05000000000000001 -0.06617319618274807
vertex 0.0749740495568936 0.049999999999999996 -0.06617319618274807
endloop
endfacet
facet normal 0.7660444431189769 0.0 -0.6427876096865406
outer loop
vertex 0.08587185776730391 -0.05000000000000001 -0.06879152595772191
vertex 0.08265791971887121 -0.05000000000000001 -0.07262174817331679
vertex 0.08587185776730391 0.049999999999999996 -0.06879152595772191
endloop
endfacet
facet normal 0.7660444431189769 0.0 -0.6427876096865406
outer loop
vertex 0.08587185776730391 0.049999999999999996 -0.06879152595772191
vertex 0.08265791971887121 -0.05000000000000001 -0.07262174817331679
vertex 0.08265791971887121 0.049999999999999996 -0.07262174817331679
endloop
endfacet
facet normal 0.6427279748213369 0.0 0.7660944787570676
outer loop
vertex 0.0781869837202328 -0.05000000000000001 -0.062344170350819884
vertex 0.08587185776730391 -0.05000000000000001 -0.06879152595772191
vertex 0.0781869837202328 0.049999999999999996 -0.062344170350819884
endloop
endfacet
facet normal 0.6427279748213369 -0.0 0.7660944787570676
outer loop
vertex 0.0781869837202328 0.049999999999999996 -0.062344170350819884
vertex 0.08587185776730391 -0.05000000000000001 -0.06879152595772191
vertex 0.08587185776730391 0.049999999999999996 -0.06879152595772191
endloop
endfacet
facet normal 0.866025403784438 0.0 -0.5000000000000009
outer loop
vertex 0.093085127161791 -0.05 -0.0365398289715921
vertex 0.0781869837202328 -0.05000000000000001 -0.062344170350819884
vertex 0.093085127161791 0.05 -0.0365398289715921
endloop
endfacet
facet normal 0.866025403784438 0.0 -0.5000000000000009
outer loop
vertex 0.093085127161791 0.05 -0.0365398289715921
vertex 0.0781869837202328 -0.05000000000000001 -0.062344170350819884
vertex 0.0781869837202328 0.049999999999999996 -0.062344170350819884
endloop
endfacet
facet normal -0.3420932928919515 0.0 -0.9396659932967358
outer loop
vertex 0.10251113792813572 -0.05 -0.03997144731778841
vertex 0.093085127161791 -0.05 -0.0365398289715921
vertex 0.10251113792813572 0.05 -0.03997144731778841
endloop
endfacet
facet normal -0.3420932928919515 0.0 -0.9396659932967358
outer loop
vertex 0.10251113792813572 0.05 -0.03997144731778841
vertex 0.093085127161791 -0.05 -0.0365398289715921
vertex 0.093085127161791 0.05 -0.0365398289715921
endloop
endfacet
facet normal 0.9396926207859083 0.0 -0.34202014332566943
outer loop
vertex 0.10422123864476407 -0.05 -0.03527298421385887
vertex 0.10251113792813572 -0.05 -0.03997144731778841
vertex 0.10422123864476407 0.05 -0.03527298421385887
endloop
endfacet
facet normal 0.9396926207859083 0.0 -0.34202014332566943
outer loop
vertex 0.10422123864476407 0.05 -0.03527298421385887
vertex 0.10251113792813572 -0.05 -0.03997144731778841
vertex 0.10251113792813572 0.05 -0.03997144731778841
endloop
endfacet
facet normal 0.984807753012208 0.0 -0.17364817766693066
outer loop
vertex 0.09996876464081228 -0.05 -0.0024992191160203036
vertex 0.09479469372231804 -0.05 -0.03184283344948935
vertex 0.09996876464081228 0.05 -0.0024992191160203097
endloop
endfacet
facet normal 0.9848077530122079 0.0 -0.17364817766693066
outer loop
vertex 0.09996876464081228 0.05 -0.0024992191160203097
vertex 0.09479469372231804 -0.05 -0.03184283344948935
vertex 0.09479469372231804 0.05 -0.03184283344948935
endloop
endfacet
facet normal 0.3419469916867866 0.0 0.9397192425806533
outer loop
vertex 0.09479469372231804 -0.05 -0.03184283344948935
vertex 0.10422123864476407 -0.05 -0.03527298421385887
vertex 0.09479469372231804 0.05 -0.03184283344948935
endloop
endfacet
facet normal 0.3419469916867866 -0.0 0.9397192425806533
outer loop
vertex 0.09479469372231804 0.05 -0.03184283344948935
vertex 0.10422123864476407 -0.05 -0.03527298421385887
vertex 0.10422123864476407 0.05 -0.03527298421385887
endloop
endfacet

endsolid
