solid 
facet normal 0.0 1.0 -0.0
outer loop
vertex 0.1 0.05 -3.061616997868383e-18
vertex 0.0 0.05 -3.061616997868383e-18
vertex 0.09396926207859085 0.05 0.03420201433256687
endloop
endfacet
facet normal 0.9848077530122081 0.0 0.17364817766693008
outer loop
vertex 0.1 0.05 -3.061616997868383e-18
vertex 0.09396926207859085 0.05 0.03420201433256687
vertex 0.1 -0.05 3.061616997868383e-18
endloop
endfacet
facet normal 0.9848077530122081 0.0 0.17364817766693008
outer loop
vertex 0.1 -0.05 3.061616997868383e-18
vertex 0.09396926207859085 0.05 0.03420201433256687
vertex 0.09396926207859085 -0.05 0.03420201433256687
endloop
endfacet
facet normal -0.0 -1.0 0.0
outer loop
vertex 0.1 -0.05 3.061616997868383e-18
vertex 0.09396926207859085 -0.05 0.03420201433256687
vertex 0.0 -0.05 3.061616997868383e-18
endloop
endfacet
facet normal 6.938893903907227e-17 1.0 -1.9064454316976443e-16
outer loop
vertex 0.09396926207859085 0.05 0.03420201433256687
vertex 0.0 0.05 -3.061616997868383e-18
vertex 0.0766044443118978 0.05000000000000001 0.06427876096865393
endloop
endfacet
facet normal 0.8660254037844385 0.0 0.5000000000000003
outer loop
vertex 0.09396926207859085 0.05 0.03420201433256687
vertex 0.0766044443118978 0.05000000000000001 0.06427876096865393
vertex 0.09396926207859085 -0.05 0.03420201433256687
endloop
endfacet
facet normal 0.8660254037844385 0.0 0.5000000000000004
outer loop
vertex 0.09396926207859085 -0.05 0.03420201433256687
vertex 0.0766044443118978 0.05000000000000001 0.06427876096865393
vertex 0.0766044443118978 -0.049999999999999996 0.06427876096865393
endloop
endfacet
facet normal -6.938893903907227e-17 -1.0 1.9064454316976443e-16
outer loop
vertex 0.09396926207859085 -0.05 0.03420201433256687
vertex 0.0766044443118978 -0.049999999999999996 0.06427876096865393
vertex 0.0 -0.05 3.061616997868383e-18
endloop
endfacet
facet normal -4.5290413410319056e-17 0.9999999999999999 -5.3975012891824675e-17
outer loop
vertex 0.0766044443118978 0.05000000000000001 0.06427876096865393
vertex 0.0 0.05 -3.061616997868383e-18
vertex 0.05000000000000002 0.05000000000000001 0.08660254037844387
endloop
endfacet
facet normal 0.6427876096865396 0.0 0.7660444431189778
outer loop
vertex 0.0766044443118978 0.05000000000000001 0.06427876096865393
vertex 0.05000000000000002 0.05000000000000001 0.08660254037844387
vertex 0.0766044443118978 -0.049999999999999996 0.06427876096865393
endloop
endfacet
facet normal 0.6427876096865396 0.0 0.7660444431189778
outer loop
vertex 0.0766044443118978 -0.049999999999999996 0.06427876096865393
vertex 0.05000000000000002 0.05000000000000001 0.08660254037844387
vertex 0.05000000000000002 -0.049999999999999996 0.08660254037844387
endloop
endfacet
facet normal 4.5290413410319056e-17 -0.9999999999999999 5.3975012891824675e-17
outer loop
vertex 0.0766044443118978 -0.049999999999999996 0.06427876096865393
vertex 0.05000000000000002 -0.049999999999999996 0.08660254037844387
vertex 0.0 -0.05 3.061616997868383e-18
endloop
endfacet
facet normal -2.409852562875324e-17 1.0 -6.621015500714805e-17
outer loop
vertex 0.05000000000000002 0.05000000000000001 0.08660254037844387
vertex 0.0 0.05 -3.061616997868383e-18
vertex 0.017364817766693044 0.05000000000000001 0.0984807753012208
endloop
endfacet
facet normal 0.34202014332566866 0.0 0.9396926207859084
outer loop
vertex 0.05000000000000002 0.05000000000000001 0.08660254037844387
vertex 0.017364817766693044 0.05000000000000001 0.0984807753012208
vertex 0.05000000000000002 -0.049999999999999996 0.08660254037844387
endloop
endfacet
facet normal 0.34202014332566866 0.0 0.9396926207859084
outer loop
vertex 0.05000000000000002 -0.049999999999999996 0.08660254037844387
vertex 0.017364817766693044 0.05000000000000001 0.0984807753012208
vertex 0.017364817766693044 -0.049999999999999996 0.0984807753012208
endloop
endfacet
facet normal 2.409852562875324e-17 -1.0 6.621015500714805e-17
outer loop
vertex 0.05000000000000002 -0.049999999999999996 0.08660254037844387
vertex 0.017364817766693044 -0.049999999999999996 0.0984807753012208
vertex 0.0 -0.05 3.061616997868383e-18
endloop
endfacet
facet normal 0.0 1.0 -7.045937527079167e-17
outer loop
vertex 0.017364817766693044 0.05000000000000001 0.0984807753012208
vertex 0.0 0.05 -3.061616997868383e-18
vertex -0.01736481776669303 0.05000000000000001 0.0984807753012208
endloop
endfacet
facet normal 0.0 0.0 1.0
outer loop
vertex 0.017364817766693044 0.05000000000000001 0.0984807753012208
vertex -0.01736481776669303 0.05000000000000001 0.0984807753012208
vertex 0.017364817766693044 -0.049999999999999996 0.0984807753012208
endloop
endfacet
facet normal 0.0 0.0 1.0
outer loop
vertex 0.017364817766693044 -0.049999999999999996 0.0984807753012208
vertex -0.01736481776669303 0.05000000000000001 0.0984807753012208
vertex -0.01736481776669303 -0.049999999999999996 0.0984807753012208
endloop
endfacet
facet normal 0.0 -1.0 7.045937527079167e-17
outer loop
vertex 0.017364817766693044 -0.049999999999999996 0.0984807753012208
vertex -0.01736481776669303 -0.049999999999999996 0.0984807753012208
vertex 0.0 -0.05 3.061616997868383e-18
endloop
endfacet
facet normal 2.4098525628753225e-17 0.9999999999999999 -6.621015500714806e-17
outer loop
vertex -0.01736481776669303 0.05000000000000001 0.0984807753012208
vertex 0.0 0.05 -3.061616997868383e-18
vertex -0.04999999999999998 0.05000000000000001 0.08660254037844388
endloop
endfacet
facet normal -0.3420201433256685 0.0 0.9396926207859086
outer loop
vertex -0.01736481776669303 0.05000000000000001 0.0984807753012208
vertex -0.04999999999999998 0.05000000000000001 0.08660254037844388
vertex -0.01736481776669303 -0.049999999999999996 0.0984807753012208
endloop
endfacet
facet normal -0.3420201433256685 0.0 0.9396926207859086
outer loop
vertex -0.01736481776669303 -0.049999999999999996 0.0984807753012208
vertex -0.04999999999999998 0.05000000000000001 0.08660254037844388
vertex -0.04999999999999998 -0.049999999999999996 0.08660254037844388
endloop
endfacet
facet normal -2.4098525628753225e-17 -1.0 6.621015500714806e-17
outer loop
vertex -0.01736481776669303 -0.049999999999999996 0.0984807753012208
vertex -0.04999999999999998 -0.049999999999999996 0.08660254037844388
vertex 0.0 -0.05 3.061616997868383e-18
endloop
endfacet
facet normal 4.529041341031902e-17 1.0 -5.3975012891824705e-17
outer loop
vertex -0.04999999999999998 0.05000000000000001 0.08660254037844388
vertex 0.0 0.05 -3.061616997868383e-18
vertex -0.07660444431189779 0.05000000000000001 0.06427876096865395
endloop
endfacet
facet normal -0.6427876096865391 0.0 0.7660444431189782
outer loop
vertex -0.04999999999999998 0.05000000000000001 0.08660254037844388
vertex -0.07660444431189779 0.05000000000000001 0.06427876096865395
vertex -0.04999999999999998 -0.049999999999999996 0.08660254037844388
endloop
endfacet
facet normal -0.6427876096865391 0.0 0.7660444431189782
outer loop
vertex -0.04999999999999998 -0.049999999999999996 0.08660254037844388
vertex -0.07660444431189779 0.05000000000000001 0.06427876096865395
vertex -0.07660444431189779 -0.049999999999999996 0.06427876096865395
endloop
endfacet
facet normal -4.529041341031902e-17 -1.0 5.3975012891824705e-17
outer loop
vertex -0.04999999999999998 -0.049999999999999996 0.08660254037844388
vertex -0.07660444431189779 -0.049999999999999996 0.06427876096865395
vertex 0.0 -0.05 3.061616997868383e-18
endloop
endfacet
facet normal -6.938893903907227e-17 1.0 -1.9064454316976433e-16
outer loop
vertex -0.07660444431189779 0.05000000000000001 0.06427876096865395
vertex 0.0 0.05 -3.061616997868383e-18
vertex -0.09396926207859084 0.05 0.03420201433256689
endloop
endfacet
facet normal -0.8660254037844384 0.0 0.5000000000000002
outer loop
vertex -0.07660444431189779 0.05000000000000001 0.06427876096865395
vertex -0.09396926207859084 0.05 0.03420201433256689
vertex -0.07660444431189779 -0.049999999999999996 0.06427876096865395
endloop
endfacet
facet normal -0.8660254037844386 0.0 0.5000000000000002
outer loop
vertex -0.07660444431189779 -0.049999999999999996 0.06427876096865395
vertex -0.09396926207859084 0.05 0.03420201433256689
vertex -0.09396926207859084 -0.05 0.03420201433256689
endloop
endfacet
facet normal 6.938893903907228e-17 -1.0 1.9064454316976435e-16
outer loop
vertex -0.07660444431189779 -0.049999999999999996 0.06427876096865395
vertex -0.09396926207859084 -0.05 0.03420201433256689
vertex 0.0 -0.05 3.061616997868383e-18
endloop
endfacet
facet normal 0.0 1.0 0.0
outer loop
vertex -0.09396926207859084 0.05 0.03420201433256689
vertex 0.0 0.05 -3.061616997868383e-18
vertex -0.1 0.05 9.184850993605149e-18
endloop
endfacet
facet normal -0.984807753012208 0.0 0.17364817766693041
outer loop
vertex -0.09396926207859084 0.05 0.03420201433256689
vertex -0.1 0.05 9.184850993605149e-18
vertex -0.09396926207859084 -0.05 0.03420201433256689
endloop
endfacet
facet normal -0.984807753012208 1.0632884247878864e-17 0.17364817766693047
outer loop
vertex -0.09396926207859084 -0.05 0.03420201433256689
vertex -0.1 0.05 9.184850993605149e-18
vertex -0.1 -0.05 1.5308084989341915e-17
endloop
endfacet
facet normal 0.0 -1.0 -0.0
outer loop
vertex -0.09396926207859084 -0.05 0.03420201433256689
vertex -0.1 -0.05 1.5308084989341915e-17
vertex 0.0 -0.05 3.061616997868383e-18
endloop
endfacet
facet normal 0.0 0.9999999999999999 0.0
outer loop
vertex -0.1 0.05 9.184850993605149e-18
vertex 0.0 0.05 -3.061616997868383e-18
vertex -0.09396926207859085 0.05 -0.034202014332566866
endloop
endfacet
facet normal -0.9848077530122081 -7.804589335837157e-18 -0.17364817766693008
outer loop
vertex -0.1 0.05 9.184850993605149e-18
vertex -0.09396926207859085 0.05 -0.034202014332566866
vertex -0.1 -0.05 1.5308084989341915e-17
endloop
endfacet
facet normal -0.9848077530122081 -0.0 -0.17364817766693005
outer loop
vertex -0.1 -0.05 1.5308084989341915e-17
vertex -0.09396926207859085 0.05 -0.034202014332566866
vertex -0.09396926207859085 -0.05 -0.034202014332566866
endloop
endfacet
facet normal 0.0 -0.9999999999999999 0.0
outer loop
vertex -0.1 -0.05 1.5308084989341915e-17
vertex -0.09396926207859085 -0.05 -0.034202014332566866
vertex 0.0 -0.05 3.061616997868383e-18
endloop
endfacet
facet normal 6.938893903907225e-17 1.0 -1.9064454316976438e-16
outer loop
vertex -0.09396926207859085 0.05 -0.034202014332566866
vertex 0.0 0.05 -3.061616997868383e-18
vertex -0.0766044443118978 0.049999999999999996 -0.06427876096865393
endloop
endfacet
facet normal -0.8660254037844385 0.0 -0.5000000000000002
outer loop
vertex -0.09396926207859085 0.05 -0.034202014332566866
vertex -0.0766044443118978 0.049999999999999996 -0.06427876096865393
vertex -0.09396926207859085 -0.05 -0.034202014332566866
endloop
endfacet
facet normal -0.8660254037844385 -0.0 -0.5000000000000002
outer loop
vertex -0.09396926207859085 -0.05 -0.034202014332566866
vertex -0.0766044443118978 0.049999999999999996 -0.06427876096865393
vertex -0.0766044443118978 -0.05000000000000001 -0.06427876096865393
endloop
endfacet
facet normal -6.938893903907226e-17 -1.0 1.9064454316976443e-16
outer loop
vertex -0.09396926207859085 -0.05 -0.034202014332566866
vertex -0.0766044443118978 -0.05000000000000001 -0.06427876096865393
vertex 0.0 -0.05 3.061616997868383e-18
endloop
endfacet
facet normal -4.529041341031906e-17 1.0 -5.3975012891824693e-17
outer loop
vertex -0.0766044443118978 0.049999999999999996 -0.06427876096865393
vertex 0.0 0.05 -3.061616997868383e-18
vertex -0.050000000000000044 0.049999999999999996 -0.08660254037844384
endloop
endfacet
facet normal -0.6427876096865395 0.0 -0.7660444431189778
outer loop
vertex -0.0766044443118978 0.049999999999999996 -0.06427876096865393
vertex -0.050000000000000044 0.049999999999999996 -0.08660254037844384
vertex -0.0766044443118978 -0.05000000000000001 -0.06427876096865393
endloop
endfacet
facet normal -0.6427876096865395 -0.0 -0.7660444431189778
outer loop
vertex -0.0766044443118978 -0.05000000000000001 -0.06427876096865393
vertex -0.050000000000000044 0.049999999999999996 -0.08660254037844384
vertex -0.050000000000000044 -0.05000000000000001 -0.08660254037844384
endloop
endfacet
facet normal 4.529041341031905e-17 -1.0 5.397501289182468e-17
outer loop
vertex -0.0766044443118978 -0.05000000000000001 -0.06427876096865393
vertex -0.050000000000000044 -0.05000000000000001 -0.08660254037844384
vertex 0.0 -0.05 3.061616997868383e-18
endloop
endfacet
facet normal -2.4098525628753268e-17 1.0 -6.621015500714806e-17
outer loop
vertex -0.050000000000000044 0.049999999999999996 -0.08660254037844384
vertex 0.0 0.05 -3.061616997868383e-18
vertex -0.017364817766693033 0.049999999999999996 -0.0984807753012208
endloop
endfacet
facet normal -0.342020143325669 0.0 -0.9396926207859083
outer loop
vertex -0.050000000000000044 0.049999999999999996 -0.08660254037844384
vertex -0.017364817766693033 0.049999999999999996 -0.0984807753012208
vertex -0.050000000000000044 -0.05000000000000001 -0.08660254037844384
endloop
endfacet
facet normal -0.342020143325669 -0.0 -0.9396926207859083
outer loop
vertex -0.050000000000000044 -0.05000000000000001 -0.08660254037844384
vertex -0.017364817766693033 0.049999999999999996 -0.0984807753012208
vertex -0.017364817766693033 -0.05000000000000001 -0.0984807753012208
endloop
endfacet
facet normal 2.4098525628753268e-17 -1.0 6.621015500714806e-17
outer loop
vertex -0.050000000000000044 -0.05000000000000001 -0.08660254037844384
vertex -0.017364817766693033 -0.05000000000000001 -0.0984807753012208
vertex 0.0 -0.05 3.061616997868383e-18
endloop
endfacet
facet normal -2.8155212229026285e-32 1.0 -7.045937527079168e-17
outer loop
vertex -0.017364817766693033 0.049999999999999996 -0.0984807753012208
vertex 0.0 0.05 -3.061616997868383e-18
vertex 0.017364817766693 0.049999999999999996 -0.09848077530122082
endloop
endfacet
facet normal -3.9959497399486286e-16 0.0 -0.9999999999999999
outer loop
vertex -0.017364817766693033 0.049999999999999996 -0.0984807753012208
vertex 0.017364817766693 0.049999999999999996 -0.09848077530122082
vertex -0.017364817766693033 -0.05000000000000001 -0.0984807753012208
endloop
endfacet
facet normal -3.9959497399486286e-16 -0.0 -0.9999999999999999
outer loop
vertex -0.017364817766693033 -0.05000000000000001 -0.0984807753012208
vertex 0.017364817766693 0.049999999999999996 -0.09848077530122082
vertex 0.017364817766693 -0.05000000000000001 -0.09848077530122082
endloop
endfacet
facet normal 2.8155212229026285e-32 -1.0 7.045937527079168e-17
outer loop
vertex -0.017364817766693033 -0.05000000000000001 -0.0984807753012208
vertex 0.017364817766693 -0.05000000000000001 -0.09848077530122082
vertex 0.0 -0.05 3.061616997868383e-18
endloop
endfacet
facet normal 2.409852562875323e-17 1.0 -6.621015500714805e-17
outer loop
vertex 0.017364817766693 0.049999999999999996 -0.09848077530122082
vertex 0.0 0.05 -3.061616997868383e-18
vertex 0.05000000000000002 0.049999999999999996 -0.08660254037844387
endloop
endfacet
facet normal 0.3420201433256685 0.0 -0.9396926207859083
outer loop
vertex 0.017364817766693 0.049999999999999996 -0.09848077530122082
vertex 0.05000000000000002 0.049999999999999996 -0.08660254037844387
vertex 0.017364817766693 -0.05000000000000001 -0.09848077530122082
endloop
endfacet
facet normal 0.3420201433256685 0.0 -0.9396926207859083
outer loop
vertex 0.017364817766693 -0.05000000000000001 -0.09848077530122082
vertex 0.05000000000000002 0.049999999999999996 -0.08660254037844387
vertex 0.05000000000000002 -0.05000000000000001 -0.08660254037844387
endloop
endfacet
facet normal -2.409852562875323e-17 -1.0 6.621015500714805e-17
outer loop
vertex 0.017364817766693 -0.05000000000000001 -0.09848077530122082
vertex 0.05000000000000002 -0.05000000000000001 -0.08660254037844387
vertex 0.0 -0.05 3.061616997868383e-18
endloop
endfacet
facet normal 4.529041341031903e-17 1.0 -5.3975012891824693e-17
outer loop
vertex 0.05000000000000002 0.049999999999999996 -0.08660254037844387
vertex 0.0 0.05 -3.061616997868383e-18
vertex 0.07660444431189778 0.049999999999999996 -0.06427876096865397
endloop
endfacet
facet normal 0.6427876096865394 0.0 -0.7660444431189781
outer loop
vertex 0.05000000000000002 0.049999999999999996 -0.08660254037844387
vertex 0.07660444431189778 0.049999999999999996 -0.06427876096865397
vertex 0.05000000000000002 -0.05000000000000001 -0.08660254037844387
endloop
endfacet
facet normal 0.6427876096865394 0.0 -0.7660444431189781
outer loop
vertex 0.05000000000000002 -0.05000000000000001 -0.08660254037844387
vertex 0.07660444431189778 0.049999999999999996 -0.06427876096865397
vertex 0.07660444431189778 -0.05000000000000001 -0.06427876096865397
endloop
endfacet
facet normal -4.529041341031903e-17 -1.0 5.3975012891824693e-17
outer loop
vertex 0.05000000000000002 -0.05000000000000001 -0.08660254037844387
vertex 0.07660444431189778 -0.05000000000000001 -0.06427876096865397
vertex 0.0 -0.05 3.061616997868383e-18
endloop
endfacet
facet normal -6.938893903907248e-17 1.0 -1.9064454316976453e-16
outer loop
vertex 0.07660444431189778 0.049999999999999996 -0.06427876096865397
vertex 0.0 0.05 -3.061616997868383e-18
vertex 0.09396926207859081 0.05 -0.03420201433256694
endloop
endfacet
facet normal 0.8660254037844385 0.0 -0.5000000000000003
outer loop
vertex 0.07660444431189778 0.049999999999999996 -0.06427876096865397
vertex 0.09396926207859081 0.05 -0.03420201433256694
vertex 0.07660444431189778 -0.05000000000000001 -0.06427876096865397
endloop
endfacet
facet normal 0.8660254037844385 0.0 -0.5000000000000003
outer loop
vertex 0.07660444431189778 -0.05000000000000001 -0.06427876096865397
vertex 0.09396926207859081 0.05 -0.03420201433256694
vertex 0.09396926207859081 -0.05 -0.03420201433256694
endloop
endfacet
facet normal 6.938893903907248e-17 -1.0 1.9064454316976453e-16
outer loop
vertex 0.07660444431189778 -0.05000000000000001 -0.06427876096865397
vertex 0.09396926207859081 -0.05 -0.03420201433256694
vertex 0.0 -0.05 3.061616997868383e-18
endloop
endfacet
facet normal 0.0 1.0 -0.0
outer loop
vertex 0.09396926207859081 0.05 -0.03420201433256694
vertex 0.0 0.05 -3.061616997868383e-18
vertex 0.1 0.05 -3.061616997868383e-18
endloop
endfacet
facet normal 0.984807753012208 0.0 -0.1736481776669309
outer loop
vertex 0.09396926207859081 0.05 -0.03420201433256694
vertex 0.1 0.05 -3.061616997868383e-18
vertex 0.09396926207859081 -0.05 -0.03420201433256694
endloop
endfacet
facet normal 0.9848077530122079 -1.063288424787889e-17 -0.17364817766693086
outer loop
vertex 0.09396926207859081 -0.05 -0.03420201433256694
vertex 0.1 0.05 -3.061616997868383e-18
vertex 0.1 -0.05 3.061616997868383e-18
endloop
endfacet
facet normal 0.0 -1.0 0.0
outer loop
vertex 0.09396926207859081 -0.05 -0.03420201433256694
vertex 0.1 -0.05 3.061616997868383e-18
vertex 0.0 -0.05 3.061616997868383e-18
endloop
endfacet
facet normal -1.0 0.0 0.0
outer loop
vertex 0.09000000000000001 -0.05 -0.002499999999999997
vertex 0.09000000000000001 -0.05 0.002500000000000003
vertex 0.09000000000000001 0.05 -0.002500000000000003
endloop
endfacet
facet normal 0.0 -6.071532165918825e-17 -1.0
outer loop
vertex 0.11 0.05 -0.002500000000000003
vertex 0.09000000000000001 -0.05 -0.002499999999999997
vertex 0.09000000000000001 0.05 -0.002500000000000003
endloop
endfacet
facet normal -1.0 0.0 0.0
outer loop
vertex 0.09000000000000001 0.05 -0.002500000000000003
vertex 0.09000000000000001 -0.05 0.002500000000000003
vertex 0.09000000000000001 0.05 0.002499999999999997
endloop
endfacet
facet normal 0.0 1.0 0.0
outer loop
vertex 0.09000000000000001 0.05 0.002499999999999997
vertex 0.11 0.05 -0.002500000000000003
vertex 0.09000000000000001 0.05 -0.002500000000000003
endloop
endfacet
facet normal 0.0 -1.0 0.0
outer loop
vertex 0.09000000000000001 -0.05 -0.002499999999999997
vertex 0.11 -0.05 0.002500000000000003
vertex 0.09000000000000001 -0.05 0.002500000000000003
endloop
endfacet
facet normal -0.0 -6.071532165918825e-17 -1.0
outer loop
vertex 0.11 -0.05 -0.002499999999999997
vertex 0.09000000000000001 -0.05 -0.002499999999999997
vertex 0.11 0.05 -0.002500000000000003
endloop
endfacet
facet normal -0.0 -1.0 0.0
outer loop
vertex 0.11 -0.05 -0.002499999999999997
vertex 0.11 -0.05 0.002500000000000003
vertex 0.09000000000000001 -0.05 -0.002499999999999997
endloop
endfacet
facet normal -0.0 6.071532165918825e-17 1.0
outer loop
vertex 0.09000000000000001 -0.05 0.002500000000000003
vertex 0.11 -0.05 0.002500000000000003
vertex 0.09000000000000001 0.05 0.002499999999999997
endloop
endfacet
facet normal 0.0 1.0 0.0
outer loop
vertex 0.11 0.05 0.002499999999999997
vertex 0.11 0.05 -0.002500000000000003
vertex 0.09000000000000001 0.05 0.002499999999999997
endloop
endfacet
facet normal 0.0 6.071532165918825e-17 1.0
outer loop
vertex 0.09000000000000001 0.05 0.002499999999999997
vertex 0.11 -0.05 0.002500000000000003
vertex 0.11 0.05 0.002499999999999997
endloop
endfacet
facet normal 1.0 0.0 0.0
outer loop
vertex 0.11 0.05 0.002499999999999997
vertex 0.11 -0.05 -0.002499999999999997
vertex 0.11 0.05 -0.002500000000000003
endloop
endfacet
facet normal 1.0 -0.0 0.0
outer loop
vertex 0.11 -0.05 0.002500000000000003
vertex 0.11 -0.05 -0.002499999999999997
vertex 0.11 0.05 0.002499999999999997
endloop
endfacet
facet normal -0.9396926207859091 -2.3716922523120425e-17 -0.34202014332566666
outer loop
vertex 0.08542738622904593 -0.05 0.028432581347345418
vertex 0.0837172855124176 -0.05 0.03313104445127496
vertex 0.08542738622904593 0.05 0.02843258134734541
endloop
endfacet
facet normal 0.34202014332566866 -6.520427397917946e-17 -0.9396926207859084
outer loop
vertex 0.1042212386447641 0.05 0.035272984213858785
vertex 0.08542738622904593 -0.05 0.028432581347345418
vertex 0.08542738622904593 0.05 0.02843258134734541
endloop
endfacet
facet normal -0.9396926207859092 0.0 -0.3420201433256662
outer loop
vertex 0.08542738622904593 0.05 0.02843258134734541
vertex 0.0837172855124176 -0.05 0.03313104445127496
vertex 0.0837172855124176 0.05 0.03313104445127496
endloop
endfacet
facet normal -0.0 1.0 0.0
outer loop
vertex 0.0837172855124176 0.05 0.03313104445127496
vertex 0.1042212386447641 0.05 0.035272984213858785
vertex 0.08542738622904593 0.05 0.02843258134734541
endloop
endfacet
facet normal -0.0 -1.0 0.0
outer loop
vertex 0.08542738622904593 -0.05 0.028432581347345418
vertex 0.10251113792813576 -0.05 0.03997144731778833
vertex 0.0837172855124176 -0.05 0.03313104445127496
endloop
endfacet
facet normal 0.3420201433256683 0.0 -0.9396926207859084
outer loop
vertex 0.1042212386447641 -0.05 0.035272984213858785
vertex 0.08542738622904593 -0.05 0.028432581347345418
vertex 0.1042212386447641 0.05 0.035272984213858785
endloop
endfacet
facet normal -0.0 -1.0 0.0
outer loop
vertex 0.1042212386447641 -0.05 0.035272984213858785
vertex 0.10251113792813576 -0.05 0.03997144731778833
vertex 0.08542738622904593 -0.05 0.028432581347345418
endloop
endfacet
facet normal -0.34202014332566855 0.0 0.9396926207859084
outer loop
vertex 0.0837172855124176 -0.05 0.03313104445127496
vertex 0.10251113792813576 -0.05 0.03997144731778833
vertex 0.0837172855124176 0.05 0.03313104445127496
endloop
endfacet
facet normal 0.0 1.0 0.0
outer loop
vertex 0.10251113792813576 0.05 0.03997144731778833
vertex 0.1042212386447641 0.05 0.035272984213858785
vertex 0.0837172855124176 0.05 0.03313104445127496
endloop
endfacet
facet normal -0.34202014332566855 0.0 0.9396926207859084
outer loop
vertex 0.0837172855124176 0.05 0.03313104445127496
vertex 0.10251113792813576 -0.05 0.03997144731778833
vertex 0.10251113792813576 0.05 0.03997144731778833
endloop
endfacet
facet normal 0.9396926207859093 -0.0 0.34202014332566655
outer loop
vertex 0.10251113792813576 0.05 0.03997144731778833
vertex 0.1042212386447641 -0.05 0.035272984213858785
vertex 0.1042212386447641 0.05 0.035272984213858785
endloop
endfacet
facet normal 0.9396926207859093 0.0 0.34202014332566655
outer loop
vertex 0.10251113792813576 -0.05 0.03997144731778833
vertex 0.1042212386447641 -0.05 0.035272984213858785
vertex 0.10251113792813576 0.05 0.03997144731778833
endloop
endfacet
facet normal -0.7660444431189769 0.0 -0.6427876096865406
outer loop
vertex 0.07055096890492438 -0.05 0.0559357737639911
vertex 0.06733703085649168 -0.049999999999999996 0.059765995979585984
vertex 0.07055096890492438 0.05 0.0559357737639911
endloop
endfacet
facet normal 0.6427876096865388 0.0 -0.7660444431189787
outer loop
vertex 0.08587185776730394 0.05000000000000001 0.06879152595772187
vertex 0.07055096890492438 -0.05 0.0559357737639911
vertex 0.07055096890492438 0.05 0.0559357737639911
endloop
endfacet
facet normal -0.7660444431189769 0.0 -0.6427876096865406
outer loop
vertex 0.07055096890492438 0.05 0.0559357737639911
vertex 0.06733703085649168 -0.049999999999999996 0.059765995979585984
vertex 0.06733703085649168 0.05000000000000001 0.059765995979585984
endloop
endfacet
facet normal 6.262719494481908e-16 0.9999999999999999 -1.2861119746141099e-15
outer loop
vertex 0.06733703085649168 0.05000000000000001 0.059765995979585984
vertex 0.08587185776730394 0.05000000000000001 0.06879152595772187
vertex 0.07055096890492438 0.05 0.0559357737639911
endloop
endfacet
facet normal -8.920470052722052e-16 -0.9999999999999999 1.0631002232960575e-15
outer loop
vertex 0.07055096890492438 -0.05 0.0559357737639911
vertex 0.08265791971887124 -0.049999999999999996 0.07262174817331676
vertex 0.06733703085649168 -0.049999999999999996 0.059765995979585984
endloop
endfacet
facet normal 0.6427876096865388 0.0 -0.7660444431189787
outer loop
vertex 0.08587185776730394 -0.049999999999999996 0.06879152595772187
vertex 0.07055096890492438 -0.05 0.0559357737639911
vertex 0.08587185776730394 0.05000000000000001 0.06879152595772187
endloop
endfacet
facet normal 2.6577505582401447e-16 -1.0 2.230117513180515e-16
outer loop
vertex 0.08587185776730394 -0.049999999999999996 0.06879152595772187
vertex 0.08265791971887124 -0.049999999999999996 0.07262174817331676
vertex 0.07055096890492438 -0.05 0.0559357737639911
endloop
endfacet
facet normal -0.6427876096865391 0.0 0.7660444431189783
outer loop
vertex 0.06733703085649168 -0.049999999999999996 0.059765995979585984
vertex 0.08265791971887124 -0.049999999999999996 0.07262174817331676
vertex 0.06733703085649168 0.05000000000000001 0.059765995979585984
endloop
endfacet
facet normal 0.0 1.0 0.0
outer loop
vertex 0.08265791971887124 0.05000000000000001 0.07262174817331676
vertex 0.08587185776730394 0.05000000000000001 0.06879152595772187
vertex 0.06733703085649168 0.05000000000000001 0.059765995979585984
endloop
endfacet
facet normal -0.6427876096865391 0.0 0.7660444431189783
outer loop
vertex 0.06733703085649168 0.05000000000000001 0.059765995979585984
vertex 0.08265791971887124 -0.049999999999999996 0.07262174817331676
vertex 0.08265791971887124 0.05000000000000001 0.07262174817331676
endloop
endfacet
facet normal 0.7660444431189781 -0.0 0.6427876096865394
outer loop
vertex 0.08265791971887124 0.05000000000000001 0.07262174817331676
vertex 0.08587185776730394 -0.049999999999999996 0.06879152595772187
vertex 0.08587185776730394 0.05000000000000001 0.06879152595772187
endloop
endfacet
facet normal 0.7660444431189781 0.0 0.6427876096865394
outer loop
vertex 0.08265791971887124 -0.049999999999999996 0.07262174817331676
vertex 0.08587185776730394 -0.049999999999999996 0.06879152595772187
vertex 0.08265791971887124 0.05000000000000001 0.07262174817331676
endloop
endfacet
facet normal -0.500000000000001 0.0 -0.8660254037844382
outer loop
vertex 0.047165063509461105 -0.049999999999999996 0.07669228634059948
vertex 0.04283493649053892 -0.049999999999999996 0.07919228634059948
vertex 0.047165063509461105 0.05000000000000001 0.07669228634059948
endloop
endfacet
facet normal 0.8660254037844387 0.0 -0.5000000000000001
outer loop
vertex 0.05716506350946111 0.05000000000000001 0.09401279441628825
vertex 0.047165063509461105 -0.049999999999999996 0.07669228634059948
vertex 0.047165063509461105 0.05000000000000001 0.07669228634059948
endloop
endfacet
facet normal -0.500000000000001 0.0 -0.8660254037844382
outer loop
vertex 0.047165063509461105 0.05000000000000001 0.07669228634059948
vertex 0.04283493649053892 -0.049999999999999996 0.07919228634059948
vertex 0.04283493649053892 0.05000000000000001 0.07919228634059948
endloop
endfacet
facet normal -0.0 1.0 0.0
outer loop
vertex 0.04283493649053892 0.05000000000000001 0.07919228634059948
vertex 0.05716506350946111 0.05000000000000001 0.09401279441628825
vertex 0.047165063509461105 0.05000000000000001 0.07669228634059948
endloop
endfacet
facet normal -0.0 -1.0 0.0
outer loop
vertex 0.047165063509461105 -0.049999999999999996 0.07669228634059948
vertex 0.05283493649053892 -0.049999999999999996 0.09651279441628825
vertex 0.04283493649053892 -0.049999999999999996 0.07919228634059948
endloop
endfacet
facet normal 0.8660254037844387 0.0 -0.5000000000000001
outer loop
vertex 0.05716506350946111 -0.049999999999999996 0.09401279441628825
vertex 0.047165063509461105 -0.049999999999999996 0.07669228634059948
vertex 0.05716506350946111 0.05000000000000001 0.09401279441628825
endloop
endfacet
facet normal -0.0 -1.0 0.0
outer loop
vertex 0.05716506350946111 -0.049999999999999996 0.09401279441628825
vertex 0.05283493649053892 -0.049999999999999996 0.09651279441628825
vertex 0.047165063509461105 -0.049999999999999996 0.07669228634059948
endloop
endfacet
facet normal -0.8660254037844387 0.0 0.5000000000000001
outer loop
vertex 0.04283493649053892 -0.049999999999999996 0.07919228634059948
vertex 0.05283493649053892 -0.049999999999999996 0.09651279441628825
vertex 0.04283493649053892 0.05000000000000001 0.07919228634059948
endloop
endfacet
facet normal 0.0 1.0 0.0
outer loop
vertex 0.05283493649053892 0.05000000000000001 0.09651279441628825
vertex 0.05716506350946111 0.05000000000000001 0.09401279441628825
vertex 0.04283493649053892 0.05000000000000001 0.07919228634059948
endloop
endfacet
facet normal -0.8660254037844387 0.0 0.5000000000000001
outer loop
vertex 0.04283493649053892 0.05000000000000001 0.07919228634059948
vertex 0.05283493649053892 -0.049999999999999996 0.09651279441628825
vertex 0.05283493649053892 0.05000000000000001 0.09651279441628825
endloop
endfacet
facet normal 0.500000000000001 -0.0 0.8660254037844382
outer loop
vertex 0.05283493649053892 0.05000000000000001 0.09651279441628825
vertex 0.05716506350946111 -0.049999999999999996 0.09401279441628825
vertex 0.05716506350946111 0.05000000000000001 0.09401279441628825
endloop
endfacet
facet normal 0.500000000000001 0.0 0.8660254037844382
outer loop
vertex 0.05283493649053892 -0.049999999999999996 0.09651279441628825
vertex 0.05716506350946111 -0.049999999999999996 0.09401279441628825
vertex 0.05283493649053892 0.05000000000000001 0.09651279441628825
endloop
endfacet
facet normal -0.17364817766692967 0.0 -0.9848077530122082
outer loop
vertex 0.01809035537255426 -0.049999999999999996 0.08819857732693141
vertex 0.01316631660749322 -0.049999999999999996 0.08906681821526606
vertex 0.01809035537255426 0.05000000000000001 0.08819857732693141
endloop
endfacet
facet normal 0.984807753012208 0.0 -0.17364817766693041
outer loop
vertex 0.021563318925892867 0.05000000000000001 0.10789473238717556
vertex 0.01809035537255426 -0.049999999999999996 0.08819857732693141
vertex 0.01809035537255426 0.05000000000000001 0.08819857732693141
endloop
endfacet
facet normal -0.17364817766692967 0.0 -0.9848077530122082
outer loop
vertex 0.01809035537255426 0.05000000000000001 0.08819857732693141
vertex 0.01316631660749322 -0.049999999999999996 0.08906681821526606
vertex 0.01316631660749322 0.05000000000000001 0.08906681821526606
endloop
endfacet
facet normal -0.0 1.0 0.0
outer loop
vertex 0.01316631660749322 0.05000000000000001 0.08906681821526606
vertex 0.021563318925892867 0.05000000000000001 0.10789473238717556
vertex 0.01809035537255426 0.05000000000000001 0.08819857732693141
endloop
endfacet
facet normal -0.0 -0.9999999999999999 0.0
outer loop
vertex 0.01809035537255426 -0.049999999999999996 0.08819857732693141
vertex 0.016639280160831826 -0.049999999999999996 0.10876297327551021
vertex 0.01316631660749322 -0.049999999999999996 0.08906681821526606
endloop
endfacet
facet normal 0.984807753012208 0.0 -0.17364817766693041
outer loop
vertex 0.021563318925892867 -0.049999999999999996 0.10789473238717556
vertex 0.01809035537255426 -0.049999999999999996 0.08819857732693141
vertex 0.021563318925892867 0.05000000000000001 0.10789473238717556
endloop
endfacet
facet normal -0.0 -1.0 -0.0
outer loop
vertex 0.021563318925892867 -0.049999999999999996 0.10789473238717556
vertex 0.016639280160831826 -0.049999999999999996 0.10876297327551021
vertex 0.01809035537255426 -0.049999999999999996 0.08819857732693141
endloop
endfacet
facet normal -0.984807753012208 0.0 0.17364817766693041
outer loop
vertex 0.01316631660749322 -0.049999999999999996 0.08906681821526606
vertex 0.016639280160831826 -0.049999999999999996 0.10876297327551021
vertex 0.01316631660749322 0.05000000000000001 0.08906681821526606
endloop
endfacet
facet normal 0.0 0.9999999999999999 0.0
outer loop
vertex 0.016639280160831826 0.05000000000000001 0.10876297327551021
vertex 0.021563318925892867 0.05000000000000001 0.10789473238717556
vertex 0.01316631660749322 0.05000000000000001 0.08906681821526606
endloop
endfacet
facet normal -0.984807753012208 0.0 0.17364817766693041
outer loop
vertex 0.01316631660749322 0.05000000000000001 0.08906681821526606
vertex 0.016639280160831826 -0.049999999999999996 0.10876297327551021
vertex 0.016639280160831826 0.05000000000000001 0.10876297327551021
endloop
endfacet
facet normal 0.17364817766692967 -0.0 0.9848077530122082
outer loop
vertex 0.016639280160831826 0.05000000000000001 0.10876297327551021
vertex 0.021563318925892867 -0.049999999999999996 0.10789473238717556
vertex 0.021563318925892867 0.05000000000000001 0.10789473238717556
endloop
endfacet
facet normal 0.17364817766692967 0.0 0.9848077530122082
outer loop
vertex 0.016639280160831826 -0.049999999999999996 0.10876297327551021
vertex 0.021563318925892867 -0.049999999999999996 0.10789473238717556
vertex 0.016639280160831826 0.05000000000000001 0.10876297327551021
endloop
endfacet
facet normal 0.17364817766692967 0.0 -0.9848077530122082
outer loop
vertex -0.01316631660749321 -0.049999999999999996 0.08906681821526606
vertex -0.01809035537255425 -0.049999999999999996 0.08819857732693141
vertex -0.01316631660749321 0.05000000000000001 0.08906681821526606
endloop
endfacet
facet normal 0.984807753012208 -0.0 0.17364817766693025
outer loop
vertex -0.016639280160831812 0.05000000000000001 0.10876297327551021
vertex -0.01316631660749321 -0.049999999999999996 0.08906681821526606
vertex -0.01316631660749321 0.05000000000000001 0.08906681821526606
endloop
endfacet
facet normal 0.17364817766692967 0.0 -0.9848077530122082
outer loop
vertex -0.01316631660749321 0.05000000000000001 0.08906681821526606
vertex -0.01809035537255425 -0.049999999999999996 0.08819857732693141
vertex -0.01809035537255425 0.05000000000000001 0.08819857732693141
endloop
endfacet
facet normal -0.0 0.9999999999999999 0.0
outer loop
vertex -0.01809035537255425 0.05000000000000001 0.08819857732693141
vertex -0.016639280160831812 0.05000000000000001 0.10876297327551021
vertex -0.01316631660749321 0.05000000000000001 0.08906681821526606
endloop
endfacet
facet normal -0.0 -0.9999999999999999 -0.0
outer loop
vertex -0.01316631660749321 -0.049999999999999996 0.08906681821526606
vertex -0.021563318925892853 -0.049999999999999996 0.10789473238717556
vertex -0.01809035537255425 -0.049999999999999996 0.08819857732693141
endloop
endfacet
facet normal 0.984807753012208 0.0 0.17364817766693025
outer loop
vertex -0.016639280160831812 -0.049999999999999996 0.10876297327551021
vertex -0.01316631660749321 -0.049999999999999996 0.08906681821526606
vertex -0.016639280160831812 0.05000000000000001 0.10876297327551021
endloop
endfacet
facet normal 0.0 -0.9999999999999999 -0.0
outer loop
vertex -0.016639280160831812 -0.049999999999999996 0.10876297327551021
vertex -0.021563318925892853 -0.049999999999999996 0.10789473238717556
vertex -0.01316631660749321 -0.049999999999999996 0.08906681821526606
endloop
endfacet
facet normal -0.984807753012208 0.0 -0.17364817766693025
outer loop
vertex -0.01809035537255425 -0.049999999999999996 0.08819857732693141
vertex -0.021563318925892853 -0.049999999999999996 0.10789473238717556
vertex -0.01809035537255425 0.05000000000000001 0.08819857732693141
endloop
endfacet
facet normal -0.0 0.9999999999999999 0.0
outer loop
vertex -0.021563318925892853 0.05000000000000001 0.10789473238717556
vertex -0.016639280160831812 0.05000000000000001 0.10876297327551021
vertex -0.01809035537255425 0.05000000000000001 0.08819857732693141
endloop
endfacet
facet normal -0.984807753012208 0.0 -0.17364817766693025
outer loop
vertex -0.01809035537255425 0.05000000000000001 0.08819857732693141
vertex -0.021563318925892853 -0.049999999999999996 0.10789473238717556
vertex -0.021563318925892853 0.05000000000000001 0.10789473238717556
endloop
endfacet
facet normal -0.17364817766692967 0.0 0.9848077530122082
outer loop
vertex -0.021563318925892853 0.05000000000000001 0.10789473238717556
vertex -0.016639280160831812 -0.049999999999999996 0.10876297327551021
vertex -0.016639280160831812 0.05000000000000001 0.10876297327551021
endloop
endfacet
facet normal -0.17364817766692967 0.0 0.9848077530122082
outer loop
vertex -0.021563318925892853 -0.049999999999999996 0.10789473238717556
vertex -0.016639280160831812 -0.049999999999999996 0.10876297327551021
vertex -0.021563318925892853 0.05000000000000001 0.10789473238717556
endloop
endfacet
facet normal 0.49999999999999967 0.0 -0.8660254037844387
outer loop
vertex -0.042834936490538884 -0.049999999999999996 0.0791922863405995
vertex -0.047165063509461085 -0.049999999999999996 0.07669228634059949
vertex -0.042834936490538884 0.05000000000000001 0.0791922863405995
endloop
endfacet
facet normal 0.8660254037844387 -0.0 0.4999999999999999
outer loop
vertex -0.05283493649053887 0.05000000000000001 0.09651279441628825
vertex -0.042834936490538884 -0.049999999999999996 0.0791922863405995
vertex -0.042834936490538884 0.05000000000000001 0.0791922863405995
endloop
endfacet
facet normal 0.49999999999999967 0.0 -0.8660254037844387
outer loop
vertex -0.042834936490538884 0.05000000000000001 0.0791922863405995
vertex -0.047165063509461085 -0.049999999999999996 0.07669228634059949
vertex -0.047165063509461085 0.05000000000000001 0.07669228634059949
endloop
endfacet
facet normal -0.0 1.0 -0.0
outer loop
vertex -0.047165063509461085 0.05000000000000001 0.07669228634059949
vertex -0.05283493649053887 0.05000000000000001 0.09651279441628825
vertex -0.042834936490538884 0.05000000000000001 0.0791922863405995
endloop
endfacet
facet normal -0.0 -1.0 -0.0
outer loop
vertex -0.042834936490538884 -0.049999999999999996 0.0791922863405995
vertex -0.05716506350946107 -0.049999999999999996 0.09401279441628825
vertex -0.047165063509461085 -0.049999999999999996 0.07669228634059949
endloop
endfacet
facet normal 0.8660254037844387 0.0 0.4999999999999999
outer loop
vertex -0.05283493649053887 -0.049999999999999996 0.09651279441628825
vertex -0.042834936490538884 -0.049999999999999996 0.0791922863405995
vertex -0.05283493649053887 0.05000000000000001 0.09651279441628825
endloop
endfacet
facet normal 0.0 -1.0 -0.0
outer loop
vertex -0.05283493649053887 -0.049999999999999996 0.09651279441628825
vertex -0.05716506350946107 -0.049999999999999996 0.09401279441628825
vertex -0.042834936490538884 -0.049999999999999996 0.0791922863405995
endloop
endfacet
facet normal -0.8660254037844387 0.0 -0.4999999999999999
outer loop
vertex -0.047165063509461085 -0.049999999999999996 0.07669228634059949
vertex -0.05716506350946107 -0.049999999999999996 0.09401279441628825
vertex -0.047165063509461085 0.05000000000000001 0.07669228634059949
endloop
endfacet
facet normal -0.0 1.0 0.0
outer loop
vertex -0.05716506350946107 0.05000000000000001 0.09401279441628825
vertex -0.05283493649053887 0.05000000000000001 0.09651279441628825
vertex -0.047165063509461085 0.05000000000000001 0.07669228634059949
endloop
endfacet
facet normal -0.8660254037844387 0.0 -0.4999999999999999
outer loop
vertex -0.047165063509461085 0.05000000000000001 0.07669228634059949
vertex -0.05716506350946107 -0.049999999999999996 0.09401279441628825
vertex -0.05716506350946107 0.05000000000000001 0.09401279441628825
endloop
endfacet
facet normal -0.49999999999999967 0.0 0.8660254037844387
outer loop
vertex -0.05716506350946107 0.05000000000000001 0.09401279441628825
vertex -0.05283493649053887 -0.049999999999999996 0.09651279441628825
vertex -0.05283493649053887 0.05000000000000001 0.09651279441628825
endloop
endfacet
facet normal -0.49999999999999967 0.0 0.8660254037844387
outer loop
vertex -0.05716506350946107 -0.049999999999999996 0.09401279441628825
vertex -0.05283493649053887 -0.049999999999999996 0.09651279441628825
vertex -0.05716506350946107 0.05000000000000001 0.09401279441628825
endloop
endfacet
facet normal 0.7660444431189769 0.0 -0.6427876096865406
outer loop
vertex -0.06733703085649168 -0.049999999999999996 0.059765995979586
vertex -0.07055096890492438 -0.05 0.055935773763991115
vertex -0.06733703085649168 0.05000000000000001 0.059765995979586
endloop
endfacet
facet normal 0.6427876096865399 -0.0 0.7660444431189778
outer loop
vertex -0.08265791971887122 0.05000000000000001 0.07262174817331679
vertex -0.06733703085649168 -0.049999999999999996 0.059765995979586
vertex -0.06733703085649168 0.05000000000000001 0.059765995979586
endloop
endfacet
facet normal 0.7660444431189769 0.0 -0.6427876096865406
outer loop
vertex -0.06733703085649168 0.05000000000000001 0.059765995979586
vertex -0.07055096890492438 -0.05 0.055935773763991115
vertex -0.07055096890492438 0.05 0.055935773763991115
endloop
endfacet
facet normal -8.920470052722062e-16 0.9999999999999999 -1.0631002232960565e-15
outer loop
vertex -0.07055096890492438 0.05 0.055935773763991115
vertex -0.08265791971887122 0.05000000000000001 0.07262174817331679
vertex -0.06733703085649168 0.05000000000000001 0.059765995979586
endloop
endfacet
facet normal 6.262719494481918e-16 -0.9999999999999999 1.2861119746141091e-15
outer loop
vertex -0.06733703085649168 -0.049999999999999996 0.059765995979586
vertex -0.08587185776730392 -0.049999999999999996 0.0687915259577219
vertex -0.07055096890492438 -0.05 0.055935773763991115
endloop
endfacet
facet normal 0.6427876096865399 0.0 0.7660444431189778
outer loop
vertex -0.08265791971887122 -0.049999999999999996 0.07262174817331679
vertex -0.06733703085649168 -0.049999999999999996 0.059765995979586
vertex -0.08265791971887122 0.05000000000000001 0.07262174817331679
endloop
endfacet
facet normal 0.0 -1.0 -0.0
outer loop
vertex -0.08265791971887122 -0.049999999999999996 0.07262174817331679
vertex -0.08587185776730392 -0.049999999999999996 0.0687915259577219
vertex -0.06733703085649168 -0.049999999999999996 0.059765995979586
endloop
endfacet
facet normal -0.6427876096865395 0.0 -0.7660444431189779
outer loop
vertex -0.07055096890492438 -0.05 0.055935773763991115
vertex -0.08587185776730392 -0.049999999999999996 0.0687915259577219
vertex -0.07055096890492438 0.05 0.055935773763991115
endloop
endfacet
facet normal 2.6577505582401447e-16 1.0 -2.230117513180515e-16
outer loop
vertex -0.08587185776730392 0.05000000000000001 0.0687915259577219
vertex -0.08265791971887122 0.05000000000000001 0.07262174817331679
vertex -0.07055096890492438 0.05 0.055935773763991115
endloop
endfacet
facet normal -0.6427876096865395 0.0 -0.7660444431189779
outer loop
vertex -0.07055096890492438 0.05 0.055935773763991115
vertex -0.08587185776730392 -0.049999999999999996 0.0687915259577219
vertex -0.08587185776730392 0.05000000000000001 0.0687915259577219
endloop
endfacet
facet normal -0.7660444431189781 0.0 0.6427876096865394
outer loop
vertex -0.08587185776730392 0.05000000000000001 0.0687915259577219
vertex -0.08265791971887122 -0.049999999999999996 0.07262174817331679
vertex -0.08265791971887122 0.05000000000000001 0.07262174817331679
endloop
endfacet
facet normal -0.7660444431189781 0.0 0.6427876096865394
outer loop
vertex -0.08587185776730392 -0.049999999999999996 0.0687915259577219
vertex -0.08265791971887122 -0.049999999999999996 0.07262174817331679
vertex -0.08587185776730392 0.05000000000000001 0.0687915259577219
endloop
endfacet
facet normal 0.9396926207859091 0.0 -0.34202014332566694
outer loop
vertex -0.0837172855124176 -0.05 0.033131044451274974
vertex -0.08542738622904593 -0.05 0.028432581347345436
vertex -0.0837172855124176 0.05 0.033131044451274974
endloop
endfacet
facet normal 0.3420201433256691 -0.0 0.9396926207859083
outer loop
vertex -0.10251113792813575 0.05 0.03997144731778835
vertex -0.0837172855124176 -0.05 0.033131044451274974
vertex -0.0837172855124176 0.05 0.033131044451274974
endloop
endfacet
facet normal 0.9396926207859093 -2.373241487535944e-17 -0.34202014332566655
outer loop
vertex -0.0837172855124176 0.05 0.033131044451274974
vertex -0.08542738622904593 -0.05 0.028432581347345436
vertex -0.08542738622904593 0.05 0.02843258134734543
endloop
endfacet
facet normal -0.0 0.9999999999999999 -0.0
outer loop
vertex -0.08542738622904593 0.05 0.02843258134734543
vertex -0.10251113792813575 0.05 0.03997144731778835
vertex -0.0837172855124176 0.05 0.033131044451274974
endloop
endfacet
facet normal -0.0 -0.9999999999999999 -0.0
outer loop
vertex -0.0837172855124176 -0.05 0.033131044451274974
vertex -0.10422123864476408 -0.05 0.035272984213858806
vertex -0.08542738622904593 -0.05 0.028432581347345436
endloop
endfacet
facet normal 0.3420201433256691 0.0 0.9396926207859083
outer loop
vertex -0.10251113792813575 -0.05 0.03997144731778835
vertex -0.0837172855124176 -0.05 0.033131044451274974
vertex -0.10251113792813575 0.05 0.03997144731778835
endloop
endfacet
facet normal 0.0 -1.0 -0.0
outer loop
vertex -0.10251113792813575 -0.05 0.03997144731778835
vertex -0.10422123864476408 -0.05 0.035272984213858806
vertex -0.0837172855124176 -0.05 0.033131044451274974
endloop
endfacet
facet normal -0.3420201433256688 -5.4210108624275265e-17 -0.9396926207859084
outer loop
vertex -0.08542738622904593 -0.05 0.028432581347345436
vertex -0.10422123864476408 -0.05 0.035272984213858806
vertex -0.08542738622904593 0.05 0.02843258134734543
endloop
endfacet
facet normal -0.0 0.9999999999999999 0.0
outer loop
vertex -0.10422123864476408 0.05 0.035272984213858806
vertex -0.10251113792813575 0.05 0.03997144731778835
vertex -0.08542738622904593 0.05 0.02843258134734543
endloop
endfacet
facet normal -0.3420201433256691 0.0 -0.9396926207859083
outer loop
vertex -0.08542738622904593 0.05 0.02843258134734543
vertex -0.10422123864476408 -0.05 0.035272984213858806
vertex -0.10422123864476408 0.05 0.035272984213858806
endloop
endfacet
facet normal -0.9396926207859093 0.0 0.34202014332566655
outer loop
vertex -0.10422123864476408 0.05 0.035272984213858806
vertex -0.10251113792813575 -0.05 0.03997144731778835
vertex -0.10251113792813575 0.05 0.03997144731778835
endloop
endfacet
facet normal -0.9396926207859093 0.0 0.34202014332566655
outer loop
vertex -0.10422123864476408 -0.05 0.035272984213858806
vertex -0.10251113792813575 -0.05 0.03997144731778835
vertex -0.10422123864476408 0.05 0.035272984213858806
endloop
endfacet
facet normal 1.0 -0.0 0.0
outer loop
vertex -0.09000000000000001 -0.05 0.002500000000000014
vertex -0.09000000000000001 -0.05 -0.002499999999999986
vertex -0.09000000000000001 0.05 0.002500000000000008
endloop
endfacet
facet normal 1.301042606982606e-16 6.071532165918825e-17 1.0
outer loop
vertex -0.11 0.05 0.0025000000000000105
vertex -0.09000000000000001 -0.05 0.002500000000000014
vertex -0.09000000000000001 0.05 0.002500000000000008
endloop
endfacet
facet normal 1.0 0.0 0.0
outer loop
vertex -0.09000000000000001 0.05 0.002500000000000008
vertex -0.09000000000000001 -0.05 -0.002499999999999986
vertex -0.09000000000000001 0.05 -0.0024999999999999922
endloop
endfacet
facet normal -0.0 1.0 -0.0
outer loop
vertex -0.09000000000000001 0.05 -0.0024999999999999922
vertex -0.11 0.05 0.0025000000000000105
vertex -0.09000000000000001 0.05 0.002500000000000008
endloop
endfacet
facet normal 0.0 -1.0 -0.0
outer loop
vertex -0.09000000000000001 -0.05 0.002500000000000014
vertex -0.11 -0.05 -0.0024999999999999836
vertex -0.09000000000000001 -0.05 -0.002499999999999986
endloop
endfacet
facet normal 1.301042606982606e-16 6.071532165918825e-17 1.0
outer loop
vertex -0.11 -0.05 0.0025000000000000165
vertex -0.09000000000000001 -0.05 0.002500000000000014
vertex -0.11 0.05 0.0025000000000000105
endloop
endfacet
facet normal 0.0 -1.0 0.0
outer loop
vertex -0.11 -0.05 0.0025000000000000165
vertex -0.11 -0.05 -0.0024999999999999836
vertex -0.09000000000000001 -0.05 0.002500000000000014
endloop
endfacet
facet normal -1.301042606982606e-16 -6.071532165918825e-17 -1.0
outer loop
vertex -0.09000000000000001 -0.05 -0.002499999999999986
vertex -0.11 -0.05 -0.0024999999999999836
vertex -0.09000000000000001 0.05 -0.0024999999999999922
endloop
endfacet
facet normal -0.0 1.0 0.0
outer loop
vertex -0.11 0.05 -0.0024999999999999896
vertex -0.11 0.05 0.0025000000000000105
vertex -0.09000000000000001 0.05 -0.0024999999999999922
endloop
endfacet
facet normal -1.3010426069826056e-16 -6.071532165918825e-17 -1.0
outer loop
vertex -0.09000000000000001 0.05 -0.0024999999999999922
vertex -0.11 -0.05 -0.0024999999999999836
vertex -0.11 0.05 -0.0024999999999999896
endloop
endfacet
facet normal -1.0 0.0 0.0
outer loop
vertex -0.11 0.05 -0.0024999999999999896
vertex -0.11 -0.05 0.0025000000000000165
vertex -0.11 0.05 0.0025000000000000105
endloop
endfacet
facet normal -1.0 0.0 0.0
outer loop
vertex -0.11 -0.05 -0.0024999999999999836
vertex -0.11 -0.05 0.0025000000000000165
vertex -0.11 0.05 -0.0024999999999999896
endloop
endfacet
facet normal 0.9396926207859093 2.3716922523120416e-17 0.34202014332566655
outer loop
vertex -0.08542738622904593 -0.05 -0.028432581347345408
vertex -0.0837172855124176 -0.05 -0.03313104445127495
vertex -0.08542738622904593 0.05 -0.028432581347345415
endloop
endfacet
facet normal -0.3420201433256683 6.520427397917949e-17 0.9396926207859086
outer loop
vertex -0.1042212386447641 0.05 -0.03527298421385878
vertex -0.08542738622904593 -0.05 -0.028432581347345408
vertex -0.08542738622904593 0.05 -0.028432581347345415
endloop
endfacet
facet normal 0.9396926207859091 -0.0 0.34202014332566694
outer loop
vertex -0.08542738622904593 0.05 -0.028432581347345415
vertex -0.0837172855124176 -0.05 -0.03313104445127495
vertex -0.0837172855124176 0.05 -0.03313104445127495
endloop
endfacet
facet normal 0.0 1.0 -0.0
outer loop
vertex -0.0837172855124176 0.05 -0.03313104445127495
vertex -0.1042212386447641 0.05 -0.03527298421385878
vertex -0.08542738622904593 0.05 -0.028432581347345415
endloop
endfacet
facet normal 0.0 -1.0 -0.0
outer loop
vertex -0.08542738622904593 -0.05 -0.028432581347345408
vertex -0.10251113792813576 -0.05 -0.039971447317788324
vertex -0.0837172855124176 -0.05 -0.03313104445127495
endloop
endfacet
facet normal -0.34202014332566855 0.0 0.9396926207859084
outer loop
vertex -0.1042212386447641 -0.05 -0.03527298421385878
vertex -0.08542738622904593 -0.05 -0.028432581347345408
vertex -0.1042212386447641 0.05 -0.03527298421385878
endloop
endfacet
facet normal 0.0 -1.0 0.0
outer loop
vertex -0.1042212386447641 -0.05 -0.03527298421385878
vertex -0.10251113792813576 -0.05 -0.039971447317788324
vertex -0.08542738622904593 -0.05 -0.028432581347345408
endloop
endfacet
facet normal 0.34202014332566855 0.0 -0.9396926207859084
outer loop
vertex -0.0837172855124176 -0.05 -0.03313104445127495
vertex -0.10251113792813576 -0.05 -0.039971447317788324
vertex -0.0837172855124176 0.05 -0.03313104445127495
endloop
endfacet
facet normal 0.0 1.0 -0.0
outer loop
vertex -0.10251113792813576 0.05 -0.039971447317788324
vertex -0.1042212386447641 0.05 -0.03527298421385878
vertex -0.0837172855124176 0.05 -0.03313104445127495
endloop
endfacet
facet normal 0.34202014332566855 0.0 -0.9396926207859084
outer loop
vertex -0.0837172855124176 0.05 -0.03313104445127495
vertex -0.10251113792813576 -0.05 -0.039971447317788324
vertex -0.10251113792813576 0.05 -0.039971447317788324
endloop
endfacet
facet normal -0.9396926207859093 0.0 -0.34202014332566655
outer loop
vertex -0.10251113792813576 0.05 -0.039971447317788324
vertex -0.1042212386447641 -0.05 -0.03527298421385878
vertex -0.1042212386447641 0.05 -0.03527298421385878
endloop
endfacet
facet normal -0.9396926207859093 0.0 -0.34202014332566655
outer loop
vertex -0.10251113792813576 -0.05 -0.039971447317788324
vertex -0.1042212386447641 -0.05 -0.03527298421385878
vertex -0.10251113792813576 0.05 -0.039971447317788324
endloop
endfacet
facet normal 0.7660444431189769 0.0 0.6427876096865406
outer loop
vertex -0.07055096890492438 -0.049999999999999996 -0.0559357737639911
vertex -0.06733703085649168 -0.05 -0.059765995979585984
vertex -0.07055096890492438 0.049999999999999996 -0.0559357737639911
endloop
endfacet
facet normal -0.6427876096865387 0.0 0.7660444431189786
outer loop
vertex -0.08587185776730394 0.04999999999999999 -0.06879152595772187
vertex -0.07055096890492438 -0.049999999999999996 -0.0559357737639911
vertex -0.07055096890492438 0.049999999999999996 -0.0559357737639911
endloop
endfacet
facet normal 0.766044443118977 -0.0 0.6427876096865406
outer loop
vertex -0.07055096890492438 0.049999999999999996 -0.0559357737639911
vertex -0.06733703085649168 -0.05 -0.059765995979585984
vertex -0.06733703085649168 0.04999999999999999 -0.059765995979585984
endloop
endfacet
facet normal 6.262719494481908e-16 0.9999999999999999 -1.2861119746141099e-15
outer loop
vertex -0.06733703085649168 0.04999999999999999 -0.059765995979585984
vertex -0.08587185776730394 0.04999999999999999 -0.06879152595772187
vertex -0.07055096890492438 0.049999999999999996 -0.0559357737639911
endloop
endfacet
facet normal -8.920470052722052e-16 -0.9999999999999999 1.0631002232960575e-15
outer loop
vertex -0.07055096890492438 -0.049999999999999996 -0.0559357737639911
vertex -0.08265791971887124 -0.05 -0.07262174817331676
vertex -0.06733703085649168 -0.05 -0.059765995979585984
endloop
endfacet
facet normal -0.6427876096865387 0.0 0.7660444431189786
outer loop
vertex -0.08587185776730394 -0.05 -0.06879152595772187
vertex -0.07055096890492438 -0.049999999999999996 -0.0559357737639911
vertex -0.08587185776730394 0.04999999999999999 -0.06879152595772187
endloop
endfacet
facet normal 2.6577505582401447e-16 -1.0 2.230117513180515e-16
outer loop
vertex -0.08587185776730394 -0.05 -0.06879152595772187
vertex -0.08265791971887124 -0.05 -0.07262174817331676
vertex -0.07055096890492438 -0.049999999999999996 -0.0559357737639911
endloop
endfacet
facet normal 0.642787609686539 0.0 -0.7660444431189782
outer loop
vertex -0.06733703085649168 -0.05 -0.059765995979585984
vertex -0.08265791971887124 -0.05 -0.07262174817331676
vertex -0.06733703085649168 0.04999999999999999 -0.059765995979585984
endloop
endfacet
facet normal 0.0 1.0 -0.0
outer loop
vertex -0.08265791971887124 0.04999999999999999 -0.07262174817331676
vertex -0.08587185776730394 0.04999999999999999 -0.06879152595772187
vertex -0.06733703085649168 0.04999999999999999 -0.059765995979585984
endloop
endfacet
facet normal 0.642787609686539 0.0 -0.7660444431189782
outer loop
vertex -0.06733703085649168 0.04999999999999999 -0.059765995979585984
vertex -0.08265791971887124 -0.05 -0.07262174817331676
vertex -0.08265791971887124 0.04999999999999999 -0.07262174817331676
endloop
endfacet
facet normal -0.7660444431189781 0.0 -0.6427876096865393
outer loop
vertex -0.08265791971887124 0.04999999999999999 -0.07262174817331676
vertex -0.08587185776730394 -0.05 -0.06879152595772187
vertex -0.08587185776730394 0.04999999999999999 -0.06879152595772187
endloop
endfacet
facet normal -0.7660444431189781 0.0 -0.6427876096865393
outer loop
vertex -0.08265791971887124 -0.05 -0.07262174817331676
vertex -0.08587185776730394 -0.05 -0.06879152595772187
vertex -0.08265791971887124 0.04999999999999999 -0.07262174817331676
endloop
endfacet
facet normal 0.500000000000001 0.0 0.8660254037844382
outer loop
vertex -0.04716506350946114 -0.05000000000000001 -0.07669228634059946
vertex -0.042834936490538954 -0.05000000000000001 -0.07919228634059947
vertex -0.04716506350946114 0.049999999999999996 -0.07669228634059946
endloop
endfacet
facet normal -0.8660254037844385 0.0 0.5000000000000003
outer loop
vertex -0.05716506350946114 0.049999999999999996 -0.09401279441628822
vertex -0.04716506350946114 -0.05000000000000001 -0.07669228634059946
vertex -0.04716506350946114 0.049999999999999996 -0.07669228634059946
endloop
endfacet
facet normal 0.500000000000001 -0.0 0.8660254037844382
outer loop
vertex -0.04716506350946114 0.049999999999999996 -0.07669228634059946
vertex -0.042834936490538954 -0.05000000000000001 -0.07919228634059947
vertex -0.042834936490538954 0.049999999999999996 -0.07919228634059947
endloop
endfacet
facet normal 0.0 0.9999999999999999 -0.0
outer loop
vertex -0.042834936490538954 0.049999999999999996 -0.07919228634059947
vertex -0.05716506350946114 0.049999999999999996 -0.09401279441628822
vertex -0.04716506350946114 0.049999999999999996 -0.07669228634059946
endloop
endfacet
facet normal 0.0 -1.0 -0.0
outer loop
vertex -0.04716506350946114 -0.05000000000000001 -0.07669228634059946
vertex -0.052834936490538956 -0.05000000000000001 -0.09651279441628823
vertex -0.042834936490538954 -0.05000000000000001 -0.07919228634059947
endloop
endfacet
facet normal -0.8660254037844385 0.0 0.5000000000000003
outer loop
vertex -0.05716506350946114 -0.05000000000000001 -0.09401279441628822
vertex -0.04716506350946114 -0.05000000000000001 -0.07669228634059946
vertex -0.05716506350946114 0.049999999999999996 -0.09401279441628822
endloop
endfacet
facet normal 0.0 -1.0 0.0
outer loop
vertex -0.05716506350946114 -0.05000000000000001 -0.09401279441628822
vertex -0.052834936490538956 -0.05000000000000001 -0.09651279441628823
vertex -0.04716506350946114 -0.05000000000000001 -0.07669228634059946
endloop
endfacet
facet normal 0.8660254037844385 0.0 -0.5000000000000003
outer loop
vertex -0.042834936490538954 -0.05000000000000001 -0.07919228634059947
vertex -0.052834936490538956 -0.05000000000000001 -0.09651279441628823
vertex -0.042834936490538954 0.049999999999999996 -0.07919228634059947
endloop
endfacet
facet normal 0.0 1.0 -0.0
outer loop
vertex -0.052834936490538956 0.049999999999999996 -0.09651279441628823
vertex -0.05716506350946114 0.049999999999999996 -0.09401279441628822
vertex -0.042834936490538954 0.049999999999999996 -0.07919228634059947
endloop
endfacet
facet normal 0.8660254037844385 0.0 -0.5000000000000003
outer loop
vertex -0.042834936490538954 0.049999999999999996 -0.07919228634059947
vertex -0.052834936490538956 -0.05000000000000001 -0.09651279441628823
vertex -0.052834936490538956 0.049999999999999996 -0.09651279441628823
endloop
endfacet
facet normal -0.500000000000001 0.0 -0.8660254037844382
outer loop
vertex -0.052834936490538956 0.049999999999999996 -0.09651279441628823
vertex -0.05716506350946114 -0.05000000000000001 -0.09401279441628822
vertex -0.05716506350946114 0.049999999999999996 -0.09401279441628822
endloop
endfacet
facet normal -0.500000000000001 0.0 -0.8660254037844382
outer loop
vertex -0.052834936490538956 -0.05000000000000001 -0.09651279441628823
vertex -0.05716506350946114 -0.05000000000000001 -0.09401279441628822
vertex -0.052834936490538956 0.049999999999999996 -0.09651279441628823
endloop
endfacet
facet normal 0.17364817766692967 0.0 0.9848077530122082
outer loop
vertex -0.018090355372554254 -0.05000000000000001 -0.08819857732693141
vertex -0.013166316607493213 -0.05000000000000001 -0.08906681821526606
vertex -0.018090355372554254 0.049999999999999996 -0.08819857732693141
endloop
endfacet
facet normal -0.984807753012208 0.0 0.17364817766693025
outer loop
vertex -0.021563318925892857 0.049999999999999996 -0.10789473238717556
vertex -0.018090355372554254 -0.05000000000000001 -0.08819857732693141
vertex -0.018090355372554254 0.049999999999999996 -0.08819857732693141
endloop
endfacet
facet normal 0.17364817766692967 -0.0 0.9848077530122082
outer loop
vertex -0.018090355372554254 0.049999999999999996 -0.08819857732693141
vertex -0.013166316607493213 -0.05000000000000001 -0.08906681821526606
vertex -0.013166316607493213 0.049999999999999996 -0.08906681821526606
endloop
endfacet
facet normal 0.0 0.9999999999999999 -0.0
outer loop
vertex -0.013166316607493213 0.049999999999999996 -0.08906681821526606
vertex -0.021563318925892857 0.049999999999999996 -0.10789473238717556
vertex -0.018090355372554254 0.049999999999999996 -0.08819857732693141
endloop
endfacet
facet normal 0.0 -0.9999999999999999 0.0
outer loop
vertex -0.018090355372554254 -0.05000000000000001 -0.08819857732693141
vertex -0.016639280160831816 -0.05000000000000001 -0.10876297327551021
vertex -0.013166316607493213 -0.05000000000000001 -0.08906681821526606
endloop
endfacet
facet normal -0.984807753012208 0.0 0.17364817766693025
outer loop
vertex -0.021563318925892857 -0.05000000000000001 -0.10789473238717556
vertex -0.018090355372554254 -0.05000000000000001 -0.08819857732693141
vertex -0.021563318925892857 0.049999999999999996 -0.10789473238717556
endloop
endfacet
facet normal 0.0 -0.9999999999999999 0.0
outer loop
vertex -0.021563318925892857 -0.05000000000000001 -0.10789473238717556
vertex -0.016639280160831816 -0.05000000000000001 -0.10876297327551021
vertex -0.018090355372554254 -0.05000000000000001 -0.08819857732693141
endloop
endfacet
facet normal 0.984807753012208 0.0 -0.17364817766693025
outer loop
vertex -0.013166316607493213 -0.05000000000000001 -0.08906681821526606
vertex -0.016639280160831816 -0.05000000000000001 -0.10876297327551021
vertex -0.013166316607493213 0.049999999999999996 -0.08906681821526606
endloop
endfacet
facet normal 0.0 0.9999999999999999 -0.0
outer loop
vertex -0.016639280160831816 0.049999999999999996 -0.10876297327551021
vertex -0.021563318925892857 0.049999999999999996 -0.10789473238717556
vertex -0.013166316607493213 0.049999999999999996 -0.08906681821526606
endloop
endfacet
facet normal 0.984807753012208 0.0 -0.17364817766693025
outer loop
vertex -0.013166316607493213 0.049999999999999996 -0.08906681821526606
vertex -0.016639280160831816 -0.05000000000000001 -0.10876297327551021
vertex -0.016639280160831816 0.049999999999999996 -0.10876297327551021
endloop
endfacet
facet normal -0.17364817766692967 0.0 -0.9848077530122082
outer loop
vertex -0.016639280160831816 0.049999999999999996 -0.10876297327551021
vertex -0.021563318925892857 -0.05000000000000001 -0.10789473238717556
vertex -0.021563318925892857 0.049999999999999996 -0.10789473238717556
endloop
endfacet
facet normal -0.17364817766692967 0.0 -0.9848077530122082
outer loop
vertex -0.016639280160831816 -0.05000000000000001 -0.10876297327551021
vertex -0.021563318925892857 -0.05000000000000001 -0.10789473238717556
vertex -0.016639280160831816 0.049999999999999996 -0.10876297327551021
endloop
endfacet
facet normal -0.17364817766692967 0.0 0.9848077530122082
outer loop
vertex 0.013166316607493178 -0.05000000000000001 -0.08906681821526606
vertex 0.01809035537255422 -0.05000000000000001 -0.08819857732693141
vertex 0.013166316607493178 0.049999999999999996 -0.08906681821526606
endloop
endfacet
facet normal -0.9848077530122082 0.0 -0.17364817766692997
outer loop
vertex 0.016639280160831778 0.049999999999999996 -0.10876297327551022
vertex 0.013166316607493178 -0.05000000000000001 -0.08906681821526606
vertex 0.013166316607493178 0.049999999999999996 -0.08906681821526606
endloop
endfacet
facet normal -0.17364817766692967 0.0 0.9848077530122082
outer loop
vertex 0.013166316607493178 0.049999999999999996 -0.08906681821526606
vertex 0.01809035537255422 -0.05000000000000001 -0.08819857732693141
vertex 0.01809035537255422 0.049999999999999996 -0.08819857732693141
endloop
endfacet
facet normal 0.0 1.0 0.0
outer loop
vertex 0.01809035537255422 0.049999999999999996 -0.08819857732693141
vertex 0.016639280160831778 0.049999999999999996 -0.10876297327551022
vertex 0.013166316607493178 0.049999999999999996 -0.08906681821526606
endloop
endfacet
facet normal 0.0 -1.0 0.0
outer loop
vertex 0.013166316607493178 -0.05000000000000001 -0.08906681821526606
vertex 0.02156331892589282 -0.05000000000000001 -0.10789473238717558
vertex 0.01809035537255422 -0.05000000000000001 -0.08819857732693141
endloop
endfacet
facet normal -0.9848077530122082 0.0 -0.17364817766692997
outer loop
vertex 0.016639280160831778 -0.05000000000000001 -0.10876297327551022
vertex 0.013166316607493178 -0.05000000000000001 -0.08906681821526606
vertex 0.016639280160831778 0.049999999999999996 -0.10876297327551022
endloop
endfacet
facet normal 0.0 -1.0 0.0
outer loop
vertex 0.016639280160831778 -0.05000000000000001 -0.10876297327551022
vertex 0.02156331892589282 -0.05000000000000001 -0.10789473238717558
vertex 0.013166316607493178 -0.05000000000000001 -0.08906681821526606
endloop
endfacet
facet normal 0.9848077530122082 0.0 0.17364817766692997
outer loop
vertex 0.01809035537255422 -0.05000000000000001 -0.08819857732693141
vertex 0.02156331892589282 -0.05000000000000001 -0.10789473238717558
vertex 0.01809035537255422 0.049999999999999996 -0.08819857732693141
endloop
endfacet
facet normal 0.0 1.0 -0.0
outer loop
vertex 0.02156331892589282 0.049999999999999996 -0.10789473238717558
vertex 0.016639280160831778 0.049999999999999996 -0.10876297327551022
vertex 0.01809035537255422 0.049999999999999996 -0.08819857732693141
endloop
endfacet
facet normal 0.9848077530122082 -0.0 0.17364817766692997
outer loop
vertex 0.01809035537255422 0.049999999999999996 -0.08819857732693141
vertex 0.02156331892589282 -0.05000000000000001 -0.10789473238717558
vertex 0.02156331892589282 0.049999999999999996 -0.10789473238717558
endloop
endfacet
facet normal 0.17364817766692967 0.0 -0.9848077530122082
outer loop
vertex 0.02156331892589282 0.049999999999999996 -0.10789473238717558
vertex 0.016639280160831778 -0.05000000000000001 -0.10876297327551022
vertex 0.016639280160831778 0.049999999999999996 -0.10876297327551022
endloop
endfacet
facet normal 0.17364817766692967 0.0 -0.9848077530122082
outer loop
vertex 0.02156331892589282 -0.05000000000000001 -0.10789473238717558
vertex 0.016639280160831778 -0.05000000000000001 -0.10876297327551022
vertex 0.02156331892589282 0.049999999999999996 -0.10789473238717558
endloop
endfacet
facet normal -0.500000000000001 0.0 0.8660254037844382
outer loop
vertex 0.04283493649053892 -0.05000000000000001 -0.07919228634059948
vertex 0.047165063509461105 -0.05000000000000001 -0.07669228634059948
vertex 0.04283493649053892 0.049999999999999996 -0.07919228634059948
endloop
endfacet
facet normal -0.8660254037844387 0.0 -0.5000000000000001
outer loop
vertex 0.05283493649053892 0.049999999999999996 -0.09651279441628825
vertex 0.04283493649053892 -0.05000000000000001 -0.07919228634059948
vertex 0.04283493649053892 0.049999999999999996 -0.07919228634059948
endloop
endfacet
facet normal -0.500000000000001 0.0 0.8660254037844382
outer loop
vertex 0.04283493649053892 0.049999999999999996 -0.07919228634059948
vertex 0.047165063509461105 -0.05000000000000001 -0.07669228634059948
vertex 0.047165063509461105 0.049999999999999996 -0.07669228634059948
endloop
endfacet
facet normal 0.0 1.0 0.0
outer loop
vertex 0.047165063509461105 0.049999999999999996 -0.07669228634059948
vertex 0.05283493649053892 0.049999999999999996 -0.09651279441628825
vertex 0.04283493649053892 0.049999999999999996 -0.07919228634059948
endloop
endfacet
facet normal 0.0 -1.0 0.0
outer loop
vertex 0.04283493649053892 -0.05000000000000001 -0.07919228634059948
vertex 0.05716506350946111 -0.05000000000000001 -0.09401279441628825
vertex 0.047165063509461105 -0.05000000000000001 -0.07669228634059948
endloop
endfacet
facet normal -0.8660254037844387 0.0 -0.5000000000000001
outer loop
vertex 0.05283493649053892 -0.05000000000000001 -0.09651279441628825
vertex 0.04283493649053892 -0.05000000000000001 -0.07919228634059948
vertex 0.05283493649053892 0.049999999999999996 -0.09651279441628825
endloop
endfacet
facet normal 0.0 -1.0 0.0
outer loop
vertex 0.05283493649053892 -0.05000000000000001 -0.09651279441628825
vertex 0.05716506350946111 -0.05000000000000001 -0.09401279441628825
vertex 0.04283493649053892 -0.05000000000000001 -0.07919228634059948
endloop
endfacet
facet normal 0.8660254037844387 0.0 0.5000000000000001
outer loop
vertex 0.047165063509461105 -0.05000000000000001 -0.07669228634059948
vertex 0.05716506350946111 -0.05000000000000001 -0.09401279441628825
vertex 0.047165063509461105 0.049999999999999996 -0.07669228634059948
endloop
endfacet
facet normal 0.0 1.0 0.0
outer loop
vertex 0.05716506350946111 0.049999999999999996 -0.09401279441628825
vertex 0.05283493649053892 0.049999999999999996 -0.09651279441628825
vertex 0.047165063509461105 0.049999999999999996 -0.07669228634059948
endloop
endfacet
facet normal 0.8660254037844387 -0.0 0.5000000000000001
outer loop
vertex 0.047165063509461105 0.049999999999999996 -0.07669228634059948
vertex 0.05716506350946111 -0.05000000000000001 -0.09401279441628825
vertex 0.05716506350946111 0.049999999999999996 -0.09401279441628825
endloop
endfacet
facet normal 0.500000000000001 0.0 -0.8660254037844382
outer loop
vertex 0.05716506350946111 0.049999999999999996 -0.09401279441628825
vertex 0.05283493649053892 -0.05000000000000001 -0.09651279441628825
vertex 0.05283493649053892 0.049999999999999996 -0.09651279441628825
endloop
endfacet
facet normal 0.500000000000001 0.0 -0.8660254037844382
outer loop
vertex 0.05716506350946111 -0.05000000000000001 -0.09401279441628825
vertex 0.05283493649053892 -0.05000000000000001 -0.09651279441628825
vertex 0.05716506350946111 0.049999999999999996 -0.09401279441628825
endloop
endfacet
facet normal -0.7660444431189769 0.0 0.6427876096865406
outer loop
vertex 0.06733703085649166 -0.05000000000000001 -0.05976599597958601
vertex 0.07055096890492436 -0.05 -0.05593577376399113
vertex 0.06733703085649166 0.049999999999999996 -0.05976599597958601
endloop
endfacet
facet normal -0.6427876096865399 0.0 -0.7660444431189778
outer loop
vertex 0.08265791971887121 0.049999999999999996 -0.0726217481733168
vertex 0.06733703085649166 -0.05000000000000001 -0.05976599597958601
vertex 0.06733703085649166 0.049999999999999996 -0.05976599597958601
endloop
endfacet
facet normal -0.7660444431189769 0.0 0.6427876096865406
outer loop
vertex 0.06733703085649166 0.049999999999999996 -0.05976599597958601
vertex 0.07055096890492436 -0.05 -0.05593577376399113
vertex 0.07055096890492436 0.05 -0.05593577376399113
endloop
endfacet
facet normal -8.920470052722062e-16 0.9999999999999999 -1.0631002232960565e-15
outer loop
vertex 0.07055096890492436 0.05 -0.05593577376399113
vertex 0.08265791971887121 0.049999999999999996 -0.0726217481733168
vertex 0.06733703085649166 0.049999999999999996 -0.05976599597958601
endloop
endfacet
facet normal 6.262719494481918e-16 -0.9999999999999999 1.2861119746141091e-15
outer loop
vertex 0.06733703085649166 -0.05000000000000001 -0.05976599597958601
vertex 0.08587185776730391 -0.05000000000000001 -0.06879152595772191
vertex 0.07055096890492436 -0.05 -0.05593577376399113
endloop
endfacet
facet normal -0.6427876096865399 0.0 -0.7660444431189778
outer loop
vertex 0.08265791971887121 -0.05000000000000001 -0.0726217481733168
vertex 0.06733703085649166 -0.05000000000000001 -0.05976599597958601
vertex 0.08265791971887121 0.049999999999999996 -0.0726217481733168
endloop
endfacet
facet normal 0.0 -1.0 0.0
outer loop
vertex 0.08265791971887121 -0.05000000000000001 -0.0726217481733168
vertex 0.08587185776730391 -0.05000000000000001 -0.06879152595772191
vertex 0.06733703085649166 -0.05000000000000001 -0.05976599597958601
endloop
endfacet
facet normal 0.6427876096865395 0.0 0.7660444431189779
outer loop
vertex 0.07055096890492436 -0.05 -0.05593577376399113
vertex 0.08587185776730391 -0.05000000000000001 -0.06879152595772191
vertex 0.07055096890492436 0.05 -0.05593577376399113
endloop
endfacet
facet normal 2.6577505582401447e-16 1.0 -2.230117513180515e-16
outer loop
vertex 0.08587185776730391 0.049999999999999996 -0.06879152595772191
vertex 0.08265791971887121 0.049999999999999996 -0.0726217481733168
vertex 0.07055096890492436 0.05 -0.05593577376399113
endloop
endfacet
facet normal 0.6427876096865395 -0.0 0.7660444431189779
outer loop
vertex 0.07055096890492436 0.05 -0.05593577376399113
vertex 0.08587185776730391 -0.05000000000000001 -0.06879152595772191
vertex 0.08587185776730391 0.049999999999999996 -0.06879152595772191
endloop
endfacet
facet normal 0.7660444431189781 0.0 -0.6427876096865394
outer loop
vertex 0.08587185776730391 0.049999999999999996 -0.06879152595772191
vertex 0.08265791971887121 -0.05000000000000001 -0.0726217481733168
vertex 0.08265791971887121 0.049999999999999996 -0.0726217481733168
endloop
endfacet
facet normal 0.7660444431189781 0.0 -0.6427876096865394
outer loop
vertex 0.08587185776730391 -0.05000000000000001 -0.06879152595772191
vertex 0.08265791971887121 -0.05000000000000001 -0.0726217481733168
vertex 0.08587185776730391 0.049999999999999996 -0.06879152595772191
endloop
endfacet
facet normal -0.9396926207859072 0.0 0.34202014332567154
outer loop
vertex 0.08371728551241756 -0.05 -0.03313104445127502
vertex 0.08542738622904592 -0.05 -0.02843258134734548
vertex 0.08371728551241756 0.05 -0.03313104445127502
endloop
endfacet
facet normal -0.34202014332566977 0.0 -0.9396926207859081
outer loop
vertex 0.10251113792813571 0.05 -0.039971447317788414
vertex 0.08371728551241756 -0.05 -0.03313104445127502
vertex 0.08371728551241756 0.05 -0.03313104445127502
endloop
endfacet
facet normal -0.9396926207859073 2.3732414875359825e-17 0.3420201433256721
outer loop
vertex 0.08371728551241756 0.05 -0.03313104445127502
vertex 0.08542738622904592 -0.05 -0.02843258134734548
vertex 0.08542738622904592 0.05 -0.028432581347345488
endloop
endfacet
facet normal 0.0 0.9999999999999999 0.0
outer loop
vertex 0.08542738622904592 0.05 -0.028432581347345488
vertex 0.10251113792813571 0.05 -0.039971447317788414
vertex 0.08371728551241756 0.05 -0.03313104445127502
endloop
endfacet
facet normal 0.0 -1.0 0.0
outer loop
vertex 0.08371728551241756 -0.05 -0.03313104445127502
vertex 0.10422123864476407 -0.05 -0.03527298421385887
vertex 0.08542738622904592 -0.05 -0.02843258134734548
endloop
endfacet
facet normal -0.34202014332566977 0.0 -0.9396926207859081
outer loop
vertex 0.10251113792813571 -0.05 -0.039971447317788414
vertex 0.08371728551241756 -0.05 -0.03313104445127502
vertex 0.10251113792813571 0.05 -0.039971447317788414
endloop
endfacet
facet normal 0.0 -1.0 0.0
outer loop
vertex 0.10251113792813571 -0.05 -0.039971447317788414
vertex 0.10422123864476407 -0.05 -0.03527298421385887
vertex 0.08371728551241756 -0.05 -0.03313104445127502
endloop
endfacet
facet normal 0.3420201433256696 6.776263578034405e-17 0.9396926207859081
outer loop
vertex 0.08542738622904592 -0.05 -0.02843258134734548
vertex 0.10422123864476407 -0.05 -0.03527298421385887
vertex 0.08542738622904592 0.05 -0.028432581347345488
endloop
endfacet
facet normal 0.0 1.0 0.0
outer loop
vertex 0.10422123864476407 0.05 -0.03527298421385887
vertex 0.10251113792813571 0.05 -0.039971447317788414
vertex 0.08542738622904592 0.05 -0.028432581347345488
endloop
endfacet
facet normal 0.34202014332566927 -0.0 0.9396926207859083
outer loop
vertex 0.08542738622904592 0.05 -0.028432581347345488
vertex 0.10422123864476407 -0.05 -0.03527298421385887
vertex 0.10422123864476407 0.05 -0.03527298421385887
endloop
endfacet
facet normal 0.9396926207859075 0.0 -0.34202014332567143
outer loop
vertex 0.10422123864476407 0.05 -0.03527298421385887
vertex 0.10251113792813571 -0.05 -0.039971447317788414
vertex 0.10251113792813571 0.05 -0.039971447317788414
endloop
endfacet
facet normal 0.9396926207859075 0.0 -0.34202014332567143
outer loop
vertex 0.10422123864476407 -0.05 -0.03527298421385887
vertex 0.10251113792813571 -0.05 -0.039971447317788414
vertex 0.10422123864476407 0.05 -0.03527298421385887
endloop
endfacet

endsolid
