solid 
facet normal 0.0 1.0 -1.0143984264254389e-16
outer loop
vertex 0.1 0.025 -1.5308084989341916e-18
vertex 0.0 0.025 -1.5308084989341916e-18
vertex 0.09396926207859085 0.025000000000000005 0.03420201433256687
endloop
endfacet
facet normal 0.984807753012208 0.0 0.17364817766693008
outer loop
vertex 0.1 0.025 -1.5308084989341916e-18
vertex 0.09396926207859085 0.025000000000000005 0.03420201433256687
vertex 0.1 -0.025 1.5308084989341916e-18
endloop
endfacet
facet normal 0.9848077530122081 0.0 0.17364817766693008
outer loop
vertex 0.1 -0.025 1.5308084989341916e-18
vertex 0.09396926207859085 0.025000000000000005 0.03420201433256687
vertex 0.09396926207859085 -0.024999999999999998 0.03420201433256687
endloop
endfacet
facet normal 0.0 -1.0 1.0143984264254389e-16
outer loop
vertex 0.1 -0.025 1.5308084989341916e-18
vertex 0.09396926207859085 -0.024999999999999998 0.03420201433256687
vertex 0.0 -0.025 1.5308084989341916e-18
endloop
endfacet
facet normal -3.0509804459643314e-17 1.0 -1.7614843817697927e-17
outer loop
vertex 0.09396926207859085 0.025000000000000005 0.03420201433256687
vertex 0.0 0.025 -1.5308084989341916e-18
vertex 0.0766044443118978 0.025000000000000005 0.06427876096865393
endloop
endfacet
facet normal 0.8660254037844385 0.0 0.5000000000000004
outer loop
vertex 0.09396926207859085 0.025000000000000005 0.03420201433256687
vertex 0.0766044443118978 0.025000000000000005 0.06427876096865393
vertex 0.09396926207859085 -0.024999999999999998 0.03420201433256687
endloop
endfacet
facet normal 0.8660254037844385 0.0 0.5000000000000004
outer loop
vertex 0.09396926207859085 -0.024999999999999998 0.03420201433256687
vertex 0.0766044443118978 0.025000000000000005 0.06427876096865393
vertex 0.0766044443118978 -0.024999999999999998 0.06427876096865393
endloop
endfacet
facet normal 3.0509804459643314e-17 -1.0 1.7614843817697927e-17
outer loop
vertex 0.09396926207859085 -0.024999999999999998 0.03420201433256687
vertex 0.0766044443118978 -0.024999999999999998 0.06427876096865393
vertex 0.0 -0.025 1.5308084989341916e-18
endloop
endfacet
facet normal 4.255906727401993e-17 0.9999999999999999 -1.0469493421309663e-16
outer loop
vertex 0.0766044443118978 0.025000000000000005 0.06427876096865393
vertex 0.0 0.025 -1.5308084989341916e-18
vertex 0.05000000000000002 0.02500000000000001 0.08660254037844387
endloop
endfacet
facet normal 0.6427876096865396 0.0 0.7660444431189778
outer loop
vertex 0.0766044443118978 0.025000000000000005 0.06427876096865393
vertex 0.05000000000000002 0.02500000000000001 0.08660254037844387
vertex 0.0766044443118978 -0.024999999999999998 0.06427876096865393
endloop
endfacet
facet normal 0.6427876096865396 0.0 0.7660444431189778
outer loop
vertex 0.0766044443118978 -0.024999999999999998 0.06427876096865393
vertex 0.05000000000000002 0.02500000000000001 0.08660254037844387
vertex 0.05000000000000002 -0.024999999999999994 0.08660254037844387
endloop
endfacet
facet normal -4.255906727401993e-17 -0.9999999999999999 1.0469493421309663e-16
outer loop
vertex 0.0766044443118978 -0.024999999999999998 0.06427876096865393
vertex 0.05000000000000002 -0.024999999999999994 0.08660254037844387
vertex 0.0 -0.025 1.5308084989341916e-18
endloop
endfacet
facet normal -2.409852562875324e-17 1.0 -6.621015500714805e-17
outer loop
vertex 0.05000000000000002 0.02500000000000001 0.08660254037844387
vertex 0.0 0.025 -1.5308084989341916e-18
vertex 0.017364817766693044 0.02500000000000001 0.0984807753012208
endloop
endfacet
facet normal 0.34202014332566866 0.0 0.9396926207859084
outer loop
vertex 0.05000000000000002 0.02500000000000001 0.08660254037844387
vertex 0.017364817766693044 0.02500000000000001 0.0984807753012208
vertex 0.05000000000000002 -0.024999999999999994 0.08660254037844387
endloop
endfacet
facet normal 0.34202014332566866 0.0 0.9396926207859084
outer loop
vertex 0.05000000000000002 -0.024999999999999994 0.08660254037844387
vertex 0.017364817766693044 0.02500000000000001 0.0984807753012208
vertex 0.017364817766693044 -0.024999999999999994 0.0984807753012208
endloop
endfacet
facet normal 2.409852562875324e-17 -1.0 6.621015500714805e-17
outer loop
vertex 0.05000000000000002 -0.024999999999999994 0.08660254037844387
vertex 0.017364817766693044 -0.024999999999999994 0.0984807753012208
vertex 0.0 -0.025 1.5308084989341916e-18
endloop
endfacet
facet normal 0.0 1.0 -7.045937527079167e-17
outer loop
vertex 0.017364817766693044 0.02500000000000001 0.0984807753012208
vertex 0.0 0.025 -1.5308084989341916e-18
vertex -0.01736481776669303 0.02500000000000001 0.0984807753012208
endloop
endfacet
facet normal 0.0 0.0 1.0
outer loop
vertex 0.017364817766693044 0.02500000000000001 0.0984807753012208
vertex -0.01736481776669303 0.02500000000000001 0.0984807753012208
vertex 0.017364817766693044 -0.024999999999999994 0.0984807753012208
endloop
endfacet
facet normal 0.0 0.0 1.0
outer loop
vertex 0.017364817766693044 -0.024999999999999994 0.0984807753012208
vertex -0.01736481776669303 0.02500000000000001 0.0984807753012208
vertex -0.01736481776669303 -0.024999999999999994 0.0984807753012208
endloop
endfacet
facet normal 0.0 -1.0 7.045937527079167e-17
outer loop
vertex 0.017364817766693044 -0.024999999999999994 0.0984807753012208
vertex -0.01736481776669303 -0.024999999999999994 0.0984807753012208
vertex 0.0 -0.025 1.5308084989341916e-18
endloop
endfacet
facet normal 2.4098525628753225e-17 0.9999999999999999 -6.621015500714806e-17
outer loop
vertex -0.01736481776669303 0.02500000000000001 0.0984807753012208
vertex 0.0 0.025 -1.5308084989341916e-18
vertex -0.04999999999999998 0.02500000000000001 0.08660254037844388
endloop
endfacet
facet normal -0.3420201433256685 0.0 0.9396926207859086
outer loop
vertex -0.01736481776669303 0.02500000000000001 0.0984807753012208
vertex -0.04999999999999998 0.02500000000000001 0.08660254037844388
vertex -0.01736481776669303 -0.024999999999999994 0.0984807753012208
endloop
endfacet
facet normal -0.3420201433256685 0.0 0.9396926207859086
outer loop
vertex -0.01736481776669303 -0.024999999999999994 0.0984807753012208
vertex -0.04999999999999998 0.02500000000000001 0.08660254037844388
vertex -0.04999999999999998 -0.024999999999999994 0.08660254037844388
endloop
endfacet
facet normal -2.4098525628753225e-17 -1.0 6.621015500714806e-17
outer loop
vertex -0.01736481776669303 -0.024999999999999994 0.0984807753012208
vertex -0.04999999999999998 -0.024999999999999994 0.08660254037844388
vertex 0.0 -0.025 1.5308084989341916e-18
endloop
endfacet
facet normal -4.255906727401997e-17 1.0 -1.0469493421309661e-16
outer loop
vertex -0.04999999999999998 0.02500000000000001 0.08660254037844388
vertex 0.0 0.025 -1.5308084989341916e-18
vertex -0.07660444431189779 0.025000000000000005 0.06427876096865395
endloop
endfacet
facet normal -0.6427876096865391 0.0 0.7660444431189782
outer loop
vertex -0.04999999999999998 0.02500000000000001 0.08660254037844388
vertex -0.07660444431189779 0.025000000000000005 0.06427876096865395
vertex -0.04999999999999998 -0.024999999999999994 0.08660254037844388
endloop
endfacet
facet normal -0.6427876096865391 0.0 0.7660444431189782
outer loop
vertex -0.04999999999999998 -0.024999999999999994 0.08660254037844388
vertex -0.07660444431189779 0.025000000000000005 0.06427876096865395
vertex -0.07660444431189779 -0.024999999999999998 0.06427876096865395
endloop
endfacet
facet normal 4.255906727401997e-17 -1.0 1.0469493421309661e-16
outer loop
vertex -0.04999999999999998 -0.024999999999999994 0.08660254037844388
vertex -0.07660444431189779 -0.024999999999999998 0.06427876096865395
vertex 0.0 -0.025 1.5308084989341916e-18
endloop
endfacet
facet normal 3.0509804459643314e-17 1.0 -1.761484381769792e-17
outer loop
vertex -0.07660444431189779 0.025000000000000005 0.06427876096865395
vertex 0.0 0.025 -1.5308084989341916e-18
vertex -0.09396926207859084 0.025000000000000005 0.03420201433256689
endloop
endfacet
facet normal -0.8660254037844386 0.0 0.5000000000000002
outer loop
vertex -0.07660444431189779 0.025000000000000005 0.06427876096865395
vertex -0.09396926207859084 0.025000000000000005 0.03420201433256689
vertex -0.07660444431189779 -0.024999999999999998 0.06427876096865395
endloop
endfacet
facet normal -0.8660254037844386 0.0 0.5000000000000002
outer loop
vertex -0.07660444431189779 -0.024999999999999998 0.06427876096865395
vertex -0.09396926207859084 0.025000000000000005 0.03420201433256689
vertex -0.09396926207859084 -0.024999999999999998 0.03420201433256689
endloop
endfacet
facet normal -3.050980445964332e-17 -1.0 1.7614843817697924e-17
outer loop
vertex -0.07660444431189779 -0.024999999999999998 0.06427876096865395
vertex -0.09396926207859084 -0.024999999999999998 0.03420201433256689
vertex 0.0 -0.025 1.5308084989341916e-18
endloop
endfacet
facet normal -1.2422797859820255e-32 1.0 -1.0143984264254389e-16
outer loop
vertex -0.09396926207859084 0.025000000000000005 0.03420201433256689
vertex 0.0 0.025 -1.5308084989341916e-18
vertex -0.1 0.025 1.0715659492539341e-17
endloop
endfacet
facet normal -0.984807753012208 0.0 0.17364817766693047
outer loop
vertex -0.09396926207859084 0.025000000000000005 0.03420201433256689
vertex -0.1 0.025 1.0715659492539341e-17
vertex -0.09396926207859084 -0.024999999999999998 0.03420201433256689
endloop
endfacet
facet normal -0.984807753012208 1.0632884247878863e-17 0.1736481776669305
outer loop
vertex -0.09396926207859084 -0.024999999999999998 0.03420201433256689
vertex -0.1 0.025 1.0715659492539341e-17
vertex -0.1 -0.025 1.3777276490407724e-17
endloop
endfacet
facet normal 1.2422797859820255e-32 -1.0 1.0143984264254389e-16
outer loop
vertex -0.09396926207859084 -0.024999999999999998 0.03420201433256689
vertex -0.1 -0.025 1.3777276490407724e-17
vertex 0.0 -0.025 1.5308084989341916e-18
endloop
endfacet
facet normal -1.2422797859820253e-32 0.9999999999999999 -1.0143984264254386e-16
outer loop
vertex -0.1 0.025 1.0715659492539341e-17
vertex 0.0 0.025 -1.5308084989341916e-18
vertex -0.09396926207859085 0.024999999999999998 -0.034202014332566866
endloop
endfacet
facet normal -0.9848077530122081 0.0 -0.17364817766693003
outer loop
vertex -0.1 0.025 1.0715659492539341e-17
vertex -0.09396926207859085 0.024999999999999998 -0.034202014332566866
vertex -0.1 -0.025 1.3777276490407724e-17
endloop
endfacet
facet normal -0.9848077530122081 -0.0 -0.17364817766693005
outer loop
vertex -0.1 -0.025 1.3777276490407724e-17
vertex -0.09396926207859085 0.024999999999999998 -0.034202014332566866
vertex -0.09396926207859085 -0.025000000000000005 -0.034202014332566866
endloop
endfacet
facet normal 1.407760611451312e-32 -0.9999999999999999 1.0143984264254386e-16
outer loop
vertex -0.1 -0.025 1.3777276490407724e-17
vertex -0.09396926207859085 -0.025000000000000005 -0.034202014332566866
vertex 0.0 -0.025 1.5308084989341916e-18
endloop
endfacet
facet normal -3.0509804459643314e-17 1.0 -1.7614843817697924e-17
outer loop
vertex -0.09396926207859085 0.024999999999999998 -0.034202014332566866
vertex 0.0 0.025 -1.5308084989341916e-18
vertex -0.0766044443118978 0.024999999999999998 -0.06427876096865393
endloop
endfacet
facet normal -0.8660254037844385 0.0 -0.5000000000000002
outer loop
vertex -0.09396926207859085 0.024999999999999998 -0.034202014332566866
vertex -0.0766044443118978 0.024999999999999998 -0.06427876096865393
vertex -0.09396926207859085 -0.025000000000000005 -0.034202014332566866
endloop
endfacet
facet normal -0.8660254037844385 -0.0 -0.5000000000000002
outer loop
vertex -0.09396926207859085 -0.025000000000000005 -0.034202014332566866
vertex -0.0766044443118978 0.024999999999999998 -0.06427876096865393
vertex -0.0766044443118978 -0.025000000000000005 -0.06427876096865393
endloop
endfacet
facet normal 3.050980445964332e-17 -1.0 1.7614843817697927e-17
outer loop
vertex -0.09396926207859085 -0.025000000000000005 -0.034202014332566866
vertex -0.0766044443118978 -0.025000000000000005 -0.06427876096865393
vertex 0.0 -0.025 1.5308084989341916e-18
endloop
endfacet
facet normal 4.255906727402002e-17 1.0 -1.0469493421309674e-16
outer loop
vertex -0.0766044443118978 0.024999999999999998 -0.06427876096865393
vertex 0.0 0.025 -1.5308084989341916e-18
vertex -0.050000000000000044 0.024999999999999994 -0.08660254037844384
endloop
endfacet
facet normal -0.6427876096865395 0.0 -0.7660444431189778
outer loop
vertex -0.0766044443118978 0.024999999999999998 -0.06427876096865393
vertex -0.050000000000000044 0.024999999999999994 -0.08660254037844384
vertex -0.0766044443118978 -0.025000000000000005 -0.06427876096865393
endloop
endfacet
facet normal -0.6427876096865395 -0.0 -0.7660444431189778
outer loop
vertex -0.0766044443118978 -0.025000000000000005 -0.06427876096865393
vertex -0.050000000000000044 0.024999999999999994 -0.08660254037844384
vertex -0.050000000000000044 -0.02500000000000001 -0.08660254037844384
endloop
endfacet
facet normal -4.255906727402001e-17 -1.0 1.0469493421309673e-16
outer loop
vertex -0.0766044443118978 -0.025000000000000005 -0.06427876096865393
vertex -0.050000000000000044 -0.02500000000000001 -0.08660254037844384
vertex 0.0 -0.025 1.5308084989341916e-18
endloop
endfacet
facet normal -2.4098525628753268e-17 1.0 -6.621015500714806e-17
outer loop
vertex -0.050000000000000044 0.024999999999999994 -0.08660254037844384
vertex 0.0 0.025 -1.5308084989341916e-18
vertex -0.017364817766693033 0.024999999999999994 -0.0984807753012208
endloop
endfacet
facet normal -0.342020143325669 0.0 -0.9396926207859083
outer loop
vertex -0.050000000000000044 0.024999999999999994 -0.08660254037844384
vertex -0.017364817766693033 0.024999999999999994 -0.0984807753012208
vertex -0.050000000000000044 -0.02500000000000001 -0.08660254037844384
endloop
endfacet
facet normal -0.342020143325669 -0.0 -0.9396926207859083
outer loop
vertex -0.050000000000000044 -0.02500000000000001 -0.08660254037844384
vertex -0.017364817766693033 0.024999999999999994 -0.0984807753012208
vertex -0.017364817766693033 -0.02500000000000001 -0.0984807753012208
endloop
endfacet
facet normal 2.4098525628753268e-17 -1.0 6.621015500714806e-17
outer loop
vertex -0.050000000000000044 -0.02500000000000001 -0.08660254037844384
vertex -0.017364817766693033 -0.02500000000000001 -0.0984807753012208
vertex 0.0 -0.025 1.5308084989341916e-18
endloop
endfacet
facet normal -2.8155212229026285e-32 1.0 -7.045937527079168e-17
outer loop
vertex -0.017364817766693033 0.024999999999999994 -0.0984807753012208
vertex 0.0 0.025 -1.5308084989341916e-18
vertex 0.017364817766693 0.024999999999999994 -0.09848077530122082
endloop
endfacet
facet normal -3.9959497399486286e-16 0.0 -0.9999999999999999
outer loop
vertex -0.017364817766693033 0.024999999999999994 -0.0984807753012208
vertex 0.017364817766693 0.024999999999999994 -0.09848077530122082
vertex -0.017364817766693033 -0.02500000000000001 -0.0984807753012208
endloop
endfacet
facet normal -3.9959497399486286e-16 -0.0 -0.9999999999999999
outer loop
vertex -0.017364817766693033 -0.02500000000000001 -0.0984807753012208
vertex 0.017364817766693 0.024999999999999994 -0.09848077530122082
vertex 0.017364817766693 -0.02500000000000001 -0.09848077530122082
endloop
endfacet
facet normal 2.8155212229026285e-32 -1.0 7.045937527079168e-17
outer loop
vertex -0.017364817766693033 -0.02500000000000001 -0.0984807753012208
vertex 0.017364817766693 -0.02500000000000001 -0.09848077530122082
vertex 0.0 -0.025 1.5308084989341916e-18
endloop
endfacet
facet normal 2.409852562875323e-17 1.0 -6.621015500714805e-17
outer loop
vertex 0.017364817766693 0.024999999999999994 -0.09848077530122082
vertex 0.0 0.025 -1.5308084989341916e-18
vertex 0.05000000000000002 0.024999999999999994 -0.08660254037844387
endloop
endfacet
facet normal 0.3420201433256685 0.0 -0.9396926207859083
outer loop
vertex 0.017364817766693 0.024999999999999994 -0.09848077530122082
vertex 0.05000000000000002 0.024999999999999994 -0.08660254037844387
vertex 0.017364817766693 -0.02500000000000001 -0.09848077530122082
endloop
endfacet
facet normal 0.3420201433256685 0.0 -0.9396926207859083
outer loop
vertex 0.017364817766693 -0.02500000000000001 -0.09848077530122082
vertex 0.05000000000000002 0.024999999999999994 -0.08660254037844387
vertex 0.05000000000000002 -0.02500000000000001 -0.08660254037844387
endloop
endfacet
facet normal -2.409852562875323e-17 -1.0 6.621015500714805e-17
outer loop
vertex 0.017364817766693 -0.02500000000000001 -0.09848077530122082
vertex 0.05000000000000002 -0.02500000000000001 -0.08660254037844387
vertex 0.0 -0.025 1.5308084989341916e-18
endloop
endfacet
facet normal -4.2559067274020073e-17 1.0 -1.0469493421309672e-16
outer loop
vertex 0.05000000000000002 0.024999999999999994 -0.08660254037844387
vertex 0.0 0.025 -1.5308084989341916e-18
vertex 0.07660444431189778 0.024999999999999998 -0.06427876096865397
endloop
endfacet
facet normal 0.6427876096865394 0.0 -0.7660444431189781
outer loop
vertex 0.05000000000000002 0.024999999999999994 -0.08660254037844387
vertex 0.07660444431189778 0.024999999999999998 -0.06427876096865397
vertex 0.05000000000000002 -0.02500000000000001 -0.08660254037844387
endloop
endfacet
facet normal 0.6427876096865394 0.0 -0.7660444431189781
outer loop
vertex 0.05000000000000002 -0.02500000000000001 -0.08660254037844387
vertex 0.07660444431189778 0.024999999999999998 -0.06427876096865397
vertex 0.07660444431189778 -0.025000000000000005 -0.06427876096865397
endloop
endfacet
facet normal 4.2559067274020073e-17 -1.0 1.0469493421309672e-16
outer loop
vertex 0.05000000000000002 -0.02500000000000001 -0.08660254037844387
vertex 0.07660444431189778 -0.025000000000000005 -0.06427876096865397
vertex 0.0 -0.025 1.5308084989341916e-18
endloop
endfacet
facet normal 3.0509804459643314e-17 1.0 -1.761484381769793e-17
outer loop
vertex 0.07660444431189778 0.024999999999999998 -0.06427876096865397
vertex 0.0 0.025 -1.5308084989341916e-18
vertex 0.09396926207859081 0.024999999999999998 -0.03420201433256694
endloop
endfacet
facet normal 0.8660254037844385 0.0 -0.5000000000000003
outer loop
vertex 0.07660444431189778 0.024999999999999998 -0.06427876096865397
vertex 0.09396926207859081 0.024999999999999998 -0.03420201433256694
vertex 0.07660444431189778 -0.025000000000000005 -0.06427876096865397
endloop
endfacet
facet normal 0.8660254037844385 0.0 -0.5000000000000003
outer loop
vertex 0.07660444431189778 -0.025000000000000005 -0.06427876096865397
vertex 0.09396926207859081 0.024999999999999998 -0.03420201433256694
vertex 0.09396926207859081 -0.025000000000000005 -0.03420201433256694
endloop
endfacet
facet normal -3.0509804459643314e-17 -1.0 1.761484381769793e-17
outer loop
vertex 0.07660444431189778 -0.025000000000000005 -0.06427876096865397
vertex 0.09396926207859081 -0.025000000000000005 -0.03420201433256694
vertex 0.0 -0.025 1.5308084989341916e-18
endloop
endfacet
facet normal 0.0 1.0 -1.0143984264254367e-16
outer loop
vertex 0.09396926207859081 0.024999999999999998 -0.03420201433256694
vertex 0.0 0.025 -1.5308084989341916e-18
vertex 0.1 0.025 -1.5308084989341916e-18
endloop
endfacet
facet normal 0.984807753012208 0.0 -0.17364817766693094
outer loop
vertex 0.09396926207859081 0.024999999999999998 -0.03420201433256694
vertex 0.1 0.025 -1.5308084989341916e-18
vertex 0.09396926207859081 -0.025000000000000005 -0.03420201433256694
endloop
endfacet
facet normal 0.9848077530122079 -1.063288424787889e-17 -0.17364817766693086
outer loop
vertex 0.09396926207859081 -0.025000000000000005 -0.03420201433256694
vertex 0.1 0.025 -1.5308084989341916e-18
vertex 0.1 -0.025 1.5308084989341916e-18
endloop
endfacet
facet normal 0.0 -1.0 1.0143984264254367e-16
outer loop
vertex 0.09396926207859081 -0.025000000000000005 -0.03420201433256694
vertex 0.1 -0.025 1.5308084989341916e-18
vertex 0.0 -0.025 1.5308084989341916e-18
endloop
endfacet
facet normal -1.0 0.0 0.0
outer loop
vertex 0.09000000000000001 -0.025 -0.0024999999999999983
vertex 0.09000000000000001 -0.025 0.002500000000000002
vertex 0.09000000000000001 0.025 -0.002500000000000002
endloop
endfacet
facet normal 0.0 -6.938893903907228e-17 -1.0
outer loop
vertex 0.11 0.025 -0.002500000000000002
vertex 0.09000000000000001 -0.025 -0.0024999999999999983
vertex 0.09000000000000001 0.025 -0.002500000000000002
endloop
endfacet
facet normal -1.0 0.0 0.0
outer loop
vertex 0.09000000000000001 0.025 -0.002500000000000002
vertex 0.09000000000000001 -0.025 0.002500000000000002
vertex 0.09000000000000001 0.025 0.0024999999999999983
endloop
endfacet
facet normal 0.0 1.0 0.0
outer loop
vertex 0.09000000000000001 0.025 0.0024999999999999983
vertex 0.11 0.025 -0.002500000000000002
vertex 0.09000000000000001 0.025 -0.002500000000000002
endloop
endfacet
facet normal 0.0 -1.0 0.0
outer loop
vertex 0.09000000000000001 -0.025 -0.0024999999999999983
vertex 0.11 -0.025 0.002500000000000002
vertex 0.09000000000000001 -0.025 0.002500000000000002
endloop
endfacet
facet normal -0.0 -6.938893903907228e-17 -1.0
outer loop
vertex 0.11 -0.025 -0.0024999999999999983
vertex 0.09000000000000001 -0.025 -0.0024999999999999983
vertex 0.11 0.025 -0.002500000000000002
endloop
endfacet
facet normal -0.0 -1.0 0.0
outer loop
vertex 0.11 -0.025 -0.0024999999999999983
vertex 0.11 -0.025 0.002500000000000002
vertex 0.09000000000000001 -0.025 -0.0024999999999999983
endloop
endfacet
facet normal -0.0 6.938893903907228e-17 1.0
outer loop
vertex 0.09000000000000001 -0.025 0.002500000000000002
vertex 0.11 -0.025 0.002500000000000002
vertex 0.09000000000000001 0.025 0.0024999999999999983
endloop
endfacet
facet normal 0.0 1.0 0.0
outer loop
vertex 0.11 0.025 0.0024999999999999983
vertex 0.11 0.025 -0.002500000000000002
vertex 0.09000000000000001 0.025 0.0024999999999999983
endloop
endfacet
facet normal 0.0 6.938893903907228e-17 1.0
outer loop
vertex 0.09000000000000001 0.025 0.0024999999999999983
vertex 0.11 -0.025 0.002500000000000002
vertex 0.11 0.025 0.0024999999999999983
endloop
endfacet
facet normal 1.0 0.0 0.0
outer loop
vertex 0.11 0.025 0.0024999999999999983
vertex 0.11 -0.025 -0.0024999999999999983
vertex 0.11 0.025 -0.002500000000000002
endloop
endfacet
facet normal 1.0 -0.0 0.0
outer loop
vertex 0.11 -0.025 0.002500000000000002
vertex 0.11 -0.025 -0.0024999999999999983
vertex 0.11 0.025 0.0024999999999999983
endloop
endfacet
facet normal -0.9396926207859093 0.0 -0.34202014332566655
outer loop
vertex 0.08542738622904593 -0.024999999999999998 0.028432581347345415
vertex 0.0837172855124176 -0.024999999999999998 0.03313104445127496
vertex 0.08542738622904593 0.025000000000000005 0.028432581347345415
endloop
endfacet
facet normal 0.34202014332566855 0.0 -0.9396926207859084
outer loop
vertex 0.1042212386447641 0.025000000000000005 0.035272984213858785
vertex 0.08542738622904593 -0.024999999999999998 0.028432581347345415
vertex 0.08542738622904593 0.025000000000000005 0.028432581347345415
endloop
endfacet
facet normal -0.9396926207859093 0.0 -0.34202014332566655
outer loop
vertex 0.08542738622904593 0.025000000000000005 0.028432581347345415
vertex 0.0837172855124176 -0.024999999999999998 0.03313104445127496
vertex 0.0837172855124176 0.025000000000000005 0.03313104445127496
endloop
endfacet
facet normal -0.0 0.9999999999999999 0.0
outer loop
vertex 0.0837172855124176 0.025000000000000005 0.03313104445127496
vertex 0.1042212386447641 0.025000000000000005 0.035272984213858785
vertex 0.08542738622904593 0.025000000000000005 0.028432581347345415
endloop
endfacet
facet normal -0.0 -1.0 0.0
outer loop
vertex 0.08542738622904593 -0.024999999999999998 0.028432581347345415
vertex 0.10251113792813576 -0.024999999999999998 0.03997144731778833
vertex 0.0837172855124176 -0.024999999999999998 0.03313104445127496
endloop
endfacet
facet normal 0.34202014332566855 0.0 -0.9396926207859084
outer loop
vertex 0.1042212386447641 -0.024999999999999998 0.035272984213858785
vertex 0.08542738622904593 -0.024999999999999998 0.028432581347345415
vertex 0.1042212386447641 0.025000000000000005 0.035272984213858785
endloop
endfacet
facet normal -0.0 -1.0 0.0
outer loop
vertex 0.1042212386447641 -0.024999999999999998 0.035272984213858785
vertex 0.10251113792813576 -0.024999999999999998 0.03997144731778833
vertex 0.08542738622904593 -0.024999999999999998 0.028432581347345415
endloop
endfacet
facet normal -0.34202014332566855 0.0 0.9396926207859084
outer loop
vertex 0.0837172855124176 -0.024999999999999998 0.03313104445127496
vertex 0.10251113792813576 -0.024999999999999998 0.03997144731778833
vertex 0.0837172855124176 0.025000000000000005 0.03313104445127496
endloop
endfacet
facet normal 0.0 1.0 0.0
outer loop
vertex 0.10251113792813576 0.025000000000000005 0.03997144731778833
vertex 0.1042212386447641 0.025000000000000005 0.035272984213858785
vertex 0.0837172855124176 0.025000000000000005 0.03313104445127496
endloop
endfacet
facet normal -0.34202014332566855 0.0 0.9396926207859084
outer loop
vertex 0.0837172855124176 0.025000000000000005 0.03313104445127496
vertex 0.10251113792813576 -0.024999999999999998 0.03997144731778833
vertex 0.10251113792813576 0.025000000000000005 0.03997144731778833
endloop
endfacet
facet normal 0.9396926207859093 -0.0 0.34202014332566655
outer loop
vertex 0.10251113792813576 0.025000000000000005 0.03997144731778833
vertex 0.1042212386447641 -0.024999999999999998 0.035272984213858785
vertex 0.1042212386447641 0.025000000000000005 0.035272984213858785
endloop
endfacet
facet normal 0.9396926207859093 0.0 0.34202014332566655
outer loop
vertex 0.10251113792813576 -0.024999999999999998 0.03997144731778833
vertex 0.1042212386447641 -0.024999999999999998 0.035272984213858785
vertex 0.10251113792813576 0.025000000000000005 0.03997144731778833
endloop
endfacet
facet normal -0.7660444431189769 0.0 -0.6427876096865406
outer loop
vertex 0.07055096890492438 -0.024999999999999998 0.0559357737639911
vertex 0.06733703085649168 -0.024999999999999998 0.059765995979585984
vertex 0.07055096890492438 0.025000000000000005 0.0559357737639911
endloop
endfacet
facet normal 0.6427876096865388 0.0 -0.7660444431189787
outer loop
vertex 0.08587185776730394 0.025000000000000005 0.06879152595772187
vertex 0.07055096890492438 -0.024999999999999998 0.0559357737639911
vertex 0.07055096890492438 0.025000000000000005 0.0559357737639911
endloop
endfacet
facet normal -0.7660444431189769 0.0 -0.6427876096865406
outer loop
vertex 0.07055096890492438 0.025000000000000005 0.0559357737639911
vertex 0.06733703085649168 -0.024999999999999998 0.059765995979585984
vertex 0.06733703085649168 0.025000000000000005 0.059765995979585984
endloop
endfacet
facet normal -0.0 0.9999999999999999 0.0
outer loop
vertex 0.06733703085649168 0.025000000000000005 0.059765995979585984
vertex 0.08587185776730394 0.025000000000000005 0.06879152595772187
vertex 0.07055096890492438 0.025000000000000005 0.0559357737639911
endloop
endfacet
facet normal -0.0 -0.9999999999999999 0.0
outer loop
vertex 0.07055096890492438 -0.024999999999999998 0.0559357737639911
vertex 0.08265791971887124 -0.024999999999999998 0.07262174817331676
vertex 0.06733703085649168 -0.024999999999999998 0.059765995979585984
endloop
endfacet
facet normal 0.6427876096865388 0.0 -0.7660444431189787
outer loop
vertex 0.08587185776730394 -0.024999999999999998 0.06879152595772187
vertex 0.07055096890492438 -0.024999999999999998 0.0559357737639911
vertex 0.08587185776730394 0.025000000000000005 0.06879152595772187
endloop
endfacet
facet normal -0.0 -1.0 0.0
outer loop
vertex 0.08587185776730394 -0.024999999999999998 0.06879152595772187
vertex 0.08265791971887124 -0.024999999999999998 0.07262174817331676
vertex 0.07055096890492438 -0.024999999999999998 0.0559357737639911
endloop
endfacet
facet normal -0.6427876096865391 0.0 0.7660444431189783
outer loop
vertex 0.06733703085649168 -0.024999999999999998 0.059765995979585984
vertex 0.08265791971887124 -0.024999999999999998 0.07262174817331676
vertex 0.06733703085649168 0.025000000000000005 0.059765995979585984
endloop
endfacet
facet normal 0.0 1.0 0.0
outer loop
vertex 0.08265791971887124 0.025000000000000005 0.07262174817331676
vertex 0.08587185776730394 0.025000000000000005 0.06879152595772187
vertex 0.06733703085649168 0.025000000000000005 0.059765995979585984
endloop
endfacet
facet normal -0.6427876096865391 0.0 0.7660444431189783
outer loop
vertex 0.06733703085649168 0.025000000000000005 0.059765995979585984
vertex 0.08265791971887124 -0.024999999999999998 0.07262174817331676
vertex 0.08265791971887124 0.025000000000000005 0.07262174817331676
endloop
endfacet
facet normal 0.7660444431189781 -0.0 0.6427876096865394
outer loop
vertex 0.08265791971887124 0.025000000000000005 0.07262174817331676
vertex 0.08587185776730394 -0.024999999999999998 0.06879152595772187
vertex 0.08587185776730394 0.025000000000000005 0.06879152595772187
endloop
endfacet
facet normal 0.7660444431189781 0.0 0.6427876096865394
outer loop
vertex 0.08265791971887124 -0.024999999999999998 0.07262174817331676
vertex 0.08587185776730394 -0.024999999999999998 0.06879152595772187
vertex 0.08265791971887124 0.025000000000000005 0.07262174817331676
endloop
endfacet
facet normal -0.500000000000001 0.0 -0.8660254037844382
outer loop
vertex 0.047165063509461105 -0.024999999999999998 0.07669228634059948
vertex 0.04283493649053892 -0.024999999999999998 0.07919228634059948
vertex 0.047165063509461105 0.025000000000000005 0.07669228634059948
endloop
endfacet
facet normal 0.8660254037844387 0.0 -0.5000000000000001
outer loop
vertex 0.05716506350946111 0.02500000000000001 0.09401279441628825
vertex 0.047165063509461105 -0.024999999999999998 0.07669228634059948
vertex 0.047165063509461105 0.025000000000000005 0.07669228634059948
endloop
endfacet
facet normal -0.500000000000001 0.0 -0.8660254037844382
outer loop
vertex 0.047165063509461105 0.025000000000000005 0.07669228634059948
vertex 0.04283493649053892 -0.024999999999999998 0.07919228634059948
vertex 0.04283493649053892 0.025000000000000005 0.07919228634059948
endloop
endfacet
facet normal -8.673617379884051e-17 1.0 -1.5023145987371583e-16
outer loop
vertex 0.04283493649053892 0.025000000000000005 0.07919228634059948
vertex 0.05716506350946111 0.02500000000000001 0.09401279441628825
vertex 0.047165063509461105 0.025000000000000005 0.07669228634059948
endloop
endfacet
facet normal 8.673617379884051e-17 -1.0 1.5023145987371583e-16
outer loop
vertex 0.047165063509461105 -0.024999999999999998 0.07669228634059948
vertex 0.05283493649053892 -0.024999999999999994 0.09651279441628825
vertex 0.04283493649053892 -0.024999999999999998 0.07919228634059948
endloop
endfacet
facet normal 0.8660254037844386 0.0 -0.5000000000000001
outer loop
vertex 0.05716506350946111 -0.024999999999999994 0.09401279441628825
vertex 0.047165063509461105 -0.024999999999999998 0.07669228634059948
vertex 0.05716506350946111 0.02500000000000001 0.09401279441628825
endloop
endfacet
facet normal 8.673617379884051e-17 -1.0 1.5023145987371583e-16
outer loop
vertex 0.05716506350946111 -0.024999999999999994 0.09401279441628825
vertex 0.05283493649053892 -0.024999999999999994 0.09651279441628825
vertex 0.047165063509461105 -0.024999999999999998 0.07669228634059948
endloop
endfacet
facet normal -0.8660254037844386 0.0 0.5
outer loop
vertex 0.04283493649053892 -0.024999999999999998 0.07919228634059948
vertex 0.05283493649053892 -0.024999999999999994 0.09651279441628825
vertex 0.04283493649053892 0.025000000000000005 0.07919228634059948
endloop
endfacet
facet normal -8.673617379884051e-17 1.0 -1.5023145987371583e-16
outer loop
vertex 0.05283493649053892 0.02500000000000001 0.09651279441628825
vertex 0.05716506350946111 0.02500000000000001 0.09401279441628825
vertex 0.04283493649053892 0.025000000000000005 0.07919228634059948
endloop
endfacet
facet normal -0.8660254037844387 0.0 0.5000000000000001
outer loop
vertex 0.04283493649053892 0.025000000000000005 0.07919228634059948
vertex 0.05283493649053892 -0.024999999999999994 0.09651279441628825
vertex 0.05283493649053892 0.02500000000000001 0.09651279441628825
endloop
endfacet
facet normal 0.500000000000001 -0.0 0.8660254037844382
outer loop
vertex 0.05283493649053892 0.02500000000000001 0.09651279441628825
vertex 0.05716506350946111 -0.024999999999999994 0.09401279441628825
vertex 0.05716506350946111 0.02500000000000001 0.09401279441628825
endloop
endfacet
facet normal 0.500000000000001 0.0 0.8660254037844382
outer loop
vertex 0.05283493649053892 -0.024999999999999994 0.09651279441628825
vertex 0.05716506350946111 -0.024999999999999994 0.09401279441628825
vertex 0.05283493649053892 0.02500000000000001 0.09651279441628825
endloop
endfacet
facet normal -0.17364817766692967 0.0 -0.9848077530122082
outer loop
vertex 0.01809035537255426 -0.024999999999999994 0.08819857732693141
vertex 0.01316631660749322 -0.024999999999999994 0.08906681821526606
vertex 0.01809035537255426 0.02500000000000001 0.08819857732693141
endloop
endfacet
facet normal 0.984807753012208 0.0 -0.17364817766693041
outer loop
vertex 0.021563318925892867 0.02500000000000001 0.10789473238717556
vertex 0.01809035537255426 -0.024999999999999994 0.08819857732693141
vertex 0.01809035537255426 0.02500000000000001 0.08819857732693141
endloop
endfacet
facet normal -0.17364817766692967 0.0 -0.9848077530122082
outer loop
vertex 0.01809035537255426 0.02500000000000001 0.08819857732693141
vertex 0.01316631660749322 -0.024999999999999994 0.08906681821526606
vertex 0.01316631660749322 0.02500000000000001 0.08906681821526606
endloop
endfacet
facet normal -0.0 1.0 0.0
outer loop
vertex 0.01316631660749322 0.02500000000000001 0.08906681821526606
vertex 0.021563318925892867 0.02500000000000001 0.10789473238717556
vertex 0.01809035537255426 0.02500000000000001 0.08819857732693141
endloop
endfacet
facet normal -0.0 -0.9999999999999999 0.0
outer loop
vertex 0.01809035537255426 -0.024999999999999994 0.08819857732693141
vertex 0.016639280160831826 -0.024999999999999994 0.10876297327551021
vertex 0.01316631660749322 -0.024999999999999994 0.08906681821526606
endloop
endfacet
facet normal 0.984807753012208 0.0 -0.17364817766693041
outer loop
vertex 0.021563318925892867 -0.024999999999999994 0.10789473238717556
vertex 0.01809035537255426 -0.024999999999999994 0.08819857732693141
vertex 0.021563318925892867 0.02500000000000001 0.10789473238717556
endloop
endfacet
facet normal -0.0 -1.0 -0.0
outer loop
vertex 0.021563318925892867 -0.024999999999999994 0.10789473238717556
vertex 0.016639280160831826 -0.024999999999999994 0.10876297327551021
vertex 0.01809035537255426 -0.024999999999999994 0.08819857732693141
endloop
endfacet
facet normal -0.984807753012208 0.0 0.17364817766693041
outer loop
vertex 0.01316631660749322 -0.024999999999999994 0.08906681821526606
vertex 0.016639280160831826 -0.024999999999999994 0.10876297327551021
vertex 0.01316631660749322 0.02500000000000001 0.08906681821526606
endloop
endfacet
facet normal 0.0 0.9999999999999999 0.0
outer loop
vertex 0.016639280160831826 0.02500000000000001 0.10876297327551021
vertex 0.021563318925892867 0.02500000000000001 0.10789473238717556
vertex 0.01316631660749322 0.02500000000000001 0.08906681821526606
endloop
endfacet
facet normal -0.984807753012208 0.0 0.17364817766693041
outer loop
vertex 0.01316631660749322 0.02500000000000001 0.08906681821526606
vertex 0.016639280160831826 -0.024999999999999994 0.10876297327551021
vertex 0.016639280160831826 0.02500000000000001 0.10876297327551021
endloop
endfacet
facet normal 0.17364817766692967 -0.0 0.9848077530122082
outer loop
vertex 0.016639280160831826 0.02500000000000001 0.10876297327551021
vertex 0.021563318925892867 -0.024999999999999994 0.10789473238717556
vertex 0.021563318925892867 0.02500000000000001 0.10789473238717556
endloop
endfacet
facet normal 0.17364817766692967 0.0 0.9848077530122082
outer loop
vertex 0.016639280160831826 -0.024999999999999994 0.10876297327551021
vertex 0.021563318925892867 -0.024999999999999994 0.10789473238717556
vertex 0.016639280160831826 0.02500000000000001 0.10876297327551021
endloop
endfacet
facet normal 0.17364817766692967 0.0 -0.9848077530122082
outer loop
vertex -0.01316631660749321 -0.024999999999999994 0.08906681821526606
vertex -0.01809035537255425 -0.024999999999999994 0.08819857732693141
vertex -0.01316631660749321 0.02500000000000001 0.08906681821526606
endloop
endfacet
facet normal 0.984807753012208 -0.0 0.17364817766693025
outer loop
vertex -0.016639280160831812 0.02500000000000001 0.10876297327551021
vertex -0.01316631660749321 -0.024999999999999994 0.08906681821526606
vertex -0.01316631660749321 0.02500000000000001 0.08906681821526606
endloop
endfacet
facet normal 0.17364817766692967 0.0 -0.9848077530122082
outer loop
vertex -0.01316631660749321 0.02500000000000001 0.08906681821526606
vertex -0.01809035537255425 -0.024999999999999994 0.08819857732693141
vertex -0.01809035537255425 0.02500000000000001 0.08819857732693141
endloop
endfacet
facet normal -0.0 0.9999999999999999 0.0
outer loop
vertex -0.01809035537255425 0.02500000000000001 0.08819857732693141
vertex -0.016639280160831812 0.02500000000000001 0.10876297327551021
vertex -0.01316631660749321 0.02500000000000001 0.08906681821526606
endloop
endfacet
facet normal -0.0 -0.9999999999999999 -0.0
outer loop
vertex -0.01316631660749321 -0.024999999999999994 0.08906681821526606
vertex -0.021563318925892853 -0.024999999999999994 0.10789473238717556
vertex -0.01809035537255425 -0.024999999999999994 0.08819857732693141
endloop
endfacet
facet normal 0.984807753012208 0.0 0.17364817766693025
outer loop
vertex -0.016639280160831812 -0.024999999999999994 0.10876297327551021
vertex -0.01316631660749321 -0.024999999999999994 0.08906681821526606
vertex -0.016639280160831812 0.02500000000000001 0.10876297327551021
endloop
endfacet
facet normal 0.0 -0.9999999999999999 -0.0
outer loop
vertex -0.016639280160831812 -0.024999999999999994 0.10876297327551021
vertex -0.021563318925892853 -0.024999999999999994 0.10789473238717556
vertex -0.01316631660749321 -0.024999999999999994 0.08906681821526606
endloop
endfacet
facet normal -0.984807753012208 0.0 -0.17364817766693025
outer loop
vertex -0.01809035537255425 -0.024999999999999994 0.08819857732693141
vertex -0.021563318925892853 -0.024999999999999994 0.10789473238717556
vertex -0.01809035537255425 0.02500000000000001 0.08819857732693141
endloop
endfacet
facet normal -0.0 0.9999999999999999 0.0
outer loop
vertex -0.021563318925892853 0.02500000000000001 0.10789473238717556
vertex -0.016639280160831812 0.02500000000000001 0.10876297327551021
vertex -0.01809035537255425 0.02500000000000001 0.08819857732693141
endloop
endfacet
facet normal -0.984807753012208 0.0 -0.17364817766693025
outer loop
vertex -0.01809035537255425 0.02500000000000001 0.08819857732693141
vertex -0.021563318925892853 -0.024999999999999994 0.10789473238717556
vertex -0.021563318925892853 0.02500000000000001 0.10789473238717556
endloop
endfacet
facet normal -0.17364817766692967 0.0 0.9848077530122082
outer loop
vertex -0.021563318925892853 0.02500000000000001 0.10789473238717556
vertex -0.016639280160831812 -0.024999999999999994 0.10876297327551021
vertex -0.016639280160831812 0.02500000000000001 0.10876297327551021
endloop
endfacet
facet normal -0.17364817766692967 0.0 0.9848077530122082
outer loop
vertex -0.021563318925892853 -0.024999999999999994 0.10789473238717556
vertex -0.016639280160831812 -0.024999999999999994 0.10876297327551021
vertex -0.021563318925892853 0.02500000000000001 0.10789473238717556
endloop
endfacet
facet normal 0.49999999999999967 0.0 -0.8660254037844387
outer loop
vertex -0.042834936490538884 -0.024999999999999998 0.0791922863405995
vertex -0.047165063509461085 -0.024999999999999998 0.07669228634059949
vertex -0.042834936490538884 0.025000000000000005 0.0791922863405995
endloop
endfacet
facet normal 0.8660254037844387 -0.0 0.4999999999999999
outer loop
vertex -0.05283493649053887 0.02500000000000001 0.09651279441628825
vertex -0.042834936490538884 -0.024999999999999998 0.0791922863405995
vertex -0.042834936490538884 0.025000000000000005 0.0791922863405995
endloop
endfacet
facet normal 0.49999999999999967 0.0 -0.8660254037844387
outer loop
vertex -0.042834936490538884 0.025000000000000005 0.0791922863405995
vertex -0.047165063509461085 -0.024999999999999998 0.07669228634059949
vertex -0.047165063509461085 0.025000000000000005 0.07669228634059949
endloop
endfacet
facet normal 8.673617379884038e-17 1.0 -1.502314598737161e-16
outer loop
vertex -0.047165063509461085 0.025000000000000005 0.07669228634059949
vertex -0.05283493649053887 0.02500000000000001 0.09651279441628825
vertex -0.042834936490538884 0.025000000000000005 0.0791922863405995
endloop
endfacet
facet normal -8.67361737988404e-17 -1.0 1.5023145987371612e-16
outer loop
vertex -0.042834936490538884 -0.024999999999999998 0.0791922863405995
vertex -0.05716506350946107 -0.024999999999999994 0.09401279441628825
vertex -0.047165063509461085 -0.024999999999999998 0.07669228634059949
endloop
endfacet
facet normal 0.8660254037844386 0.0 0.4999999999999999
outer loop
vertex -0.05283493649053887 -0.024999999999999994 0.09651279441628825
vertex -0.042834936490538884 -0.024999999999999998 0.0791922863405995
vertex -0.05283493649053887 0.02500000000000001 0.09651279441628825
endloop
endfacet
facet normal -8.67361737988404e-17 -1.0 1.5023145987371612e-16
outer loop
vertex -0.05283493649053887 -0.024999999999999994 0.09651279441628825
vertex -0.05716506350946107 -0.024999999999999994 0.09401279441628825
vertex -0.042834936490538884 -0.024999999999999998 0.0791922863405995
endloop
endfacet
facet normal -0.8660254037844387 0.0 -0.49999999999999983
outer loop
vertex -0.047165063509461085 -0.024999999999999998 0.07669228634059949
vertex -0.05716506350946107 -0.024999999999999994 0.09401279441628825
vertex -0.047165063509461085 0.025000000000000005 0.07669228634059949
endloop
endfacet
facet normal 8.673617379884038e-17 1.0 -1.502314598737161e-16
outer loop
vertex -0.05716506350946107 0.02500000000000001 0.09401279441628825
vertex -0.05283493649053887 0.02500000000000001 0.09651279441628825
vertex -0.047165063509461085 0.025000000000000005 0.07669228634059949
endloop
endfacet
facet normal -0.8660254037844387 0.0 -0.4999999999999999
outer loop
vertex -0.047165063509461085 0.025000000000000005 0.07669228634059949
vertex -0.05716506350946107 -0.024999999999999994 0.09401279441628825
vertex -0.05716506350946107 0.02500000000000001 0.09401279441628825
endloop
endfacet
facet normal -0.49999999999999967 0.0 0.8660254037844387
outer loop
vertex -0.05716506350946107 0.02500000000000001 0.09401279441628825
vertex -0.05283493649053887 -0.024999999999999994 0.09651279441628825
vertex -0.05283493649053887 0.02500000000000001 0.09651279441628825
endloop
endfacet
facet normal -0.49999999999999967 0.0 0.8660254037844387
outer loop
vertex -0.05716506350946107 -0.024999999999999994 0.09401279441628825
vertex -0.05283493649053887 -0.024999999999999994 0.09651279441628825
vertex -0.05716506350946107 0.02500000000000001 0.09401279441628825
endloop
endfacet
facet normal 0.7660444431189769 0.0 -0.6427876096865406
outer loop
vertex -0.06733703085649168 -0.024999999999999998 0.059765995979586
vertex -0.07055096890492438 -0.024999999999999998 0.055935773763991115
vertex -0.06733703085649168 0.025000000000000005 0.059765995979586
endloop
endfacet
facet normal 0.6427876096865399 -0.0 0.7660444431189778
outer loop
vertex -0.08265791971887122 0.025000000000000005 0.07262174817331679
vertex -0.06733703085649168 -0.024999999999999998 0.059765995979586
vertex -0.06733703085649168 0.025000000000000005 0.059765995979586
endloop
endfacet
facet normal 0.7660444431189769 0.0 -0.6427876096865406
outer loop
vertex -0.06733703085649168 0.025000000000000005 0.059765995979586
vertex -0.07055096890492438 -0.024999999999999998 0.055935773763991115
vertex -0.07055096890492438 0.025000000000000005 0.055935773763991115
endloop
endfacet
facet normal -0.0 0.9999999999999999 -0.0
outer loop
vertex -0.07055096890492438 0.025000000000000005 0.055935773763991115
vertex -0.08265791971887122 0.025000000000000005 0.07262174817331679
vertex -0.06733703085649168 0.025000000000000005 0.059765995979586
endloop
endfacet
facet normal -0.0 -0.9999999999999999 -0.0
outer loop
vertex -0.06733703085649168 -0.024999999999999998 0.059765995979586
vertex -0.08587185776730392 -0.024999999999999998 0.0687915259577219
vertex -0.07055096890492438 -0.024999999999999998 0.055935773763991115
endloop
endfacet
facet normal 0.6427876096865399 0.0 0.7660444431189778
outer loop
vertex -0.08265791971887122 -0.024999999999999998 0.07262174817331679
vertex -0.06733703085649168 -0.024999999999999998 0.059765995979586
vertex -0.08265791971887122 0.025000000000000005 0.07262174817331679
endloop
endfacet
facet normal 0.0 -1.0 -0.0
outer loop
vertex -0.08265791971887122 -0.024999999999999998 0.07262174817331679
vertex -0.08587185776730392 -0.024999999999999998 0.0687915259577219
vertex -0.06733703085649168 -0.024999999999999998 0.059765995979586
endloop
endfacet
facet normal -0.6427876096865395 0.0 -0.7660444431189779
outer loop
vertex -0.07055096890492438 -0.024999999999999998 0.055935773763991115
vertex -0.08587185776730392 -0.024999999999999998 0.0687915259577219
vertex -0.07055096890492438 0.025000000000000005 0.055935773763991115
endloop
endfacet
facet normal -0.0 1.0 0.0
outer loop
vertex -0.08587185776730392 0.025000000000000005 0.0687915259577219
vertex -0.08265791971887122 0.025000000000000005 0.07262174817331679
vertex -0.07055096890492438 0.025000000000000005 0.055935773763991115
endloop
endfacet
facet normal -0.6427876096865395 0.0 -0.7660444431189779
outer loop
vertex -0.07055096890492438 0.025000000000000005 0.055935773763991115
vertex -0.08587185776730392 -0.024999999999999998 0.0687915259577219
vertex -0.08587185776730392 0.025000000000000005 0.0687915259577219
endloop
endfacet
facet normal -0.7660444431189781 0.0 0.6427876096865394
outer loop
vertex -0.08587185776730392 0.025000000000000005 0.0687915259577219
vertex -0.08265791971887122 -0.024999999999999998 0.07262174817331679
vertex -0.08265791971887122 0.025000000000000005 0.07262174817331679
endloop
endfacet
facet normal -0.7660444431189781 0.0 0.6427876096865394
outer loop
vertex -0.08587185776730392 -0.024999999999999998 0.0687915259577219
vertex -0.08265791971887122 -0.024999999999999998 0.07262174817331679
vertex -0.08587185776730392 0.025000000000000005 0.0687915259577219
endloop
endfacet
facet normal 0.9396926207859091 0.0 -0.34202014332566666
outer loop
vertex -0.0837172855124176 -0.024999999999999998 0.033131044451274974
vertex -0.08542738622904593 -0.024999999999999998 0.028432581347345432
vertex -0.0837172855124176 0.025000000000000005 0.033131044451274974
endloop
endfacet
facet normal 0.3420201433256691 -0.0 0.9396926207859083
outer loop
vertex -0.10251113792813575 0.025000000000000005 0.03997144731778835
vertex -0.0837172855124176 -0.024999999999999998 0.033131044451274974
vertex -0.0837172855124176 0.025000000000000005 0.033131044451274974
endloop
endfacet
facet normal 0.9396926207859091 0.0 -0.34202014332566666
outer loop
vertex -0.0837172855124176 0.025000000000000005 0.033131044451274974
vertex -0.08542738622904593 -0.024999999999999998 0.028432581347345432
vertex -0.08542738622904593 0.025000000000000005 0.028432581347345432
endloop
endfacet
facet normal -0.0 0.9999999999999999 -0.0
outer loop
vertex -0.08542738622904593 0.025000000000000005 0.028432581347345432
vertex -0.10251113792813575 0.025000000000000005 0.03997144731778835
vertex -0.0837172855124176 0.025000000000000005 0.033131044451274974
endloop
endfacet
facet normal -0.0 -1.0 -0.0
outer loop
vertex -0.0837172855124176 -0.024999999999999998 0.033131044451274974
vertex -0.10422123864476408 -0.024999999999999998 0.035272984213858806
vertex -0.08542738622904593 -0.024999999999999998 0.028432581347345432
endloop
endfacet
facet normal 0.3420201433256691 0.0 0.9396926207859083
outer loop
vertex -0.10251113792813575 -0.024999999999999998 0.03997144731778835
vertex -0.0837172855124176 -0.024999999999999998 0.033131044451274974
vertex -0.10251113792813575 0.025000000000000005 0.03997144731778835
endloop
endfacet
facet normal 0.0 -1.0 -0.0
outer loop
vertex -0.10251113792813575 -0.024999999999999998 0.03997144731778835
vertex -0.10422123864476408 -0.024999999999999998 0.035272984213858806
vertex -0.0837172855124176 -0.024999999999999998 0.033131044451274974
endloop
endfacet
facet normal -0.34202014332566893 0.0 -0.9396926207859083
outer loop
vertex -0.08542738622904593 -0.024999999999999998 0.028432581347345432
vertex -0.10422123864476408 -0.024999999999999998 0.035272984213858806
vertex -0.08542738622904593 0.025000000000000005 0.028432581347345432
endloop
endfacet
facet normal -0.0 0.9999999999999999 0.0
outer loop
vertex -0.10422123864476408 0.025000000000000005 0.035272984213858806
vertex -0.10251113792813575 0.025000000000000005 0.03997144731778835
vertex -0.08542738622904593 0.025000000000000005 0.028432581347345432
endloop
endfacet
facet normal -0.34202014332566893 0.0 -0.9396926207859083
outer loop
vertex -0.08542738622904593 0.025000000000000005 0.028432581347345432
vertex -0.10422123864476408 -0.024999999999999998 0.035272984213858806
vertex -0.10422123864476408 0.025000000000000005 0.035272984213858806
endloop
endfacet
facet normal -0.9396926207859093 0.0 0.34202014332566655
outer loop
vertex -0.10422123864476408 0.025000000000000005 0.035272984213858806
vertex -0.10251113792813575 -0.024999999999999998 0.03997144731778835
vertex -0.10251113792813575 0.025000000000000005 0.03997144731778835
endloop
endfacet
facet normal -0.9396926207859093 0.0 0.34202014332566655
outer loop
vertex -0.10422123864476408 -0.024999999999999998 0.035272984213858806
vertex -0.10251113792813575 -0.024999999999999998 0.03997144731778835
vertex -0.10422123864476408 0.025000000000000005 0.035272984213858806
endloop
endfacet
facet normal 1.0 -0.0 0.0
outer loop
vertex -0.09000000000000001 -0.025 0.0025000000000000126
vertex -0.09000000000000001 -0.025 -0.0024999999999999875
vertex -0.09000000000000001 0.025 0.002500000000000009
endloop
endfacet
facet normal 1.301042606982606e-16 6.938893903907228e-17 1.0
outer loop
vertex -0.11 0.025 0.0025000000000000118
vertex -0.09000000000000001 -0.025 0.0025000000000000126
vertex -0.09000000000000001 0.025 0.002500000000000009
endloop
endfacet
facet normal 1.0 0.0 0.0
outer loop
vertex -0.09000000000000001 0.025 0.002500000000000009
vertex -0.09000000000000001 -0.025 -0.0024999999999999875
vertex -0.09000000000000001 0.025 -0.002499999999999991
endloop
endfacet
facet normal -0.0 1.0 -0.0
outer loop
vertex -0.09000000000000001 0.025 -0.002499999999999991
vertex -0.11 0.025 0.0025000000000000118
vertex -0.09000000000000001 0.025 0.002500000000000009
endloop
endfacet
facet normal 0.0 -1.0 -0.0
outer loop
vertex -0.09000000000000001 -0.025 0.0025000000000000126
vertex -0.11 -0.025 -0.002499999999999985
vertex -0.09000000000000001 -0.025 -0.0024999999999999875
endloop
endfacet
facet normal 1.301042606982606e-16 6.938893903907228e-17 1.0
outer loop
vertex -0.11 -0.025 0.0025000000000000152
vertex -0.09000000000000001 -0.025 0.0025000000000000126
vertex -0.11 0.025 0.0025000000000000118
endloop
endfacet
facet normal 0.0 -1.0 0.0
outer loop
vertex -0.11 -0.025 0.0025000000000000152
vertex -0.11 -0.025 -0.002499999999999985
vertex -0.09000000000000001 -0.025 0.0025000000000000126
endloop
endfacet
facet normal -1.301042606982606e-16 -6.938893903907228e-17 -1.0
outer loop
vertex -0.09000000000000001 -0.025 -0.0024999999999999875
vertex -0.11 -0.025 -0.002499999999999985
vertex -0.09000000000000001 0.025 -0.002499999999999991
endloop
endfacet
facet normal -0.0 1.0 0.0
outer loop
vertex -0.11 0.025 -0.0024999999999999883
vertex -0.11 0.025 0.0025000000000000118
vertex -0.09000000000000001 0.025 -0.002499999999999991
endloop
endfacet
facet normal -1.301042606982606e-16 -6.938893903907228e-17 -1.0
outer loop
vertex -0.09000000000000001 0.025 -0.002499999999999991
vertex -0.11 -0.025 -0.002499999999999985
vertex -0.11 0.025 -0.0024999999999999883
endloop
endfacet
facet normal -1.0 0.0 0.0
outer loop
vertex -0.11 0.025 -0.0024999999999999883
vertex -0.11 -0.025 0.0025000000000000152
vertex -0.11 0.025 0.0025000000000000118
endloop
endfacet
facet normal -1.0 0.0 0.0
outer loop
vertex -0.11 -0.025 -0.002499999999999985
vertex -0.11 -0.025 0.0025000000000000152
vertex -0.11 0.025 -0.0024999999999999883
endloop
endfacet
facet normal 0.9396926207859091 0.0 0.34202014332566666
outer loop
vertex -0.08542738622904593 -0.025000000000000005 -0.02843258134734541
vertex -0.0837172855124176 -0.025000000000000005 -0.03313104445127495
vertex -0.08542738622904593 0.024999999999999998 -0.02843258134734541
endloop
endfacet
facet normal -0.3420201433256683 0.0 0.9396926207859084
outer loop
vertex -0.1042212386447641 0.024999999999999998 -0.03527298421385878
vertex -0.08542738622904593 -0.025000000000000005 -0.02843258134734541
vertex -0.08542738622904593 0.024999999999999998 -0.02843258134734541
endloop
endfacet
facet normal 0.9396926207859091 -0.0 0.34202014332566666
outer loop
vertex -0.08542738622904593 0.024999999999999998 -0.02843258134734541
vertex -0.0837172855124176 -0.025000000000000005 -0.03313104445127495
vertex -0.0837172855124176 0.024999999999999998 -0.03313104445127495
endloop
endfacet
facet normal 0.0 1.0 -0.0
outer loop
vertex -0.0837172855124176 0.024999999999999998 -0.03313104445127495
vertex -0.1042212386447641 0.024999999999999998 -0.03527298421385878
vertex -0.08542738622904593 0.024999999999999998 -0.02843258134734541
endloop
endfacet
facet normal 0.0 -1.0 -0.0
outer loop
vertex -0.08542738622904593 -0.025000000000000005 -0.02843258134734541
vertex -0.10251113792813576 -0.025000000000000005 -0.039971447317788324
vertex -0.0837172855124176 -0.025000000000000005 -0.03313104445127495
endloop
endfacet
facet normal -0.3420201433256683 0.0 0.9396926207859084
outer loop
vertex -0.1042212386447641 -0.025000000000000005 -0.03527298421385878
vertex -0.08542738622904593 -0.025000000000000005 -0.02843258134734541
vertex -0.1042212386447641 0.024999999999999998 -0.03527298421385878
endloop
endfacet
facet normal 0.0 -1.0 0.0
outer loop
vertex -0.1042212386447641 -0.025000000000000005 -0.03527298421385878
vertex -0.10251113792813576 -0.025000000000000005 -0.039971447317788324
vertex -0.08542738622904593 -0.025000000000000005 -0.02843258134734541
endloop
endfacet
facet normal 0.34202014332566855 0.0 -0.9396926207859084
outer loop
vertex -0.0837172855124176 -0.025000000000000005 -0.03313104445127495
vertex -0.10251113792813576 -0.025000000000000005 -0.039971447317788324
vertex -0.0837172855124176 0.024999999999999998 -0.03313104445127495
endloop
endfacet
facet normal 0.0 1.0 -0.0
outer loop
vertex -0.10251113792813576 0.024999999999999998 -0.039971447317788324
vertex -0.1042212386447641 0.024999999999999998 -0.03527298421385878
vertex -0.0837172855124176 0.024999999999999998 -0.03313104445127495
endloop
endfacet
facet normal 0.34202014332566855 0.0 -0.9396926207859084
outer loop
vertex -0.0837172855124176 0.024999999999999998 -0.03313104445127495
vertex -0.10251113792813576 -0.025000000000000005 -0.039971447317788324
vertex -0.10251113792813576 0.024999999999999998 -0.039971447317788324
endloop
endfacet
facet normal -0.9396926207859093 0.0 -0.34202014332566655
outer loop
vertex -0.10251113792813576 0.024999999999999998 -0.039971447317788324
vertex -0.1042212386447641 -0.025000000000000005 -0.03527298421385878
vertex -0.1042212386447641 0.024999999999999998 -0.03527298421385878
endloop
endfacet
facet normal -0.9396926207859093 0.0 -0.34202014332566655
outer loop
vertex -0.10251113792813576 -0.025000000000000005 -0.039971447317788324
vertex -0.1042212386447641 -0.025000000000000005 -0.03527298421385878
vertex -0.10251113792813576 0.024999999999999998 -0.039971447317788324
endloop
endfacet
facet normal 0.766044443118977 0.0 0.6427876096865406
outer loop
vertex -0.07055096890492438 -0.025 -0.0559357737639911
vertex -0.06733703085649168 -0.025 -0.059765995979585984
vertex -0.07055096890492438 0.024999999999999994 -0.0559357737639911
endloop
endfacet
facet normal -0.6427876096865387 0.0 0.7660444431189786
outer loop
vertex -0.08587185776730394 0.024999999999999994 -0.06879152595772187
vertex -0.07055096890492438 -0.025 -0.0559357737639911
vertex -0.07055096890492438 0.024999999999999994 -0.0559357737639911
endloop
endfacet
facet normal 0.766044443118977 -0.0 0.6427876096865406
outer loop
vertex -0.07055096890492438 0.024999999999999994 -0.0559357737639911
vertex -0.06733703085649168 -0.025 -0.059765995979585984
vertex -0.06733703085649168 0.024999999999999994 -0.059765995979585984
endloop
endfacet
facet normal 0.0 0.9999999999999999 -0.0
outer loop
vertex -0.06733703085649168 0.024999999999999994 -0.059765995979585984
vertex -0.08587185776730394 0.024999999999999994 -0.06879152595772187
vertex -0.07055096890492438 0.024999999999999994 -0.0559357737639911
endloop
endfacet
facet normal 0.0 -0.9999999999999999 -0.0
outer loop
vertex -0.07055096890492438 -0.025 -0.0559357737639911
vertex -0.08265791971887124 -0.025 -0.07262174817331676
vertex -0.06733703085649168 -0.025 -0.059765995979585984
endloop
endfacet
facet normal -0.6427876096865387 0.0 0.7660444431189786
outer loop
vertex -0.08587185776730394 -0.025 -0.06879152595772187
vertex -0.07055096890492438 -0.025 -0.0559357737639911
vertex -0.08587185776730394 0.024999999999999994 -0.06879152595772187
endloop
endfacet
facet normal 0.0 -1.0 0.0
outer loop
vertex -0.08587185776730394 -0.025 -0.06879152595772187
vertex -0.08265791971887124 -0.025 -0.07262174817331676
vertex -0.07055096890492438 -0.025 -0.0559357737639911
endloop
endfacet
facet normal 0.642787609686539 0.0 -0.7660444431189782
outer loop
vertex -0.06733703085649168 -0.025 -0.059765995979585984
vertex -0.08265791971887124 -0.025 -0.07262174817331676
vertex -0.06733703085649168 0.024999999999999994 -0.059765995979585984
endloop
endfacet
facet normal 0.0 1.0 -0.0
outer loop
vertex -0.08265791971887124 0.024999999999999994 -0.07262174817331676
vertex -0.08587185776730394 0.024999999999999994 -0.06879152595772187
vertex -0.06733703085649168 0.024999999999999994 -0.059765995979585984
endloop
endfacet
facet normal 0.642787609686539 0.0 -0.7660444431189782
outer loop
vertex -0.06733703085649168 0.024999999999999994 -0.059765995979585984
vertex -0.08265791971887124 -0.025 -0.07262174817331676
vertex -0.08265791971887124 0.024999999999999994 -0.07262174817331676
endloop
endfacet
facet normal -0.7660444431189781 0.0 -0.6427876096865393
outer loop
vertex -0.08265791971887124 0.024999999999999994 -0.07262174817331676
vertex -0.08587185776730394 -0.025 -0.06879152595772187
vertex -0.08587185776730394 0.024999999999999994 -0.06879152595772187
endloop
endfacet
facet normal -0.7660444431189781 0.0 -0.6427876096865393
outer loop
vertex -0.08265791971887124 -0.025 -0.07262174817331676
vertex -0.08587185776730394 -0.025 -0.06879152595772187
vertex -0.08265791971887124 0.024999999999999994 -0.07262174817331676
endloop
endfacet
facet normal 0.500000000000001 0.0 0.8660254037844382
outer loop
vertex -0.04716506350946114 -0.025000000000000005 -0.07669228634059946
vertex -0.042834936490538954 -0.025000000000000005 -0.07919228634059947
vertex -0.04716506350946114 0.024999999999999998 -0.07669228634059946
endloop
endfacet
facet normal -0.8660254037844385 0.0 0.5000000000000003
outer loop
vertex -0.05716506350946114 0.024999999999999994 -0.09401279441628822
vertex -0.04716506350946114 -0.025000000000000005 -0.07669228634059946
vertex -0.04716506350946114 0.024999999999999998 -0.07669228634059946
endloop
endfacet
facet normal 0.500000000000001 -0.0 0.8660254037844382
outer loop
vertex -0.04716506350946114 0.024999999999999998 -0.07669228634059946
vertex -0.042834936490538954 -0.025000000000000005 -0.07919228634059947
vertex -0.042834936490538954 0.024999999999999998 -0.07919228634059947
endloop
endfacet
facet normal -8.673617379884058e-17 0.9999999999999999 -1.5023145987371593e-16
outer loop
vertex -0.042834936490538954 0.024999999999999998 -0.07919228634059947
vertex -0.05716506350946114 0.024999999999999994 -0.09401279441628822
vertex -0.04716506350946114 0.024999999999999998 -0.07669228634059946
endloop
endfacet
facet normal 8.673617379884055e-17 -1.0 1.502314598737159e-16
outer loop
vertex -0.04716506350946114 -0.025000000000000005 -0.07669228634059946
vertex -0.052834936490538956 -0.02500000000000001 -0.09651279441628823
vertex -0.042834936490538954 -0.025000000000000005 -0.07919228634059947
endloop
endfacet
facet normal -0.8660254037844386 0.0 0.5000000000000003
outer loop
vertex -0.05716506350946114 -0.02500000000000001 -0.09401279441628822
vertex -0.04716506350946114 -0.025000000000000005 -0.07669228634059946
vertex -0.05716506350946114 0.024999999999999994 -0.09401279441628822
endloop
endfacet
facet normal 8.673617379884058e-17 -1.0 1.5023145987371593e-16
outer loop
vertex -0.05716506350946114 -0.02500000000000001 -0.09401279441628822
vertex -0.052834936490538956 -0.02500000000000001 -0.09651279441628823
vertex -0.04716506350946114 -0.025000000000000005 -0.07669228634059946
endloop
endfacet
facet normal 0.8660254037844385 0.0 -0.5000000000000004
outer loop
vertex -0.042834936490538954 -0.025000000000000005 -0.07919228634059947
vertex -0.052834936490538956 -0.02500000000000001 -0.09651279441628823
vertex -0.042834936490538954 0.024999999999999998 -0.07919228634059947
endloop
endfacet
facet normal -8.673617379884055e-17 1.0 -1.502314598737159e-16
outer loop
vertex -0.052834936490538956 0.024999999999999994 -0.09651279441628823
vertex -0.05716506350946114 0.024999999999999994 -0.09401279441628822
vertex -0.042834936490538954 0.024999999999999998 -0.07919228634059947
endloop
endfacet
facet normal 0.8660254037844385 0.0 -0.5000000000000003
outer loop
vertex -0.042834936490538954 0.024999999999999998 -0.07919228634059947
vertex -0.052834936490538956 -0.02500000000000001 -0.09651279441628823
vertex -0.052834936490538956 0.024999999999999994 -0.09651279441628823
endloop
endfacet
facet normal -0.500000000000001 0.0 -0.8660254037844382
outer loop
vertex -0.052834936490538956 0.024999999999999994 -0.09651279441628823
vertex -0.05716506350946114 -0.02500000000000001 -0.09401279441628822
vertex -0.05716506350946114 0.024999999999999994 -0.09401279441628822
endloop
endfacet
facet normal -0.500000000000001 0.0 -0.8660254037844382
outer loop
vertex -0.052834936490538956 -0.02500000000000001 -0.09651279441628823
vertex -0.05716506350946114 -0.02500000000000001 -0.09401279441628822
vertex -0.052834936490538956 0.024999999999999994 -0.09651279441628823
endloop
endfacet
facet normal 0.17364817766692967 0.0 0.9848077530122082
outer loop
vertex -0.018090355372554254 -0.02500000000000001 -0.08819857732693141
vertex -0.013166316607493213 -0.02500000000000001 -0.08906681821526606
vertex -0.018090355372554254 0.024999999999999994 -0.08819857732693141
endloop
endfacet
facet normal -0.984807753012208 0.0 0.17364817766693025
outer loop
vertex -0.021563318925892857 0.024999999999999994 -0.10789473238717556
vertex -0.018090355372554254 -0.02500000000000001 -0.08819857732693141
vertex -0.018090355372554254 0.024999999999999994 -0.08819857732693141
endloop
endfacet
facet normal 0.17364817766692967 -0.0 0.9848077530122082
outer loop
vertex -0.018090355372554254 0.024999999999999994 -0.08819857732693141
vertex -0.013166316607493213 -0.02500000000000001 -0.08906681821526606
vertex -0.013166316607493213 0.024999999999999994 -0.08906681821526606
endloop
endfacet
facet normal 0.0 0.9999999999999999 -0.0
outer loop
vertex -0.013166316607493213 0.024999999999999994 -0.08906681821526606
vertex -0.021563318925892857 0.024999999999999994 -0.10789473238717556
vertex -0.018090355372554254 0.024999999999999994 -0.08819857732693141
endloop
endfacet
facet normal 0.0 -0.9999999999999999 0.0
outer loop
vertex -0.018090355372554254 -0.02500000000000001 -0.08819857732693141
vertex -0.016639280160831816 -0.02500000000000001 -0.10876297327551021
vertex -0.013166316607493213 -0.02500000000000001 -0.08906681821526606
endloop
endfacet
facet normal -0.984807753012208 0.0 0.17364817766693025
outer loop
vertex -0.021563318925892857 -0.02500000000000001 -0.10789473238717556
vertex -0.018090355372554254 -0.02500000000000001 -0.08819857732693141
vertex -0.021563318925892857 0.024999999999999994 -0.10789473238717556
endloop
endfacet
facet normal 0.0 -0.9999999999999999 0.0
outer loop
vertex -0.021563318925892857 -0.02500000000000001 -0.10789473238717556
vertex -0.016639280160831816 -0.02500000000000001 -0.10876297327551021
vertex -0.018090355372554254 -0.02500000000000001 -0.08819857732693141
endloop
endfacet
facet normal 0.984807753012208 0.0 -0.17364817766693025
outer loop
vertex -0.013166316607493213 -0.02500000000000001 -0.08906681821526606
vertex -0.016639280160831816 -0.02500000000000001 -0.10876297327551021
vertex -0.013166316607493213 0.024999999999999994 -0.08906681821526606
endloop
endfacet
facet normal 0.0 0.9999999999999999 -0.0
outer loop
vertex -0.016639280160831816 0.024999999999999994 -0.10876297327551021
vertex -0.021563318925892857 0.024999999999999994 -0.10789473238717556
vertex -0.013166316607493213 0.024999999999999994 -0.08906681821526606
endloop
endfacet
facet normal 0.984807753012208 0.0 -0.17364817766693025
outer loop
vertex -0.013166316607493213 0.024999999999999994 -0.08906681821526606
vertex -0.016639280160831816 -0.02500000000000001 -0.10876297327551021
vertex -0.016639280160831816 0.024999999999999994 -0.10876297327551021
endloop
endfacet
facet normal -0.17364817766692967 0.0 -0.9848077530122082
outer loop
vertex -0.016639280160831816 0.024999999999999994 -0.10876297327551021
vertex -0.021563318925892857 -0.02500000000000001 -0.10789473238717556
vertex -0.021563318925892857 0.024999999999999994 -0.10789473238717556
endloop
endfacet
facet normal -0.17364817766692967 0.0 -0.9848077530122082
outer loop
vertex -0.016639280160831816 -0.02500000000000001 -0.10876297327551021
vertex -0.021563318925892857 -0.02500000000000001 -0.10789473238717556
vertex -0.016639280160831816 0.024999999999999994 -0.10876297327551021
endloop
endfacet
facet normal -0.17364817766692967 0.0 0.9848077530122082
outer loop
vertex 0.013166316607493178 -0.02500000000000001 -0.08906681821526606
vertex 0.01809035537255422 -0.02500000000000001 -0.08819857732693141
vertex 0.013166316607493178 0.024999999999999994 -0.08906681821526606
endloop
endfacet
facet normal -0.9848077530122082 0.0 -0.17364817766692997
outer loop
vertex 0.016639280160831778 0.024999999999999994 -0.10876297327551022
vertex 0.013166316607493178 -0.02500000000000001 -0.08906681821526606
vertex 0.013166316607493178 0.024999999999999994 -0.08906681821526606
endloop
endfacet
facet normal -0.17364817766692967 0.0 0.9848077530122082
outer loop
vertex 0.013166316607493178 0.024999999999999994 -0.08906681821526606
vertex 0.01809035537255422 -0.02500000000000001 -0.08819857732693141
vertex 0.01809035537255422 0.024999999999999994 -0.08819857732693141
endloop
endfacet
facet normal 0.0 1.0 0.0
outer loop
vertex 0.01809035537255422 0.024999999999999994 -0.08819857732693141
vertex 0.016639280160831778 0.024999999999999994 -0.10876297327551022
vertex 0.013166316607493178 0.024999999999999994 -0.08906681821526606
endloop
endfacet
facet normal 0.0 -1.0 0.0
outer loop
vertex 0.013166316607493178 -0.02500000000000001 -0.08906681821526606
vertex 0.02156331892589282 -0.02500000000000001 -0.10789473238717558
vertex 0.01809035537255422 -0.02500000000000001 -0.08819857732693141
endloop
endfacet
facet normal -0.9848077530122082 0.0 -0.17364817766692997
outer loop
vertex 0.016639280160831778 -0.02500000000000001 -0.10876297327551022
vertex 0.013166316607493178 -0.02500000000000001 -0.08906681821526606
vertex 0.016639280160831778 0.024999999999999994 -0.10876297327551022
endloop
endfacet
facet normal 0.0 -1.0 0.0
outer loop
vertex 0.016639280160831778 -0.02500000000000001 -0.10876297327551022
vertex 0.02156331892589282 -0.02500000000000001 -0.10789473238717558
vertex 0.013166316607493178 -0.02500000000000001 -0.08906681821526606
endloop
endfacet
facet normal 0.9848077530122082 0.0 0.17364817766692997
outer loop
vertex 0.01809035537255422 -0.02500000000000001 -0.08819857732693141
vertex 0.02156331892589282 -0.02500000000000001 -0.10789473238717558
vertex 0.01809035537255422 0.024999999999999994 -0.08819857732693141
endloop
endfacet
facet normal 0.0 1.0 -0.0
outer loop
vertex 0.02156331892589282 0.024999999999999994 -0.10789473238717558
vertex 0.016639280160831778 0.024999999999999994 -0.10876297327551022
vertex 0.01809035537255422 0.024999999999999994 -0.08819857732693141
endloop
endfacet
facet normal 0.9848077530122082 -0.0 0.17364817766692997
outer loop
vertex 0.01809035537255422 0.024999999999999994 -0.08819857732693141
vertex 0.02156331892589282 -0.02500000000000001 -0.10789473238717558
vertex 0.02156331892589282 0.024999999999999994 -0.10789473238717558
endloop
endfacet
facet normal 0.17364817766692967 0.0 -0.9848077530122082
outer loop
vertex 0.02156331892589282 0.024999999999999994 -0.10789473238717558
vertex 0.016639280160831778 -0.02500000000000001 -0.10876297327551022
vertex 0.016639280160831778 0.024999999999999994 -0.10876297327551022
endloop
endfacet
facet normal 0.17364817766692967 0.0 -0.9848077530122082
outer loop
vertex 0.02156331892589282 -0.02500000000000001 -0.10789473238717558
vertex 0.016639280160831778 -0.02500000000000001 -0.10876297327551022
vertex 0.02156331892589282 0.024999999999999994 -0.10789473238717558
endloop
endfacet
facet normal -0.500000000000001 0.0 0.8660254037844382
outer loop
vertex 0.04283493649053892 -0.025000000000000005 -0.07919228634059948
vertex 0.047165063509461105 -0.025000000000000005 -0.07669228634059948
vertex 0.04283493649053892 0.024999999999999998 -0.07919228634059948
endloop
endfacet
facet normal -0.8660254037844387 0.0 -0.5000000000000001
outer loop
vertex 0.05283493649053892 0.024999999999999994 -0.09651279441628825
vertex 0.04283493649053892 -0.025000000000000005 -0.07919228634059948
vertex 0.04283493649053892 0.024999999999999998 -0.07919228634059948
endloop
endfacet
facet normal -0.500000000000001 0.0 0.8660254037844382
outer loop
vertex 0.04283493649053892 0.024999999999999998 -0.07919228634059948
vertex 0.047165063509461105 -0.025000000000000005 -0.07669228634059948
vertex 0.047165063509461105 0.024999999999999998 -0.07669228634059948
endloop
endfacet
facet normal 8.673617379884051e-17 1.0 -1.5023145987371583e-16
outer loop
vertex 0.047165063509461105 0.024999999999999998 -0.07669228634059948
vertex 0.05283493649053892 0.024999999999999994 -0.09651279441628825
vertex 0.04283493649053892 0.024999999999999998 -0.07919228634059948
endloop
endfacet
facet normal -8.673617379884051e-17 -1.0 1.5023145987371583e-16
outer loop
vertex 0.04283493649053892 -0.025000000000000005 -0.07919228634059948
vertex 0.05716506350946111 -0.02500000000000001 -0.09401279441628825
vertex 0.047165063509461105 -0.025000000000000005 -0.07669228634059948
endloop
endfacet
facet normal -0.8660254037844386 0.0 -0.5
outer loop
vertex 0.05283493649053892 -0.02500000000000001 -0.09651279441628825
vertex 0.04283493649053892 -0.025000000000000005 -0.07919228634059948
vertex 0.05283493649053892 0.024999999999999994 -0.09651279441628825
endloop
endfacet
facet normal -8.673617379884051e-17 -1.0 1.5023145987371583e-16
outer loop
vertex 0.05283493649053892 -0.02500000000000001 -0.09651279441628825
vertex 0.05716506350946111 -0.02500000000000001 -0.09401279441628825
vertex 0.04283493649053892 -0.025000000000000005 -0.07919228634059948
endloop
endfacet
facet normal 0.8660254037844386 0.0 0.5000000000000001
outer loop
vertex 0.047165063509461105 -0.025000000000000005 -0.07669228634059948
vertex 0.05716506350946111 -0.02500000000000001 -0.09401279441628825
vertex 0.047165063509461105 0.024999999999999998 -0.07669228634059948
endloop
endfacet
facet normal 8.673617379884051e-17 1.0 -1.5023145987371583e-16
outer loop
vertex 0.05716506350946111 0.024999999999999994 -0.09401279441628825
vertex 0.05283493649053892 0.024999999999999994 -0.09651279441628825
vertex 0.047165063509461105 0.024999999999999998 -0.07669228634059948
endloop
endfacet
facet normal 0.8660254037844387 -0.0 0.5000000000000001
outer loop
vertex 0.047165063509461105 0.024999999999999998 -0.07669228634059948
vertex 0.05716506350946111 -0.02500000000000001 -0.09401279441628825
vertex 0.05716506350946111 0.024999999999999994 -0.09401279441628825
endloop
endfacet
facet normal 0.500000000000001 0.0 -0.8660254037844382
outer loop
vertex 0.05716506350946111 0.024999999999999994 -0.09401279441628825
vertex 0.05283493649053892 -0.02500000000000001 -0.09651279441628825
vertex 0.05283493649053892 0.024999999999999994 -0.09651279441628825
endloop
endfacet
facet normal 0.500000000000001 0.0 -0.8660254037844382
outer loop
vertex 0.05716506350946111 -0.02500000000000001 -0.09401279441628825
vertex 0.05283493649053892 -0.02500000000000001 -0.09651279441628825
vertex 0.05716506350946111 0.024999999999999994 -0.09401279441628825
endloop
endfacet
facet normal -0.7660444431189769 0.0 0.6427876096865406
outer loop
vertex 0.06733703085649166 -0.025000000000000005 -0.05976599597958601
vertex 0.07055096890492436 -0.025000000000000005 -0.05593577376399113
vertex 0.06733703085649166 0.024999999999999998 -0.05976599597958601
endloop
endfacet
facet normal -0.6427876096865399 0.0 -0.7660444431189778
outer loop
vertex 0.08265791971887121 0.024999999999999998 -0.0726217481733168
vertex 0.06733703085649166 -0.025000000000000005 -0.05976599597958601
vertex 0.06733703085649166 0.024999999999999998 -0.05976599597958601
endloop
endfacet
facet normal -0.7660444431189769 0.0 0.6427876096865406
outer loop
vertex 0.06733703085649166 0.024999999999999998 -0.05976599597958601
vertex 0.07055096890492436 -0.025000000000000005 -0.05593577376399113
vertex 0.07055096890492436 0.024999999999999998 -0.05593577376399113
endloop
endfacet
facet normal 0.0 0.9999999999999999 0.0
outer loop
vertex 0.07055096890492436 0.024999999999999998 -0.05593577376399113
vertex 0.08265791971887121 0.024999999999999998 -0.0726217481733168
vertex 0.06733703085649166 0.024999999999999998 -0.05976599597958601
endloop
endfacet
facet normal 0.0 -0.9999999999999999 0.0
outer loop
vertex 0.06733703085649166 -0.025000000000000005 -0.05976599597958601
vertex 0.08587185776730391 -0.025000000000000005 -0.06879152595772191
vertex 0.07055096890492436 -0.025000000000000005 -0.05593577376399113
endloop
endfacet
facet normal -0.6427876096865399 0.0 -0.7660444431189778
outer loop
vertex 0.08265791971887121 -0.025000000000000005 -0.0726217481733168
vertex 0.06733703085649166 -0.025000000000000005 -0.05976599597958601
vertex 0.08265791971887121 0.024999999999999998 -0.0726217481733168
endloop
endfacet
facet normal 0.0 -1.0 0.0
outer loop
vertex 0.08265791971887121 -0.025000000000000005 -0.0726217481733168
vertex 0.08587185776730391 -0.025000000000000005 -0.06879152595772191
vertex 0.06733703085649166 -0.025000000000000005 -0.05976599597958601
endloop
endfacet
facet normal 0.6427876096865395 0.0 0.7660444431189779
outer loop
vertex 0.07055096890492436 -0.025000000000000005 -0.05593577376399113
vertex 0.08587185776730391 -0.025000000000000005 -0.06879152595772191
vertex 0.07055096890492436 0.024999999999999998 -0.05593577376399113
endloop
endfacet
facet normal 0.0 1.0 0.0
outer loop
vertex 0.08587185776730391 0.024999999999999998 -0.06879152595772191
vertex 0.08265791971887121 0.024999999999999998 -0.0726217481733168
vertex 0.07055096890492436 0.024999999999999998 -0.05593577376399113
endloop
endfacet
facet normal 0.6427876096865395 -0.0 0.7660444431189779
outer loop
vertex 0.07055096890492436 0.024999999999999998 -0.05593577376399113
vertex 0.08587185776730391 -0.025000000000000005 -0.06879152595772191
vertex 0.08587185776730391 0.024999999999999998 -0.06879152595772191
endloop
endfacet
facet normal 0.7660444431189781 0.0 -0.6427876096865394
outer loop
vertex 0.08587185776730391 0.024999999999999998 -0.06879152595772191
vertex 0.08265791971887121 -0.025000000000000005 -0.0726217481733168
vertex 0.08265791971887121 0.024999999999999998 -0.0726217481733168
endloop
endfacet
facet normal 0.7660444431189781 0.0 -0.6427876096865394
outer loop
vertex 0.08587185776730391 -0.025000000000000005 -0.06879152595772191
vertex 0.08265791971887121 -0.025000000000000005 -0.0726217481733168
vertex 0.08587185776730391 0.024999999999999998 -0.06879152595772191
endloop
endfacet
facet normal -0.9396926207859073 0.0 0.3420201433256719
outer loop
vertex 0.08371728551241756 -0.025000000000000005 -0.03313104445127502
vertex 0.08542738622904592 -0.025000000000000005 -0.028432581347345484
vertex 0.08371728551241756 0.024999999999999998 -0.03313104445127502
endloop
endfacet
facet normal -0.34202014332566977 0.0 -0.9396926207859081
outer loop
vertex 0.10251113792813571 0.024999999999999998 -0.039971447317788414
vertex 0.08371728551241756 -0.025000000000000005 -0.03313104445127502
vertex 0.08371728551241756 0.024999999999999998 -0.03313104445127502
endloop
endfacet
facet normal -0.9396926207859073 0.0 0.3420201433256719
outer loop
vertex 0.08371728551241756 0.024999999999999998 -0.03313104445127502
vertex 0.08542738622904592 -0.025000000000000005 -0.028432581347345484
vertex 0.08542738622904592 0.024999999999999998 -0.028432581347345484
endloop
endfacet
facet normal 0.0 1.0 0.0
outer loop
vertex 0.08542738622904592 0.024999999999999998 -0.028432581347345484
vertex 0.10251113792813571 0.024999999999999998 -0.039971447317788414
vertex 0.08371728551241756 0.024999999999999998 -0.03313104445127502
endloop
endfacet
facet normal 0.0 -0.9999999999999999 0.0
outer loop
vertex 0.08371728551241756 -0.025000000000000005 -0.03313104445127502
vertex 0.10422123864476407 -0.025000000000000005 -0.03527298421385887
vertex 0.08542738622904592 -0.025000000000000005 -0.028432581347345484
endloop
endfacet
facet normal -0.34202014332566977 0.0 -0.9396926207859081
outer loop
vertex 0.10251113792813571 -0.025000000000000005 -0.039971447317788414
vertex 0.08371728551241756 -0.025000000000000005 -0.03313104445127502
vertex 0.10251113792813571 0.024999999999999998 -0.039971447317788414
endloop
endfacet
facet normal 0.0 -1.0 0.0
outer loop
vertex 0.10251113792813571 -0.025000000000000005 -0.039971447317788414
vertex 0.10422123864476407 -0.025000000000000005 -0.03527298421385887
vertex 0.08371728551241756 -0.025000000000000005 -0.03313104445127502
endloop
endfacet
facet normal 0.34202014332566943 0.0 0.9396926207859083
outer loop
vertex 0.08542738622904592 -0.025000000000000005 -0.028432581347345484
vertex 0.10422123864476407 -0.025000000000000005 -0.03527298421385887
vertex 0.08542738622904592 0.024999999999999998 -0.028432581347345484
endloop
endfacet
facet normal 0.0 1.0 0.0
outer loop
vertex 0.10422123864476407 0.024999999999999998 -0.03527298421385887
vertex 0.10251113792813571 0.024999999999999998 -0.039971447317788414
vertex 0.08542738622904592 0.024999999999999998 -0.028432581347345484
endloop
endfacet
facet normal 0.34202014332566943 -0.0 0.9396926207859083
outer loop
vertex 0.08542738622904592 0.024999999999999998 -0.028432581347345484
vertex 0.10422123864476407 -0.025000000000000005 -0.03527298421385887
vertex 0.10422123864476407 0.024999999999999998 -0.03527298421385887
endloop
endfacet
facet normal 0.9396926207859075 0.0 -0.34202014332567143
outer loop
vertex 0.10422123864476407 0.024999999999999998 -0.03527298421385887
vertex 0.10251113792813571 -0.025000000000000005 -0.039971447317788414
vertex 0.10251113792813571 0.024999999999999998 -0.039971447317788414
endloop
endfacet
facet normal 0.9396926207859075 0.0 -0.34202014332567143
outer loop
vertex 0.10422123864476407 -0.025000000000000005 -0.03527298421385887
vertex 0.10251113792813571 -0.025000000000000005 -0.039971447317788414
vertex 0.10422123864476407 0.024999999999999998 -0.03527298421385887
endloop
endfacet

endsolid
