solid wheelLargeCylinder.stl
facet normal 0.000000 -0.085505 0.000000
  outer loop
    vertex 0.000000 -0.400000 0.000000
    vertex 0.171010 -0.400000 0.469846
    vertex 0.000000 -0.400000 0.500000
  endloop
endfacet
facet normal 0.000000 0.085505 0.000000
  outer loop
    vertex 0.000000 0.400000 0.000000
    vertex 0.000000 0.400000 0.500000
    vertex 0.171010 0.400000 0.469846
  endloop
endfacet
facet normal 0.024123 -0.000000 0.136808
  outer loop
    vertex 0.000000 -0.400000 0.500000
    vertex 0.171010 -0.400000 0.469846
    vertex 0.000000 0.400000 0.500000
  endloop
endfacet
facet normal 0.024123 -0.000000 0.136808
  outer loop
    vertex 0.171010 -0.400000 0.469846
    vertex 0.171010 0.400000 0.469846
    vertex 0.000000 0.400000 0.500000
  endloop
endfacet
facet normal 0.000000 -0.085505 0.000000
  outer loop
    vertex 0.000000 -0.400000 0.000000
    vertex 0.321394 -0.400000 0.383022
    vertex 0.171010 -0.400000 0.469846
  endloop
endfacet
facet normal 0.000000 0.085505 0.000000
  outer loop
    vertex 0.000000 0.400000 0.000000
    vertex 0.171010 0.400000 0.469846
    vertex 0.321394 0.400000 0.383022
  endloop
endfacet
facet normal 0.069459 -0.000000 0.120307
  outer loop
    vertex 0.171010 -0.400000 0.469846
    vertex 0.321394 -0.400000 0.383022
    vertex 0.171010 0.400000 0.469846
  endloop
endfacet
facet normal 0.069459 -0.000000 0.120307
  outer loop
    vertex 0.321394 -0.400000 0.383022
    vertex 0.321394 0.400000 0.383022
    vertex 0.171010 0.400000 0.469846
  endloop
endfacet
facet normal 0.000000 -0.085505 0.000000
  outer loop
    vertex 0.000000 -0.400000 0.000000
    vertex 0.433013 -0.400000 0.250000
    vertex 0.321394 -0.400000 0.383022
  endloop
endfacet
facet normal 0.000000 0.085505 0.000000
  outer loop
    vertex 0.000000 0.400000 0.000000
    vertex 0.321394 0.400000 0.383022
    vertex 0.433013 0.400000 0.250000
  endloop
endfacet
facet normal 0.106418 -0.000000 0.089295
  outer loop
    vertex 0.321394 -0.400000 0.383022
    vertex 0.433013 -0.400000 0.250000
    vertex 0.321394 0.400000 0.383022
  endloop
endfacet
facet normal 0.106418 -0.000000 0.089295
  outer loop
    vertex 0.433013 -0.400000 0.250000
    vertex 0.433013 0.400000 0.250000
    vertex 0.321394 0.400000 0.383022
  endloop
endfacet
facet normal 0.000000 -0.085505 0.000000
  outer loop
    vertex 0.000000 -0.400000 0.000000
    vertex 0.492404 -0.400000 0.086824
    vertex 0.433013 -0.400000 0.250000
  endloop
endfacet
facet normal 0.000000 0.085505 0.000000
  outer loop
    vertex 0.000000 0.400000 0.000000
    vertex 0.433013 0.400000 0.250000
    vertex 0.492404 0.400000 0.086824
  endloop
endfacet
facet normal 0.130541 -0.000000 0.047513
  outer loop
    vertex 0.433013 -0.400000 0.250000
    vertex 0.492404 -0.400000 0.086824
    vertex 0.433013 0.400000 0.250000
  endloop
endfacet
facet normal 0.130541 -0.000000 0.047513
  outer loop
    vertex 0.492404 -0.400000 0.086824
    vertex 0.492404 0.400000 0.086824
    vertex 0.433013 0.400000 0.250000
  endloop
endfacet
facet normal 0.000000 -0.085505 0.000000
  outer loop
    vertex 0.000000 -0.400000 0.000000
    vertex 0.492404 -0.400000 -0.086824
    vertex 0.492404 -0.400000 0.086824
  endloop
endfacet
facet normal -0.000000 0.085505 0.000000
  outer loop
    vertex 0.000000 0.400000 0.000000
    vertex 0.492404 0.400000 0.086824
    vertex 0.492404 0.400000 -0.086824
  endloop
endfacet
facet normal 0.138919 -0.000000 0.000000
  outer loop
    vertex 0.492404 -0.400000 0.086824
    vertex 0.492404 -0.400000 -0.086824
    vertex 0.492404 0.400000 0.086824
  endloop
endfacet
facet normal 0.138919 0.000000 0.000000
  outer loop
    vertex 0.492404 -0.400000 -0.086824
    vertex 0.492404 0.400000 -0.086824
    vertex 0.492404 0.400000 0.086824
  endloop
endfacet
facet normal 0.000000 -0.085505 0.000000
  outer loop
    vertex 0.000000 -0.400000 0.000000
    vertex 0.433013 -0.400000 -0.250000
    vertex 0.492404 -0.400000 -0.086824
  endloop
endfacet
facet normal 0.000000 0.085505 0.000000
  outer loop
    vertex 0.000000 0.400000 0.000000
    vertex 0.492404 0.400000 -0.086824
    vertex 0.433013 0.400000 -0.250000
  endloop
endfacet
facet normal 0.130541 0.000000 -0.047513
  outer loop
    vertex 0.492404 -0.400000 -0.086824
    vertex 0.433013 -0.400000 -0.250000
    vertex 0.492404 0.400000 -0.086824
  endloop
endfacet
facet normal 0.130541 0.000000 -0.047513
  outer loop
    vertex 0.433013 -0.400000 -0.250000
    vertex 0.433013 0.400000 -0.250000
    vertex 0.492404 0.400000 -0.086824
  endloop
endfacet
facet normal 0.000000 -0.085505 0.000000
  outer loop
    vertex 0.000000 -0.400000 0.000000
    vertex 0.321394 -0.400000 -0.383022
    vertex 0.433013 -0.400000 -0.250000
  endloop
endfacet
facet normal 0.000000 0.085505 0.000000
  outer loop
    vertex 0.000000 0.400000 0.000000
    vertex 0.433013 0.400000 -0.250000
    vertex 0.321394 0.400000 -0.383022
  endloop
endfacet
facet normal 0.106418 0.000000 -0.089295
  outer loop
    vertex 0.433013 -0.400000 -0.250000
    vertex 0.321394 -0.400000 -0.383022
    vertex 0.433013 0.400000 -0.250000
  endloop
endfacet
facet normal 0.106418 0.000000 -0.089295
  outer loop
    vertex 0.321394 -0.400000 -0.383022
    vertex 0.321394 0.400000 -0.383022
    vertex 0.433013 0.400000 -0.250000
  endloop
endfacet
facet normal 0.000000 -0.085505 0.000000
  outer loop
    vertex 0.000000 -0.400000 0.000000
    vertex 0.171010 -0.400000 -0.469846
    vertex 0.321394 -0.400000 -0.383022
  endloop
endfacet
facet normal 0.000000 0.085505 0.000000
  outer loop
    vertex 0.000000 0.400000 0.000000
    vertex 0.321394 0.400000 -0.383022
    vertex 0.171010 0.400000 -0.469846
  endloop
endfacet
facet normal 0.069459 0.000000 -0.120307
  outer loop
    vertex 0.321394 -0.400000 -0.383022
    vertex 0.171010 -0.400000 -0.469846
    vertex 0.321394 0.400000 -0.383022
  endloop
endfacet
facet normal 0.069459 0.000000 -0.120307
  outer loop
    vertex 0.171010 -0.400000 -0.469846
    vertex 0.171010 0.400000 -0.469846
    vertex 0.321394 0.400000 -0.383022
  endloop
endfacet
facet normal 0.000000 -0.085505 0.000000
  outer loop
    vertex 0.000000 -0.400000 0.000000
    vertex 0.000000 -0.400000 -0.500000
    vertex 0.171010 -0.400000 -0.469846
  endloop
endfacet
facet normal 0.000000 0.085505 0.000000
  outer loop
    vertex 0.000000 0.400000 0.000000
    vertex 0.171010 0.400000 -0.469846
    vertex 0.000000 0.400000 -0.500000
  endloop
endfacet
facet normal 0.024123 0.000000 -0.136808
  outer loop
    vertex 0.171010 -0.400000 -0.469846
    vertex 0.000000 -0.400000 -0.500000
    vertex 0.171010 0.400000 -0.469846
  endloop
endfacet
facet normal 0.024123 0.000000 -0.136808
  outer loop
    vertex 0.000000 -0.400000 -0.500000
    vertex 0.000000 0.400000 -0.500000
    vertex 0.171010 0.400000 -0.469846
  endloop
endfacet
facet normal 0.000000 -0.085505 -0.000000
  outer loop
    vertex 0.000000 -0.400000 0.000000
    vertex -0.171010 -0.400000 -0.469846
    vertex 0.000000 -0.400000 -0.500000
  endloop
endfacet
facet normal 0.000000 0.085505 0.000000
  outer loop
    vertex 0.000000 0.400000 0.000000
    vertex 0.000000 0.400000 -0.500000
    vertex -0.171010 0.400000 -0.469846
  endloop
endfacet
facet normal -0.024123 0.000000 -0.136808
  outer loop
    vertex 0.000000 -0.400000 -0.500000
    vertex -0.171010 -0.400000 -0.469846
    vertex 0.000000 0.400000 -0.500000
  endloop
endfacet
facet normal -0.024123 0.000000 -0.136808
  outer loop
    vertex -0.171010 -0.400000 -0.469846
    vertex -0.171010 0.400000 -0.469846
    vertex 0.000000 0.400000 -0.500000
  endloop
endfacet
facet normal 0.000000 -0.085505 0.000000
  outer loop
    vertex 0.000000 -0.400000 0.000000
    vertex -0.321394 -0.400000 -0.383022
    vertex -0.171010 -0.400000 -0.469846
  endloop
endfacet
facet normal 0.000000 0.085505 0.000000
  outer loop
    vertex 0.000000 0.400000 0.000000
    vertex -0.171010 0.400000 -0.469846
    vertex -0.321394 0.400000 -0.383022
  endloop
endfacet
facet normal -0.069459 0.000000 -0.120307
  outer loop
    vertex -0.171010 -0.400000 -0.469846
    vertex -0.321394 -0.400000 -0.383022
    vertex -0.171010 0.400000 -0.469846
  endloop
endfacet
facet normal -0.069459 0.000000 -0.120307
  outer loop
    vertex -0.321394 -0.400000 -0.383022
    vertex -0.321394 0.400000 -0.383022
    vertex -0.171010 0.400000 -0.469846
  endloop
endfacet
facet normal 0.000000 -0.085505 0.000000
  outer loop
    vertex 0.000000 -0.400000 0.000000
    vertex -0.433013 -0.400000 -0.250000
    vertex -0.321394 -0.400000 -0.383022
  endloop
endfacet
facet normal 0.000000 0.085505 0.000000
  outer loop
    vertex 0.000000 0.400000 0.000000
    vertex -0.321394 0.400000 -0.383022
    vertex -0.433013 0.400000 -0.250000
  endloop
endfacet
facet normal -0.106418 0.000000 -0.089295
  outer loop
    vertex -0.321394 -0.400000 -0.383022
    vertex -0.433013 -0.400000 -0.250000
    vertex -0.321394 0.400000 -0.383022
  endloop
endfacet
facet normal -0.106418 0.000000 -0.089295
  outer loop
    vertex -0.433013 -0.400000 -0.250000
    vertex -0.433013 0.400000 -0.250000
    vertex -0.321394 0.400000 -0.383022
  endloop
endfacet
facet normal 0.000000 -0.085505 0.000000
  outer loop
    vertex 0.000000 -0.400000 0.000000
    vertex -0.492404 -0.400000 -0.086824
    vertex -0.433013 -0.400000 -0.250000
  endloop
endfacet
facet normal 0.000000 0.085505 0.000000
  outer loop
    vertex 0.000000 0.400000 0.000000
    vertex -0.433013 0.400000 -0.250000
    vertex -0.492404 0.400000 -0.086824
  endloop
endfacet
facet normal -0.130541 0.000000 -0.047513
  outer loop
    vertex -0.433013 -0.400000 -0.250000
    vertex -0.492404 -0.400000 -0.086824
    vertex -0.433013 0.400000 -0.250000
  endloop
endfacet
facet normal -0.130541 0.000000 -0.047513
  outer loop
    vertex -0.492404 -0.400000 -0.086824
    vertex -0.492404 0.400000 -0.086824
    vertex -0.433013 0.400000 -0.250000
  endloop
endfacet
facet normal -0.000000 -0.085505 0.000000
  outer loop
    vertex 0.000000 -0.400000 0.000000
    vertex -0.492404 -0.400000 0.086824
    vertex -0.492404 -0.400000 -0.086824
  endloop
endfacet
facet normal 0.000000 0.085505 0.000000
  outer loop
    vertex 0.000000 0.400000 0.000000
    vertex -0.492404 0.400000 -0.086824
    vertex -0.492404 0.400000 0.086824
  endloop
endfacet
facet normal -0.138919 0.000000 0.000000
  outer loop
    vertex -0.492404 -0.400000 -0.086824
    vertex -0.492404 -0.400000 0.086824
    vertex -0.492404 0.400000 -0.086824
  endloop
endfacet
facet normal -0.138919 0.000000 0.000000
  outer loop
    vertex -0.492404 -0.400000 0.086824
    vertex -0.492404 0.400000 0.086824
    vertex -0.492404 0.400000 -0.086824
  endloop
endfacet
facet normal 0.000000 -0.085505 0.000000
  outer loop
    vertex 0.000000 -0.400000 0.000000
    vertex -0.433013 -0.400000 0.250000
    vertex -0.492404 -0.400000 0.086824
  endloop
endfacet
facet normal 0.000000 0.085505 0.000000
  outer loop
    vertex 0.000000 0.400000 0.000000
    vertex -0.492404 0.400000 0.086824
    vertex -0.433013 0.400000 0.250000
  endloop
endfacet
facet normal -0.130541 0.000000 0.047513
  outer loop
    vertex -0.492404 -0.400000 0.086824
    vertex -0.433013 -0.400000 0.250000
    vertex -0.492404 0.400000 0.086824
  endloop
endfacet
facet normal -0.130541 0.000000 0.047513
  outer loop
    vertex -0.433013 -0.400000 0.250000
    vertex -0.433013 0.400000 0.250000
    vertex -0.492404 0.400000 0.086824
  endloop
endfacet
facet normal 0.000000 -0.085505 0.000000
  outer loop
    vertex 0.000000 -0.400000 0.000000
    vertex -0.321394 -0.400000 0.383022
    vertex -0.433013 -0.400000 0.250000
  endloop
endfacet
facet normal 0.000000 0.085505 0.000000
  outer loop
    vertex 0.000000 0.400000 0.000000
    vertex -0.433013 0.400000 0.250000
    vertex -0.321394 0.400000 0.383022
  endloop
endfacet
facet normal -0.106418 0.000000 0.089295
  outer loop
    vertex -0.433013 -0.400000 0.250000
    vertex -0.321394 -0.400000 0.383022
    vertex -0.433013 0.400000 0.250000
  endloop
endfacet
facet normal -0.106418 0.000000 0.089295
  outer loop
    vertex -0.321394 -0.400000 0.383022
    vertex -0.321394 0.400000 0.383022
    vertex -0.433013 0.400000 0.250000
  endloop
endfacet
facet normal 0.000000 -0.085505 0.000000
  outer loop
    vertex 0.000000 -0.400000 0.000000
    vertex -0.171010 -0.400000 0.469846
    vertex -0.321394 -0.400000 0.383022
  endloop
endfacet
facet normal 0.000000 0.085505 0.000000
  outer loop
    vertex 0.000000 0.400000 0.000000
    vertex -0.321394 0.400000 0.383022
    vertex -0.171010 0.400000 0.469846
  endloop
endfacet
facet normal -0.069459 0.000000 0.120307
  outer loop
    vertex -0.321394 -0.400000 0.383022
    vertex -0.171010 -0.400000 0.469846
    vertex -0.321394 0.400000 0.383022
  endloop
endfacet
facet normal -0.069459 0.000000 0.120307
  outer loop
    vertex -0.171010 -0.400000 0.469846
    vertex -0.171010 0.400000 0.469846
    vertex -0.321394 0.400000 0.383022
  endloop
endfacet
facet normal 0.000000 -0.085505 0.000000
  outer loop
    vertex 0.000000 -0.400000 0.000000
    vertex 0.000000 -0.400000 0.500000
    vertex -0.171010 -0.400000 0.469846
  endloop
endfacet
facet normal 0.000000 0.085505 -0.000000
  outer loop
    vertex 0.000000 0.400000 0.000000
    vertex -0.171010 0.400000 0.469846
    vertex 0.000000 0.400000 0.500000
  endloop
endfacet
facet normal -0.024123 0.000000 0.136808
  outer loop
    vertex -0.171010 -0.400000 0.469846
    vertex 0.000000 -0.400000 0.500000
    vertex -0.171010 0.400000 0.469846
  endloop
endfacet
facet normal -0.024123 0.000000 0.136808
  outer loop
    vertex 0.000000 -0.400000 0.500000
    vertex 0.000000 0.400000 0.500000
    vertex -0.171010 0.400000 0.469846
  endloop
endfacet
endsolid wheelLargeCylinder.stl
